<?xml version="1.0" encoding="utf-8"?>
<!-- Generator: Adobe Illustrator 18.0.0, SVG Export Plug-In . SVG Version: 6.00 Build 0)  -->
<!DOCTYPE svg PUBLIC "-//W3C//DTD SVG 1.1//EN" "http://www.w3.org/Graphics/SVG/1.1/DTD/svg11.dtd">
<svg version="1.1" id="Layer_1" xmlns="http://www.w3.org/2000/svg" xmlns:xlink="http://www.w3.org/1999/xlink" x="0px" y="0px"
	 viewBox="0 0 136.1 16.5" enable-background="new 0 0 136.1 16.5" xml:space="preserve">
<g>
	<g>
		<path fill="#FFFFFF" d="M-73.7-38.9c0,1.3-2,1.3-2,0S-73.7-40.2-73.7-38.9z M-75.3-34.9v12.4h1.2v-12.4H-75.3z"/>
		<path fill="#FFFFFF" d="M-58.7-40v17.5h-1.2v-2.7c-1,1.9-3,2.9-5.1,2.9c-3.4,0-6.2-2.3-6.2-6.4c0-4.1,2.7-6.4,6.2-6.4
			c2.1,0,4.1,0.9,5.1,2.9V-40H-58.7z M-70-28.7c0,3.4,2.3,5.2,5,5.2c2.9,0,5-2.1,5-5.2s-2.2-5.2-5-5.2C-67.8-33.9-70-32.2-70-28.7z"
			/>
		<path fill="#FFFFFF" d="M-55.6-28.7c0-3.7,2.8-6.4,6.3-6.4s6.6,2.1,6.1,6.9h-11.1c0.3,2.9,2.5,4.6,5,4.6c1.6,0,3.5-0.7,4.4-1.9
			l0.9,0.7c-1.2,1.6-3.3,2.4-5.3,2.4C-52.8-22.4-55.6-24.8-55.6-28.7z M-44.3-29.2c0-3-2-4.7-5-4.7c-2.5,0-4.7,1.7-5,4.7H-44.3z"/>
		<path fill="#FFFFFF" d="M-28.2-34.9c0,4.1,0,8.2,0,12.3h-1.2v-2.6c-1.2,1.9-3,2.8-5,2.8c-3.4,0-6.3-2.6-6.3-6.4
			c0-3.8,2.8-6.3,6.3-6.3c2,0,4,0.9,5,2.8v-2.7H-28.2z M-39.5-28.7c0,3.1,2.2,5.2,5,5.2c6.9,0,6.9-10.3,0-10.3
			C-37.3-33.9-39.5-31.8-39.5-28.7z"/>
	</g>
	<g>
		<path fill="none" stroke="#FFFFFF" stroke-miterlimit="10" d="M-34.5,61.5c0-12.8-9.6-23.3-21.4-23.3s-21.4,10.4-21.4,23.3"/>
		<path fill="none" stroke="#FFFFFF" stroke-miterlimit="10" d="M-40.9,8.7c0.5,0.9,0.9,1.8,1.3,2.8c0.6,1.8,1,3.7,1,5.7
			c0,9.5-7.7,17.2-17.2,17.2s-17.2-7.7-17.2-17.2S-65.4,0-55.9,0c3,0,5.9,0.8,8.4,2.2"/>
		<path fill="none" stroke="#FFFFFF" stroke-miterlimit="10" d="M-43.1-4.4c0,0,1.9,4.5,3.1,5.6c1.1,1.1,5.6,3.1,5.6,3.1
			s-4.5,1.9-5.6,3.1c-1.1,1.1-3.1,5.6-3.1,5.6s-1.9-4.5-3.1-5.6c-1.1-1.1-5.6-3.1-5.6-3.1s4.5-1.9,5.6-3.1
			C-45,0.1-43.1-4.4-43.1-4.4z"/>
	</g>
</g>
<g>
	<circle fill="none" stroke="#FFFFFF" stroke-miterlimit="10" cx="8.1" cy="7.8" r="4.2"/>
	<circle fill="none" stroke="#FFFFFF" stroke-miterlimit="10" cx="69" cy="7.8" r="4.2"/>
	<circle fill="none" stroke="#FFFFFF" stroke-miterlimit="10" cx="129.8" cy="7.8" r="4.2"/>
</g>
</svg>
