<?xml version="1.0" encoding="utf-8"?>
<!-- Generator: Adobe Illustrator 18.0.0, SVG Export Plug-In . SVG Version: 6.00 Build 0)  -->
<!DOCTYPE svg PUBLIC "-//W3C//DTD SVG 1.1//EN" "http://www.w3.org/Graphics/SVG/1.1/DTD/svg11.dtd">
<svg version="1.1" id="Layer_1" xmlns="http://www.w3.org/2000/svg" xmlns:xlink="http://www.w3.org/1999/xlink" x="0px" y="0px"
	 viewBox="0 0 118.4 106.8" enable-background="new 0 0 118.4 106.8" xml:space="preserve">
<g>
	<g>
		<path fill="#FFFFFF" d="M3,28.8V11.3h1.2v2.9c1-1.9,2.9-3.1,5.3-3.1c3.3,0.1,6,2.4,6,6.3c0,4.1-2.8,6.4-6.3,6.4
			c-2.1,0-4-1-5.1-3.1v8H3z M14.3,17.5c0-3.5-2.2-5.2-5-5.2c-2.9,0-5,2.2-5,5.2s2.2,5.2,5,5.2C12.1,22.7,14.3,21,14.3,17.5z"/>
		<path fill="#FFFFFF" d="M19.7,11.3l0,2.2c0.8-1.7,2.5-2.3,4.1-2.3c0.9,0,1.8,0.2,2.6,0.7l-0.5,1c-0.6-0.4-1.4-0.6-2.1-0.6
			c-2.3,0-4.1,1.9-4.1,4.1v7.2h-1.2V11.3H19.7z"/>
		<path fill="#FFFFFF" d="M27.8,17.5c0-3.9,2.8-6.4,6.3-6.4s6.3,2.5,6.3,6.4s-2.8,6.3-6.3,6.3S27.8,21.5,27.8,17.5z M39.1,17.5
			c0-3.2-2.3-5.3-5.1-5.3S29,14.3,29,17.5s2.3,5.1,5.1,5.1S39.1,20.7,39.1,17.5z"/>
		<path fill="#FFFFFF" d="M45.7,7.6v3.7h4.2v1h-4.2v7.5c0,1.7,0.3,2.8,2.3,2.8c0.6,0,1.3-0.2,1.9-0.5l0.4,1
			c-0.8,0.4-1.5,0.6-2.3,0.6c-2.6,0-3.5-1.5-3.5-4v-7.5h-2.6v-1h2.6V7.7L45.7,7.6z"/>
		<path fill="#FFFFFF" d="M52.2,17.5c0-3.9,2.8-6.4,6.3-6.4s6.3,2.5,6.3,6.4s-2.8,6.3-6.3,6.3S52.2,21.5,52.2,17.5z M63.5,17.5
			c0-3.2-2.3-5.3-5.1-5.3s-5.1,2.1-5.1,5.3s2.3,5.1,5.1,5.1S63.5,20.7,63.5,17.5z"/>
		<path fill="#FFFFFF" d="M70.1,7.6v3.7h4.2v1h-4.2v7.5c0,1.7,0.4,2.8,2.3,2.8c0.6,0,1.3-0.2,1.9-0.5l0.4,1
			c-0.8,0.4-1.5,0.6-2.3,0.6c-2.6,0-3.5-1.5-3.5-4v-7.5h-2.6v-1h2.6V7.7L70.1,7.6z"/>
		<path fill="#FFFFFF" d="M88,11.3l-7.5,17.5h-1.3l2.3-5.3l-4.9-12.2h1.3l2.9,7.3l1.5,3.6l1.4-3.6l3.1-7.3H88z"/>
		<path fill="#FFFFFF" d="M90.4,28.8V11.3h1.2v2.9c1-1.9,2.9-3.1,5.3-3.1c3.3,0.1,6,2.4,6,6.3c0,4.1-2.8,6.4-6.3,6.4
			c-2.1,0-4-1-5.1-3.1v8H90.4z M101.7,17.5c0-3.5-2.3-5.2-5-5.2c-2.9,0-5,2.2-5,5.2s2.2,5.2,5,5.2C99.4,22.7,101.7,21,101.7,17.5z"
			/>
		<path fill="#FFFFFF" d="M105.2,17.5c0-3.7,2.8-6.4,6.3-6.4c3.5,0,6.6,2.1,6.1,6.9h-11.1c0.3,2.9,2.5,4.6,5,4.6
			c1.6,0,3.5-0.7,4.4-1.9l0.9,0.7c-1.2,1.6-3.3,2.4-5.3,2.4C108,23.9,105.2,21.4,105.2,17.5z M116.5,17c0-3-2-4.7-5-4.7
			c-2.5,0-4.7,1.7-5,4.7H116.5z"/>
	</g>
	<g>
		<path fill="none" stroke="#FFFFFF" stroke-miterlimit="10" d="M76.6,43c0,0,2.4,5.5,3.8,6.9c1.4,1.4,6.9,3.8,6.9,3.8
			s-5.5,2.4-6.9,3.8c-1.4,1.4-3.8,6.9-3.8,6.9s-2.4-5.5-3.8-6.9C71.5,56,66,53.7,66,53.7s5.5-2.4,6.9-3.8C74.2,48.5,76.6,43,76.6,43
			z"/>
		<g>
			<path fill="none" stroke="#FFFFFF" stroke-miterlimit="10" d="M70.2,55.2l-4.8,4.8c-1.5-0.8-3.1-1.5-4.8-1.9v-7.1
				c0-1.8-1.4-3.2-3.2-3.2h-3.2c-1.8,0-3.2,1.4-3.2,3.2V58c-1.9,0.5-3.6,1.2-5.2,2.2l-4.6-4.6c-1.3-1.3-3.3-1.3-4.6,0l-2.3,2.3
				c-1.3,1.3-1.3,3.3,0,4.6l4.7,4.7c-1,1.7-1.7,3.6-2.2,5.6h-6.1c-1.8,0-3.2,1.5-3.2,3.2v3.2c0,1.8,1.4,3.2,3.2,3.2h6.5
				c0.6,2,1.5,3.8,2.6,5.4l-4.4,4.4c-1.3,1.3-1.3,3.3,0,4.6l2.3,2.3c1.3,1.3,3.3,1.3,4.6,0l4.9-4.9c1.7,0.8,3.5,1.4,5.4,1.7v6.8
				c0,1.8,1.4,3.2,3.2,3.2H59c1.8,0,3.2-1.4,3.2-3.2v-7.6c1.6-0.6,3.2-1.4,4.6-2.3L72,98c1.3,1.3,3.3,1.3,4.6,0l2.3-2.3
				c1.3-1.3,1.3-3.3,0-4.6l-5.7-5.7c0.7-1.4,1.2-2.9,1.6-4.5h7.7c1.8,0,3.2-1.4,3.3-3.2v-3.2c0-1.8-1.5-3.2-3.3-3.2h-8.1
				c-0.5-1.6-1.2-3-2-4.4l4-4 M55.8,84.9c-4.5,0-8.1-3.6-8.1-8.1c0-4.5,3.6-8.1,8.1-8.1c4.5,0,8.1,3.6,8.1,8.1
				C63.9,81.3,60.2,84.9,55.8,84.9z"/>
		</g>
	</g>
</g>
</svg>
