<?xml version="1.0" encoding="utf-8"?>
<!-- Generator: Adobe Illustrator 17.0.0, SVG Export Plug-In . SVG Version: 6.00 Build 0)  -->
<!DOCTYPE svg PUBLIC "-//W3C//DTD SVG 1.1//EN" "http://www.w3.org/Graphics/SVG/1.1/DTD/svg11.dtd">
<svg version="1.1" id="Layer_1" xmlns="http://www.w3.org/2000/svg" xmlns:xlink="http://www.w3.org/1999/xlink" x="0px" y="0px"
	 width="1920px" height="1080px" viewBox="0 0 1920 1080" enable-background="new 0 0 1920 1080" xml:space="preserve">
<path fill="#00B4CC" d="M1484.571,902.571l-177.429-177.429c46.286-69.429,69.429-154.286,69.429-239.143
	c0-246.857-200.572-447.429-447.429-447.429S474,231.429,474,478.286s200.571,447.429,447.429,447.429
	c92.571,0,169.714-23.143,239.143-69.429L1338,1033.714c15.429,15.429,30.857,15.429,46.286,0l92.571-92.571
	C1492.286,933.429,1492.286,918,1484.571,902.571z M929.143,802.286c-177.429,0-324-146.571-324-324S751.714,162,929.143,162
	s324,146.571,324,324S1106.571,802.286,929.143,802.286z"/>
</svg>
