<?xml version="1.0" encoding="utf-8"?>
<!-- Generator: Adobe Illustrator 18.0.0, SVG Export Plug-In . SVG Version: 6.00 Build 0)  -->
<!DOCTYPE svg PUBLIC "-//W3C//DTD SVG 1.1//EN" "http://www.w3.org/Graphics/SVG/1.1/DTD/svg11.dtd">
<svg version="1.1" id="Layer_1" xmlns="http://www.w3.org/2000/svg" xmlns:xlink="http://www.w3.org/1999/xlink" x="0px" y="0px"
	 viewBox="0 0 150 150" enable-background="new 0 0 150 150" xml:space="preserve">
<rect y="-1" fill="#29ABE2" width="151" height="151"/>
<path id="Twitter__x28_alt_x29__1_" fill="#FFFFFF" d="M107.7,72.2c4.8-0.4,8.1-2.6,9.3-5.6c-1.7,1.1-7.1,2.2-10.1,1.1
	c-0.1-0.7-0.3-1.4-0.5-2c-2.3-8.4-10.1-15.1-18.2-14.3c0.7-0.3,1.3-0.5,2-0.7c0.9-0.3,6.2-1.2,5.3-3c-0.7-1.6-7.1,1.2-8.3,1.6
	c1.6-0.6,4.2-1.6,4.5-3.5c-2.5,0.3-4.9,1.5-6.7,3.2c0.7-0.7,1.2-1.6,1.3-2.6C79.8,50.7,76,59.1,72.9,67.3c-2.4-2.4-4.6-4.2-6.5-5.2
	c-5.4-2.9-11.9-5.9-22-9.7c-0.3,3.4,1.7,7.8,7.3,10.8c-1.2-0.2-3.5,0.2-5.3,0.6c0.7,3.9,3.1,7,9.6,8.6c-3,0.2-4.5,0.9-5.9,2.3
	c1.4,2.7,4.6,5.8,10.6,5.2c-6.6,2.8-2.7,8.1,2.7,7.3c-9.1,9.4-23.6,8.8-31.8,0.8c21.6,29.5,68.6,17.4,75.6-11
	c5.3,0.1,8.3-1.8,10.3-3.9C114.4,73.7,110,73.2,107.7,72.2z"/>
</svg>
