<?xml version="1.0" encoding="utf-8"?>
<!-- Generator: Adobe Illustrator 18.0.0, SVG Export Plug-In . SVG Version: 6.00 Build 0)  -->
<!DOCTYPE svg PUBLIC "-//W3C//DTD SVG 1.1//EN" "http://www.w3.org/Graphics/SVG/1.1/DTD/svg11.dtd">
<svg version="1.1" id="Layer_1" xmlns="http://www.w3.org/2000/svg" xmlns:xlink="http://www.w3.org/1999/xlink" x="0px" y="0px"
	 viewBox="0 0 150 150" enable-background="new 0 0 150 150" xml:space="preserve">
<rect x="963" y="4556" fill="#005F6B" width="51" height="51"/>
<g>
	<path fill="#FFFFFF" d="M995.2,4573.3c1.8,0,2.8,1.1,2.8,3.1c0,0.1,0,0.3,0,0.4c-0.1,1.7-1.4,4.1-3.9,7.1c-2.6,3.1-4.8,4.7-6.6,4.7
		c-1.1,0-2-1-2.8-2.9l-0.8-2.6l-0.8-2.6c-0.6-1.9-1.2-2.8-1.8-2.8c-0.1,0-0.6,0.3-1.5,0.8l-0.9-1.1l1.4-1.2l1.4-1.1
		c1.2-1,2.2-1.5,2.8-1.6c0.1,0,0.2,0,0.3,0c1.3,0,2.1,0.9,2.5,2.8c0.2,1.1,0.3,2,0.5,2.6c0.1,0.7,0.2,1.1,0.3,1.4
		c0.4,1.8,0.9,2.7,1.4,2.7c0.4,0,1-0.6,1.8-1.8c0.8-1.2,1.2-2.1,1.3-2.7c0-0.1,0-0.2,0-0.3c0-0.8-0.4-1.2-1.3-1.2
		c-0.4,0-0.9,0.1-1.4,0.3c0.9-2.8,2.6-4.1,5.1-4.1H995.2z M995.2,4573.3"/>
</g>
<rect x="-2" y="-1" fill="#005F6B" width="153" height="153"/>
<g>
	<path fill="#FFFFFF" d="M94.7,51c5.5,0.1,8.3,3.3,8.3,9.4c0,0.4,0,0.8,0,1.3c-0.2,5.2-4.1,12.3-11.6,21.2
		C83.6,92.3,77.1,97,71.7,97c-3.4,0-6.1-2.9-8.4-8.6l-2.4-7.9l-2.3-7.9c-1.7-5.7-3.5-8.6-5.5-8.6c-0.4,0-1.9,0.8-4.5,2.5L46,63.4
		l4.2-3.5l4.1-3.4c3.7-3,6.5-4.6,8.4-4.8c0.3,0,0.5,0,0.8,0c4,0,6.4,2.8,7.4,8.6c0.5,3.2,1,5.9,1.4,7.9c0.3,2,0.6,3.4,0.9,4.3
		c1.3,5.4,2.7,8.1,4.2,8.1c1.2,0,3-1.8,5.4-5.3c2.4-3.6,3.6-6.3,3.8-8c0-0.4,0.1-0.7,0.1-1c0-2.4-1.3-3.5-3.9-3.5
		c-1.3,0-2.7,0.3-4.2,0.8C81.3,55.2,86.5,51,94.1,51H94.7z M94.7,51"/>
</g>
</svg>
