<?xml version="1.0" encoding="utf-8"?>
<!-- Generator: Adobe Illustrator 18.0.0, SVG Export Plug-In . SVG Version: 6.00 Build 0)  -->
<!DOCTYPE svg PUBLIC "-//W3C//DTD SVG 1.1//EN" "http://www.w3.org/Graphics/SVG/1.1/DTD/svg11.dtd">
<svg version="1.1" xmlns="http://www.w3.org/2000/svg" xmlns:xlink="http://www.w3.org/1999/xlink" x="0px" y="0px"
	 viewBox="0 0 220 100" enable-background="new 0 0 220 100" xml:space="preserve">
<g id="Layer_1">
</g>
<g id="Layer_2">
	<g>
		<path fill="#FFFFFF" d="M51.1,32.9c0-3.5,0-6.9,0-10.4c0-0.7,0.1-0.9,0.9-0.9c29.8,0,59.7,0,89.5,0c10.9,0,21.7,0,32.6,0
			c0.7,0,0.9,0.1,0.9,0.9c0,16.4,0,32.8,0,49.2c-0.1,0-0.1,0-0.2,0c-0.4-0.8-1.1-0.8-1.8-0.8c-2.6-0.2-3.1-0.7-3.3-3.3
			c0-0.3,0-0.6,0-0.9c0-6,0-12.1,0-18.1c0-2.5-0.1-5-0.5-7.5c-0.7-3.9-2.6-6.8-6.2-8.5c-2.9-1.4-5.9-1.8-9.1-1.9
			c-4.7-0.2-9.5,0.1-14.2,0.9c-1.9,0.3-3.8,0.6-5.6,1.5c-1.3,0.7-1.6,1.4-1.3,2.8c0.2,0.9,0.4,1.8,0.7,2.7c0.5,1.9,0.6,1.9,2.5,1.7
			c3.9-0.4,7.7-0.7,11.6-0.9c2.4-0.1,4.8-0.1,7.2,0.5c2.2,0.6,3.7,1.9,4.1,4.3c0.3,1.4,0.2,2.9,0.3,4.3c0,0.8-0.2,1.1-1.1,1.1
			c-3.7-0.1-7.4,0-11.1,0c-2.4,0-4.8,0.2-7.2,0.7c-5,1.2-8.7,3.9-10.1,9.1c-0.9,3.3-0.9,6.7-0.4,10.1c0.7,4.8,3.3,7.9,8.1,9.1
			c0.8,0.2,1.6,0.1,2.3,0.5c-29.1,0-58.2,0-87.3,0c-1.4,0-1.4,0-1.4-1.4c0-0.2,0-0.4,0-0.5c0.6,0.9,1.5,1.1,2.6,1.1
			c1.9-0.1,3.8,0,5.7,0c2,0,2.3-0.3,2.3-2.3c0-10.3,0-20.7,0-31c0-3.8,0-7.7,0-11.5c0-1.3-0.4-1.9-1.6-1.9c-2.3,0-4.7,0-7,0
			c-0.8,0-1.6,0.3-1.7,1.2C51.2,32.9,51.1,32.9,51.1,32.9z M87.4,46.8c-1.2-1.8-2.3-3.5-3.4-5.2c-1.9-3-3.9-5.9-5.8-8.9
			c-0.4-0.6-0.9-1.1-1.6-1.1c-2.9,0-5.8,0-8.6,0c-1.1,0-1.5,0.9-1,1.8c0.1,0.3,0.3,0.5,0.5,0.8c4.4,6.5,8.8,13,13.3,19.4
			c0.4,0.6,0.4,1.1,0,1.7c-2.6,3.7-5.2,7.5-7.8,11.2c-2.2,3.2-4.4,6.4-6.6,9.6c-0.4,0.5-0.6,1.1-0.3,1.7c0.3,0.7,0.9,0.5,1.5,0.5
			c2.4,0,4.9-0.1,7.3,0c1.5,0,2.5-0.6,3.3-1.8c2.8-4.5,5.8-9,8.6-13.5c0.5-0.8,0.7-0.8,1.2,0c2.9,4.6,5.9,9.2,8.9,13.9
			c0.5,0.8,1,1.4,2,1.4c2.9,0,5.9,0,8.8,0c1,0,1.4-0.7,1.1-1.6c-0.1-0.4-0.4-0.7-0.6-1c-4.7-6.7-9.3-13.5-14-20.1
			c-0.6-0.8-0.6-1.3,0-2.1c4.5-6.4,9-12.9,13.5-19.3c0.4-0.6,1-1.3,0.6-2c-0.4-0.7-1.2-0.5-1.9-0.5c-2.2,0-4.4,0.1-6.6,0
			c-1.9-0.1-3,0.6-3.9,2.1C93.1,38.1,90.3,42.4,87.4,46.8z M113.4,55.1c0,7.1,0,14.2,0,21.2c0,1.6,0.5,2.1,2.1,2.1c2,0,4.1,0,6.1,0
			c1.9,0,2.3-0.4,2.3-2.3c0-4.3,0-8.5,0-12.8c0-9.8,0-19.5,0-29.3c0-1.9-0.4-2.3-2.3-2.3c-1.9,0-3.9,0-5.8,0c-1.8,0-2.3,0.5-2.3,2.4
			C113.4,41,113.4,48.1,113.4,55.1z M59.5,21.8c-1.3,0-2.6,0-3.9,0c-0.7,0-1.3,0.3-1.7,0.9c-0.7,1-1.4,2-2,3
			c-0.5,0.8-0.4,1.1,0.6,1.1c2.6,0,5.2,0,7.9,0c0.7,0,1.3-0.3,1.7-0.9c0.7-1,1.4-2.1,2.1-3.1c0.4-0.7,0.2-1-0.6-1
			C62.2,21.8,60.9,21.8,59.5,21.8z M121.8,21.8c-1.3,0-2.5,0-3.8,0c-0.9,0-1.5,0.3-2,1.1c-0.6,0.9-1.2,1.8-1.8,2.8
			c-0.6,0.9-0.4,1.1,0.6,1.2c2.6,0,5.2,0,7.9,0c0.7,0,1.3-0.3,1.7-0.8c0.7-1,1.4-2.1,2.1-3.1c0.5-0.7,0.2-1-0.6-1
			C124.4,21.9,123.1,21.8,121.8,21.8z"/>
		<path fill="#060606" d="M139.7,79.3c-0.7-0.4-1.6-0.3-2.3-0.5c-4.8-1.2-7.4-4.3-8.1-9.1c-0.5-3.4-0.5-6.8,0.4-10.1
			c1.4-5.2,5.1-7.9,10.1-9.1c2.4-0.6,4.7-0.7,7.2-0.7c3.7,0,7.4,0,11.1,0c0.9,0,1.1-0.3,1.1-1.1c-0.1-1.4,0-2.9-0.3-4.3
			c-0.4-2.3-1.9-3.7-4.1-4.3c-2.3-0.6-4.8-0.6-7.2-0.5c-3.9,0.1-7.7,0.4-11.6,0.9c-1.9,0.2-2,0.1-2.5-1.7c-0.2-0.9-0.5-1.8-0.7-2.7
			c-0.4-1.4-0.1-2.1,1.3-2.8c1.7-0.9,3.7-1.2,5.6-1.5c4.7-0.7,9.4-1.1,14.2-0.9c3.1,0.1,6.2,0.6,9.1,1.9c3.6,1.7,5.6,4.6,6.2,8.5
			c0.4,2.5,0.5,5,0.5,7.5c0,6,0,12.1,0,18.1c0,0.3,0,0.6,0,0.9c0.2,2.6,0.7,3,3.3,3.3c0.7,0.1,1.5,0,1.8,0.8c0,1.7,0,3.5,0,5.2
			c-0.2,1-1,1.3-1.8,1.4c-1.7,0.3-3.5,0.6-5.2,0.5c-4.6-0.1-6.7-1.6-7.8-5.4c0-0.1,0-0.4-0.2-0.4c-0.2,0.1-0.4,0.3-0.6,0.4
			c-3.6,2.5-7.5,4.3-11.9,5.3c-1,0.2-2.1,0.1-3.1,0.5C142.6,79.3,141.2,79.3,139.7,79.3z M152.2,57.2
			C152.2,57.2,152.2,57.2,152.2,57.2c-2,0-4.1,0-6.1,0.1c-3.1,0.1-5.2,1.7-6,4.3c-0.5,1.8-0.5,3.6-0.3,5.3c0.2,2,1.3,3.1,3.1,3.5
			c1.3,0.3,2.6,0.3,3.9,0.2c4.2-0.5,8-2.2,11.7-4.1c0.4-0.2,0.5-0.5,0.5-0.9c0-2.5,0-5.1,0-7.6c0-0.6-0.2-0.7-0.7-0.7
			C156.2,57.2,154.2,57.2,152.2,57.2z"/>
		<path fill="#020202" d="M51.3,32.9c0.2-1,0.9-1.2,1.7-1.2c2.3,0,4.7,0,7,0c1.2,0,1.6,0.6,1.6,1.9c0,3.8,0,7.7,0,11.5
			c0,10.3,0,20.7,0,31c0,2-0.3,2.3-2.3,2.3c-1.9,0-3.8,0-5.7,0c-1.1,0-2-0.2-2.6-1.1c0-0.1,0-0.1,0-0.2c0.3-0.2,0.2-0.5,0.2-0.8
			C51.3,61.8,51.3,47.3,51.3,32.9z"/>
		<path fill="#FFFFFF" d="M144.1,79.3c1-0.4,2.1-0.3,3.1-0.5c4.3-0.9,8.3-2.7,11.9-5.3c0.2-0.1,0.4-0.3,0.6-0.4
			c0.3,0.1,0.2,0.3,0.2,0.4c1.1,3.8,3.3,5.3,7.8,5.4c1.8,0,3.5-0.2,5.2-0.5c0.8-0.2,1.6-0.5,1.8-1.4l0.1,0l0.1,0
			c0,0.8,0.3,1.9-0.1,2.3c-0.4,0.4-1.5,0.1-2.3,0.1C163,79.3,153.5,79.3,144.1,79.3z"/>
		<path fill="#686665" d="M51.3,32.9c0,14.5,0,29,0,43.5c0,0.3,0.1,0.6-0.2,0.8c0-14.7,0-29.5,0-44.2C51.1,32.9,51.2,32.9,51.3,32.9
			z"/>
		<path fill="#686665" d="M174.9,76.9l-0.1,0l-0.1,0c0-1.7,0-3.5,0-5.2c0.1,0,0.1,0,0.2,0C174.9,73.4,174.9,75.2,174.9,76.9z"/>
		<path fill="#060606" d="M87.4,46.8c2.8-4.4,5.7-8.7,8.4-13.1c1-1.6,2.1-2.3,3.9-2.1c2.2,0.2,4.4,0,6.6,0c0.7,0,1.5-0.2,1.9,0.5
			c0.4,0.8-0.1,1.4-0.6,2c-4.5,6.4-9,12.9-13.5,19.3c-0.6,0.8-0.6,1.3,0,2.1c4.7,6.7,9.3,13.4,14,20.1c0.2,0.3,0.5,0.7,0.6,1
			c0.4,0.9-0.1,1.6-1.1,1.6c-2.9,0-5.9,0-8.8,0c-1,0-1.5-0.7-2-1.4c-3-4.6-5.9-9.2-8.9-13.9c-0.5-0.8-0.7-0.8-1.2,0
			c-2.8,4.5-5.8,9-8.6,13.5c-0.8,1.2-1.7,1.9-3.3,1.8c-2.4-0.1-4.9,0-7.3,0c-0.6,0-1.2,0.1-1.5-0.5c-0.3-0.6,0-1.2,0.3-1.7
			c2.2-3.2,4.4-6.4,6.6-9.6c2.6-3.7,5.2-7.5,7.8-11.2c0.4-0.6,0.5-1,0-1.7c-4.5-6.5-8.9-13-13.3-19.4c-0.2-0.3-0.4-0.5-0.5-0.8
			c-0.5-1-0.1-1.8,1-1.8c2.9-0.1,5.8,0,8.6,0c0.8,0,1.3,0.5,1.6,1.1c1.9,3,3.9,5.9,5.8,8.9C85.2,43.3,86.3,45,87.4,46.8z"/>
		<path fill="#060606" d="M113.4,55.1c0-7,0-14.1,0-21.1c0-1.9,0.5-2.4,2.3-2.4c1.9,0,3.9,0,5.8,0c1.9,0,2.3,0.4,2.3,2.3
			c0,9.8,0,19.5,0,29.3c0,4.3,0,8.5,0,12.8c0,1.9-0.4,2.3-2.3,2.3c-2,0-4.1,0-6.1,0c-1.5,0-2.1-0.5-2.1-2.1
			C113.4,69.2,113.4,62.2,113.4,55.1z"/>
		<path fill="#E2223B" d="M59.5,21.8c1.4,0,2.7,0,4.1,0c0.8,0,1,0.3,0.6,1c-0.7,1-1.4,2.1-2.1,3.1c-0.4,0.6-1,0.9-1.7,0.9
			c-2.6,0-5.2,0-7.9,0c-1,0-1.1-0.3-0.6-1.1c0.7-1,1.3-2,2-3c0.4-0.6,1-0.9,1.7-0.9C56.9,21.8,58.2,21.8,59.5,21.8z"/>
		<path fill="#00A3C1" d="M121.8,21.8c1.3,0,2.7,0,4,0c0.8,0,1.1,0.3,0.6,1c-0.7,1.1-1.4,2.1-2.1,3.1c-0.4,0.6-0.9,0.8-1.7,0.8
			c-2.6,0-5.2,0-7.9,0c-1,0-1.2-0.3-0.6-1.2c0.6-0.9,1.2-1.8,1.8-2.8c0.5-0.7,1.1-1.1,2-1.1C119.2,21.9,120.5,21.8,121.8,21.8z"/>
		<path fill="#FFFFFF" d="M152.2,57.2c2,0,4,0,6,0c0.5,0,0.7,0.1,0.7,0.7c0,2.5,0,5.1,0,7.6c0,0.5-0.1,0.7-0.5,0.9
			c-3.7,1.9-7.5,3.6-11.7,4.1c-1.3,0.2-2.6,0.1-3.9-0.2c-1.9-0.4-2.9-1.4-3.1-3.5c-0.2-1.8-0.2-3.6,0.3-5.3c0.8-2.6,2.9-4.2,6-4.3
			C148.1,57.2,150.2,57.2,152.2,57.2C152.2,57.2,152.2,57.2,152.2,57.2z"/>
	</g>
</g>
</svg>
