<?xml version="1.0" encoding="utf-8"?>
<!-- Generator: Adobe Illustrator 18.0.0, SVG Export Plug-In . SVG Version: 6.00 Build 0)  -->
<!DOCTYPE svg PUBLIC "-//W3C//DTD SVG 1.1//EN" "http://www.w3.org/Graphics/SVG/1.1/DTD/svg11.dtd">
<svg version="1.1" xmlns="http://www.w3.org/2000/svg" xmlns:xlink="http://www.w3.org/1999/xlink" x="0px" y="0px"
	 viewBox="0 0 100 100" enable-background="new 0 0 100 100" xml:space="preserve">
<g id="Layer_1">
</g>
<g id="Layer_2">
	<g>
		<path fill="#004FA3" d="M97,18.3c-0.3,0.4-4.7,1.7-5.9,2.7c0,0-0.8,0.7-1,0.7c0,0-0.1,0.1-0.3,0.3c0,0-3.2,1.4-4.6,2.2
			C84.2,24.6,82,26,80.9,27l0,0.3l-0.3,0c-0.7,0.2-0.5,0.4-0.6,0.4c-0.3-0.1-0.5,0.9-1.1,0.8c-0.3-0.1-1.8,1.2-1.8,1.3v0.2
			c0.3,0,0.5-0.1,0.8-0.2c0,0-6.3,3.7-7.2,4.1c-3.1,1.6-3.1,1.8-3.5,1.8c-1.8,0.2-3.3,1.4-3.5,1.4c0,0-1.9,1.3-2.3,1.3
			c0,0-1.7,0.7-2.2,0.6c0,0-0.1,0-0.2-0.1c-1.8-0.3-1.6,0.3-2.1,0.2c-0.2,0-0.1-0.2-0.4-0.3c-0.5-0.1-0.7-0.1-1.1-0.2
			c0,0,2.6-4.3,3-4.2c0,0,1-1,2.8-2.2c2.6-1.7,2.6-1.8,2.9-1.9c5.1-3.1,5.3-3,5.8-3.4c2.3-1.5,10.7-4.7,11.3-5v0.2
			c0,0,0.5,0,1.7-0.5c0-0.1,0-0.1-0.1-0.2c0.2,0.1,0.3,0,0.4,0c0.3,0.1,2.1-0.7,2.1-0.7c0.1,0,0.2,0.1,0.3-0.3c0.2,0.1,0,0,0.2,0.1
			c0.1,0,0.7,0,1.3-0.4c0.2,0.1,0.1,0,0.2,0.1c0.2-0.1,0.3-0.1,0.5-0.1c0.1,0,3.9-0.7,4.1-0.7C92.8,19,96.6,18.5,97,18.3"/>
		<path fill="#FFE152" d="M74.4,36.5c0,0.1,0.1,0.1,0.2,0.2c-0.3,1.3-1.7,2.2-1.9,2.3v0.2h0.4c-0.3,0.1-2.3,1.7-2.5,2
			c0,0-1.5,0.8-2.3,1.1c-0.5,0.2-3,1.6-3.6,1.6c0,0-1.2,0.6-1.3,0.6c-0.3,0-9,4.9-11.7,5h-0.6c0,0,0,0-0.2,0.2v-0.2
			c-0.5,0-1,0-1.3,0L49,49.4c0.4-0.2,0.1-0.1,0.5-0.4c-0.1-0.1-0.1-0.1-0.3-0.1c1-0.2,0.9-2.8,4.6-5.5c2.6-1.9,4.8-2.9,6-3.6
			c5.4-3,10-3.2,12.9-3.2c0,0,0.3,0.2,0.7,0v0.5c0.1-0.1,0.7-0.4,0.8-0.4L74.4,36.5z"/>
		<path fill="#EF3E42" d="M68.5,44.8l0.1,0.1c-3,0.8-3.5,3.5-3.5,3.5s-0.9,0.4-1,0.5c-0.3,0.3-0.3,0.9-0.9,1.2
			c-0.3,0.2-1.5,1.4-4.4,3.5c-0.9,0.7-1.9,1.5-2.1,1.5c0,0-0.7,0.9-1.1,0.9c0,0-0.8,0.9-1.7,1.8c-0.1,0-1.4,1.6-1.4,2.1l0.3,1.1
			c0,0.4-0.4,0.6-0.4,1c0,0.1,0.2,0.4,0.2,0.6c0,0.1-0.9,0.9-0.9,1.5c0,0.1-0.1,0.3,0,0.8c-1.8,0-1,0.2-1.9,0.2
			c-0.3,0-1.6-0.7-1.9-0.7c0,0-0.7-1-1.8-1c-0.9,0-0.1-0.6-0.8-0.6h-1.2c0,0-0.9-1.1-1.7-1.9c0.1,0,0.2-0.1,0.2,0c0,0,0-0.1,0.3,0
			c0,0,0,0,0.1,0l0-0.1c0.6,0,1.7,0,2.1,0c0.7,0,2.2,0.2,2.2,0.2h0.2c0,0,0.5,0,0.5,0c0.7,0,2.5,0.4,2.7,0.3c-0.2,0-1.5-0.3-2-0.4
			c-0.1,0-1.9-0.4-2-0.4c0,0-0.1,0-0.2-0.1l0,0c-0.3,0-0.5-0.1-0.6-0.1l0,0c-0.1,0.1-0.1,0-0.2,0c0,0-0.8-0.1-0.9-0.2
			c0,0-0.1,0-0.1-0.1v0.1c-0.6-0.1-0.7-0.2-0.7-0.2l0-0.1c-0.2,0-2.9-0.5-4.4-0.6c-0.2-0.1-0.4-0.2-0.6-0.3
			c-0.7-0.4-1.5-0.8-2.3-1.2c0.1,0,0.2-0.1,0.3,0c0,0,0-0.1,0.3,0c0,0,0,0,0.1,0l0-0.1c0.6,0,1.7,0,2.1,0c0.7,0,2.2,0.2,2.2,0.2h0.2
			c0,0,0.5,0,0.5,0c0.7,0,2.5,0.4,2.8,0.3c-0.2,0-1.5-0.3-2-0.4c0,0-1.9-0.4-1.9-0.5c0,0-0.1,0-0.2,0l0,0c-0.3,0-0.6-0.1-0.6-0.1
			l0,0c-0.1,0.1-0.1,0-0.1,0c0,0-0.8-0.1-0.9-0.2c-0.1,0-0.1,0-0.1-0.1v0.1c-0.6-0.1-0.7-0.2-0.7-0.2l0-0.1c-0.3,0-4.1-0.7-5.2-0.7
			c-0.2,0-0.3,0-1,0c-0.7-0.3-1.6-0.6-2.5-1l0.1,0c-0.1,0-0.2,0-0.3-0.1l0,0c0,0,0.8-0.1,0.9,0c0.2,0.1,0.4-0.1,0.5,0
			c0,0,0-0.1,0.3,0c0,0,0,0,0.1,0l0-0.1c0.6,0,1.7,0,2.1,0c0.7,0.1,2.2,0.2,2.2,0.2h0.2c0,0,0.5,0,0.5,0c0.7,0,2.5,0.4,2.7,0.3
			c-0.2,0-1.5-0.3-2-0.4c-0.1,0-1.9-0.4-2-0.4c0,0-0.1,0-0.2,0l0,0c-0.3,0-0.5-0.1-0.6-0.1l0,0c-0.1,0.1-0.1,0-0.2,0
			c0,0-0.8-0.1-0.9-0.2c0,0-0.1,0-0.1-0.1v0.1c-0.6-0.1-0.7-0.2-0.7-0.2l0-0.1c-0.3,0-4.1-0.7-5.2-0.7c-0.3,0-0.3,0-2.8,0H23
			c-0.2,0-0.4,0-0.6,0c-0.2-0.1-0.4-0.3-0.7-0.3c0,0-1-0.2-2.4-0.7c2-0.1,3.4-0.4,4.3-0.4c0,0,2-0.5,3.3-0.6
			c2.3-0.3,6.1,0.3,6.1,0.3c0.6-0.1,4.7,0.6,7.1,1.5c4,1.5,3.7,2.1,6.4,3.6c2.7-2.9,5-4.4,5.7-4.9c0.3-0.2,5.7-3.4,6.4-3.4
			c0,0,1.3-0.7,1.9-0.7c0,0,0.5-0.3,1.1-0.3c0.1,0,0.9-0.3,1.8-0.3h0.6c0,0,0.3-0.3,1.1-0.2L68.5,44.8z"/>
		<path fill="#004FA3" d="M26.7,42.8l0.1,0.3h0.6L26.7,42.8z M7.6,46.6l-0.5-0.3l-0.4,0.3c0.2,0,0.4,0,0.5,0
			C7.3,46.5,7.4,46.5,7.6,46.6 M4,43.5l-0.2,0.7l0.6-0.4l0.6,0.4l-0.2-0.7l0.6-0.4H4.5l-0.2-0.7l-0.2,0.7H3.4L4,43.5z M9.5,43.5
			l-0.2,0.7l0.6-0.4l0.6,0.4l-0.2-0.7l0.6-0.4h-0.7l-0.2-0.7l-0.2,0.7H8.9L9.5,43.5z M15.1,43.5l-0.2,0.7l0.6-0.4l0.6,0.4l-0.2-0.7
			l0.6-0.4h-0.7l-0.2-0.7l-0.2,0.7h-0.7L15.1,43.5z M20.6,43.5l-0.2,0.7l0.6-0.4l0.6,0.4l-0.2-0.7l0.6-0.4h-0.7L21,42.4l-0.2,0.7
			h-0.7L20.6,43.5z M26.2,48.4l-0.2,0.7l0.6-0.4l0.6,0.4l-0.2-0.7l0.6-0.4h-0.7l-0.2-0.7L26.3,48h-0.7L26.2,48.4z M31.7,48.4
			l-0.2,0.7l0.6-0.4l0.6,0.4l-0.2-0.7l0.6-0.4h-0.7l-0.2-0.7L31.9,48h-0.7L31.7,48.4z M12.3,45.9l-0.2,0.7l0.6-0.4l0.6,0.4L13,45.9
			l0.6-0.4h-0.7l-0.2-0.7l-0.2,0.7h-0.7L12.3,45.9z M17.9,45.9l-0.2,0.7l0.6-0.4l0.6,0.4l-0.2-0.7l0.6-0.4h-0.7l-0.2-0.7L18,45.5
			h-0.7L17.9,45.9z M23.4,45.9l-0.2,0.7l0.6-0.4l0.6,0.4l-0.2-0.7l0.6-0.4H24l-0.2-0.7l-0.2,0.7h-0.7L23.4,45.9z M28.9,45.9
			l-0.2,0.7l0.6-0.4l0.6,0.4l-0.2-0.7l0.6-0.4h-0.7l-0.2-0.7l-0.2,0.7h-0.7L28.9,45.9z M6.4,39.5c0,0.5,0.2,0.9,0.3,1.1H6.2L6.7,41
			l-0.2,0.7l0.6-0.4l0.6,0.4L7.4,41l0.1,0l0,0c0.1,0,1.4-1,3.6-1c0.6,0,1.1,0,1.6,0l-0.2,0.6h-0.7l0.6,0.4l-0.2,0.7l0.6-0.4l0.6,0.4
			L13,41l0.6-0.4h-0.7L12.7,40c0.7,0,1.4,0,2.2,0c0,0,1.6,0.4,2.9,0.6h-0.5l0.6,0.4l-0.2,0.7l0.6-0.4l0.6,0.4L18.6,41l0.4-0.3
			c0.4,0.1,1.7,0.4,1.8,0.4c1,0,2.5,0.6,3.2,0.6l2.4,1l-0.1,0.4h-0.7l0.6,0.4l-0.2,0.7l0.6-0.4l0.6,0.4l-0.2-0.7l0.5-0.3l1.6,0.6
			c0.2,0,0.3,0.4,0.7,0.4c0.8,0,3,2.4,3,2.4c0.7,0.4,1.2,0.5,1.2,0.5c0,0,0.2,1.1,0.8,1.8c-0.2,0.1-0.3,0.4-0.3,0.5
			c0,0,0.2,0.4,0.2,0.6c0,0-0.1,0,0,0.2c-1-0.3-0.7,0-0.8,0c0,0,0.1-0.3-1.1-0.3h-5.8c0,0-3-0.6-5.7-1.2l-0.1-0.2l0.6-0.4h-0.7
			L21,47.3L20.8,48h-0.7l0.6,0.4l0,0c-1.8-0.3-3.3-0.6-3.5-0.6c0,0-3.4-0.7-4.5-0.7c0,0-0.9-0.2-1.9-0.2H9.5c0,0-1.1-0.2-1.9-0.3
			l-0.2-0.6L8,45.5H7.3l-0.2-0.7l-0.2,0.7H6.2l0.6,0.4l-0.2,0.5c-1.5-0.3-3.7-1.3-3.7-3v-0.4c0-0.4-0.3-0.3-0.3-0.7
			c0,0,0.3-1.3,1.4-1.3c0.6,0,0.7-0.8,1.2-1.2C5.2,40,5.7,40.1,6.4,39.5"/>
		<polygon fill="#FFFFFF" points="12.3,41 11.7,40.6 12.4,40.6 12.7,39.9 12.9,40.6 13.6,40.6 13,41 13.2,41.7 12.7,41.3 12.1,41.7 
					"/>
		<path fill="#004FA3" d="M96.8,67.3h-0.6v4.3l-2.9-4.3h-0.7v5.3h0.7v-4.3l2.9,4.3h0.7V67.3z M89.8,70.5h-1.7l0.9-2.4L89.8,70.5z
			 M90,71.1l0.6,1.5h0.7l-2-5.3h-0.7l-2,5.3h0.7l0.6-1.5H90z M85.7,70.9h-0.7c-0.3,0.7-1,1.1-1.8,1.1c-1.1,0-2-1-2-2.1
			c0-1.2,0.9-2.1,2-2.1c0.9,0,1.5,0.5,1.8,1.1h0.7c-0.3-1.1-1.2-1.8-2.4-1.8c-1.5,0-2.6,1.2-2.6,2.8c0,1.5,1.2,2.8,2.6,2.8
			C84.4,72.7,85.4,72,85.7,70.9 M79.1,67.3h-0.7v5.3h0.7V67.3z M73.4,69.9v-2h1.7c0.7,0,1.1,0.3,1.1,1c0,0.6-0.4,1-1,1H73.4z
			 M76.6,72v-0.7c0-0.5-0.2-0.9-0.6-1.1c0.5-0.3,0.7-0.7,0.7-1.3c0-0.9-0.6-1.6-1.7-1.6h-2.4v5.3h0.7v-2.1h1.7
			c0.6,0,0.9,0.3,0.9,0.8v0.7c0,0.2,0,0.4,0.1,0.6h0.7C76.7,72.5,76.6,72.2,76.6,72 M67.4,67.3v5.3h3.8V72H68v-1.8h2.8v-0.6H68v-1.6
			h3.1v-0.6H67.4z M65.5,67.3h-1L63,71.8l-1.6-4.5h-1v5.3h0.7v-4.5l1.6,4.5h0.7l1.6-4.5v4.5h0.7V67.3z M57.7,70.5H56l0.9-2.4
			L57.7,70.5z M57.9,71.1l0.6,1.5h0.7l-2-5.3h-0.7l-2,5.3h0.7l0.6-1.5H57.9z M51.2,70.2h-2.1v0.6h2.1V70.2z M45.3,67.3h-0.6v4.3
			l-2.9-4.3h-0.7v5.3h0.7v-4.3l2.9,4.3h0.7V67.3z M38.3,70.5h-1.7l0.9-2.4L38.3,70.5z M38.5,71.1l0.6,1.5h0.7l-2-5.3h-0.7l-2,5.3
			h0.7l0.6-1.5H38.5z M33.8,67.3h-0.7v5.3h0.7V67.3z M31.3,67.3h-0.6v4.3l-2.9-4.3h-0.7v5.3h0.7v-4.3l2.9,4.3h0.7V67.3z M24.3,70.5
			h-1.7l0.9-2.4L24.3,70.5z M24.5,71.1l0.6,1.5h0.7l-2-5.3h-0.7l-2,5.3h0.7l0.6-1.5H24.5z M19.8,67.3h-1l-1.6,4.5l-1.6-4.5h-1v5.3
			h0.7v-4.5l1.6,4.5h0.7l1.6-4.5v4.5h0.7V67.3z M10.5,72.1c-1.1,0-2-0.9-2-2.1c0-1.2,0.9-2.1,2-2.1c1.1,0,2,0.9,2,2.1
			C12.5,71.1,11.6,72.1,10.5,72.1 M10.5,67.2c-1.5,0-2.6,1.2-2.6,2.8c0,1.6,1.2,2.8,2.6,2.8s2.6-1.2,2.6-2.8
			C13.2,68.4,12,67.2,10.5,67.2 M3.2,69.9v-2h1.7c0.7,0,1.1,0.3,1.1,1c0,0.6-0.4,1-1,1H3.2z M6.4,72v-0.7c0-0.5-0.2-0.9-0.6-1.1
			c0.5-0.3,0.7-0.7,0.7-1.3c0-0.9-0.6-1.6-1.7-1.6H2.5v5.3h0.7v-2.1h1.7c0.6,0,0.9,0.3,0.9,0.8v0.7c0,0.2,0,0.4,0.1,0.6h0.7
			C6.5,72.5,6.4,72.2,6.4,72"/>
		<rect x="2.6" y="74.4" fill="#929497" width="94.2" height="0.6"/>
		<path fill="#004FA3" d="M96.7,76.9h-0.5v3.7l-2.4-3.7h-0.6v4.5h0.6v-3.7l2.4,3.7h0.6V76.9z M84.1,81c-0.9,0-1.7-0.8-1.7-1.8
			c0-1,0.8-1.8,1.7-1.8c0.9,0,1.7,0.8,1.7,1.8C85.8,80.2,85.1,81,84.1,81 M84.1,76.8c-1.2,0-2.2,1-2.2,2.3c0,1.3,1,2.3,2.2,2.3
			s2.2-1,2.2-2.3C86.4,77.8,85.4,76.8,84.1,76.8 M75.1,76.9h-0.6v4.5h0.6V76.9z M67.9,77.4v-0.5h-3.4v0.5h1.4v4h0.6v-4H67.9z
			 M57.1,79.6h-1.5l0.7-2L57.1,79.6z M57.2,80.1l0.5,1.3h0.6l-1.7-4.5H56l-1.7,4.5h0.6l0.5-1.3H57.2z M46,77.4
			c0.8,0,1.5,0.5,1.5,1.7c0,1.2-0.6,1.7-1.5,1.7h-1.1v-3.4H46z M44.3,81.4H46c1.2,0,2-0.9,2-2.3s-0.8-2.2-2-2.2h-1.7V81.4z
			 M37.3,76.9h-0.5v3.7l-2.4-3.7h-0.6v4.5h0.6v-3.7l2.4,3.7h0.6V76.9z M23.8,79.8v-2.9h-0.5v2.9c0,1,0.7,1.7,1.7,1.7
			c1,0,1.7-0.7,1.7-1.7v-2.9h-0.6v2.9c0,0.7-0.4,1.2-1.2,1.2C24.2,81,23.8,80.5,23.8,79.8 M14.3,81c-0.9,0-1.7-0.8-1.7-1.8
			c0-1,0.8-1.8,1.7-1.8c0.9,0,1.7,0.8,1.7,1.8C16,80.2,15.2,81,14.3,81 M14.3,76.8c-1.2,0-2.2,1-2.2,2.3c0,1.3,1,2.3,2.2,2.3
			c1.2,0,2.2-1,2.2-2.3C16.5,77.8,15.6,76.8,14.3,76.8 M3.1,77.4h2.5v-0.5H2.5v4.5h0.6v-2.1h2.3v-0.5H3.1V77.4z"/>
	</g>
</g>
</svg>
