<?xml version="1.0" encoding="utf-8"?>
<!-- Generator: Adobe Illustrator 18.0.0, SVG Export Plug-In . SVG Version: 6.00 Build 0)  -->
<!DOCTYPE svg PUBLIC "-//W3C//DTD SVG 1.1//EN" "http://www.w3.org/Graphics/SVG/1.1/DTD/svg11.dtd">
<svg version="1.1" xmlns="http://www.w3.org/2000/svg" xmlns:xlink="http://www.w3.org/1999/xlink" x="0px" y="0px"
	 viewBox="0 0 220 100" enable-background="new 0 0 220 100" xml:space="preserve">
<g id="Layer_1">
</g>
<g id="Layer_2">
	<g>
		<path fill="#F3D12C" d="M15.1,50c1.8-3,4.2-5.5,6.4-8.3c3.5-4.5,7.2-9,10.8-13.5c3.9,0,7.8,0,12,0C38.4,35.6,32.7,42.8,27,50
			C23,50,19.1,50,15.1,50z"/>
		<path fill="#E95F57" d="M199.9,50.1c-5.7-7.2-11.5-14.4-17.4-21.9c4.2,0,8.1,0,12,0c4.5,5.6,9,11.2,13.5,16.9c1.3,1.6,2.9,3,3.7,5
			C207.7,50.1,203.8,50.1,199.9,50.1z"/>
		<path fill="#649ED2" d="M15.1,50c4,0,7.9,0,11.9,0c5.3,6.6,10.6,13.3,15.8,19.9c0.4,0.6,0.9,1.2,1.5,1.9c-4.2,0-8.1,0-12,0
			c-5.4-6.7-10.8-13.5-16.2-20.2C15.7,51.2,15.2,50.7,15.1,50z"/>
		<path fill="#75BD43" d="M199.9,50.1c3.9,0,7.8,0,11.8,0c-0.8,2-2.4,3.4-3.7,5c-4.4,5.6-8.9,11.2-13.5,16.9c-3.9,0-7.8,0-12.1,0
			C188.4,64.5,194.1,57.3,199.9,50.1z"/>
		<path fill="#5A595C" d="M93.8,60.6c-1.4,0.4-2.5,0.3-3.5,0.1c-0.6-0.6-0.5-1.3-0.5-1.9c0-2.2,0-4.5,0-6.7c0-0.9,0.1-1.8-0.7-2.6
			c-1.7-0.6-3,0.4-4.6,1.2c0,3.3,0,6.6,0,9.8c-1.3,0.7-2.5,0.3-3.9,0.4c0-7.1,0-14.1,0-21.1c1.1-0.5,2.4-0.3,3.7-0.1
			c0.5,2.5,0,5,0.3,7.4c0.7,0.3,1.2-0.3,1.7-0.5c0.9-0.4,1.7-0.8,2.7-1c2.8-0.5,4.7,0.7,4.8,3.5C93.9,52.8,93.8,56.6,93.8,60.6z"/>
		<path fill="#5A595C" d="M57.9,54.8c0.6,2.3,1.8,3,4.2,2.7c1.2-0.1,2.5-0.6,3.7-0.2c0.5,0.8,0.3,1.6,0.3,2.6
			c-3.3,1.3-6.6,1.6-9.9,0.1c-1.5-0.7-2.2-2.1-2.4-3.6c-0.4-2.3-0.5-4.6,0-6.9c0.7-3.3,3.5-4.9,7.2-4.4c0.4,0.1,0.9,0.2,1.3,0.2
			c3.7,0.5,5.5,4,4,7.3c-0.6,1.3-1.8,1.7-3.1,1.7C61.5,54.7,59.7,54.4,57.9,54.8z M57.9,51.7c1.5,0.3,3,0.4,4.4-0.1
			c0.4-1,0.4-1.8-0.2-2.5C58.9,48.2,57.8,48.9,57.9,51.7z"/>
		<path fill="#5A595C" d="M40.8,43.2c-0.3-1.1-0.3-2.1,0-3.2c4.9,0,9.8,0,14.9,0c0.5,1,0.3,2,0.1,3.1c-1.6,0.8-3.4,0-5.3,0.7
			c0,5.6,0,11.2,0,16.9c-1.6,0.4-2.9,0.3-4.5,0.1c0-5.7,0-11.3,0-16.9C44.2,43.1,42.5,43.7,40.8,43.2z"/>
		<path fill="#5A595C" d="M78.8,57.3c0.5,0.9,0.5,1.7,0.6,2.5c-2.5,1.7-7.4,1.9-9.7,0.3c-0.9-0.6-1.5-1.5-1.8-2.5
			c-0.8-2.9-0.8-5.7,0-8.6c0.3-1.3,1.1-2.2,2.3-2.8c1.9-0.9,6-1.2,8.6,0.2c0.2,1.3,0.2,1.3-0.3,2.6c-1.3,0.3-2.6,0.1-3.9,0.1
			c-2,0.1-2.4,0.5-2.9,2.4c-0.2,0.7-0.3,1.3-0.2,2c0.5,3.7,1.1,3.8,4,3.8C76.6,57.3,77.6,57.3,78.8,57.3z"/>
		<path fill="#5A595C" d="M152,60.4c-0.7,0.5-1.2,0.5-1.7,0.2c-0.5-0.4-0.3-1.1-0.6-1.6c-0.4-0.1-0.6,0.1-0.8,0.2
			c-1.5,1.2-3.2,1.8-5.2,1.6c-2.1-0.2-3.1-1.2-3.3-3.2c0-0.5,0-1,0-1.6c-0.2-3.3,0.6-4.3,4.5-4.6c1.4-0.1,2.8,0.2,4.2-0.2
			c0.8-2.5,0.2-3.4-2.2-3.5c-1.8,0-3.6,0-5.2,0.3c-0.8-0.5-0.7-1.1-0.6-1.7c0.2-0.1,0.4-0.3,0.6-0.3c2.1-0.3,4.1-0.7,6.2-0.5
			c2.4,0.2,3.5,1.1,3.9,3.5C152.4,52.8,151.9,56.6,152,60.4z M149.2,53.8c-1.8-0.3-3.6-0.2-5.4-0.1c-1.5,1.7-1.5,2.9-0.2,4.7
			c2.3,0.5,4.2-0.2,5.8-2C149.4,55.6,149.7,54.8,149.2,53.8z"/>
		<path fill="#5A595C" d="M185.6,60.5c-0.6,0.2-0.9,0.3-1.4,0.1c-0.6-0.3-0.3-1.2-0.9-1.7c-0.2-0.1-0.4,0-0.6,0.1
			c-1.5,1.3-3.3,2-5.3,1.8c-0.4-0.1-0.9,0-1.3-0.2c-2.4-1.2-2.2-3.5-2.1-5.7c0.1-1.8,0.8-2.6,2.6-3.2c1.2-0.4,2.5-0.3,3.8-0.3
			c0.9,0,1.8,0.2,2.6-0.2c0.3-1.4,0.3-1.4-0.5-3c-2.3-0.9-4.8-0.3-7.3-0.2c-0.5-0.5-0.6-1.1-0.3-1.8c2.3-0.5,4.6-0.8,7-0.7
			c2.2,0.2,3.6,1.5,3.7,3.7c0.1,3,0.1,6.1,0.1,9.1C185.7,59.1,185.6,59.8,185.6,60.5z M177.4,58.4c2.3,0.6,4.2-0.2,5.9-2
			c0.1-0.9,0.4-1.8-0.3-2.8c-1.9,0-3.8-0.2-5.7,0.2C176,55.7,176,56.7,177.4,58.4z"/>
		<path fill="#5A595C" d="M114,58.3c1.3-4,2.6-8,3.8-11.8c0.9-0.5,1.5-0.4,2.1-0.3c0.5,0.5,0.2,0.9,0,1.3c-1.7,4.9-3.3,9.9-5.1,14.8
			c-0.9,2.5-2.4,4.4-5.4,4.7c-0.6-0.9-0.3-1.5,0.5-2.1c1.3-0.9,2.5-1.9,2.9-3.6c-0.2-0.6-0.9-0.8-1.2-1.5c-1.5-4.4-3.1-8.9-4.6-13.3
			c0.8-0.6,1.5-0.4,2.3-0.2C111.1,50.1,111.9,54.3,114,58.3z"/>
		<path fill="#5A595C" d="M163,47.9c-2.4-0.5-4,1-6,2.3c0,3.4,0,6.8,0,10c-0.8,0.7-1.4,0.6-2.2,0.2c-0.2-4.7-0.1-9.4,0-14
			c0.5-0.6,0.9-0.5,1.4-0.4c0.6,0.3,0.3,1.2,1,1.5c0.1,0,0.4-0.1,0.6-0.1c1.1-0.6,2.2-1.3,3.4-1.7c3.1-0.9,5.2,0.6,5.3,3.8
			c0,3.6,0,7.3,0,10.7c-0.7,0.6-1.3,0.5-1.9,0.3c-0.6-0.8-0.3-1.7-0.3-2.6c0-2.5,0-4.9,0-7.4C164.2,49.7,164.2,48.7,163,47.9z"/>
		<path fill="#5A595C" d="M105.7,46.1c0.3,0.6,0.2,1,0,1.5c-2.3,0.5-4.8-0.1-7.1,0.3c-1.6,1.7-1.4,3,0.7,3.7
			c1.3,0.5,2.7,0.7,4.1,1.1c2.9,0.8,4.2,4.3,2.5,6.8c-0.6,0.9-1.5,1.1-2.5,1.3c-2.5,0.6-4.9,0-7.3-0.1c-0.7-0.6-0.6-1.2-0.2-1.9
			c2.6,0,5.3,0.6,7.8-0.6c0.6-0.8,0.6-1.6,0.2-2.5c-1.5-1.4-3.7-1.3-5.5-2c-2.5-0.8-3.5-2.6-3.1-5.1c0.3-1.7,1.2-2.8,2.9-2.9
			C100.7,45.5,103.3,45.3,105.7,46.1z"/>
		<path fill="#5A595C" d="M133.3,58.5c1.3-4.1,2.6-8.2,3.9-12.1c0.8-0.5,1.4-0.5,2.3-0.1c-1.3,4.8-3.2,9.4-4.8,14.1
			c-1.2,0.5-2.2,0.5-3.5,0.1c-1.6-4.6-3.2-9.4-4.9-14c0.9-0.6,1.5-0.5,2.4-0.2c1.3,4,2.7,8.2,4,12.3C133,58.6,133.2,58.6,133.3,58.5
			z"/>
		<path fill="#57585A" d="M122,39.7c0.7-0.4,1.3-0.4,2.1,0.1c0.4,6-0.1,12.1,0.3,17.9c0.9,1.1,1.8,0.7,2.6,1
			c0.5,0.5,0.6,1.1,0.2,1.8c-3.8,1-5.5-0.2-5.5-3.9c-0.1-5.1,0-10.3,0-15.4C121.7,40.7,121.7,40.3,122,39.7z"/>
		<path fill="#5A5B5C" d="M171.6,60.6c-0.8,0.2-1.3,0.3-2-0.3c-0.1-4.6-0.1-9.3,0-13.9c0.7-0.6,1.3-0.5,2-0.3
			C171.6,51,171.6,55.8,171.6,60.6z"/>
		<path fill="#555759" d="M169.6,40c0.7-0.3,1.4-0.4,2.1,0c0.4,0.8,0.2,1.6,0.1,2.4c-0.8,0.6-1.5,0.5-2.2,0.2
			C169,41.8,169.1,41,169.6,40z"/>
	</g>
</g>
</svg>
