<?xml version="1.0" encoding="utf-8"?>
<!-- Generator: Adobe Illustrator 18.0.0, SVG Export Plug-In . SVG Version: 6.00 Build 0)  -->
<!DOCTYPE svg PUBLIC "-//W3C//DTD SVG 1.1//EN" "http://www.w3.org/Graphics/SVG/1.1/DTD/svg11.dtd">
<svg version="1.1" id="Layer_1" xmlns="http://www.w3.org/2000/svg" xmlns:xlink="http://www.w3.org/1999/xlink" x="0px" y="0px"
	 viewBox="0 0 446.7 53.3" enable-background="new 0 0 446.7 53.3" xml:space="preserve">
<g>
	<g>
		<path fill="#00B4CC" d="M186.4,3.9h3.4v8.2v0.2l0,0.2c-0.2,1.7-1,3.2-2.3,4.3c-0.3,0.2-0.6,0.4-0.9,0.6c-2.7,1.9-4.2,5-4.3,8.3
			c0.4-0.1,0.7-0.4,0.8-0.7c0.8-1.4,2.4-2.3,4-2.3c1.6,0,3.2,0.9,4,2.3c0.3,0.5,0.9,0.8,1.5,0.8c0.6,0,1.2-0.3,1.5-0.9
			c0.8-1.4,2.4-2.3,4-2.3c1.6,0,3.2,0.9,4,2.3c0.2,0.3,0.4,0.5,0.6,0.6c-0.1-3.3-1.7-6.4-4.4-8.3c-0.2-0.1-0.3-0.2-0.5-0.3
			c-1.6-1.2-2.6-3.2-2.6-5.2V8.1V4.5V3.9h0h3.4v3.5v4.4c0,1,0.5,1.9,1.2,2.4c0.1,0.1,0.2,0.1,0.3,0.2c3.6,2.5,6,6.6,6,11.4
			c0,7.6-6.1,13.7-13.6,13.7c-7.5,0-13.6-6.1-13.6-13.7c0-4.7,2.3-8.8,5.9-11.3c0.2-0.1,0.4-0.2,0.5-0.4c0.6-0.5,1-1.2,1.1-2v-0.7
			v-4V3.9z M202.3,28.6c-1.1-0.3-2.1-1.1-2.7-2.1c-0.3-0.5-0.9-0.8-1.5-0.8c-0.6,0-1.2,0.3-1.5,0.8c-0.8,1.4-2.4,2.3-4,2.3
			c-1.6,0-3.2-0.9-4-2.3c-0.3-0.5-0.9-0.8-1.5-0.8c-0.6,0-1.2,0.3-1.5,0.8c-0.7,1.1-1.7,1.9-3,2.2c1.3,4.2,5.2,7.3,9.8,7.3
			C197.2,36,201.1,32.9,202.3,28.6"/>
		<path fill="#00B4CC" d="M96.3,26c0,4.6-2.3,8.7-5.9,11.2c-0.2,0.1-0.4,0.2-0.5,0.4c-0.6,0.5-1,1.2-1.1,2v0.7v0.2h0h-3.4v-0.2v-0.7
			v-0.2l0-0.2c0,0,0,0,0-0.1l0-0.2c0-0.1,0-0.2,0.1-0.3l1.7-9.5l0.7,0.1L86.6,36c0.3-0.4,0.6-0.7,1-1c0.3-0.2,0.6-0.4,0.9-0.6
			c2.7-1.9,4.3-5,4.3-8.3c0-5.6-4.6-10.2-10.2-10.2c-5.6,0-10.2,4.6-10.2,10.2c0,3.4,1.6,6.5,4.4,8.4c0.2,0.1,0.3,0.2,0.5,0.3
			c0.5,0.4,0.9,0.8,1.3,1.3l-1.2-7l0.7-0.1l1.8,10.1h0c0,0.3,0.1,0.6,0.1,0.9v0.6h-3.4v-0.6c0-1-0.5-1.9-1.2-2.4
			c-0.1-0.1-0.2-0.1-0.3-0.2c-3.6-2.5-6-6.6-6-11.3c0-7.5,6.1-13.6,13.6-13.6C90.2,12.4,96.3,18.5,96.3,26"/>
		<rect x="76.5" y="46.9" fill="#00B4CC" width="12.2" height="3.4"/>
		<polygon fill="#00B4CC" points="88.8,42 88.8,45.4 76.5,45.4 76.5,42 80,42 		"/>
		<path fill="#00B4CC" d="M88.4,26.1l-0.5,3L87.1,29c-1.3-0.2-2.4-1-3.1-2.2c-0.3-0.5-0.9-0.8-1.5-0.8c-0.6,0-1.2,0.3-1.5,0.8
			c-0.6,1.1-1.7,1.8-2.9,2.1L77.4,29l-0.5-2.9c0,0,0.1,0,0.2,0c0.2,0,0.4,0,0.6-0.1c0.4-0.1,0.7-0.4,0.9-0.7c0.8-1.4,2.4-2.3,4-2.3
			c1.6,0,3.2,0.9,4,2.3c0.2,0.4,0.6,0.7,1.1,0.8c0.1,0,0.2,0,0.4,0C88.1,26.1,88.2,26.1,88.4,26.1"/>
		<rect x="3.9" y="12.9" fill="#00B4CC" width="4.1" height="26.1"/>
		<polygon fill="#00B4CC" points="32.1,31.4 32.1,12.9 36.3,12.9 36.3,38.9 33.1,38.9 18.3,20.5 18.3,38.9 14.1,38.9 14.1,12.9 
			17.3,12.9 		"/>
		<polygon fill="#00B4CC" points="60.4,31.4 60.4,12.9 64.6,12.9 64.6,38.9 61.4,38.9 46.7,20.5 46.7,38.9 42.5,38.9 42.5,12.9 
			45.7,12.9 		"/>
		<polygon fill="#00B4CC" points="111.7,39.1 107.3,39.1 96.5,12.9 101.2,12.9 109.5,34.1 117.9,12.9 122.5,12.9 		"/>
		<path fill="#00B4CC" d="M141.3,33.5h-14.1l-2.5,5.5h-4.4L132,12.9h4.5l11.7,26.1h-4.4L141.3,33.5z M134.3,17.3l-5.5,12.4h11
			L134.3,17.3z"/>
		<polygon fill="#00B4CC" points="154.3,16.6 145.8,16.6 145.8,12.9 167.1,12.9 167.1,16.6 158.5,16.6 158.5,38.9 154.3,38.9 		"/>
		<rect x="170.4" y="12.9" fill="#00B4CC" width="4.1" height="26.1"/>
		<polygon fill="#00B4CC" points="228.6,31.4 228.6,12.9 232.7,12.9 232.7,38.9 229.6,38.9 214.8,20.5 214.8,38.9 210.6,38.9 
			210.6,12.9 213.8,12.9 		"/>
		<polygon fill="#00B4CC" points="252.7,12.9 252.7,35.1 266.5,35.1 266.5,38.9 248.6,38.9 248.6,12.9 		"/>
		<path fill="#00B4CC" d="M289.5,33.5h-14.1l-2.5,5.5h-4.4l11.7-26.1h4.5l11.7,26.1h-4.4L289.5,33.5z M282.4,17.3l-5.5,12.4h11
			L282.4,17.3z"/>
		<path fill="#00B4CC" d="M311.6,12.9c5,0,8.9,2.3,8.9,7.4c0,2.2-1.2,4.2-3.6,5.2c3.1,0.9,4.4,4,4.4,6c0,5.7-4.5,7.4-9.7,7.4h-12
			V12.9H311.6z M303.8,23.7h7.9c3.1,0,4.7-1.2,4.7-3.3c0-1.8-1.6-3.8-4.7-3.8h-7.8V23.7z M303.8,35.1h7.8c2.3,0,5.5-0.7,5.5-3.6
			c0-2.8-3.1-4.1-5.5-4.1h-7.9V35.1z"/>
		<path fill="#00B4CC" d="M343.2,37.3c3.6-2.5,2.7-6.4,2.8-6.5c-0.3-5.4-5.2-6.9-10.4-7.6c-3.4-0.5-6.3-1.2-6.3-3.7
			c0-2.5,2.5-3.9,6-3.9c2.7,0,5.2,1.1,6.4,2.9l3.2-2.1c-2.2-3.5-6-4.4-9.7-4.4c-4.7,0-10.1,2.1-10.1,7.5c0,5.6,4.9,6.9,10.1,7.6
			c3.6,0.5,6.7,1.5,6.7,4.3c0,3.3-3.5,4.3-6.6,4.3c-3,0-6.3-1.1-8.1-4.3l-3.1,2.1c2.4,4.4,6.2,5.9,11.2,5.9c0.5,0,1,0,1.4-0.1
			C338.7,39.4,342.3,38,343.2,37.3"/>
	</g>
	<g>
		<path fill="#00B4CC" d="M374.4,39.3h-22.8v-7.6c0-5.4,4.2-8.5,11.4-8.5c2.4,0,5.3-0.5,5.3-3c0-3.5-4.3-3.8-5.6-3.8
			c-2.4,0-4.9,1.1-4.9,3.3l0,0.5h-6l0-0.5c0-5.9,5.7-8.6,10.9-8.6c5.7,0,11.7,2.4,11.7,9.1c0,7.7-6.4,8.6-11.3,8.6
			c-1.3,0-5.3,0.2-5.3,3v1.8h16.7V39.3z M352.6,38.3h20.8v-3.7h-16.7v-2.8c0-2.5,2.4-4,6.3-4c7.2,0,10.3-2.3,10.3-7.6
			c0-5.9-5.5-8.1-10.7-8.1c-4.7,0-9.5,2.2-9.8,7.1h4.1c0.4-2.4,3.2-3.8,5.9-3.8c4.1,0,6.6,1.8,6.6,4.8c0,1.5-0.8,4-6.3,4
			c-3.1,0-10.4,0.7-10.4,7.5V38.3z"/>
		<path fill="#00B4CC" d="M388.8,39.8c-5.9,0-12.3-3.9-12.3-12.5v-3.9c0-8.6,6.4-12.5,12.3-12.5c5.9,0,12.3,3.9,12.3,12.5v3.9
			C401,35.9,394.7,39.8,388.8,39.8z M388.8,11.9c-5.4,0-11.3,3.6-11.3,11.5v3.9c0,7.9,5.8,11.5,11.3,11.5c5.4,0,11.3-3.6,11.3-11.5
			v-3.9C400,15.5,394.2,11.9,388.8,11.9z M388.8,35.1c-3.6,0-7.3-2.7-7.3-7.8v-3.9c0-5.3,3.7-7.7,7.2-7.7c3.6,0,7.3,2.7,7.3,7.7v3.9
			C396,32.4,392.4,35.1,388.8,35.1z M388.7,16.7c-3,0-6.2,2.1-6.2,6.7v3.9c0,4.7,3.2,6.8,6.3,6.8s6.3-2.1,6.3-6.8v-3.9
			C395,18.8,391.8,16.7,388.7,16.7z"/>
		<path fill="#00B4CC" d="M416.2,39.3h-13.8V34h4V17h-4.2v-5.6h10.2V34h3.7V39.3z M403.4,38.3h11.8V35h-3.7V12.4h-8.2V16h4.2v19h-4
			V38.3z"/>
		<path fill="#00B4CC" d="M430.2,39.7c-5.8,0-11.7-3.3-11.7-9.5v-10c0-6.4,6-9.3,11.6-9.3c7.1,0,11.5,3.2,11.5,8.4v0.5h-6.1v-0.5
			c0-2-2.7-3.1-5.4-3.1l-0.1,0c-2.7,0-5.5,1.4-5.5,4v2.6c1.5-1.3,3.9-2,5.7-2c5.6,0,11.6,2.5,11.6,9.4
			C441.8,36.5,436,39.7,430.2,39.7z M430.1,11.9c-5.3,0-10.6,2.6-10.6,8.3v10c0,5.8,5.6,8.5,10.7,8.5c5.3,0,10.6-2.9,10.6-8.4
			c0-7.8-8.1-8.4-10.6-8.4c-2,0-4.7,1-5.8,2.6l-0.9,1.4l0-5.7c0.1-3.2,3.4-4.9,6.5-4.9l0.1,0c2.9,0,6,1.1,6.3,3.6h4.1
			C440.2,12.4,432.5,11.9,430.1,11.9z M430.2,35.2c-4,0-6.6-1.9-6.7-4.9c0-1.2,0.4-2.3,1.2-3.2c1.2-1.2,3.2-1.9,5.5-1.9
			c3.9,0,6.6,2,6.6,5C436.8,33.7,433.5,35.2,430.2,35.2z M430.3,26.3c-2,0-3.8,0.6-4.8,1.6c-0.6,0.7-1,1.5-1,2.4
			c0,2.9,3.1,3.9,5.7,3.9c2.6,0,5.6-1,5.6-3.9C435.8,27.3,432.8,26.3,430.3,26.3z"/>
	</g>
</g>
</svg>
