<?xml version="1.0" encoding="utf-8"?>
<!-- Generator: Adobe Illustrator 18.0.0, SVG Export Plug-In . SVG Version: 6.00 Build 0)  -->
<!DOCTYPE svg PUBLIC "-//W3C//DTD SVG 1.1//EN" "http://www.w3.org/Graphics/SVG/1.1/DTD/svg11.dtd">
<svg version="1.1" id="Layer_1" xmlns="http://www.w3.org/2000/svg" xmlns:xlink="http://www.w3.org/1999/xlink" x="0px" y="0px"
	 viewBox="0 0 123.3 14" enable-background="new 0 0 123.3 14" xml:space="preserve">
<g>
	<g>
		<path fill="#F3F3F3" d="M52.1,0.7H53v2.2V3L53,3c-0.1,0.5-0.3,0.9-0.6,1.2c-0.1,0.1-0.2,0.1-0.2,0.2C51.4,4.9,51,5.7,51,6.6
			c0.1,0,0.2-0.1,0.2-0.2c0.2-0.4,0.6-0.6,1.1-0.6c0.4,0,0.9,0.2,1.1,0.6c0.1,0.1,0.2,0.2,0.4,0.2c0.2,0,0.3-0.1,0.4-0.2
			c0.2-0.4,0.6-0.6,1.1-0.6c0.4,0,0.9,0.2,1.1,0.6c0,0.1,0.1,0.1,0.2,0.2c0-0.9-0.5-1.7-1.2-2.3c0,0-0.1-0.1-0.1-0.1
			c-0.4-0.3-0.7-0.9-0.7-1.4v-1v-1V0.7h0h0.9v0.9v1.2c0,0.3,0.1,0.5,0.3,0.7c0,0,0.1,0,0.1,0.1c1,0.7,1.6,1.8,1.6,3.1
			c0,2.1-1.7,3.7-3.7,3.7c-2,0-3.7-1.7-3.7-3.7c0-1.3,0.6-2.4,1.6-3.1c0.1,0,0.1-0.1,0.1-0.1c0.2-0.1,0.3-0.3,0.3-0.5V2.7V1.6V0.7z
			 M56.4,7.4c-0.3-0.1-0.6-0.3-0.7-0.6c-0.1-0.1-0.2-0.2-0.4-0.2c-0.2,0-0.3,0.1-0.4,0.2c-0.2,0.4-0.6,0.6-1.1,0.6
			c-0.4,0-0.9-0.2-1.1-0.6c-0.1-0.1-0.2-0.2-0.4-0.2c-0.2,0-0.3,0.1-0.4,0.2c-0.2,0.3-0.5,0.5-0.8,0.6c0.3,1.2,1.4,2,2.7,2
			C55,9.4,56.1,8.6,56.4,7.4"/>
		<path fill="#F3F3F3" d="M27.5,6.7c0,1.3-0.6,2.4-1.6,3.1c-0.1,0-0.1,0.1-0.1,0.1c-0.2,0.1-0.3,0.3-0.3,0.5v0.2v0.1h0h-0.9v-0.1
			v-0.2v-0.1l0-0.1c0,0,0,0,0,0l0-0.1c0,0,0-0.1,0-0.1L25,7.5l0.2,0l-0.3,1.9c0.1-0.1,0.2-0.2,0.3-0.3c0.1-0.1,0.2-0.1,0.2-0.2
			c0.7-0.5,1.2-1.4,1.2-2.3c0-1.5-1.2-2.8-2.8-2.8c-1.5,0-2.8,1.2-2.8,2.8c0,0.9,0.4,1.8,1.2,2.3c0,0,0.1,0.1,0.1,0.1
			c0.1,0.1,0.2,0.2,0.3,0.3l-0.3-1.9l0.2,0l0.5,2.8h0c0,0.1,0,0.2,0,0.2v0.2h-0.9v-0.2c0-0.3-0.1-0.5-0.3-0.7c0,0-0.1,0-0.1-0.1
			c-1-0.7-1.6-1.8-1.6-3.1c0-2.1,1.7-3.7,3.7-3.7C25.9,3,27.5,4.6,27.5,6.7"/>
		<rect x="22.1" y="12.4" fill="#F3F3F3" width="3.3" height="0.9"/>
		<polygon fill="#F3F3F3" points="25.5,11 25.5,12 22.1,12 22.1,11 23.1,11 		"/>
		<path fill="#F3F3F3" d="M25.4,6.7l-0.1,0.8l-0.2,0c-0.4-0.1-0.7-0.3-0.9-0.6c-0.1-0.1-0.2-0.2-0.4-0.2c-0.2,0-0.3,0.1-0.4,0.2
			c-0.2,0.3-0.5,0.5-0.8,0.6l-0.2,0l-0.1-0.8c0,0,0,0,0,0c0.1,0,0.1,0,0.2,0c0.1,0,0.2-0.1,0.2-0.2c0.2-0.4,0.6-0.6,1.1-0.6
			s0.9,0.2,1.1,0.6c0.1,0.1,0.2,0.2,0.3,0.2c0,0,0.1,0,0.1,0C25.3,6.7,25.3,6.7,25.4,6.7"/>
		<rect x="2.4" y="3.1" fill="#F3F3F3" width="1.1" height="7.1"/>
		<polygon fill="#F3F3F3" points="10,8.2 10,3.1 11.2,3.1 11.2,10.2 10.3,10.2 6.3,5.2 6.3,10.2 5.1,10.2 5.1,3.1 6,3.1 		"/>
		<polygon fill="#F3F3F3" points="17.8,8.2 17.8,3.1 18.9,3.1 18.9,10.2 18,10.2 14,5.2 14,10.2 12.9,10.2 12.9,3.1 13.7,3.1 		"/>
		<polygon fill="#F3F3F3" points="31.7,10.2 30.5,10.2 27.6,3.1 28.9,3.1 31.1,8.9 33.4,3.1 34.7,3.1 		"/>
		<path fill="#F3F3F3" d="M39.8,8.7h-3.8l-0.7,1.5h-1.2l3.2-7.1h1.2l3.2,7.1h-1.2L39.8,8.7z M37.9,4.3l-1.5,3.4h3L37.9,4.3z"/>
		<polygon fill="#F3F3F3" points="43.3,4.1 41,4.1 41,3.1 46.8,3.1 46.8,4.1 44.5,4.1 44.5,10.2 43.3,10.2 		"/>
		<rect x="47.7" y="3.1" fill="#F3F3F3" width="1.1" height="7.1"/>
		<polygon fill="#F3F3F3" points="63.5,8.2 63.5,3.1 64.7,3.1 64.7,10.2 63.8,10.2 59.8,5.2 59.8,10.2 58.6,10.2 58.6,3.1 59.5,3.1 
					"/>
		<polygon fill="#F3F3F3" points="70.1,3.1 70.1,9.2 73.9,9.2 73.9,10.2 69,10.2 69,3.1 		"/>
		<path fill="#F3F3F3" d="M80.1,8.7h-3.8l-0.7,1.5h-1.2l3.2-7.1h1.2l3.2,7.1h-1.2L80.1,8.7z M78.2,4.3l-1.5,3.4h3L78.2,4.3z"/>
		<path fill="#F3F3F3" d="M86.2,3.1c1.3,0,2.4,0.6,2.4,2c0,0.6-0.3,1.1-1,1.4c0.9,0.3,1.2,1.1,1.2,1.6c0,1.6-1.2,2-2.6,2h-3.3V3.1
			H86.2z M84,6.1h2.1c0.9,0,1.3-0.3,1.3-0.9c0-0.5-0.4-1-1.3-1H84V6.1z M84,9.2h2.1c0.6,0,1.5-0.2,1.5-1c0-0.8-0.8-1.1-1.5-1.1H84
			V9.2z"/>
		<path fill="#F3F3F3" d="M94.8,9.8c1-0.7,0.7-1.7,0.8-1.8c-0.1-1.5-1.4-1.9-2.8-2.1c-0.9-0.1-1.7-0.3-1.7-1c0-0.7,0.7-1.1,1.6-1.1
			c0.7,0,1.4,0.3,1.8,0.8l0.9-0.6c-0.6-1-1.6-1.2-2.6-1.2c-1.3,0-2.7,0.6-2.7,2c0,1.5,1.3,1.9,2.7,2.1c1,0.1,1.8,0.4,1.8,1.2
			c0,0.9-0.9,1.2-1.8,1.2c-0.8,0-1.7-0.3-2.2-1.2l-0.9,0.6c0.6,1.2,1.7,1.6,3.1,1.6c0.1,0,0.3,0,0.4,0C93.5,10.3,94.5,10,94.8,9.8"
			/>
	</g>
	<g>
		<path fill="none" stroke="#FFFFFF" stroke-width="0.1398" stroke-miterlimit="10" d="M97.2,5c0-1.5,1.5-2.2,2.8-2.2
			c1.5,0,3.1,0.6,3.1,2.3c0,1.9-1.4,2.2-2.9,2.2c-0.6,0-1.6,0.2-1.6,1v0.6h4.5v1.3h-5.9c0-0.6,0-1.3,0-1.9c0-1.7,1.5-2.2,3-2.2
			c0.6,0,1.6-0.1,1.6-0.9c0-0.8-0.7-1.2-1.7-1.2c-0.7,0-1.5,0.4-1.5,1H97.2z"/>
		<path fill="none" stroke="#FFFFFF" stroke-width="0.1398" stroke-miterlimit="10" d="M104,6c0-4.4,6.4-4.4,6.4,0V7
			c0,4.4-6.4,4.4-6.4,0V6z M105.3,7c0,2.7,3.7,2.7,3.7,0V6c0-2.6-3.7-2.6-3.7,0V7z"/>
		<path fill="none" stroke="#FFFFFF" stroke-width="0.1398" stroke-miterlimit="10" d="M111,9h1.1V4.1H111V2.9h2.5V9h1v1.2H111V9z"
			/>
		<path fill="none" stroke="#FFFFFF" stroke-width="0.1398" stroke-miterlimit="10" d="M116.8,5.1v1.1c0.3-0.5,1.1-0.8,1.7-0.8
			c1.5,0,3,0.6,3,2.4c0,1.6-1.6,2.4-3,2.4c-1.5,0-3.1-0.8-3.1-2.4V5.1c0-1.6,1.5-2.4,3-2.4c1.6,0,3,0.6,3,2.2H120c0-0.6-0.8-1-1.6-1
			C117.6,3.9,116.8,4.3,116.8,5.1L116.8,5.1z M120.1,7.9c0-0.8-0.7-1.2-1.7-1.2s-1.7,0.4-1.7,1.2c0,0.8,0.8,1.2,1.7,1.2
			C119.3,9,120.1,8.7,120.1,7.9z"/>
	</g>
</g>
</svg>
