<?xml version="1.0" encoding="utf-8"?>
<!-- Generator: Adobe Illustrator 18.0.0, SVG Export Plug-In . SVG Version: 6.00 Build 0)  -->
<!DOCTYPE svg PUBLIC "-//W3C//DTD SVG 1.1//EN" "http://www.w3.org/Graphics/SVG/1.1/DTD/svg11.dtd">
<svg version="1.1" id="Layer_1" xmlns="http://www.w3.org/2000/svg" xmlns:xlink="http://www.w3.org/1999/xlink" x="0px" y="0px"
	 viewBox="0 0 162.1 60.6" enable-background="new 0 0 162.1 60.6" xml:space="preserve">
<g>
	<path fill="#128143" d="M86.7-12.6c1.1,0,2.1,0,3.2,0c0.2,0.2,0.4,0.1,0.6,0.1c1.7,0.1,3.4,0.4,5,0.7c8.7,2,15.7,6.7,21,13.9
		c0.3,0.4,0.5,0.5,1,0.4c3.4-0.6,6.7-0.5,10,0.2c9.7,2.1,17.5,9.1,20.5,18.5c0.6,1.8,1,3.7,1.1,5.7c0,0.1,0,0.2,0.1,0.3
		c0,1.6,0,3.1,0,4.7c-0.1,0.3-0.1,0.5-0.1,0.8c0,0.8-0.2,1.6-0.3,2.4c-1.6,7.5-5.6,13.4-12,17.7c-4.3,2.9-9,4.4-14.2,4.5
		c-8.1,0.1-16.1,0-24.2,0c-0.3,0-0.4-0.1-0.6-0.4c-0.8-1.6-2-2.9-3.6-3.8c-2.3-1.4-4.8-1.8-7.5-1.4c-3.3,0.5-5.9,2.2-7.7,5
		c-0.2,0.4-0.4,0.5-0.9,0.5c-7.8,0-15.5,0-23.3,0c-0.8,0-1.6,0-2.4-0.1c-1.7-0.2-3.3-0.4-4.9-0.9C37,53.5,28.5,44.3,27.3,31.7
		c0-0.3,0-0.6-0.2-0.9c0-1.1,0-2.2,0-3.3c0.2-0.3,0.2-0.6,0.2-0.9c0.1-1.5,0.4-3,0.7-4.5C31.2,9.8,42.2,1.1,55,0.9
		c1.4,0,2.7,0,4.1,0.3C65.7,2.7,71.7,5.6,77,9.9c0.1,0.1,0.3,0.3,0.5,0.3c-1.2-3-2.9-5.7-5.1-8.1c-2.2-2.4-4.7-4.4-7.5-5.9
		C64.9-3.9,65-4,65.1-4.1c0.8-0.7,1.6-1.3,2.4-1.9c5.3-3.8,11.3-6,17.9-6.5C85.8-12.5,86.3-12.5,86.7-12.6z M61.6,37.9
		c-2.1,0.9-4.3,1.3-6.5,1.4c-1.5,0.1-2.9,0-4.3-0.4c-3.6-0.9-5.9-3.5-6.2-7.3c-0.1-0.7-0.1-0.7,0.7-0.7c6,0,11.9,0,17.9,0
		c0.8,0,0.8,0,0.9-0.8c0.2-2.3-0.1-4.5-1-6.6c-1.1-2.7-3-4.7-5.8-5.8c-2-0.8-4.1-0.9-6.2-0.6c-4.2,0.5-7.3,2.6-9.3,6.3
		c-1.7,3.2-2.1,6.6-1.3,10.1c0.6,2.7,1.9,4.9,4.1,6.6c2.2,1.8,4.9,2.5,7.7,2.7c1.6,0.1,3.1,0,4.7-0.2c1.8-0.2,3.6-0.7,5.3-1.3
		c0.3-0.1,0.3-0.1,0.3-0.5c0-0.2-0.1-0.4-0.1-0.5C62.1,39.6,61.9,38.8,61.6,37.9z M70.9,22.4c0,0,0.1,0,0.2-0.1
		c2.6-1.5,5.4-2.1,8.4-1.8c1.2,0.1,2.3,0.5,3.2,1.4c1.3,1.2,1.6,2.7,1.6,4.4c0,0.2-0.1,0.2-0.3,0.3c-1.2,0-2.3,0-3.5,0.1
		c-1.9,0.2-3.7,0.4-5.5,1c-1.7,0.5-3.2,1.2-4.5,2.4c-2,1.8-2.8,4.1-2.4,6.7c0.4,2.8,2.1,4.6,4.7,5.6c1.9,0.7,3.8,0.7,5.7,0.3
		c2.3-0.5,4.4-1.6,5.9-3.4c0.1-0.1,0.1-0.2,0.3-0.2c0.1,0.1,0.1,0.2,0.1,0.3c0.1,0.8,0.2,1.7,0.3,2.5c0.1,0.4,0.1,0.4,0.5,0.4
		c1.1,0,2.3,0,3.4,0c0.1,0,0.2,0,0.4-0.1c-0.1-0.5-0.1-1.1-0.2-1.6c-0.2-1.6-0.2-3.3-0.2-4.9c0-2.8,0-5.7,0-8.5
		c0-1.4-0.2-2.8-0.6-4.1c-0.8-2.4-2.3-4.2-4.7-5.3c-1.2-0.5-2.4-0.7-3.7-0.8c-1.9-0.1-3.8,0-5.7,0.5c-1.5,0.4-2.9,0.9-4.2,1.6
		c-0.3,0.2-0.3,0.2-0.2,0.6c0.3,0.8,0.5,1.5,0.8,2.3C70.7,22.1,70.7,22.3,70.9,22.4z M115.2,17.6c0.1,0.2,0.2,0.4,0.2,0.6
		c2.8,6.3,5.6,12.7,8.4,19c0.5,1.2,1.1,2.4,1.6,3.6c0.3,0.6,0.3,1.1-0.1,1.7c-0.3,0.5-0.6,1.1-0.9,1.7c-1.5,2.4-3.5,4.3-6.2,5.3
		c-0.4,0.1-0.8,0.2-1.1,0.4c-0.2,0-0.2,0.1-0.2,0.3c0.3,1.2,0.6,2.3,0.9,3.5c0,0.2,0.1,0.2,0.3,0.2c0.3-0.1,0.7-0.1,1-0.2
		c2.9-0.8,5.2-2.4,7.1-4.7c1.4-1.7,2.5-3.6,3.5-5.6c1.3-2.5,2.3-5.1,3.4-7.6c2.4-5.8,4.9-11.6,7.3-17.5c0.1-0.2,0.2-0.3,0.2-0.5
		c0,0-0.1,0-0.1,0c-1.5,0-3.1,0-4.6,0c-0.3,0-0.3,0.1-0.4,0.3c-0.5,1.3-1,2.5-1.4,3.8c-1.9,5.1-4,10.2-5.6,15.4c0,0.1,0,0.2-0.2,0.2
		c-0.2-0.1-0.1-0.2-0.2-0.3c-0.3-1-0.7-2-1-3c-1.4-3.5-2.8-7-4.3-10.5c-0.8-1.9-1.6-3.8-2.3-5.7c-0.1-0.2-0.1-0.4-0.4-0.4
		C118.5,17.6,116.9,17.6,115.2,17.6z M96.1,37.7c-0.3,1.1-0.7,2.2-1,3.3c-0.1,0.2,0.1,0.2,0.2,0.3c0.3,0.2,0.7,0.3,1,0.5
		c2.8,1.1,5.7,1.5,8.7,1.1c1.5-0.2,2.9-0.6,4.2-1.5c2.7-1.7,3.7-4.4,3.1-7.4c-0.3-1.8-1.4-3.2-2.9-4.1c-1-0.7-2.1-1.1-3.3-1.5
		c-1-0.3-2.1-0.7-3-1.1c-0.6-0.2-1.1-0.5-1.6-0.9c-0.5-0.4-0.9-0.9-1.1-1.5c-0.4-1.5,0.2-3,1.6-3.7c0.8-0.4,1.7-0.6,2.6-0.6
		c1.8,0,3.6,0.4,5.2,1.3c0.1,0.1,0.3,0.2,0.5,0.2c0.4-1,0.7-2.1,1.1-3.1c0.1-0.2,0-0.2-0.2-0.3c-0.4-0.2-0.8-0.4-1.3-0.6
		c-2.1-0.8-4.2-1-6.4-0.9c-1.5,0.1-2.9,0.5-4.2,1.3c-1.5,0.9-2.6,2-3.2,3.7c-1,2.6-0.4,5.1,1.8,7c0.4,0.4,0.9,0.7,1.4,1
		c0.8,0.5,1.6,0.9,2.5,1.2c0.8,0.3,1.6,0.5,2.4,0.8c0.8,0.3,1.6,0.6,2.3,1.2c1.3,1,1.8,2.7,1.1,4.2c-0.4,1-1.2,1.6-2.2,1.9
		c-1.1,0.4-2.2,0.5-3.3,0.4c-2-0.2-3.9-0.7-5.7-1.7C96.3,37.7,96.3,37.6,96.1,37.7z"/>
	<path fill="#F05F2E" d="M85.5,86.2c-5.2-0.5-10.1-2.1-14.5-4.9c-2-1.2-3.8-2.7-5.5-4.3c-0.1-0.1-0.2-0.2-0.3-0.3
		c0.4-0.4,0.8-0.8,1.2-1.2c0.1-0.1,0.2-0.1,0.3,0c0.1,0.1,0.1,0.1,0.2,0.2c4.5,4.3,9.8,7.1,16,8.2c9.8,1.8,19.9-1.2,27.2-8.3
		c0.1-0.1,0.2-0.2,0.3-0.3c0.4,0.4,0.8,0.9,1.3,1.3c0,0.1-0.1,0.2-0.2,0.3c-4.8,4.7-10.6,7.6-17.2,8.8c-0.8,0.2-1.7,0.3-2.6,0.4
		c-0.1,0-0.2,0-0.2,0.1c-1.6,0-3.3,0-4.9,0C86.2,86.3,85.9,86.1,85.5,86.2z"/>
	<path fill="#B2C6AF" d="M85.4-12.5C85.4-12.5,85.4-12.6,85.4-12.5c0.4-0.1,0.9-0.1,1.3-0.1C86.3-12.5,85.8-12.5,85.4-12.5z"/>
	<path fill="#B2C6AF" d="M85.5,86.2c0.4-0.1,0.7,0.1,1,0.1C86.2,86.3,85.8,86.3,85.5,86.2C85.5,86.2,85.5,86.2,85.5,86.2z"/>
	<path fill="#B2C6AF" d="M149.3,32.7L149.3,32.7L149.3,32.7c-0.1-0.3-0.1-0.5,0-0.8C149.3,32.2,149.3,32.5,149.3,32.7z"/>
	<path fill="#B2C6AF" d="M90.5-12.6C90.5-12.6,90.5-12.5,90.5-12.6c-0.2,0.1-0.4,0.2-0.6,0C90.1-12.6,90.3-12.6,90.5-12.6z"/>
	<path fill="#FDFEFD" d="M61.6,37.9c0.2,0.9,0.4,1.7,0.6,2.5c0,0.2,0.1,0.4,0.1,0.5c0.1,0.4,0.1,0.4-0.3,0.5
		c-1.7,0.7-3.5,1.1-5.3,1.3c-1.6,0.2-3.1,0.3-4.7,0.2c-2.8-0.2-5.4-0.9-7.7-2.7c-2.2-1.7-3.5-4-4.1-6.6c-0.7-3.5-0.4-6.9,1.3-10.1
		c2-3.7,5.1-5.8,9.3-6.3c2.1-0.3,4.2-0.1,6.2,0.6c2.8,1,4.6,3.1,5.8,5.8c0.9,2.1,1.2,4.3,1,6.6c-0.1,0.8-0.1,0.8-0.9,0.8
		c-6,0-11.9,0-17.9,0c-0.7,0-0.7,0-0.7,0.7c0.4,3.7,2.6,6.3,6.2,7.3c1.4,0.4,2.9,0.4,4.3,0.4C57.4,39.2,59.5,38.8,61.6,37.9z
		 M44.6,27.5c0.2,0.1,0.4,0.1,0.5,0.1c4.6,0,9.2,0,13.7,0c0.1,0,0.2,0,0.2,0c0.2,0,0.4-0.1,0.3-0.3c0-0.7-0.1-1.4-0.3-2.1
		c-0.5-1.8-1.5-3.3-3.2-4.2c-1.1-0.5-2.2-0.8-3.4-0.8c-3,0-5.3,1.2-6.8,3.8c-0.5,0.8-0.9,1.8-1.1,2.7C44.7,27,44.6,27.3,44.6,27.5z"
		/>
	<path fill="#FDFEFD" d="M70.9,22.4c-0.1-0.1-0.1-0.2-0.2-0.4c-0.3-0.8-0.5-1.5-0.8-2.3c-0.1-0.4-0.1-0.4,0.2-0.6
		c1.3-0.8,2.7-1.3,4.2-1.6c1.9-0.5,3.8-0.6,5.7-0.5c1.3,0.1,2.5,0.3,3.7,0.8c2.4,1,3.9,2.8,4.7,5.3c0.4,1.3,0.6,2.7,0.6,4.1
		c0,2.8,0,5.7,0,8.5c0,1.6,0,3.3,0.2,4.9c0.1,0.5,0.1,1.1,0.2,1.6c-0.1,0.1-0.3,0.1-0.4,0.1c-1.1,0-2.3,0-3.4,0
		c-0.4,0-0.4,0-0.5-0.4c-0.1-0.8-0.2-1.7-0.3-2.5c0-0.1,0-0.2-0.1-0.3c-0.2,0-0.2,0.1-0.3,0.2c-1.6,1.9-3.6,2.9-5.9,3.4
		c-1.9,0.4-3.8,0.4-5.7-0.3c-2.6-1-4.3-2.8-4.7-5.6c-0.4-2.6,0.4-4.9,2.4-6.7c1.3-1.2,2.9-1.9,4.5-2.4c1.8-0.6,3.6-0.8,5.5-1
		c1.2-0.1,2.3-0.1,3.5-0.1c0.2,0,0.3,0,0.3-0.3c0-1.7-0.4-3.2-1.6-4.4c-0.9-0.9-2-1.3-3.2-1.4c-3-0.3-5.8,0.2-8.4,1.8
		C71,22.3,70.9,22.3,70.9,22.4z M84.4,32.1c0-0.8,0-1.4,0-2c0-0.3-0.1-0.3-0.3-0.3c-2,0-4.1,0.1-6.1,0.5c-1.3,0.3-2.5,0.7-3.5,1.5
		c-1.2,0.9-1.7,2-1.8,3.5c0,2.1,1.2,3.7,3.3,4.2c0.8,0.2,1.6,0.2,2.4,0.1c2.3-0.3,4.1-1.4,5.3-3.4c0.3-0.6,0.6-1.2,0.6-1.8
		C84.4,33.5,84.3,32.7,84.4,32.1z"/>
	<path fill="#FDFEFD" d="M115.2,17.6c1.7,0,3.3,0,4.9,0c0.3,0,0.3,0.2,0.4,0.4c0.8,1.9,1.6,3.8,2.3,5.7c1.4,3.5,2.9,6.9,4.3,10.5
		c0.4,1,0.7,2,1,3c0,0.1,0,0.3,0.2,0.3c0.1,0,0.1-0.1,0.2-0.2c1.6-5.2,3.7-10.3,5.6-15.4c0.5-1.3,1-2.5,1.4-3.8
		c0.1-0.2,0.1-0.3,0.4-0.3c1.5,0,3.1,0,4.6,0c0,0,0.1,0,0.1,0c0,0.2-0.1,0.4-0.2,0.5c-2.4,5.8-4.9,11.6-7.3,17.5
		c-1.1,2.6-2.1,5.1-3.4,7.6c-1,2-2.1,3.9-3.5,5.6c-1.9,2.3-4.2,3.9-7.1,4.7c-0.3,0.1-0.6,0.1-1,0.2c-0.2,0-0.2,0-0.3-0.2
		c-0.3-1.2-0.6-2.3-0.9-3.5c0-0.2,0-0.2,0.2-0.3c0.4-0.1,0.8-0.2,1.1-0.4c2.7-1,4.7-2.9,6.2-5.3c0.3-0.5,0.6-1.1,0.9-1.7
		c0.3-0.6,0.3-1.1,0.1-1.7c-0.6-1.2-1.1-2.4-1.6-3.6c-2.8-6.3-5.6-12.7-8.4-19C115.3,18,115.3,17.8,115.2,17.6z"/>
	<path fill="#FDFEFD" d="M96.1,37.7c0.2,0,0.2,0,0.3,0.1c1.8,1,3.7,1.6,5.7,1.7c1.1,0.1,2.2,0,3.3-0.4c1-0.3,1.8-0.9,2.2-1.9
		c0.7-1.5,0.2-3.2-1.1-4.2c-0.7-0.5-1.5-0.9-2.3-1.2c-0.8-0.3-1.6-0.5-2.4-0.8c-0.9-0.3-1.7-0.7-2.5-1.2c-0.5-0.3-0.9-0.6-1.4-1
		c-2.2-1.9-2.7-4.4-1.8-7c0.6-1.6,1.7-2.8,3.2-3.7c1.3-0.7,2.7-1.1,4.2-1.3c2.2-0.2,4.3,0.1,6.4,0.9c0.4,0.2,0.9,0.4,1.3,0.6
		c0.1,0.1,0.2,0.1,0.2,0.3c-0.4,1-0.7,2.1-1.1,3.1c-0.2,0-0.3-0.1-0.5-0.2c-1.6-0.9-3.4-1.3-5.2-1.3c-0.9,0-1.8,0.1-2.6,0.6
		c-1.4,0.7-2.1,2.3-1.6,3.7c0.2,0.6,0.6,1.1,1.1,1.5c0.5,0.4,1,0.7,1.6,0.9c1,0.4,2,0.8,3,1.1c1.2,0.4,2.3,0.9,3.3,1.5
		c1.5,1,2.6,2.3,2.9,4.1c0.5,2.9-0.5,5.7-3.1,7.4c-1.3,0.8-2.7,1.3-4.2,1.5c-3,0.4-5.9,0.1-8.7-1.1c-0.4-0.1-0.7-0.3-1-0.5
		c-0.1-0.1-0.2-0.1-0.2-0.3C95.4,39.8,95.7,38.7,96.1,37.7z"/>
	<path fill="#F05F2E" d="M103,68.1c0.4,0.4,0.8,0.8,1.1,1.2c0.1,0.1,0.1,0.2,0,0.3c-0.2,0.1-0.3,0.3-0.5,0.4
		c-3.5,3.2-7.6,5.2-12.3,5.7c-7,0.9-13.1-1.2-18.3-6c-0.1-0.1-0.3-0.2-0.3-0.4c0.4-0.4,0.8-0.8,1.3-1.3c4,3.9,8.8,6,14.5,5.9
		C94.1,74.1,98.9,72.1,103,68.1z"/>
	<path fill="#F05F2E" d="M80.3,59.8c4.6,4.5,11.8,4.4,16.3,0c0.4,0.4,0.8,0.9,1.3,1.3c0,0.1-0.2,0.2-0.4,0.4
		c-2.1,1.9-4.6,3.1-7.5,3.4c-4,0.4-7.5-0.7-10.5-3.4c-0.5-0.4-0.4-0.3,0-0.8C79.7,60.4,80,60.1,80.3,59.8z"/>
	<path fill="#128143" d="M44.6,27.5c0-0.3,0-0.5,0.1-0.8c0.2-1,0.6-1.9,1.1-2.7c1.5-2.6,3.8-3.8,6.8-3.8c1.2,0,2.3,0.2,3.4,0.8
		c1.7,0.9,2.7,2.4,3.2,4.2c0.2,0.7,0.3,1.4,0.3,2.1c0,0.3-0.1,0.4-0.3,0.3c-0.1,0-0.2,0-0.2,0c-4.6,0-9.2,0-13.7,0
		C45,27.6,44.8,27.6,44.6,27.5z"/>
	<path fill="#128143" d="M84.4,32.1c0,0.6,0,1.3,0,2.1c-0.1,0.7-0.3,1.3-0.6,1.8c-1.2,2-3,3.1-5.3,3.4c-0.8,0.1-1.6,0.1-2.4-0.1
		c-2.1-0.5-3.3-2-3.3-4.2c0-1.4,0.6-2.6,1.8-3.5c1-0.8,2.2-1.2,3.5-1.5c2-0.4,4-0.5,6.1-0.5c0.3,0,0.3,0.1,0.3,0.3
		C84.4,30.7,84.4,31.4,84.4,32.1z"/>
</g>
</svg>
