<?xml version="1.0" encoding="utf-8"?>
<!-- Generator: Adobe Illustrator 18.0.0, SVG Export Plug-In . SVG Version: 6.00 Build 0)  -->
<!DOCTYPE svg PUBLIC "-//W3C//DTD SVG 1.1//EN" "http://www.w3.org/Graphics/SVG/1.1/DTD/svg11.dtd">
<svg version="1.1" id="Layer_1" xmlns="http://www.w3.org/2000/svg" xmlns:xlink="http://www.w3.org/1999/xlink" x="0px" y="0px"
	 viewBox="0 0 162.1 60.6" enable-background="new 0 0 162.1 60.6" xml:space="preserve">
<g>
	<path fill="#231F20" d="M6.1,56.6c0-17.6,0-35.2,0-52.8c48.8,0,97.5,0,146.3,0c0,0.3,0,0.6,0,1c0,17,0,33.9,0,50.9c0,0.3,0,0.6,0,1
		c-0.4,0-0.8,0-1.1,0C102.8,56.6,54.5,56.6,6.1,56.6z M147.8,52.2c0-14.7,0-29.3,0-43.9c-45.8,0-91.5,0-137.3,0
		c0,14.7,0,29.3,0,43.9C56.3,52.2,102,52.2,147.8,52.2z"/>
	<path fill="#231F20" d="M6.1,56.6c48.4,0,96.8,0,145.1,0c0.3,0,0.7,0,1.1,0c0-0.3,0-0.7,0-1c0-17,0-33.9,0-50.9c0-0.3,0-0.6,0-1
		c0,0.2,0.1,0.4,0.1,0.7c0,10.3,0,20.5,0,30.8c0,7.2,0,14.3,0,21.5c-48.6,0-97.2,0-145.8,0C6.5,56.8,6.3,56.7,6.1,56.6z"/>
	<path fill="#231F20" d="M59.1,25.5c1.5-2.4,3.6-3.1,6.2-2.7c1.9,0.3,3.1,1.5,3.7,3.3c0.3,0.9,0.4,1.8,0.4,2.7c0,3.6,0,7.2,0,10.7
		c0,0.1,0,0.2,0,0.3c-1.5,0-3,0-4.6,0c0-0.3,0-0.6,0-0.9c0-3.3,0-6.6,0-9.9c0-0.1,0-0.2,0-0.4c-0.1-1.4-0.6-2.1-1.6-2.3
		c-1.2-0.3-2.7,0.2-3.3,1.2c-0.1,0.2-0.2,0.5-0.2,0.8c0,3.7,0,7.3,0,11c0,0.2,0,0.3,0,0.5c-1.5,0-3,0-4.6,0c0-0.3,0-0.6,0-0.9
		c0-3.4,0-6.9-0.1-10.3c0-1.3-0.7-2.1-1.7-2.3c-0.7-0.1-1.5,0-2.2,0.2c-0.8,0.3-1.3,0.9-1.3,1.9c0.1,3.5,0,7,0,10.5
		c0,0.3,0,0.5,0,0.8c-1.5,0-3,0-4.5,0c0-5.6,0-11.2,0-16.8c1.4,0,2.7,0,4.2,0c0.1,0.6,0.1,1.2,0.2,2c1.3-1.6,2.9-2.4,4.8-2.3
		C56.6,22.7,58.1,23.5,59.1,25.5z"/>
	<path fill="#231F20" d="M42.8,39.9c-1.3,0-2.7,0-4.1,0c-0.2,0-0.4-0.2-0.5-0.4c-0.2-0.4-0.3-0.9-0.5-1.4c-0.1,0.1-0.2,0.2-0.3,0.2
		c-1.7,1.9-3.9,2.2-6.2,1.6c-2-0.5-3.2-2-3.4-4.2c-0.2-2.3,0.6-4,2.5-5c1.6-0.8,3.3-0.9,5-1c0.7,0,1.5,0,2.2,0
		c0.4-2-0.2-3.4-1.5-3.7c-1.8-0.4-2.8,0.2-3.2,1.9c-1.5,0-3,0-4.5,0c-0.1-1.1,0.3-2.1,1-2.9c0.9-1.1,2-1.8,3.3-2.1
		c1.9-0.5,3.8-0.5,5.8,0.1c2.5,0.8,3.9,2.7,4,5.3c0,2.6,0,5.3,0,7.9C42.3,37.5,42.6,38.7,42.8,39.9z M37.5,32.6c-1.2,0-2.2,0-3.3,0
		c-0.3,0-0.7,0.2-1,0.5c-0.7,0.6-0.9,1.3-0.8,2.2c0.1,0.7,0.5,1.1,1.1,1.4c1.2,0.5,3.2-0.1,3.9-1.2c0.1-0.1,0.2-0.3,0.2-0.4
		C37.5,34.3,37.5,33.5,37.5,32.6z"/>
	<path fill="#231F20" d="M17.2,43c0.4,0.1,0.7,0.1,0.9,0.2c1.4,0.2,2.3-0.5,2.4-1.9c0-0.4,0-0.8,0-1.2c0-5.4,0-10.7,0-16.1
		c0-0.3,0-0.6,0-0.9c1.6,0,3.1,0,4.6,0c0,0.3,0,0.5,0,0.8c0,5.5,0,11.1,0,16.6c0,1-0.1,2.1-0.5,3.1c-0.8,2.3-2.7,3.2-5,3.3
		c-0.7,0-1.5-0.1-2.2-0.1c-0.4,0-0.5-0.2-0.5-0.6C17.1,45,17.1,44.1,17.2,43z"/>
	<path fill="#231F20" d="M123.5,15.5c0.7,0,1.2,0,1.9,0c0,8.1,0,16.2,0,24.3c-0.5,0-1.1,0-1.6,0c-0.1-0.7-0.1-1.4-0.2-2.2
		c-0.3,0.3-0.5,0.6-0.7,0.8c-3.1,3.1-8.6,2.1-10.2-2.1c-1.3-3.4-1.2-6.9,0.3-10.3c2-4.5,8.3-4.3,10.4-1c0,0.1,0.1,0.1,0.2,0.1
		C123.5,22,123.5,18.8,123.5,15.5z M123.5,31.7c0-1,0-2,0-3c0-0.4,0-0.8-0.1-1.2c-0.7-2-2.5-3.1-4.7-3.1c-2.1,0-3.5,0.9-4.2,3
		c-0.9,2.6-1,5.2-0.2,7.9c0.4,1.5,1.4,2.7,3,3.1c0.9,0.2,1.8,0.2,2.7,0c2.1-0.3,3.5-2.1,3.5-4.1C123.5,33.4,123.5,32.5,123.5,31.7z"
		/>
	<path fill="#231F20" d="M126.9,23c0.7,0,1.3,0,1.8,0c0.2,0,0.4,0.3,0.5,0.5c1.6,4.4,3.3,8.9,4.9,13.3c0,0.1,0.1,0.2,0.2,0.4
		c0.4-1.1,0.8-2.1,1.1-3.2c1.2-3.5,2.5-7,3.7-10.4c0.2-0.5,0.4-0.7,1-0.7c0.4,0,0.9,0,1.4,0c-0.4,1.1-0.8,2.2-1.2,3.2
		c-2,5.4-4.1,10.9-6.1,16.3c-0.2,0.7-0.5,1.3-0.9,1.9c-1.3,2.1-2.9,2.8-5.4,2.1c0.1-0.5,0.1-1,0.2-1.6c0.3,0,0.6,0.1,0.8,0.1
		c1.2,0.1,2.2-0.2,2.7-1.3c0.6-1.2,1.1-2.5,1.6-3.8c0.1-0.2,0-0.6-0.1-0.8c-2-5.1-4-10.2-6-15.3C127,23.5,127,23.3,126.9,23z"/>
	<path fill="#231F20" d="M72.4,35.2c0.5,0,1,0,1.5,0c0.1,0,0.4,0.2,0.4,0.3c0.3,2.3,1.9,2.9,3.8,3.1c1.1,0.1,2.2-0.1,3.3-0.4
		c1.1-0.3,1.8-1.2,1.9-2.4c0-1.2-0.6-2.1-1.7-2.6c-1-0.4-2.1-0.7-3.2-1.1c-1.1-0.4-2.2-0.7-3.3-1.1c-3-1.3-2.8-5.2-0.8-6.8
		c1-0.8,2.1-1.3,3.4-1.4c2.3-0.2,4.4,0,6.2,1.8c0.9,0.9,1.2,2,1.2,3.2c-0.7,0-1.2,0-1.9,0c-0.2-1.8-1.3-2.9-3-3.2
		c-1-0.2-2.1-0.1-3.2,0.1c-1.3,0.2-2.1,1.3-2.2,2.5c-0.1,1.1,0.5,2.1,1.9,2.6c1.3,0.5,2.6,0.7,3.9,1.2c1,0.3,2,0.7,2.9,1.3
		c2.2,1.4,2.4,4.8,0.4,6.6c-0.9,0.8-2,1.3-3.2,1.4c-1.9,0.2-3.7,0.2-5.4-0.6C73.4,38.7,72.3,37,72.4,35.2z"/>
	<path fill="#231F20" d="M107.4,23c0.7,0,1.2,0,1.9,0c0,5.6,0,11.2,0,16.9c-0.5,0-1.1,0-1.6,0c-0.1-0.8-0.1-1.6-0.2-2.4
		c-0.1,0.1-0.2,0.1-0.2,0.2c-1.7,2.6-4.9,3-7.3,2.2c-2.2-0.8-3.1-2.6-3.4-4.8c-0.1-1-0.1-2-0.2-3c0-2.8,0-5.5,0-8.3
		c0-0.3,0-0.5,0-0.8c0.7,0,1.2,0,1.9,0c0,0.3,0,0.6,0,0.8c0,3.4,0,6.8,0.1,10.2c0,0.7,0.2,1.4,0.3,2c0.4,1.5,1.4,2.4,3,2.5
		c2.6,0.3,4.5-0.6,5.4-2.7c0.2-0.4,0.3-0.9,0.3-1.4c0-3.5,0-7,0-10.5C107.4,23.6,107.4,23.4,107.4,23z"/>
	<path fill="#231F20" d="M88.7,24.6c-1,0-1.8,0-2.7,0c0-0.5,0-1,0-1.6c0.9,0,1.8,0,2.7,0c0-1.5,0-2.8,0-4.2c0.7,0,1.3,0,2,0
		c0,1.4,0,2.8,0,4.2c1.2,0,2.3,0,3.5,0c0,0.6,0,1,0,1.6c-1.1,0-2.2,0-3.4,0c0,0.4,0,0.6,0,0.9c0,3.4,0,6.8,0,10.2
		c0,0.4,0,0.7,0.1,1.1c0.2,1.4,1.1,2,2.4,1.8c0.3,0,0.7-0.1,1.1-0.1c0.1,0.5,0.2,0.9,0.3,1.3c-2.7,1.1-5.7,0.4-5.8-3.3
		c-0.1-3.1,0-6.2-0.1-9.3C88.7,26.4,88.7,25.5,88.7,24.6z"/>
	<path fill="#231F20" d="M25.1,15.6c0,1.1,0,2.2,0,3.4c-1.5,0-3,0-4.5,0c0-1.1,0-2.2,0-3.4C22.1,15.6,23.5,15.6,25.1,15.6z"/>
</g>
</svg>
