<?xml version="1.0" encoding="utf-8"?>
<!-- Generator: Adobe Illustrator 18.0.0, SVG Export Plug-In . SVG Version: 6.00 Build 0)  -->
<!DOCTYPE svg PUBLIC "-//W3C//DTD SVG 1.1//EN" "http://www.w3.org/Graphics/SVG/1.1/DTD/svg11.dtd">
<svg version="1.1" id="Layer_1" xmlns="http://www.w3.org/2000/svg" xmlns:xlink="http://www.w3.org/1999/xlink" x="0px" y="0px"
	 viewBox="0 0 162.1 60.6" enable-background="new 0 0 162.1 60.6" xml:space="preserve">
<g>
	<g>
		<path fill="#1E2F5E" d="M88.5,40.9c-10.4,0-18.8-8.4-18.8-18.8V-4.2c0-10.4,8.4-18.8,18.8-18.8c10.4,0,18.8,8.4,18.8,18.8v26.2
			C107.3,32.5,98.9,40.9,88.5,40.9z M88.5-20.8c-9.2,0-16.6,7.5-16.6,16.6v26.2c0,9.2,7.5,16.6,16.6,16.6c9.2,0,16.6-7.5,16.6-16.6
			V-4.2C105.2-13.3,97.7-20.8,88.5-20.8z"/>
	</g>
	<g>
		<path fill="#1E2F5E" d="M88.5,30.1c-0.6,0-1.1-0.5-1.1-1.1c0-0.6,0.5-1.1,1.1-1.1c4.9,0,8.9-4,8.9-8.9c0-4.9-4-8.9-8.9-8.9
			c-6.1,0-11.1-5-11.1-11.1c0-6.1,5-11.1,11.1-11.1c0.6,0,1.1,0.5,1.1,1.1c0,0.6-0.5,1.1-1.1,1.1c-4.9,0-8.9,4-8.9,8.9
			c0,4.9,4,8.9,8.9,8.9c6.1,0,11.1,5,11.1,11.1C99.6,25.1,94.6,30.1,88.5,30.1z"/>
	</g>
	<g>
		<path fill="#1E2F5E" d="M88.4,5.8c-1.6,0-3-1.3-3-3v-6.4c0-1.6,1.3-3,3-3c1.6,0,3,1.3,3,3v6.4C91.4,4.4,90.1,5.8,88.4,5.8z
			 M88.4-4.4c-0.4,0-0.8,0.4-0.8,0.8v6.4c0,0.4,0.4,0.8,0.8,0.8c0.4,0,0.8-0.4,0.8-0.8v-6.4C89.2-4,88.9-4.4,88.4-4.4z"/>
	</g>
	<g>
		<path fill="#1E2F5E" d="M86.5,8.3"/>
	</g>
	<g>
		<path fill="#1E2F5E" d="M86.5,1.7"/>
	</g>
	<g>
		<path fill="#1E2F5E" d="M26.6,76.2c-2.7,0-5-0.8-6.8-2.3c-0.3-0.2-0.5-0.6-0.5-0.9c0-0.5,0.4-0.9,0.9-0.9c0.4,0,0.7,0.2,0.9,0.4
			c1.5,1.2,3.5,1.9,5.5,1.9c2.8,0,4.5-1.1,4.5-2.9c0-2-2.1-2.6-4.6-3.3c-5.3-1.5-7-3.1-7-5.7c0-3.1,2.8-4.7,6.9-4.7
			c1.8,0,3.7,0.5,5.4,1.4c0.6,0.3,1.1,0.7,1.1,1.2c0,0.5-0.4,0.9-1,0.9c-0.3,0-0.6-0.2-1-0.4c-1.3-0.7-3-1.2-4.6-1.2
			c-2.6,0-4.5,0.8-4.5,2.6c0,1.6,1.1,2.5,4.9,3.6c4,1.2,6.8,2.2,6.8,5.4C33.5,74.1,31,76.2,26.6,76.2z"/>
		<path fill="#1E2F5E" d="M54.4,72.1l4.4-13.4c0.2-0.5,0.4-0.8,1-0.8c0.6,0,1.1,0.4,1.1,1c0,0.2,0,0.3-0.1,0.5l-5.3,15.8
			C55.4,75.7,55,76,54.4,76c-0.6,0-0.9-0.3-1.1-0.8L48.7,62L44,75.3c-0.2,0.5-0.5,0.8-1.1,0.8c-0.6,0-0.9-0.3-1.1-0.7l-5.3-15.8
			c0-0.2-0.1-0.3-0.1-0.5c0-0.6,0.5-1,1.1-1c0.6,0,0.8,0.3,1,0.8L43,72.1l4.7-13.4c0.2-0.4,0.4-0.8,1-0.8c0.6,0,0.8,0.3,1,0.8
			L54.4,72.1z"/>
		<path fill="#1E2F5E" d="M66.1,51.4c0.8,0,1.5,0.7,1.5,1.5c0,0.8-0.7,1.5-1.5,1.5c-0.8,0-1.5-0.7-1.5-1.5
			C64.5,52.1,65.2,51.4,66.1,51.4z M66.1,76c-0.7,0-1.2-0.5-1.2-1.2V59.1c0-0.7,0.5-1.2,1.2-1.2c0.7,0,1.2,0.5,1.2,1.2v15.7
			C67.3,75.5,66.7,76,66.1,76z"/>
		<path fill="#1E2F5E" d="M103.8,74.8c0,0.7-0.5,1.2-1.2,1.2c-0.7,0-1.2-0.5-1.2-1.2v-8.9c0-3.6-1.8-5.9-5.6-5.9
			c-3.4,0-5.9,2.5-5.9,6.4v8.4c0,0.7-0.5,1.2-1.2,1.2c-0.7,0-1.2-0.5-1.2-1.2v-8.9c0-3.6-1.8-5.9-5.6-5.9c-3.4,0-5.9,2.5-5.9,6.4
			v8.4c0,0.7-0.5,1.2-1.2,1.2c-0.7,0-1.2-0.5-1.2-1.2V59.1c0-0.7,0.5-1.2,1.2-1.2c0.7,0,1.2,0.5,1.2,1.2v2.1
			c1.3-2.2,3.5-3.5,6.4-3.5c3.2,0,5.6,1.7,6.7,4.1c1.7-2.9,4.1-4.1,7.2-4.1c4.7,0,7.4,3.4,7.4,8.1V74.8z"/>
		<path fill="#1E2F5E" d="M112.4,61.5c1.5-2.3,4-3.7,7.2-3.7c4.9,0,8.8,3.9,8.8,9.2c0,5.3-3.9,9.2-8.8,9.2c-3.2,0-5.7-1.4-7.2-3.7
			v9.9c0,0.7-0.5,1.2-1.2,1.2c-0.7,0-1.2-0.5-1.2-1.2V59.1c0-0.7,0.5-1.2,1.2-1.2c0.7,0,1.2,0.5,1.2,1.2V61.5z M119.3,59.8
			c-4.1,0-6.8,3.3-6.8,7.2c0,3.9,2.7,7.2,6.8,7.2c4,0,6.8-3,6.8-7.2S123.3,59.8,119.3,59.8z"/>
		<path fill="#1E2F5E" d="M147.1,76c-0.8,0-1.2-0.6-1.2-1.2v-0.9c-1.4,1.5-3.5,2.3-6,2.3c-4.3,0-7-2.3-7-5.3c0-3.2,2.9-5.3,7.4-5.3
			c2.6,0,4.7,1.1,5.6,2.2v-2.4c0-3.8-1.9-5.6-5.8-5.6c-1.9,0-3.4,0.4-4.9,1c-0.1,0-0.3,0.1-0.6,0.1c-0.6,0-1-0.4-1-1
			c0-0.4,0.3-0.7,0.6-0.9c1.6-0.8,3.5-1.3,6.2-1.3c5.1,0,8,2.7,8,7.6v9.5C148.3,75.5,147.8,76,147.1,76z M140.4,67.4
			c-3.1,0-5.1,1.4-5.1,3.5c0,2.2,2,3.5,5,3.5c2.9,0,5.6-1.4,5.6-3.5C145.9,68.7,143.1,67.4,140.4,67.4z"/>
		<path fill="#1E2F5E" d="M155.7,76c-0.7,0-1.2-0.5-1.2-1.2v-25c0-0.7,0.5-1.2,1.2-1.2c0.7,0,1.2,0.5,1.2,1.2v25
			C156.9,75.5,156.4,76,155.7,76z"/>
	</g>
</g>
</svg>
