<?xml version="1.0" encoding="utf-8"?>
<!-- Generator: Adobe Illustrator 18.0.0, SVG Export Plug-In . SVG Version: 6.00 Build 0)  -->
<!DOCTYPE svg PUBLIC "-//W3C//DTD SVG 1.1//EN" "http://www.w3.org/Graphics/SVG/1.1/DTD/svg11.dtd">
<svg version="1.1" id="Layer_1" xmlns="http://www.w3.org/2000/svg" xmlns:xlink="http://www.w3.org/1999/xlink" x="0px" y="0px"
	 viewBox="-140 0 430 150" enable-background="new -140 0 430 150" xml:space="preserve">
<g>
	<path fill="#27ACE3" d="M-45.9,74.4c-2.5,16.4-5,32.2-7.6,48.5c0,1.9-0.6,3.2-0.6,5s-1.3,3.2-3.8,3.2c-3.2,0-5.7,0-8.8,0
		c-3.2,0-3.8-0.6-4.4-3.8c-1.3-8.2-3.2-16.4-4.4-25.2c-3.8-20.8-7.6-41-11.3-61.8c-0.6-2.5-0.6-5.7-1.3-8.2c0-1.9,0.6-2.5,1.9-2.5
		c2.5,0,5.7,0,8.2,0c2.5,0,3.2,0.6,3.8,3.2c1.3,6.3,2.5,12.6,3.2,19.5c1.9,12,4.4,24,6.3,35.9l0.6,0.6c1.3-4.4,1.9-9.5,2.5-13.9
		c2.5-14.5,4.4-28.4,6.9-42.9c0.6-3.2,0.6-3.2,3.8-3.2c2.5,0,5,0,7.6,0c3.8,0,3.8,0,4.4,3.8c0.6,4.4,1.3,8.2,1.9,12.6
		c1.9,13.2,4.4,26.5,6.3,40.4c0,1.3,0.6,2.5,1.3,4.4c1.3-7.6,2.5-14.5,3.8-20.8c1.9-12,4.4-24,6.3-35.9c0.6-3.8,0.6-3.8,4.4-3.8
		c2.5,0,5,0,7.6,0c2.5,0,2.5,0.6,2.5,3.2c-1.9,10.1-3.2,19.5-5,29.6c-2.5,15.8-5.7,32.2-8.2,47.9c-1.3,5.7-1.9,10.7-3.2,16.4
		c-0.6,3.8-1.3,4.4-5,4.4c-2.5,0-4.4,0-6.9,0c-3.8,0-3.8,0-4.4-3.8c-1.9-10.7-3.8-20.8-5-31.5c-1.3-6.3-1.9-12-2.5-18.3
		C-44.6,76.3-44.6,75-45.9,74.4z"/>
	<path fill="#A9ABAE" d="M185.5,80.1c0,11.3,0,22.1,0,33.4c0,2.5-0.6,4.4-2.5,6.3c-3.2,2.5-5.7,5.7-8.8,8.8c-1.3,1.3-3.2,1.9-5,1.9
		c-8.8,0-17.7,0-26.5,0c-3.8,0-4.4-0.6-4.4-4.4c0-12.6,0-24.6,0-37.2c0-17.7,0-34.7,0-52.3c0-0.6,0-1.9,0-2.5c0-4.4,0-4.4,4.4-4.4
		c2.5,0,5,0,7.6,0c6.3,0,12.6,0,19.5,0c2.5,0,4.4,0.6,5.7,2.5c2.5,2.5,5,5.7,8.2,8.2c1.9,1.9,2.5,3.8,2.5,6.3
		C185.5,57.4,185.5,68.7,185.5,80.1z"/>
	<path fill="#A9ABAE" d="M199.4,79.4c0-10.7,0-21.4,0-32.2c0-3.8,0.6-6.3,3.8-8.2c2.5-1.9,5-4.4,6.9-6.9c1.3-1.9,3.2-2.5,5.7-1.9
		c5,0,10.1,0,15.1,0c1.9,0,3.8,0.6,5,1.9c3.2,3.2,5.7,6.3,8.8,8.8c1.9,1.9,2.5,3.2,2.5,5.7c0,22.1,0,44.1,0,66.8
		c0,2.5-0.6,5-2.5,6.9c-3.2,2.5-5.7,5.7-8.2,8.2c-1.9,1.9-3.8,2.5-6.3,2.5c-4.4,0-8.8,0-13.9,0c-2.5,0-3.8-0.6-5.7-2.5
		c-2.5-3.2-5.7-5.7-8.8-8.8c-1.9-1.9-2.5-3.8-2.5-6.3C199.4,102.1,199.4,90.8,199.4,79.4z"/>
	<path fill="#A9ABAE" d="M63.2,130.5c-8.2,0-6.3,0.6-8.2-6.9c-0.6-2.5-1.3-4.4-1.9-6.9c-0.6-3.2-1.3-3.8-4.4-3.8c-6.3,0-12,0-18.3,0
		c-1.9,0-3.2,0.6-3.8,3.2c-0.6,3.8-1.9,6.9-2.5,10.7c-0.6,3.2-1.3,3.8-4.4,3.8c-2.5,0-4.4,0-6.9,0c-3.2,0-3.8-0.6-3.2-3.8
		c1.3-5.7,2.5-12,4.4-17.7c5.7-24.6,11.3-49.2,17.7-73.8c0-0.6,0.6-1.9,0.6-2.5c0-2.5,1.9-3.2,3.8-3.2c2.5,0,4.4,0,6.9,0
		c3.2,0,3.8,0,4.4,3.8c1.9,8.2,3.8,15.8,5.7,24c5.7,22.1,10.7,44.1,16.4,66.8c0.6,1.3,0.6,3.2,1.3,4.4c0.6,1.9-0.6,2.5-2.5,2.5
		C66.3,130.5,65.1,130.5,63.2,130.5z"/>
	<path fill="#A9ABAE" d="M97.9,73.1c0,12.6,0,25.9,0,38.5c0,4.4,0,5,5,5c6.9,0,13.9,0,20.8,0c3.2,0,3.2,0,3.2,3.8c0,1.9,0,3.8,0,6.3
		c0,4.4,0,4.4-4.4,4.4c-3.2,0-6.3,0-9.5,0c-8.2,0-16.4,0-24.6,0c-3.8,0-4.4-0.6-4.4-4.4c0-30.9,0-61.8,0-92.7c0-3.8,0-3.8,3.8-4.4
		c2.5,0,5,0,7.6,0c1.3,0,1.9,0.6,1.9,1.9c0,1.3,0,1.9,0,3.2C97.9,47.3,97.9,60.5,97.9,73.1z"/>
	<path fill="#FFFFFF" d="M152.1,79.4c0-10.1,0-20.2,0-30.9c0-5.7,0-5.7,5.7-5.7c1.9,0,4.4,0,6.3,0c3.8,0,6.9,3.2,6.9,6.9
		c0,3.2,0,5.7,0,8.8c0,15.8,0,32.2,0,47.9c0,5.7-3.2,8.8-8.8,8.8c-1.9,0-3.8,0-5,0c-5,0-5,0-5-5C152.1,100.9,152.1,90.2,152.1,79.4z
		"/>
	<path fill="#FFFFFF" d="M213.9,79.4c0-8.8,0-17.7,0-26.5c0-6.9,2.5-9.5,9.5-9.5c2.5,0,5,0,6.9,2.5c1.9,1.9,2.5,3.8,2.5,6.9
		c0,18.3,0,36.6,0,55.5c0,4.4-3.8,8.8-8.2,8.8c-2.5,0-5,0.6-6.9-1.3c-2.5-1.9-4.4-3.8-4.4-7.6C213.9,98.4,213.9,88.9,213.9,79.4z"/>
	<path fill="#FFFFFF" d="M39.2,62.4c1.9,4.4,2.5,8.2,3.2,12c1.9,6.9,3.8,13.9,5,21.4C48,99,48,99,44.9,99c-3.8,0-8.2,0-12,0
		c-1.9,0-2.5-0.6-1.9-2.5C34.2,85.8,36.7,74.4,39.2,62.4z"/>
</g>
</svg>
