<?xml version="1.0" encoding="utf-8"?>
<!-- Generator: Adobe Illustrator 18.0.0, SVG Export Plug-In . SVG Version: 6.00 Build 0)  -->
<!DOCTYPE svg PUBLIC "-//W3C//DTD SVG 1.1//EN" "http://www.w3.org/Graphics/SVG/1.1/DTD/svg11.dtd">
<svg version="1.1" id="Layer_1" xmlns="http://www.w3.org/2000/svg" xmlns:xlink="http://www.w3.org/1999/xlink" x="0px" y="0px"
	 viewBox="0 0 162.1 60.6" enable-background="new 0 0 162.1 60.6" xml:space="preserve">
<g>
	<g>
		<g>
			<path fill="#231F20" d="M59.7,50l-1.5,5.1H58l-1.3-4.4l-0.1-0.5h0l-0.1,0.5l-1.3,4.4H55L53.5,50h0.2l1.3,4.4l0.1,0.5h0l0.1-0.5
				l1.3-4.4h0.2l1.3,4.4l0.1,0.5h0l0.1-0.5l1.3-4.4H59.7z"/>
			<path fill="#231F20" d="M66.1,50l-1.5,5.1h-0.2l-1.3-4.4L63,50.2h0l-0.1,0.5l-1.3,4.4h-0.2L59.9,50h0.2l1.3,4.4l0.1,0.5h0
				l0.1-0.5l1.3-4.4h0.2l1.3,4.4l0.1,0.5h0l0.1-0.5l1.3-4.4H66.1z"/>
			<path fill="#231F20" d="M72.5,50L71,55.1h-0.2l-1.3-4.4l-0.1-0.5h0l-0.1,0.5l-1.3,4.4h-0.2L66.3,50h0.2l1.3,4.4l0.1,0.5h0
				l0.1-0.5l1.3-4.4h0.2l1.3,4.4l0.1,0.5h0l0.1-0.5l1.3-4.4H72.5z"/>
			<path fill="#231F20" d="M72.8,55.2c-0.1,0-0.2-0.1-0.2-0.2c0-0.1,0.1-0.2,0.2-0.2s0.2,0.1,0.2,0.2C73,55.1,73,55.2,72.8,55.2z"/>
			<path fill="#231F20" d="M77.6,54.7c-0.4,0.3-0.9,0.5-1.5,0.5c-1.4,0-2.1-1-2.1-2.6c0-1.6,0.8-2.7,2.1-2.7c0.6,0,1,0.2,1.4,0.4
				l-0.1,0.1c-0.3-0.3-0.8-0.4-1.3-0.4c-1.4,0-2,1.2-2,2.5c0,1.2,0.5,2.4,2,2.4c0.5,0,1-0.1,1.4-0.5L77.6,54.7z"/>
			<path fill="#231F20" d="M80.4,55.2c-1.4,0-2.1-1-2.1-2.6c0-1.6,0.7-2.6,2.1-2.6c1.4,0,2.1,1,2.1,2.6
				C82.5,54.1,81.8,55.2,80.4,55.2z M80.4,50.1c-1.4,0-1.9,1.2-1.9,2.5c0,1.3,0.5,2.5,1.9,2.5c1.4,0,1.9-1.2,1.9-2.5
				S81.8,50.1,80.4,50.1z"/>
			<path fill="#231F20" d="M87.5,55.1h-0.2v-1.3h0c-0.3,0.8-0.9,1.4-1.8,1.4c-1.4,0-2.1-1.1-2.1-2.6c0-1.6,0.7-2.6,2.1-2.6
				c0.9,0,1.5,0.5,1.8,1.4h0v-3h0.2V55.1z M85.5,50.1c-1.4,0-1.9,1.2-1.9,2.5c0,1.3,0.6,2.5,2,2.5c1.2,0,1.9-1.1,1.9-2.5
				C87.4,51.1,86.7,50.1,85.5,50.1z"/>
			<path fill="#231F20" d="M92.5,55.1h-0.2v-0.8h0c-0.3,0.6-1.2,0.8-1.9,0.8c-1,0-1.8-0.4-1.8-1.4c0-1.5,1.7-1.5,2.9-1.5
				c0.3,0,0.6,0,0.8,0.1l0,0v-0.5c0-1.3-0.8-1.7-1.7-1.7c-0.5,0-1.1,0.2-1.6,0.5L89,50.4c0.6-0.4,1.1-0.5,1.7-0.5
				c1,0,1.8,0.4,1.8,1.8V55.1z M92.4,52.4c-0.2,0-0.6-0.1-0.7-0.1c-0.2,0-0.5,0-0.8,0c-0.3,0-0.6,0-0.9,0.1
				c-0.6,0.1-1.2,0.5-1.2,1.3c0,1.1,1.1,1.3,1.6,1.3c0.6,0,1.9-0.3,1.9-1.3L92.4,52.4L92.4,52.4z"/>
			<path fill="#231F20" d="M94,48.8c-0.1,0-0.2-0.1-0.2-0.3c0-0.2,0.1-0.3,0.2-0.3c0.1,0,0.2,0.1,0.2,0.3
				C94.2,48.8,94.1,48.8,94,48.8z M94.1,55.1h-0.2V50h0.2V55.1z"/>
			<path fill="#231F20" d="M99.4,55.1h-0.2V52c0-1-0.3-1.9-1.7-1.9c-1,0-1.9,0.7-1.9,1.9v3.1h-0.2V50h0.2v1.1h0
				c0.3-0.7,1-1.2,1.8-1.2c1.4,0,1.9,0.8,1.9,1.8V55.1z"/>
			<path fill="#231F20" d="M103.1,54.8c-0.3,0.2-0.6,0.3-1,0.3c-0.7,0-1.1-0.4-1.1-1.4v-3.6l0,0h-0.6V50h0.6l0,0v-1l0.2-0.1V50l0,0
				h1.6v0.2h-1.6l0,0v3.5c0,0.9,0.4,1.3,1,1.3c0.3,0,0.6-0.1,0.9-0.3L103.1,54.8z"/>
			<path fill="#231F20" d="M103.7,52.6L103.7,52.6c0,1.3,0.6,2.4,2,2.4c0.5,0,1-0.2,1.4-0.5l0.1,0.1c-0.4,0.4-0.9,0.5-1.5,0.5
				c-1.6,0-2.2-1.2-2.2-2.6c0-1.4,0.6-2.7,2.1-2.7c1.6,0,2.1,1.3,2.1,2.7L103.7,52.6z M107.7,52.5L107.7,52.5
				c-0.1-1.2-0.6-2.4-2-2.4c-1.3,0-1.9,1.2-2,2.4l0,0L107.7,52.5z"/>
			<path fill="#231F20" d="M109.1,55.1H109v-6.8h0.2V55.1z"/>
			<path fill="#231F20" d="M110.7,55.1h-0.2v-6.8h0.2V55.1z"/>
			<path fill="#231F20" d="M112.3,48.8c-0.1,0-0.2-0.1-0.2-0.3c0-0.2,0.1-0.3,0.2-0.3c0.1,0,0.2,0.1,0.2,0.3
				C112.5,48.8,112.4,48.8,112.3,48.8z M112.3,55.1h-0.2V50h0.2V55.1z"/>
			<path fill="#231F20" d="M117.6,50v4.7c0,1.3-0.6,2.1-2,2.1c-0.6,0-1.2-0.2-1.6-0.5l0.1-0.1c0.4,0.3,1,0.5,1.5,0.5
				c1.3,0,1.9-0.7,1.9-1.9v-1.4h0c-0.2,0.7-0.9,1.2-1.8,1.2c-1.4,0-2.1-1-2.1-2.3c0-1.3,0.7-2.3,2.1-2.3c0.9,0,1.6,0.6,1.8,1.3h0V50
				H117.6z M115.6,50.1c-1.3,0-2,1-2,2.2c0,1.3,0.7,2.2,2,2.2c1.3,0,1.8-1,1.8-2.2C117.5,51.2,116.9,50.1,115.6,50.1z"/>
			<path fill="#231F20" d="M118.9,52.6L118.9,52.6c0,1.3,0.6,2.4,2,2.4c0.5,0,1-0.2,1.4-0.5l0.1,0.1c-0.4,0.4-0.9,0.5-1.5,0.5
				c-1.6,0-2.2-1.2-2.2-2.6c0-1.4,0.6-2.7,2.1-2.7c1.6,0,2.1,1.3,2.1,2.7L118.9,52.6z M122.8,52.5L122.8,52.5
				c-0.1-1.2-0.6-2.4-2-2.4c-1.3,0-1.9,1.2-2,2.4l0,0L122.8,52.5z"/>
			<path fill="#231F20" d="M128,55.1h-0.2V52c0-1-0.3-1.9-1.7-1.9c-1,0-1.9,0.7-1.9,1.9v3.1h-0.2V50h0.2v1.1h0
				c0.3-0.7,1-1.2,1.8-1.2c1.4,0,1.9,0.8,1.9,1.8V55.1z"/>
			<path fill="#231F20" d="M132.7,54.7c-0.4,0.3-0.9,0.5-1.5,0.5c-1.4,0-2.1-1-2.1-2.6c0-1.6,0.8-2.7,2.1-2.7c0.6,0,1,0.2,1.4,0.4
				l-0.1,0.1c-0.3-0.3-0.8-0.4-1.3-0.4c-1.4,0-2,1.2-2,2.5c0,1.2,0.5,2.4,2,2.4c0.5,0,1-0.1,1.4-0.5L132.7,54.7z"/>
			<path fill="#231F20" d="M133.5,52.6L133.5,52.6c0,1.3,0.6,2.4,2,2.4c0.5,0,1-0.2,1.4-0.5l0.1,0.1c-0.4,0.4-0.9,0.5-1.5,0.5
				c-1.6,0-2.2-1.2-2.2-2.6c0-1.4,0.6-2.7,2.1-2.7c1.6,0,2.1,1.3,2.1,2.7L133.5,52.6z M137.5,52.5L137.5,52.5
				c-0.1-1.2-0.6-2.4-2-2.4c-1.3,0-1.9,1.2-2,2.4l0,0L137.5,52.5z"/>
			<path fill="#231F20" d="M138.8,55.2c-0.1,0-0.2-0.1-0.2-0.2c0-0.1,0.1-0.2,0.2-0.2c0.1,0,0.2,0.1,0.2,0.2
				C139,55.1,138.9,55.2,138.8,55.2z"/>
			<path fill="#231F20" d="M143.6,54.7c-0.4,0.3-0.9,0.5-1.5,0.5c-1.4,0-2.1-1-2.1-2.6c0-1.6,0.8-2.7,2.1-2.7c0.6,0,1,0.2,1.4,0.4
				l-0.1,0.1c-0.3-0.3-0.8-0.4-1.3-0.4c-1.4,0-2,1.2-2,2.5c0,1.2,0.5,2.4,2,2.4c0.5,0,1-0.1,1.4-0.5L143.6,54.7z"/>
			<path fill="#231F20" d="M146.3,55.2c-1.4,0-2.1-1-2.1-2.6c0-1.6,0.7-2.6,2.1-2.6c1.4,0,2.1,1,2.1,2.6
				C148.4,54.1,147.7,55.2,146.3,55.2z M146.3,50.1c-1.4,0-1.9,1.2-1.9,2.5c0,1.3,0.5,2.5,1.9,2.5c1.4,0,1.9-1.2,1.9-2.5
				S147.7,50.1,146.3,50.1z"/>
			<path fill="#231F20" d="M155.7,55.1h-0.2v-3c0-1.3-0.4-2-1.3-2c-0.9,0-1.5,0.8-1.5,1.8v3.2h-0.2V52c0-1.3-0.4-1.9-1.3-1.9
				c-0.9,0-1.5,0.8-1.5,1.9v3.1h-0.2V50h0.2v1.1h0c0.2-0.6,0.7-1.2,1.5-1.2c1,0,1.3,0.7,1.4,1.3h0c0.2-0.8,0.8-1.3,1.5-1.3
				c1,0,1.5,0.6,1.5,2L155.7,55.1z"/>
		</g>
	</g>
	<g>
		<path fill="#333333" d="M70.6,46.3l-0.9-1.8c6.3-3.2,10.2-9.5,10.2-16.6c0-10.2-8.3-18.5-18.5-18.5s-18.5,8.3-18.5,18.5
			c0,7,3.9,13.4,10.2,16.5l-0.9,1.8c-7-3.5-11.3-10.5-11.3-18.4c0-11.3,9.2-20.5,20.5-20.5s20.5,9.2,20.5,20.5
			C81.9,35.8,77.6,42.8,70.6,46.3z"/>
		<path fill="#1D76BB" d="M61.4,14.2c-7.6,0-13.7,6.1-13.7,13.7s6.1,13.7,13.7,13.7c7.6,0,13.7-6.1,13.7-13.7S68.9,14.2,61.4,14.2z
			 M53.1,21c0-0.6,0.5-1,1-1c0.6,0,1,0.5,1,1c0,0.6-0.5,1-1,1C53.6,22,53.1,21.6,53.1,21z M61.4,35.2c-4,0-7.3-3.3-7.3-7.3
			s3.3-7.3,7.3-7.3c4,0,7.3,3.3,7.3,7.3S65.4,35.2,61.4,35.2z"/>
		<g>
			<path fill="#333333" d="M36.3,41.3c-4.1,3.3-6.6,3.9-11.8,3.9c-5,0-9.4-1.8-12.9-5.4C8,36.2,6.2,31.9,6.2,26.8
				c0-5.1,1.8-9.4,5.4-13s7.9-5.4,12.9-5.4c5.2,0,9.4,2.5,11.5,4.1l-6,9c0,0,0,0-0.1-0.1c-1.5-1.5-3.3-2.3-5.5-2.3
				c-2.1,0-4,0.7-5.5,2.3c-1.5,1.5-2.3,3.3-2.3,5.4s0.4,3.8,2,5.3c1.5,1.5,3.6,2.1,5.8,2.1c2.1,0,4.5-0.3,6.1-1.9
				c0,0,0.1-0.1,0.1-0.1l6.6,7.9L36.3,41.3z"/>
			<path fill="#333333" d="M112.9,38.9c-3.4,3.3-7.4,5-12.1,5h-14V9.6h14c4.7,0,8.7,1.7,12.1,5c3.3,3.3,5,7.4,5,12.1
				C117.9,31.4,116.2,35.5,112.9,38.9z M107.3,26.8c0-1.7-0.6-3.2-1.8-4.5c-1.1-1.3-2.8-2-4.7-2h-3.4v13h1.1c2.5,0,4.9,0.1,6.9-1.9
				C106.8,30,107.3,28.4,107.3,26.8z"/>
			<path fill="#333333" d="M143.9,39.3h-10.9l-1.6,4.5l-11.2,0l11.9-34.2h12.7l11.9,34.2h-11.2L143.9,39.3z M140.9,30.6l-2.4-6.9
				l-2.4,6.9H140.9z"/>
		</g>
	</g>
</g>
</svg>
