<?xml version="1.0" encoding="utf-8"?>
<!-- Generator: Adobe Illustrator 18.0.0, SVG Export Plug-In . SVG Version: 6.00 Build 0)  -->
<!DOCTYPE svg PUBLIC "-//W3C//DTD SVG 1.1//EN" "http://www.w3.org/Graphics/SVG/1.1/DTD/svg11.dtd">
<svg version="1.1" id="Layer_1" xmlns="http://www.w3.org/2000/svg" xmlns:xlink="http://www.w3.org/1999/xlink" x="0px" y="0px"
	 viewBox="0 0 162.1 60.6" enable-background="new 0 0 162.1 60.6" xml:space="preserve">
<g>
	<path fill-rule="evenodd" clip-rule="evenodd" fill="#A52125" d="M83.9-8.8c23.6,0,42.7,19.2,42.7,42.8c0,23.6-19.1,42.8-42.7,42.8
		S41.1,57.7,41.1,34C41.1,10.4,60.3-8.8,83.9-8.8z"/>
	<g>
		<g>
			<circle fill="#991F21" cx="83.9" cy="32.7" r="29.5"/>
		</g>
		<g>
			<path fill="#FFFFFF" d="M83.9,64c-17.2,0-31.3-14-31.3-31.3c0-17.2,14-31.3,31.3-31.3s31.3,14,31.3,31.3
				C115.1,50,101.1,64,83.9,64z M83.9,4.9c-15.3,0-27.8,12.5-27.8,27.8c0,15.3,12.5,27.8,27.8,27.8s27.8-12.5,27.8-27.8
				S99.2,4.9,83.9,4.9z"/>
		</g>
	</g>
	<g>
		<path fill="#E1BCBE" d="M63.7,33.4c0-10.5,8.2-19.1,18.5-19.7c-0.4,0-0.9-0.1-1.3-0.1c-10.9,0-19.8,8.9-19.8,19.8
			s8.9,19.8,19.8,19.8c0.4,0,0.9,0,1.3-0.1C71.9,52.4,63.7,43.9,63.7,33.4z"/>
	</g>
	<g id="Your_Icon_3_">
		<g>
			<g>
				<path fill="#FFFFFF" d="M102.3,66.2c0.4-1.1-0.7-11.6-1.7-19.2c0.1-2.1,1.8-25.5,0.4-27.2c-1.4-1.8-4,5.7-4.3,10.5
					C96.4,34.9,97.1,44,97.1,44l1.2,1c-0.8,7.7-1.8,20.3-0.8,21.5C98.9,68.3,101.6,68,102.3,66.2z"/>
			</g>
			<g>
				<path fill="#FFFFFF" d="M88.1,38.8c2.5-0.3,3.8-1.6,3.8-4.4c-0.1-7.8-1.5-14.7-1.5-14.7l-0.8,0l0.2,12.4c0,0.4-0.3,0.7-0.7,0.7
					c-0.4,0-0.7-0.3-0.7-0.7l-0.2-12.4l-0.9,0l0.2,12.4c0,0.4-0.3,0.7-0.7,0.7c-0.4,0-0.7-0.3-0.7-0.7l-0.2-12.4l-0.9,0l0.2,12.4
					c0,0.4-0.3,0.7-0.7,0.7c-0.4,0-0.7-0.3-0.7-0.7l-0.2-12.4l-0.7,0c0,0-0.9,5-1.2,14.5c-0.1,2.3,1.9,4.5,4.9,4.5
					C86.2,45,84.2,65,85.5,66.7c1.5,1.9,4.5,1.5,5.3-0.4C91.4,64.7,88.9,44.9,88.1,38.8z"/>
			</g>
		</g>
	</g>
</g>
</svg>
