<?xml version="1.0" encoding="utf-8"?>
<!-- Generator: Adobe Illustrator 18.0.0, SVG Export Plug-In . SVG Version: 6.00 Build 0)  -->
<!DOCTYPE svg PUBLIC "-//W3C//DTD SVG 1.1//EN" "http://www.w3.org/Graphics/SVG/1.1/DTD/svg11.dtd">
<svg version="1.1" id="Layer_1" xmlns="http://www.w3.org/2000/svg" xmlns:xlink="http://www.w3.org/1999/xlink" x="0px" y="0px"
	 viewBox="0 0 162.1 60.6" enable-background="new 0 0 162.1 60.6" xml:space="preserve">
<g>
	<g>
		<g>
			<path fill="none" stroke="#AD3A2C" stroke-width="1.1106" stroke-miterlimit="10" d="M40.2,66.7l-0.4,0.2c0,0,8.7,13.6,38.1-1
				s35.7-4.5,41.8-0.1"/>
		</g>
		<g>
			<path fill="none" stroke="#D44733" stroke-width="1.1106" stroke-miterlimit="10" d="M39.4,65.9L39,66.1c0,0,8.7,13.6,38.1-1
				s35.7-4.5,41.8-0.1"/>
		</g>
	</g>
	<g>
		<g>
			<path fill="#AD3A2C" d="M39.9,27.1c0-9.3,7.8-17,17.3-17c9.3,0,17.1,7.7,17.1,17c0,9.5-7.8,17.2-17.1,17.2
				C47.8,44.3,39.9,36.6,39.9,27.1z M44.2,27.1c0,7.1,5.6,12.8,13,12.8c7,0,12.8-5.7,12.8-12.8c0-7-5.8-12.7-12.8-12.7
				C49.8,14.4,44.2,20.1,44.2,27.1z"/>
			<path fill="#AD3A2C" d="M37.5,10.1v55c0.5,0.9,1.2,1.8,1.9,2.6c0,0,0.1,0.1,0.1,0.1c0.1,0.1,0.2,0.2,0.3,0.3
				c0.1,0.1,0.1,0.1,0.2,0.2c0.2,0.2,0.4,0.4,0.6,0.6c0,0,0.1,0.1,0.1,0.1h1.1V10.1H37.5z"/>
			<path display="none" fill="#AD3A2C" d="M37.5,69h3c-1.1-1.2-2.2-2.5-3-3.9V69z"/>
		</g>
		<g>
			<g>
				<path fill="#D44733" d="M39.2,26.4c0-9.3,7.8-17,17.3-17c9.3,0,17.1,7.7,17.1,17c0,9.5-7.8,17.2-17.1,17.2
					C47,43.6,39.2,35.8,39.2,26.4z M43.5,26.4c0,7.1,5.6,12.8,13,12.8c7,0,12.8-5.7,12.8-12.8c0-7-5.8-12.7-12.8-12.7
					C49,13.6,43.5,19.3,43.5,26.4z"/>
				<path fill="#D44733" d="M36.7,9.3v55c0.5,0.9,1.2,1.8,1.9,2.6c0,0,0.1,0.1,0.1,0.1c0.1,0.1,0.2,0.2,0.3,0.3
					c0.1,0.1,0.1,0.1,0.2,0.2c0.2,0.2,0.4,0.4,0.6,0.6c0,0,0.1,0.1,0.1,0.1H41V9.3H36.7z"/>
				<path display="none" fill="#D44733" d="M36.7,68.2h3c-1.1-1.2-2.2-2.5-3-3.9V68.2z"/>
			</g>
		</g>
	</g>
	<rect x="41" y="9.3" fill="#AD3A2C" width="1.1" height="1.2"/>
	<rect x="39.5" y="66.2" fill="#D44733" width="1.5" height="1.2"/>
	<rect x="40.7" y="66.8" fill="#D44733" width="0.3" height="0.7"/>
	<rect x="40.9" y="67" fill="#D44733" width="0.1" height="0.3"/>
	<path fill="#AD3A2C" d="M40,68.2L40,68.2c0,0-0.1-0.1-0.1-0.1L40,68.2"/>
	<g>
		<g>
			<g>
				<path fill="#CFCFCE" d="M110.9,27.5c0,9.4-7.9,17.3-17.6,17.3c-9.4,0-17.4-7.8-17.4-17.3c0-9.6,7.9-17.5,17.4-17.5
					C102.9,10,110.9,17.8,110.9,27.5z M106.5,27.5c0-7.2-5.7-13-13.2-13c-7.1,0-13,5.8-13,13c0,7.1,5.9,12.9,13,12.9
					C100.8,40.4,106.5,34.6,106.5,27.5z"/>
			</g>
			<g>
				<path fill="#676767" d="M110.1,26.7c0,9.4-7.9,17.3-17.6,17.3c-9.4,0-17.4-7.8-17.4-17.3c0-9.6,7.9-17.5,17.4-17.5
					C102.1,9.2,110.1,17.1,110.1,26.7z M105.7,26.7c0-7.2-5.7-13-13.2-13c-7.1,0-13,5.8-13,13c0,7.1,5.9,12.9,13,12.9
					C100,39.6,105.7,33.8,105.7,26.7z"/>
			</g>
		</g>
		<g>
			<g>
				<path fill="#CFCFCE" d="M112.9-13.8h4.4v58.6h-4.4V-13.8z"/>
			</g>
			<g>
				<path fill="#676767" d="M112.2-14.6h4.4V44h-4.4V-14.6z"/>
			</g>
		</g>
		<g>
			<g>
				<path fill="#CFCFCE" d="M132.6,10h6.5v4.5h-6.5v30.3h-4.4V14.5h-6.5V10h6.5V-7.5h4.4V10z"/>
			</g>
			<g>
				<path fill="#676767" d="M131.8,9.2h6.5v4.5h-6.5V44h-4.4V13.7H121V9.2h6.5V-8.3h4.4V9.2z"/>
			</g>
		</g>
	</g>
	<rect x="112.2" y="44" fill="#CFCFCE" width="1.3" height="1.1"/>
	<rect x="116.5" y="-14.6" fill="#CFCFCE" width="1.1" height="1.1"/>
	<rect x="121" y="13.7" fill="#CFCFCE" width="1.1" height="1.1"/>
	<rect x="131.8" y="-8.3" fill="#CFCFCE" width="1.1" height="1.2"/>
	<rect x="127.4" y="44" fill="#CFCFCE" width="1.3" height="1.1"/>
	<rect x="138.3" y="9.2" fill="#CFCFCE" width="1.1" height="1.1"/>
	<g>
		<g>
			<path display="none" fill-rule="evenodd" clip-rule="evenodd" d="M120.6,66.8c0-0.1-0.1-0.2-0.1-0.3c-0.2-1-1.4-1.8-2.5-2.7
				c-0.1,0.1-0.1,0.1-0.2,0.2C118.8,65,119.5,65.9,120.6,66.8z"/>
			<path display="none" fill-rule="evenodd" clip-rule="evenodd" d="M120.8,67.6c-0.1-0.3-0.2-0.5-0.3-0.8c-1.1-0.9-1.8-1.8-2.7-2.8
				c0,0,0,0,0,0c0.1,0.3,0.2,0.5,0.3,0.8C119,65.8,120.2,66.4,120.8,67.6z"/>
			<path display="none" fill-rule="evenodd" clip-rule="evenodd" d="M117.8,64c0,0-0.1,0.1-0.1,0.1c0.1,0.2,0.3,0.4,0.4,0.6
				C118,64.5,117.9,64.3,117.8,64z"/>
			<path display="none" fill-rule="evenodd" clip-rule="evenodd" d="M130,76.5c0.1,0.1,0.2,0.1,0.2,0.2
				C130.2,76.6,130.1,76.5,130,76.5z"/>
			<path fill-rule="evenodd" clip-rule="evenodd" d="M130.3,76.7C130.3,76.7,130.3,76.7,130.3,76.7c-0.2,0-0.3-0.1-0.4-0.2
				c0,0-0.1,0-0.1,0c-0.5,0.1-0.9,0.1-1.4-0.2c-3.1-2.3-6.2-5-7.6-8.8c-0.6-1.2-1.8-1.8-2.7-2.8c-0.2-0.2-0.3-0.4-0.4-0.6
				c-0.1,0.1-0.2,0.3-0.4,0.4c-0.2,0.2-0.2,0.4,0.1,0.6c0.8,0.7,1.5,1.4,2.3,2c0.2,0.2,0.3,0.4,0.1,0.6c-0.2,0.2-0.2,0.4,0.1,0.6
				c0.9,0.7,1.7,1.6,2.1,2.7c0.2,0.5,0.5,0.9,0.9,1.3c1.1,1,2.2,2,3.3,3c0.7,0.7,1.5,1.3,2.2,2c0.3,0.2,0.5,0.8,0.9,0.6
				c0.3-0.1,0.6-0.5,0.8-0.8c0.2-0.2,0.3-0.2,0.5,0c0.7,0.7,1.4,1.3,2.2,2c0.2,0.2,0.4,0.2,0.6,0c0.1-0.1,0.1-0.2,0.2-0.2
				C132.6,78.1,131.5,77.3,130.3,76.7z"/>
			<path display="none" fill-rule="evenodd" clip-rule="evenodd" d="M120.5,66.5c1.2,4.9,5.3,7.9,9,10.7c0.2-0.3,0.3-0.8,0.5-0.6
				c1.3,0.6,2.5,1.5,3.6,2.4c0.2-0.2,0.4-0.5,0.7-0.7c0.2-0.2,0.3-0.4,0-0.6c-0.5-0.5-1-1-1.6-1.4c-0.9-0.7-0.9-0.8-0.1-1.6
				c0.1-0.1,0.2-0.2,0.3-0.3c0-0.1,0.1-0.1,0.1-0.2c0-0.2-0.2-0.3-0.3-0.4c-1.7-1.5-3.4-3.1-5.1-4.6c-0.9-0.9-1.9-1.4-3.1-1.8
				c-0.3-0.1-0.6-0.1-0.8-0.3c-0.4-0.4-0.8-0.7-1.2-1.1c-0.4-0.4-0.5-0.4-0.9,0c-0.2,0.2-0.3,0.2-0.4,0c0,0-0.1-0.1-0.1-0.1
				c1,1.8,1.8,3.9,3.4,5.2c2.3,2,4.6,3.5,6.9,5.5c0.8,0.5,1.5,0.5,2.3,0.9c-0.8-0.5-1.5-0.5-2.3-0.9c-2.3-2-4.6-3.5-6.9-5.5
				c-1.6-1.3-2.4-3.4-3.4-5.2c-0.3-0.3-0.7-0.6-1-0.9c-0.5-0.4-0.9-0.8-1.4-1.2c-0.2-0.2-0.3-0.1-0.5,0c-0.1,0.1-0.1,0.1-0.2,0.2
				C119.1,64.7,120.3,65.5,120.5,66.5z"/>
			<path fill-rule="evenodd" clip-rule="evenodd" d="M133.7,79c-0.1,0.1-0.2,0.2-0.3,0.3c-0.2,0.2-0.1,0.3,0,0.4
				c0.5,0.5,1,1,1.6,1.5c0.1,0.1,0.2,0.1,0.3,0.2c0.1,0,0.1-0.1,0.2-0.1c0.1-0.1,0.2-0.2,0.3-0.4C135.1,80.3,134.4,79.7,133.7,79z"
				/>
			<path display="none" fill-rule="evenodd" clip-rule="evenodd" d="M136.6,80.1c0.1-0.1,0-0.2-0.1-0.3c-0.5-0.5-1.1-1-1.6-1.5
				c-0.2-0.2-0.3-0.2-0.5,0c-0.2,0.3-0.5,0.5-0.7,0.8c0.7,0.6,1.4,1.3,2.2,1.9C136.1,80.6,136.4,80.3,136.6,80.1z"/>
			<path display="none" fill-rule="evenodd" clip-rule="evenodd" d="M138.8,81.8c0-0.2-1-0.8-1.4-0.9c-0.2,0-0.5,0.3-0.8,0.6
				c0.6,0.5,1.2,0.9,1.9,1.3C138.7,82.7,138.8,82.4,138.8,81.8z"/>
			<path fill-rule="evenodd" clip-rule="evenodd" d="M136.7,81.6c-0.1,0.2-0.2,0.3-0.2,0.4c0,0.4,0.7,1.3,0.9,1.3
				c0.7,0,1-0.1,1.2-0.4C137.9,82.6,137.3,82.1,136.7,81.6z"/>
			<path display="none" fill-rule="evenodd" clip-rule="evenodd" d="M137.2,80.6c0,0,0.1-0.1,0.1-0.1c0-0.2-0.1-0.2-0.2-0.3
				c-0.1-0.1-0.2,0-0.3,0.1c-0.3,0.3-0.5,0.5-0.8,0.8c0.1,0.1,0.3,0.2,0.4,0.4C136.7,81.2,136.9,80.9,137.2,80.6z"/>
			<path fill-rule="evenodd" clip-rule="evenodd" d="M136,81.1c-0.1,0.1-0.2,0.3-0.4,0.4c-0.1,0.2-0.1,0.3,0.1,0.4
				c0.1,0.1,0.3,0.1,0.4,0c0.1-0.1,0.2-0.2,0.3-0.4C136.3,81.3,136.2,81.2,136,81.1z"/>
		</g>
		<g>
			<path display="none" fill="#CFCFCE" d="M120.6,66.8c0-0.1-0.1-0.2-0.1-0.3c-0.2-1-1.4-1.8-2.5-2.7c-0.1,0.1-0.1,0.1-0.2,0.2
				C118.8,65,119.5,65.9,120.6,66.8z"/>
			<path display="none" fill="#CFCFCE" d="M120.8,67.6c-0.1-0.3-0.2-0.5-0.3-0.8c-1.1-0.9-1.8-1.8-2.7-2.8c0,0,0,0,0,0
				c0.1,0.3,0.2,0.5,0.3,0.8C119,65.8,120.2,66.4,120.8,67.6z"/>
			<path display="none" fill="#CFCFCE" d="M117.8,64c0,0-0.1,0.1-0.1,0.1c0.1,0.2,0.3,0.4,0.4,0.6C118,64.5,117.9,64.3,117.8,64z"/>
			<path display="none" fill="#CFCFCE" d="M130,76.5c0.1,0.1,0.2,0.1,0.2,0.2C130.2,76.6,130.1,76.5,130,76.5z"/>
			<path fill="#CFCFCE" d="M130.3,76.7C130.3,76.7,130.3,76.7,130.3,76.7c-0.2,0-0.3-0.1-0.4-0.2c0,0-0.1,0-0.1,0
				c-0.5,0.1-0.9,0.1-1.4-0.2c-3.1-2.3-6.2-5-7.6-8.8c-0.6-1.2-1.8-1.8-2.7-2.8c-0.2-0.2-0.3-0.4-0.4-0.6c-0.1,0.1-0.2,0.3-0.4,0.4
				c-0.2,0.2-0.2,0.4,0.1,0.6c0.8,0.7,1.5,1.4,2.3,2c0.2,0.2,0.3,0.4,0.1,0.6c-0.2,0.2-0.2,0.4,0.1,0.6c0.9,0.7,1.7,1.6,2.1,2.7
				c0.2,0.5,0.5,0.9,0.9,1.3c1.1,1,2.2,2,3.3,3c0.7,0.7,1.5,1.3,2.2,2c0.3,0.2,0.5,0.8,0.9,0.6c0.3-0.1,0.6-0.5,0.8-0.8
				c0.2-0.2,0.3-0.2,0.5,0c0.7,0.7,1.4,1.3,2.2,2c0.2,0.2,0.4,0.2,0.6,0c0.1-0.1,0.1-0.2,0.2-0.2C132.6,78.1,131.5,77.3,130.3,76.7z
				"/>
			<path display="none" fill="#CFCFCE" d="M120.5,66.5c1.2,4.9,5.3,7.9,9,10.7c0.2-0.3,0.3-0.8,0.5-0.6c1.3,0.6,2.5,1.5,3.6,2.4
				c0.2-0.2,0.4-0.5,0.7-0.7c0.2-0.2,0.3-0.4,0-0.6c-0.5-0.5-1-1-1.6-1.4c-0.9-0.7-0.9-0.8-0.1-1.6c0.1-0.1,0.2-0.2,0.3-0.3
				c0-0.1,0.1-0.1,0.1-0.2c0-0.2-0.2-0.3-0.3-0.4c-1.7-1.5-3.4-3.1-5.1-4.6c-0.9-0.9-1.9-1.4-3.1-1.8c-0.3-0.1-0.6-0.1-0.8-0.3
				c-0.4-0.4-0.8-0.7-1.2-1.1c-0.4-0.4-0.5-0.4-0.9,0c-0.2,0.2-0.3,0.2-0.4,0c0,0-0.1-0.1-0.1-0.1c1,1.8,1.8,3.9,3.4,5.2
				c2.3,2,4.6,3.5,6.9,5.5c0.8,0.5,1.5,0.5,2.3,0.9c-0.8-0.5-1.5-0.5-2.3-0.9c-2.3-2-4.6-3.5-6.9-5.5c-1.6-1.3-2.4-3.4-3.4-5.2
				c-0.3-0.3-0.7-0.6-1-0.9c-0.5-0.4-0.9-0.8-1.4-1.2c-0.2-0.2-0.3-0.1-0.5,0c-0.1,0.1-0.1,0.1-0.2,0.2
				C119.1,64.7,120.3,65.5,120.5,66.5z"/>
			<path fill="#CFCFCE" d="M133.7,79c-0.1,0.1-0.2,0.2-0.3,0.3c-0.2,0.2-0.1,0.3,0,0.4c0.5,0.5,1,1,1.6,1.5c0.1,0.1,0.2,0.1,0.3,0.2
				c0.1,0,0.1-0.1,0.2-0.1c0.1-0.1,0.2-0.2,0.3-0.4C135.1,80.3,134.4,79.7,133.7,79z"/>
			<path display="none" fill="#CFCFCE" d="M136.6,80.1c0.1-0.1,0-0.2-0.1-0.3c-0.5-0.5-1.1-1-1.6-1.5c-0.2-0.2-0.3-0.2-0.5,0
				c-0.2,0.3-0.5,0.5-0.7,0.8c0.7,0.6,1.4,1.3,2.2,1.9C136.1,80.6,136.4,80.3,136.6,80.1z"/>
			<path display="none" fill="#CFCFCE" d="M138.8,81.8c0-0.2-1-0.8-1.4-0.9c-0.2,0-0.5,0.3-0.8,0.6c0.6,0.5,1.2,0.9,1.9,1.3
				C138.7,82.7,138.8,82.4,138.8,81.8z"/>
			<path fill="#CFCFCE" d="M136.7,81.6c-0.1,0.2-0.2,0.3-0.2,0.4c0,0.4,0.7,1.3,0.9,1.3c0.7,0,1-0.1,1.2-0.4
				C137.9,82.6,137.3,82.1,136.7,81.6z"/>
			<path display="none" fill="#CFCFCE" d="M137.2,80.6c0,0,0.1-0.1,0.1-0.1c0-0.2-0.1-0.2-0.2-0.3c-0.1-0.1-0.2,0-0.3,0.1
				c-0.3,0.3-0.5,0.5-0.8,0.8c0.1,0.1,0.3,0.2,0.4,0.4C136.7,81.2,136.9,80.9,137.2,80.6z"/>
			<path fill="#CFCFCE" d="M136,81.1c-0.1,0.1-0.2,0.3-0.4,0.4c-0.1,0.2-0.1,0.3,0.1,0.4c0.1,0.1,0.3,0.1,0.4,0
				c0.1-0.1,0.2-0.2,0.3-0.4C136.3,81.3,136.2,81.2,136,81.1z"/>
		</g>
	</g>
</g>
</svg>
