<?xml version="1.0" encoding="utf-8"?>
<!-- Generator: Adobe Illustrator 18.0.0, SVG Export Plug-In . SVG Version: 6.00 Build 0)  -->
<!DOCTYPE svg PUBLIC "-//W3C//DTD SVG 1.1//EN" "http://www.w3.org/Graphics/SVG/1.1/DTD/svg11.dtd">
<svg version="1.1" id="Layer_1" xmlns="http://www.w3.org/2000/svg" xmlns:xlink="http://www.w3.org/1999/xlink" x="0px" y="0px"
	 viewBox="0 0 162.1 60.6" enable-background="new 0 0 162.1 60.6" xml:space="preserve">
<g id="Retake_x5F_logo_x5F_blue">
	<path fill="#0F4151" d="M169.7,51.4l-3.9-2.2c-0.2-0.1-0.4-0.3-0.6-0.3l-3.9-2.2c-0.2-0.1-0.3,0-0.3,0.2v1.5c0,0,0,0,0,0h-17.3
		l-8.3-11.3h19.7c0.1,0,0.2,0,0.3,0v1.7c0,0.2,0.1,0.3,0.3,0.2l3.9-2.2c0.2-0.1,0.4-0.3,0.6-0.3l3.9-2.2c0.2-0.1,0.2-0.3,0-0.3
		l-3.9-2.2c-0.2-0.1-0.4-0.3-0.6-0.3l-3.9-2.2c-0.2-0.1-0.3,0-0.3,0.2v1.7c-0.1,0-0.3-0.1-0.4-0.1h-20.5l11.7-10.3c0,0,0,0,0.1-0.1
		H161V22c0,0.2,0.1,0.3,0.3,0.2l3.9-2.2c0.2-0.1,0.4-0.3,0.6-0.3l3.9-2.2c0.2-0.1,0.2-0.3,0-0.3l-3.9-2.2c-0.2-0.1-0.4-0.3-0.6-0.3
		l-3.9-2.2c-0.2-0.1-0.3,0-0.3,0.2v1.6h-14.9c0,0-0.1,0-0.1,0l-3.6,0c-0.5,0-1,0.2-1.3,0.5l-3.9,3.5c0,0-0.1,0.1-0.1,0.1l-1.7,1.5
		l0,0l-9.8,8.9c-0.1,0.1-0.3,0.3-0.4,0.3l-4.4,2.9V5.5c0-0.8-0.6-1.4-1.4-1.4h-4.8c-0.8,0-1.4,0.6-1.4,1.4v17.9H97.9L94.3,20
		l0.3-1.6l1.1,1.5c0,0,0.1,0.2,0.2,0.2c0,0,0,0,0,0c0,0,0,0,0,0c0.1,0,0.4,0.1,0.7-0.2c0.4-0.4,0.2-0.8-0.1-1
		c-0.5-0.5-1.5-1.7-1.3-2.9c0,0,0.3-2.2-0.2-2.4c-0.1,0-0.1,0-0.2,0l-2.3-0.5c0,0-0.5-0.3-3,2.4l-3.8-3.6V5.4c0-0.8-0.6-1.4-1.4-1.4
		h-4.8c-0.8,0-1.4,0.6-1.4,1.4v6.3c0,0,0,0.1,0,0.1h-7.3L66.6,16c-0.3,2.2,1.4,2.2,1.4,2.2h10.1v30H50.5v-6.1h17.2
		c0.4,0,0.8-0.2,1.2-0.4l0,0c0,0,0,0,0.1-0.1c0,0,0.1-0.1,0.1-0.1l0.1-0.1c0.7-0.6,2.7-2.4,3.6-3.6c0.2-0.2,0.3-0.4,0.4-0.7
		c0-0.1,0.1-0.1,0.1-0.2c0,0,0,0,0,0c0-0.2,0.1-0.3,0.1-0.4V24.8c0-0.8-0.6-1.4-1.4-1.4H45.6c-0.8,0-1.4,0.6-1.4,1.4v23.4h-4.7
		l-0.3-0.5c0,0,0-0.1,0-0.1L29.8,30H38c0.8,0,1.4-0.6,1.4-1.4V5.4C39.4,4.7,38.8,4,38,4H7.6C6.8,4,6.2,4.7,6.2,5.4V48
		c0,0.1,0,0.1,0,0.2v4.9c0,1,0.6,1.4,1.2,1.4h5.1c0.8,0,1.4-0.6,1.4-1.4l0-23.1h7.2L31,48.6c0,0,0,0,0,0.1L33,52l0,0l1.2,2.2
		c0.1,0.2,0.3,0.3,0.5,0.3h0.7h0.2h48.5l0,0h0.1c0.3,0,0.6-0.1,0.8-0.3c0.5-0.2,0.8-0.7,0.8-1.3l0-32.4l8.6,8.2c0,0,0.1,0.1,0.1,0.1
		l0.2,0.2c0.3,0.3,0.9,0.6,1.4,0.6h17v6.1h-17c-0.4,0-0.9,0.2-1.3,0.5c-1.4,1-3.4,3.3-3.8,3.8v0c0,0,0,0-0.1,0.1c0,0,0,0,0,0l0,0
		c0,0.1-0.1,0.2-0.2,0.3c-0.1,0.2-0.1,0.4-0.1,0.4l0-0.1c-0.1,0.2-0.1,0.3-0.1,0.5v11.7c0,0.8,0.6,1.4,1.4,1.4h22.3c0,0,0,0,0,0h0.1
		c0.1,0,0.1,0,0.2,0h5.7c0.8,0,1.4-0.6,1.4-1.4V39.3l3.9-2.2l12.3,16.7c0.3,0.4,0.9,0.7,1.4,0.7H161v1.8c0,0.2,0.1,0.3,0.3,0.2
		l3.9-2.2c0.2-0.1,0.4-0.3,0.6-0.3l3.9-2.2C169.8,51.6,169.8,51.4,169.7,51.4z M113.2,42v6.1H97V42H113.2z M31.7,10.5v11.9H14.5
		V10.5H31.7z M50.1,35.8v-6.1h16.5v6.1H50.1z M91.7,15.2L91.7,15.2l-0.2,1.5l0,0l-0.1,0.4l-0.8-0.8L91.7,15.2z M77.9,16.7L77.9,16.7
		L77.9,16.7z M77.9,12.6L77.9,12.6L77.9,12.6z"/>
	<circle fill="#0F4151" cx="94.6" cy="11.5" r="1.4"/>
</g>
</svg>
