<?xml version="1.0" encoding="utf-8"?>
<!-- Generator: Adobe Illustrator 18.0.0, SVG Export Plug-In . SVG Version: 6.00 Build 0)  -->
<!DOCTYPE svg PUBLIC "-//W3C//DTD SVG 1.1//EN" "http://www.w3.org/Graphics/SVG/1.1/DTD/svg11.dtd">
<svg version="1.1" xmlns="http://www.w3.org/2000/svg" xmlns:xlink="http://www.w3.org/1999/xlink" x="0px" y="0px"
	 viewBox="0 0 100 100" enable-background="new 0 0 100 100" xml:space="preserve">
<g id="Layer_1">
</g>
<g id="Layer_2">
	<g>
		<path fill="#FFFFFF" d="M50.1,88.3c-12.4,0-24.8,0-37.2,0c-0.4,0-0.5-0.1-0.5-0.5c0-24.9,0-49.7,0-74.6c0-0.4,0.1-0.5,0.5-0.5
			c24.9,0,49.7,0,74.6,0c0.4,0,0.5,0.1,0.5,0.5c0,24.9,0,49.7,0,74.6c0,0.4-0.1,0.5-0.5,0.5C75,88.3,62.5,88.3,50.1,88.3z M74,56
			c0.3,0.7,0.5,1.4,0.9,2c0.3,0.9,0.7,1.8,1.1,2.7c0,0.1,0,0.1,0.1,0.1c0,0,0,0,0-0.1c0-0.2,0-0.3,0-0.5c0-15.4,0-30.9,0-46.3
			c0-0.2,0.1-0.4-0.1-0.5c-0.1,0-0.2,0-0.3,0c-6.4,0-12.8,0-19.2,0c-0.1,0-0.2,0-0.4,0c0.6,1.5,1.2,2.9,1.8,4.3
			c1.4,3.4,2.9,6.9,4.3,10.3c0.1,0.3,0.2,0.5,0.3,0.8c0.1,0.2,0.1,0.4,0.2,0.6c2.9,6.9,5.8,13.9,8.7,20.8C72.3,52.2,73.2,54.1,74,56
			z M22.7,59.9c0.1-0.1,0.1-0.3,0.2-0.4c4.6-11,9.2-22,13.8-33c1.5-3.5,2.9-7.1,4.4-10.6c0.4-0.8,0.7-1.6,1.1-2.5
			c-0.2,0-0.3,0-0.3,0c-6.4,0-12.8,0-19.2,0c-0.6,0-0.5,0.3-0.5,0.6c0,15.4,0,30.8,0,46.2c0,0.1-0.1,0.3,0.1,0.5
			C22.5,60.5,22.6,60.2,22.7,59.9z M61,61.1c0.1,0,0.2,0,0.2,0c0.2,0,0.4,0.1,0.6-0.1c-4.2-10-8.4-19.9-12.6-29.9
			c-0.3,0.2-0.3,0.4-0.4,0.6c-2.7,6.4-5.5,12.9-8.2,19.3c-0.2,0.6,0,0.6,0.4,0.6c2.7,0,5.4,0,8.1,0c0.4,0,0.7,0.1,0.8,0.5
			c1.1,2.9,2.2,5.7,3.4,8.5c0.1,0.3,0.2,0.5,0.6,0.5C56.3,61.1,58.6,61.1,61,61.1z M59.6,76.3c0-2.1,0-4,0-6c0-0.4-0.1-0.6-0.5-0.6
			c-0.6,0-1.3,0.1-1.9,0c-0.6-0.1-0.7,0.1-0.7,0.7c0,5.3,0.1,10.6-0.1,15.9c0,1.1,0,1.1,1.1,1.1c0.2,0,0.4,0,0.6,0
			c0.9,0,0.9,0,1-0.9c0-0.2,0-0.3,0.2-0.5c0.1,0.1,0.2,0.2,0.2,0.4c0.9,1.4,2.4,1.7,3.8,0.8c0.8-0.5,1.3-1.3,1.7-2.1
			c0.7-1.7,0.8-3.4,0.7-5.2c-0.1-1.3-0.3-2.6-1.1-3.8c-0.4-0.6-1-1.1-1.7-1.3C61.5,74.6,60.5,75.1,59.6,76.3z M40.8,86.2
			c0.1,0.4,0.1,0.6,0.1,0.9c0,0.4,0.1,0.5,0.6,0.5c0.6,0,1.2,0,1.8,0c0.4,0,0.5-0.1,0.5-0.5c-0.2-1.8-0.1-3.6-0.1-5.4
			c0-3.7,0-7.4,0-11.1c0-0.6-0.2-0.8-0.8-0.7c-0.4,0-0.8,0-1.3,0c-1.1,0-1.1,0-1.1,1.2c0,1.6,0,3.3,0,5c-1.4-1.5-3.1-1.5-4.5-0.1
			c-0.4,0.4-0.7,1-1,1.5c-0.8,2-0.9,4-0.5,6.1c0.2,1.1,0.5,2.2,1.3,3.2c0.6,0.8,1.5,1.2,2.5,1.2C39.4,87.8,40.1,87.1,40.8,86.2z
			 M28.4,70.3c-0.5,0-1,0-1.4,0c-0.4,0-0.6,0.1-0.7,0.5c-0.5,2.4-1,4.7-1.5,7.1c-0.7,3.1-1.4,6.2-2,9.3c-0.1,0.3,0,0.4,0.3,0.4
			c0.7,0,1.4,0,2.1,0c0.4,0,0.5-0.1,0.6-0.5c0.2-1.1,0.4-2.2,0.6-3.3c0.1-0.3,0.2-0.4,0.5-0.4c0.8,0,1.5,0,2.3,0
			c0.4,0,0.6,0.2,0.6,0.5c0.2,1.1,0.4,2.1,0.6,3.2c0.1,0.3,0.2,0.4,0.5,0.4c0.7,0,1.3-0.1,2,0c0.6,0.1,0.6-0.2,0.5-0.7
			c-1-4.9-2-9.8-3-14.8c-0.1-0.6-0.1-1.4-0.4-1.7C29.7,70,28.9,70.4,28.4,70.3z M54.7,81.2c0-0.6,0-1.2-0.1-1.9
			c-0.2-1.3-0.7-2.6-1.8-3.5c-2.2-1.9-5.6-1-6.8,1.9c-0.9,2.3-0.9,4.7-0.1,7.1c0.7,1.9,2.2,2.9,3.9,3c2.1,0.1,3.7-1.4,4.3-3
			C54.5,83.7,54.7,82.6,54.7,81.2z M73,82.4C73,82.4,73,82.4,73,82.4c0.9,0,1.7,0,2.6,0c0.3,0,0.4-0.1,0.5-0.4
			c0.1-1.3,0.1-2.7-0.3-4c-0.4-1.5-1.2-2.7-2.9-3c-2-0.5-3.8,0.4-4.8,2.3c-1.3,2.5-1.4,5-0.4,7.6c0.6,1.7,1.9,2.6,3.7,2.8
			c1,0.2,2,0,3-0.2c1.3-0.2,1.3-0.3,1-1.6c-0.2-1-0.2-1-1.2-0.8c-0.1,0-0.2,0.1-0.4,0.1c-2.2,0.4-3.4-0.4-3.7-2.4
			c-0.1-0.4,0-0.5,0.4-0.5C71.4,82.4,72.2,82.4,73,82.4z M82.8,15.7c0-1.3-0.9-2.2-2.2-2.2c-1.2,0-2.2,1-2.2,2.2
			c0,1.3,1,2.3,2.2,2.3C81.8,18,82.8,17,82.8,15.7z"/>
		<path fill="#D52027" d="M61.2,61.1c-0.1,0-0.2,0-0.2,0c-0.2-0.3-0.5-0.2-0.7-0.2c-1.8-0.1-3.6,0.1-5.4,0.1c-1.2,0-1.2,0-1.6-1.1
			c-0.7-1.6-1.2-3.2-1.9-4.7c-0.3-0.7-0.5-1.4-0.8-2c-0.2-0.5-0.5-0.9-0.6-1.4c0-0.2-0.2-0.4-0.5-0.4c-1.4,0-2.9,0-4.3,0
			c-1.2,0-2.4,0-3.7,0c-0.6,0-0.7-0.2-0.5-0.7c0.2-0.6,0.4-1.1,0.7-1.7c0.7-1.6,1.4-3.2,2-4.7c0.8-1.8,1.5-3.6,2.3-5.4
			c0.7-1.6,1.3-3.1,2-4.7c0.3-0.8,0.7-1.6,1.1-2.5c0.3,0.8,0.6,1.4,0.8,2c0.5,1.3,1,2.6,1.6,3.8c0.4,0.9,0.8,1.9,1.2,2.8
			c0.9,1.9,1.6,3.9,2.5,5.8c1.2,2.7,2.3,5.5,3.5,8.2c0.9,2,1.7,4.1,2.6,6.1C61.4,60.4,61.4,60.8,61.2,61.1z"/>
		<path fill="#0B0B0B" d="M59.6,76.3c0.9-1.2,2-1.7,3.3-1.4c0.8,0.2,1.3,0.6,1.7,1.3c0.8,1.1,1,2.4,1.1,3.8c0.1,1.8,0,3.6-0.7,5.2
			c-0.4,0.9-0.9,1.6-1.7,2.1c-1.4,0.9-2.9,0.6-3.8-0.8c-0.1-0.1-0.2-0.2-0.2-0.4c-0.1,0.2-0.1,0.3-0.2,0.5c-0.1,0.9-0.1,0.9-1,0.9
			c-0.2,0-0.4,0-0.6,0c-1.2,0-1.2,0-1.1-1.1c0.2-5.3,0.1-10.6,0.1-15.9c0-0.6,0.1-0.8,0.7-0.7c0.6,0.1,1.3,0,1.9,0
			c0.5,0,0.6,0.2,0.5,0.6C59.6,72.3,59.6,74.2,59.6,76.3z M59.6,81.3C59.6,81.3,59.6,81.3,59.6,81.3c0,0.6,0,1.1,0,1.7
			c0,0,0,0.1,0,0.1c0,0.6,0.2,1.1,0.5,1.5c0.5,0.7,1.3,0.7,1.8,0.1c0.2-0.2,0.3-0.5,0.4-0.8c0.5-1.6,0.5-3.3,0.1-5
			c-0.2-1-0.9-1.6-1.5-1.5c-0.6,0.1-1.2,0.8-1.3,1.8C59.6,80,59.6,80.7,59.6,81.3z"/>
		<path fill="#0B0B0B" d="M40.8,86.2c-0.7,1-1.4,1.6-2.6,1.6c-1,0-1.9-0.4-2.5-1.2c-0.8-0.9-1.1-2-1.3-3.2c-0.3-2.1-0.3-4.1,0.5-6.1
			c0.2-0.6,0.6-1.1,1-1.5c1.3-1.4,3.1-1.4,4.5,0.1c0-1.7,0-3.4,0-5c0-1.2,0-1.2,1.1-1.2c0.4,0,0.8,0,1.3,0c0.6-0.1,0.8,0.1,0.8,0.7
			c0,3.7,0,7.4,0,11.1c0,1.8,0,3.6,0.1,5.4c0,0.4-0.1,0.5-0.5,0.5c-0.6,0-1.2,0-1.8,0c-0.4,0-0.6-0.1-0.6-0.5
			C40.9,86.8,40.9,86.5,40.8,86.2z M40.5,81.6c0-0.9,0-1.6,0-2.3c0-0.5-0.1-1-0.4-1.4c-0.5-0.7-1.2-0.7-1.8-0.1
			c-0.2,0.2-0.3,0.4-0.4,0.7c-0.6,1.8-0.6,3.7,0,5.5c0.3,0.8,0.7,1.1,1.3,1.1c0.7-0.1,1-0.6,1.2-1.1C40.6,83.2,40.4,82.3,40.5,81.6z
			"/>
		<path fill="#0B0B0B" d="M28.4,70.3c0.5,0.1,1.3-0.3,1.7,0.1c0.4,0.4,0.3,1.1,0.4,1.7c1,4.9,2,9.8,3,14.8c0.1,0.5,0.1,0.7-0.5,0.7
			c-0.7-0.1-1.3,0-2,0c-0.3,0-0.5-0.1-0.5-0.4C30.3,86.1,30,85,29.8,84c-0.1-0.4-0.2-0.6-0.6-0.5c-0.8,0-1.5,0-2.3,0
			c-0.3,0-0.4,0.1-0.5,0.4c-0.2,1.1-0.4,2.2-0.6,3.3c-0.1,0.4-0.2,0.5-0.6,0.5c-0.7,0-1.4,0-2.1,0c-0.4,0-0.4-0.1-0.3-0.4
			c0.7-3.1,1.4-6.2,2-9.3c0.5-2.4,1.1-4.7,1.5-7.1c0.1-0.4,0.3-0.5,0.7-0.5C27.4,70.3,27.8,70.3,28.4,70.3z M28.3,73.7
			c0,0-0.1,0-0.1,0c-0.4,2.3-0.8,4.6-1.2,6.9C26.9,81,27,81,27.2,81c0.5,0,1,0,1.5,0c0.6,0.1,0.7-0.1,0.6-0.7
			c-0.2-1.2-0.4-2.4-0.6-3.7C28.6,75.7,28.4,74.7,28.3,73.7z"/>
		<path fill="#0B0B0B" d="M54.7,81.2c0,1.3-0.2,2.5-0.6,3.6c-0.6,1.6-2.2,3-4.3,3c-1.7-0.1-3.2-1.1-3.9-3c-0.8-2.3-0.8-4.7,0.1-7.1
			c1.2-2.9,4.6-3.9,6.8-1.9c1.1,0.9,1.5,2.2,1.8,3.5C54.7,80,54.7,80.7,54.7,81.2z M48.4,81.3c0.1,0.9,0,1.8,0.3,2.7
			c0.3,0.9,0.7,1.4,1.3,1.4c0.5,0,1-0.5,1.2-1.4c0.3-1.3,0.3-2.7,0.2-4c-0.1-0.7-0.2-1.5-0.6-2.1c-0.5-0.8-1.3-0.8-1.8-0.1
			c-0.2,0.2-0.3,0.5-0.4,0.8C48.5,79.5,48.5,80.4,48.4,81.3z"/>
		<path fill="#0B0B0B" d="M73,82.4c-0.8,0-1.6,0-2.5,0c-0.4,0-0.5,0.1-0.4,0.5c0.3,2,1.5,2.8,3.7,2.4c0.1,0,0.2-0.1,0.4-0.1
			c1-0.2,1-0.2,1.2,0.8c0.3,1.3,0.3,1.3-1,1.6c-1,0.2-2,0.3-3,0.2c-1.7-0.3-3.1-1.2-3.7-2.8c-0.9-2.6-0.9-5.1,0.4-7.6
			c1-1.9,2.9-2.7,4.8-2.3c1.6,0.4,2.4,1.5,2.9,3c0.4,1.3,0.4,2.6,0.3,4c0,0.3-0.1,0.4-0.5,0.4C74.7,82.4,73.8,82.4,73,82.4
			C73,82.4,73,82.4,73,82.4z M71.6,80.1c0.4,0,0.8,0,1.3,0c0.2,0,0.3,0,0.3-0.3c-0.1-0.7-0.1-1.5-0.5-2.1c-0.5-0.8-1.4-0.8-1.9,0
			c-0.3,0.4-0.5,0.8-0.5,1.3c-0.2,1.4-0.4,1.1,0.9,1.2C71.3,80.1,71.5,80.1,71.6,80.1z"/>
		<path fill="#B03431" d="M61.2,61.1c0.2-0.3,0.2-0.6,0-1c-0.9-2-1.7-4.1-2.6-6.1c-1.2-2.7-2.3-5.5-3.5-8.2
			c-0.9-1.9-1.6-3.9-2.5-5.8c-0.4-0.9-0.8-1.9-1.2-2.8C51,36,50.4,34.7,50,33.4c-0.2-0.6-0.5-1.2-0.8-2c-0.4,1-0.8,1.7-1.1,2.5
			c-0.6,1.6-1.3,3.1-2,4.7c-0.7,1.8-1.5,3.6-2.3,5.4c-0.7,1.6-1.3,3.2-2,4.7c-0.3,0.5-0.5,1.1-0.7,1.7c-0.2,0.5-0.1,0.7,0.5,0.7
			c1.2,0,2.4,0,3.7,0c1.4,0,2.9,0,4.3,0c0.3,0,0.5,0.2,0.5,0.4c0.1,0.5,0.4,0.9,0.6,1.4c0.3,0.7,0.5,1.4,0.8,2
			c0.7,1.5,1.2,3.1,1.9,4.7c0.5,1.1,0.5,1.1,1.6,1.1c1.8,0,3.6-0.2,5.4-0.1c0.3,0,0.6-0.1,0.7,0.2c-2.4,0-4.7,0-7.1,0
			c-0.4,0-0.5-0.2-0.6-0.5c-1.1-2.8-2.3-5.7-3.4-8.5c-0.2-0.4-0.4-0.6-0.8-0.5c-2.7,0-5.4,0-8.1,0c-0.4,0-0.7,0-0.4-0.6
			c2.8-6.4,5.5-12.9,8.2-19.3c0.1-0.2,0.1-0.4,0.4-0.6c4.2,10,8.4,20,12.6,29.9C61.6,61.1,61.4,61.1,61.2,61.1z"/>
		<path fill="#B02326" d="M62.3,28.1c-1.4-3.4-2.9-6.9-4.3-10.3c-0.6-1.4-1.2-2.8-1.8-4.3c0.2,0,0.3,0,0.4,0c6.4,0,12.8,0,19.2,0
			c0.1,0,0.2,0,0.3,0c0,0.1,0,0.3,0,0.4c0,14,0,28,0,42c0,1.6,0,3.3,0,4.9c-0.4-0.9-0.8-1.8-1.1-2.7l0,0c0.5,0.5,0.5,1.2,1,1.9
			c0-0.2,0-0.4,0-0.5c0-15,0-30.1,0-45.1c0-0.6-0.2-0.8-0.8-0.8c-4.8,0-9.7,0-14.5,0c-1.2,0-2.3,0-3.5,0c-0.6,0-0.7,0.2-0.4,0.7
			c0.1,0.2,0.3,0.5,0.4,0.7c0.8,2.3,2,4.5,2.8,6.8c0.6,1.6,1.4,3,2,4.6c0.2,0.6,0.6,1.1,0.6,1.7C62.3,28.1,62.3,28.1,62.3,28.1z"/>
		<path fill="#B03431" d="M41.1,16c-1.5,3.5-2.9,7.1-4.4,10.6c-4.6,11-9.2,22-13.8,33c-0.1,0.1-0.1,0.3-0.2,0.4c0,0,0-0.1,0-0.1
			c0.2-0.5,0.4-1,0.6-1.5c1.4-3.5,2.9-7,4.3-10.5c1.1-2.7,2.2-5.3,3.4-8c0.9-2.2,1.8-4.3,2.7-6.5c0.8-2,1.7-4,2.5-6
			c0.4-1,0.8-2,1.3-3c0.9-1.9,1.6-4,2.5-5.9c0.4-0.8,0.6-1.7,1.1-2.5C41,16,41,16,41.1,16z"/>
		<path fill="#B02326" d="M41.1,16c0,0-0.1,0-0.1,0c0-0.6,0.4-1,0.6-1.6c0.3-0.8,0.3-0.8-0.6-0.8c-6,0-11.9,0-17.9,0
			c-0.6,0-0.8,0.1-0.8,0.7c0,13.9,0,27.7,0,41.6c0,1.4,0,2.8,0,4.2c0.2,0,0.2-0.3,0.3-0.3c0,0,0,0.1,0,0.1c-0.1,0.3-0.1,0.6-0.4,0.8
			c-0.2-0.1-0.1-0.3-0.1-0.5c0-15.4,0-30.8,0-46.2c0-0.3-0.1-0.6,0.5-0.6c6.4,0,12.8,0,19.2,0c0.1,0,0.2,0,0.3,0
			C41.8,14.3,41.4,15.1,41.1,16z"/>
		<path fill="#B03431" d="M74,56c-0.8-1.9-1.6-3.9-2.5-5.8c-2.9-6.9-5.8-13.8-8.7-20.8c-0.1-0.2-0.2-0.4-0.2-0.6c0,0,0,0,0.1,0
			c0.1,0,0.2,0.1,0.2,0.2c0.4,0.9,0.8,1.9,1.2,2.8c0.7,1.9,1.6,3.8,2.4,5.7c1,2.6,2.2,5.2,3.3,7.9c1,2.4,2.1,4.8,3,7.3
			c0.4,1.1,1,2.1,1.2,3.3C74,56,74,56,74,56z"/>
		<path fill="#0B0B0B" d="M82.8,15.7c0,1.3-1,2.2-2.2,2.2c-1.3,0-2.3-1-2.2-2.3c0-1.2,1-2.2,2.2-2.2C81.8,13.5,82.8,14.5,82.8,15.7z
			 M82.3,15.7c0-1-0.7-1.8-1.7-1.8c-1,0-1.8,0.8-1.8,1.8c0,1,0.8,1.8,1.8,1.9C81.5,17.6,82.3,16.8,82.3,15.7z"/>
		<path fill="#CE6668" d="M76,60.8c0-1.6,0-3.3,0-4.9c0-14,0-28,0-42c0-0.1,0-0.3,0-0.4c0.2,0.1,0.1,0.3,0.1,0.5
			c0,15.4,0,30.9,0,46.3c0,0.2,0,0.3,0,0.5c0,0,0,0,0,0.1C76,60.9,76,60.8,76,60.8z"/>
		<path fill="#B02326" d="M74,56c0,0,0-0.1,0-0.1c0.4,0.7,0.7,1.4,0.9,2.1l0,0C74.5,57.4,74.2,56.7,74,56z"/>
		<path fill="#B03431" d="M62.3,28.1c0,0,0.1,0,0.1,0c0.2,0.2,0.2,0.5,0.3,0.7c0,0,0,0-0.1,0C62.5,28.6,62.4,28.3,62.3,28.1z"/>
		<path fill="#FFFFFF" d="M59.6,81.3c0-0.7,0-1.3,0-2c0.1-1,0.6-1.7,1.3-1.8c0.6-0.1,1.3,0.5,1.5,1.5c0.4,1.7,0.4,3.3-0.1,5
			c-0.1,0.3-0.2,0.5-0.4,0.8c-0.5,0.6-1.3,0.6-1.8-0.1c-0.3-0.5-0.5-1-0.5-1.5c0,0,0-0.1,0-0.1C59.6,82.5,59.6,81.9,59.6,81.3
			C59.6,81.3,59.6,81.3,59.6,81.3z"/>
		<path fill="#FFFFFF" d="M40.5,81.6c-0.1,0.6,0.1,1.5-0.1,2.4c-0.2,0.6-0.5,1.1-1.2,1.1c-0.6,0-1.1-0.3-1.3-1.1
			c-0.6-1.8-0.6-3.7,0-5.5c0.1-0.3,0.2-0.5,0.4-0.7c0.5-0.6,1.3-0.5,1.8,0.1c0.3,0.4,0.4,0.9,0.4,1.4C40.5,80.1,40.5,80.7,40.5,81.6
			z"/>
		<path fill="#FFFFFF" d="M28.3,73.7c0.2,1,0.3,2,0.5,2.9c0.2,1.2,0.4,2.4,0.6,3.7c0.1,0.6,0,0.8-0.6,0.7c-0.5-0.1-1,0-1.5,0
			c-0.2,0-0.4,0-0.3-0.3c0.4-2.3,0.8-4.6,1.2-6.9C28.2,73.7,28.2,73.7,28.3,73.7z"/>
		<path fill="#FFFFFF" d="M48.4,81.3c0.1-0.9,0-1.9,0.3-2.8c0.1-0.3,0.2-0.6,0.4-0.8c0.5-0.7,1.3-0.7,1.8,0.1
			c0.4,0.6,0.5,1.4,0.6,2.1c0.1,1.3,0.1,2.7-0.2,4c-0.2,0.9-0.7,1.4-1.2,1.4c-0.6,0-1-0.5-1.3-1.4C48.5,83.1,48.5,82.2,48.4,81.3z"
			/>
		<path fill="#FFFFFF" d="M71.6,80.1c-0.2,0-0.3,0-0.5,0c-1.3,0-1.1,0.3-0.9-1.2c0.1-0.4,0.2-0.9,0.5-1.3c0.5-0.7,1.4-0.7,1.9,0
			c0.4,0.6,0.5,1.4,0.5,2.1c0,0.2-0.1,0.3-0.3,0.3C72.5,80.1,72.1,80.1,71.6,80.1z"/>
		<path fill="#D52027" d="M62.7,28.8c0-0.3,0-0.5-0.3-0.7c0-0.6-0.4-1.1-0.6-1.7c-0.6-1.5-1.4-3-2-4.6c-0.8-2.3-2-4.5-2.8-6.8
			c-0.1-0.3-0.2-0.5-0.4-0.7c-0.2-0.5-0.2-0.7,0.4-0.7c1.2,0,2.3,0,3.5,0c4.8,0,9.7,0,14.5,0c0.6,0,0.8,0.2,0.8,0.8
			c0,15,0,30.1,0,45.1c0,0.1,0,0.2,0,0.5c-0.5-0.6-0.5-1.4-1-1.9c-0.1-0.8-0.5-1.5-0.9-2.1c-0.3-1.1-0.8-2.2-1.2-3.3
			c-1-2.4-2-4.8-3-7.3c-1.1-2.6-2.2-5.2-3.3-7.9c-0.8-1.9-1.6-3.8-2.4-5.7c-0.4-0.9-0.8-1.9-1.2-2.8C62.8,28.9,62.8,28.8,62.7,28.8z
			"/>
		<path fill="#D52027" d="M22.6,59.8c-0.2,0-0.2,0.2-0.3,0.3c0-1.4,0-2.8,0-4.2c0-13.9,0-27.7,0-41.6c0-0.6,0.2-0.8,0.8-0.7
			c6,0,11.9,0,17.9,0c0.9,0,0.8,0,0.6,0.8c-0.2,0.5-0.6,1-0.6,1.6c-0.5,0.8-0.7,1.7-1.1,2.5c-0.9,1.9-1.6,3.9-2.5,5.9
			c-0.5,1-0.9,2-1.3,3c-0.8,2-1.7,4-2.5,6c-0.9,2.2-1.8,4.3-2.7,6.5c-1.1,2.7-2.3,5.3-3.4,8c-1.5,3.5-2.9,7-4.3,10.5
			C23,58.8,22.8,59.3,22.6,59.8z"/>
		<path fill="#FFFFFF" d="M82.3,15.7c0,1-0.8,1.9-1.8,1.8c-1,0-1.8-0.9-1.8-1.9c0-1,0.8-1.8,1.8-1.8C81.6,13.9,82.3,14.7,82.3,15.7z
			 M79.7,15.8L79.7,15.8c0,0.3,0,0.7,0,1c0,0.2,0.1,0.3,0.3,0.3c0.2,0,0.2-0.1,0.2-0.3c0.1-0.3-0.3-0.7,0.2-0.8
			c0.6-0.1,0.5,0.4,0.6,0.8c0,0,0,0,0,0.1c0,0.2,0.2,0.2,0.3,0.2c0.2,0,0.2-0.2,0.1-0.3c-0.1-0.5-0.4-1,0-1.5c0.1-0.1,0-0.3-0.1-0.5
			c-0.4-0.4-0.9-0.4-1.4-0.2c-0.4,0.1-0.2,0.5-0.2,0.8C79.7,15.4,79.7,15.6,79.7,15.8z"/>
		<path fill="#0B0B0B" d="M79.7,15.8c0-0.2,0-0.3,0-0.5c0-0.3-0.2-0.7,0.2-0.8c0.5-0.1,1-0.1,1.4,0.2c0.1,0.1,0.2,0.3,0.1,0.5
			c-0.4,0.5-0.1,1,0,1.5c0,0.1,0.1,0.3-0.1,0.3c-0.1,0-0.3,0-0.3-0.2c0,0,0,0,0-0.1c-0.1-0.3,0-0.9-0.6-0.8
			c-0.5,0.1-0.1,0.5-0.2,0.8c0,0.1,0,0.2-0.2,0.3c-0.2,0-0.3-0.1-0.3-0.3C79.7,16.4,79.7,16.1,79.7,15.8L79.7,15.8z M80.4,14.8
			c-0.3,0-0.2,0.2-0.2,0.4c0,0.3,0.1,0.4,0.4,0.4c0.2,0,0.5-0.1,0.5-0.4C81,14.9,80.7,14.8,80.4,14.8z"/>
		<path fill="#FFFFFF" d="M80.4,14.8c0.3,0,0.6,0.1,0.6,0.4c0,0.3-0.2,0.4-0.5,0.4c-0.3,0-0.4-0.1-0.4-0.4
			C80.2,15.1,80.1,14.8,80.4,14.8z"/>
	</g>
</g>
</svg>
