<?xml version="1.0" encoding="utf-8"?>
<!-- Generator: Adobe Illustrator 18.0.0, SVG Export Plug-In . SVG Version: 6.00 Build 0)  -->
<!DOCTYPE svg PUBLIC "-//W3C//DTD SVG 1.1//EN" "http://www.w3.org/Graphics/SVG/1.1/DTD/svg11.dtd">
<svg version="1.1" xmlns="http://www.w3.org/2000/svg" xmlns:xlink="http://www.w3.org/1999/xlink" x="0px" y="0px"
	 viewBox="0 0 220 100" enable-background="new 0 0 220 100" xml:space="preserve">
<g id="Layer_1">
</g>
<g id="Layer_2">
	<g>
		<g>
			<g>
				<path fill="#00AED5" d="M168,52.5h1.1V19.4H151c-2,1.8-4,3.6-6.2,5.4L168,52.5z"/>
				<path fill="#EC1C2D" d="M140.8,28.4c0.9,5.9,2.3,14.6,3.8,24.1H168l-23.2-27.7C143.5,26,142.2,27.2,140.8,28.4z"/>
				<path fill="#009DD5" d="M141.4,20.6l3.5,4.2c2.1-1.9,4.2-3.6,6.2-5.4h-5.1C144.4,19.8,142.9,20.2,141.4,20.6z"/>
				<path fill="#661029" d="M140.8,28.4c1.4-1.2,2.7-2.4,4.1-3.6l-3.5-4.2c-0.6,0.1-1.1,0.3-1.7,0.4
					C139.8,21.9,140.2,24.5,140.8,28.4z"/>
				<path fill="#00A2DB" d="M145.9,19.4h-5.6l1,1.2C142.9,20.2,144.4,19.8,145.9,19.4z"/>
				<path fill="#4B4B81" d="M136.1,21.4l3.6-0.6c0,0,0,0.1,0,0.3c0.6-0.1,1.1-0.3,1.7-0.4l-1-1.2h-4.3V21.4z"/>
				<path fill="#8972B2" d="M58,42.1c-12.4,3.2-23.8,6.1-33.1,8.5v2h28.5c1.5-1.3,3-2.6,4.6-4V42.1z"/>
				<path fill="#ED2D45" d="M58,48.6c-1.6,1.4-3.1,2.7-4.6,4H58V48.6z"/>
				<path fill="#006386" d="M62,19.4v16.3c0.9-5.3,1.9-10.7,2.9-16.3H62z"/>
				<path fill="#006386" d="M58,19.5H24.9v31.1c9.3-2.4,20.7-5.3,33.1-8.5V19.5z"/>
				<path fill="#00B0D3" d="M62,41.1v4.1c2.2-1.9,4.4-3.8,6.7-5.8C66.4,40,64.2,40.6,62,41.1z"/>
				<path fill="#592738" d="M74.2,38c-1.9,0.5-3.7,1-5.6,1.4c-2.3,2-4.5,3.9-6.7,5.8v7.3h21.2c1.1-1.2,2.2-2.3,3.3-3.6
					C81.6,44.6,77.3,40.8,74.2,38z"/>
				<path fill="#3C2336" d="M83.1,52.5h7.2c-1.3-1.2-2.7-2.4-3.9-3.6C85.3,50.2,84.2,51.4,83.1,52.5z"/>
				<path fill="#074670" d="M68.6,39.4c1.2-1.1,2.4-2.1,3.7-3.2c-2.4-2.1-3.7-3.4-3.7-3.4l9.5-1.6c4.7-4,9.3-8,13.7-11.8h-27
					c-1,5.5-1.9,11-2.9,16.3v5.4C64.2,40.6,66.4,40,68.6,39.4z"/>
				<path fill="#00659B" d="M95.1,19.4h-3.3c-4.4,3.8-9.1,7.8-13.7,11.8l17-2.9V19.4z"/>
				<path fill="#00659B" d="M72.3,36.2c-1.2,1.1-2.5,2.1-3.7,3.2c1.9-0.5,3.7-1,5.6-1.4C73.5,37.3,72.9,36.7,72.3,36.2z"/>
				<path fill="#006493" d="M132.1,22.1v-2.6h-18.3c-2.1,2.2-4.2,4.5-6.3,6.8L132.1,22.1z"/>
				<path fill="#00659B" d="M103.1,19.5H99v1.6v6.6l8.5-1.4c2.1-2.3,4.2-4.6,6.3-6.8H103.1z"/>
				<path fill="#E92C5F" d="M132.1,52.6V36c-6.2,5.4-12.5,11-18.9,16.5H132.1z"/>
				<path fill="#E92C5F" d="M136.1,32.6v20h8.5c-1.5-9.6-2.8-18.3-3.8-24.1C139.3,29.8,137.7,31.2,136.1,32.6z"/>
				<path fill="#472954" d="M131.1,23.3l-28.5,29.3h10.6c6.3-5.5,12.7-11.1,18.9-16.5V23C131.8,23.1,131.4,23.2,131.1,23.3z"/>
				<path fill="#472954" d="M139.7,21.1c-1.2,0.3-2.4,0.6-3.6,0.9v10.6c1.6-1.4,3.2-2.8,4.7-4.2C140.2,24.5,139.8,21.9,139.7,21.1z"
					/>
				<path fill="#0074BC" d="M131.1,23.3c0.3-0.1,0.7-0.2,1-0.3v-0.8L131.1,23.3z"/>
				<path fill="#0074BC" d="M136.1,21.4V22c1.2-0.3,2.4-0.6,3.6-0.9c0-0.2,0-0.3,0-0.3L136.1,21.4z"/>
				<path fill="#24406B" d="M74.2,38c3.1,2.8,7.3,6.6,12.2,11c2.8-3,5.7-6.1,8.7-9.4v-7C88,34.4,81,36.2,74.2,38z"/>
				<path fill="#24406B" d="M99,31.6v3.8c1.5-1.7,3.1-3.3,4.6-5C102.1,30.8,100.6,31.2,99,31.6z"/>
				<path fill="#123C65" d="M99,35.4v17.2h3.6l28.5-29.3c-9,2.3-18.2,4.7-27.5,7.1C102.1,32.1,100.5,33.7,99,35.4z"/>
				<path fill="#123C65" d="M95.1,39.6c-3,3.2-5.9,6.4-8.7,9.4c1.3,1.1,2.6,2.3,3.9,3.6h4.7V39.6z"/>
				<path fill="#0068B3" d="M68.6,32.9c0,0,1.4,1.2,3.7,3.4c1.9-1.7,3.8-3.3,5.8-5L68.6,32.9z"/>
				<path fill="#0086CC" d="M103.6,30.4c1.3-1.4,2.6-2.8,3.8-4.1L99,27.7v3.9C100.6,31.2,102.1,30.8,103.6,30.4z"/>
				<path fill="#0086CC" d="M95.1,32.6v-4.2l-17,2.9c-1.9,1.7-3.8,3.3-5.8,5c0.6,0.5,1.2,1.1,1.9,1.7C81,36.2,88,34.4,95.1,32.6z"/>
				<path fill="#0082C8" d="M132.1,22.1l-24.6,4.2c-1.3,1.4-2.6,2.8-3.8,4.1c9.3-2.4,18.5-4.8,27.5-7.1l1-1.1V22.1z"/>
			</g>
			<g>
				<path fill="#004E6F" d="M74,63.4c0,0.7,0.4,1.2,1.3,1.2c0.4,0,0.9,0,1.5-0.2l0.1,1c-0.6,0.2-1.2,0.2-1.8,0.2
					c-1.8,0-2.5-1-2.5-2.5c0-1.5,0.7-2.5,2.5-2.5c1.4,0,1.9,0.7,2,1.6c0,0.4,0,0.8,0,1.2H74z M74,62.6h1.9c0-0.1,0-0.3,0-0.4
					c0-0.4-0.3-0.6-0.8-0.6C74.4,61.6,74.1,62,74,62.6z"/>
				<path fill="#004E6F" d="M79.2,65.6h-1.2v-4.8h1.2v0.6h0c0.4-0.4,0.9-0.7,1.5-0.7c0.7,0,1.1,0.3,1.3,0.8c0.5-0.5,1-0.8,1.7-0.8
					c1,0,1.4,0.6,1.4,1.6v3.3h-1.2v-3c0-0.6-0.3-0.9-0.8-0.9c-0.4,0-0.7,0.2-0.9,0.4c0,0.2,0,0.3,0,0.5v2.9h-1.2v-3.1
					c0-0.5-0.3-0.8-0.8-0.8c-0.4,0-0.7,0.2-0.9,0.4V65.6z"/>
				<path fill="#004E6F" d="M87.2,61.2L87.2,61.2c0.3-0.3,0.9-0.6,1.4-0.6c1.3,0,1.7,1.1,1.7,2.5c0,1.4-0.5,2.5-1.8,2.5
					c-0.5,0-1-0.2-1.3-0.5h0v2.4H86v-6.7h1.2V61.2z M88.1,61.7c-0.4,0-0.7,0.2-0.9,0.3v2.3c0.2,0.1,0.5,0.3,0.9,0.3
					c0.7,0,0.9-0.7,0.9-1.5C89,62.3,88.8,61.7,88.1,61.7z"/>
				<path fill="#004E6F" d="M91.2,58.8h1.2v6.7h-1.2V58.8z"/>
				<path fill="#004E6F" d="M93.2,63.2c0-1.5,0.6-2.5,2.3-2.5c1.7,0,2.3,1,2.3,2.5c0,1.5-0.6,2.5-2.3,2.5
					C93.8,65.7,93.2,64.7,93.2,63.2z M94.5,63.2c0,0.9,0.2,1.5,1,1.5s1-0.6,1-1.5c0-0.9-0.2-1.5-1-1.5S94.5,62.3,94.5,63.2z"/>
				<path fill="#004E6F" d="M98.2,60.8h1.4l1.1,3.5h0l1.1-3.5h1.3l-1.7,5c-0.5,1.4-1.1,1.8-2.1,1.8c-0.3,0-0.6,0-0.9-0.1l0.1-1
					c0.1,0,0.4,0,0.5,0c0.5,0,0.8-0.4,1-0.9L98.2,60.8z"/>
				<path fill="#004E6F" d="M104.7,63.4c0,0.7,0.4,1.2,1.3,1.2c0.4,0,0.9,0,1.5-0.2l0.1,1c-0.6,0.2-1.2,0.2-1.8,0.2
					c-1.8,0-2.5-1-2.5-2.5c0-1.5,0.7-2.5,2.5-2.5c1.4,0,1.9,0.7,2,1.6c0,0.4,0,0.8,0,1.2H104.7z M104.7,62.6h1.9c0-0.1,0-0.3,0-0.4
					c0-0.4-0.3-0.6-0.8-0.6C105.1,61.6,104.8,62,104.7,62.6z"/>
				<path fill="#004E6F" d="M109.9,65.6h-1.2v-4.8h1.2v0.8h0c0.3-0.4,0.9-0.9,1.7-0.9v1.2c-0.6,0-1.3,0.2-1.7,0.4V65.6z"/>
				<path fill="#004E6F" d="M114.3,65.7c-0.8,0-1.6-0.1-2.2-0.2l0.2-1c0.8,0.2,1.5,0.2,1.8,0.2c0.6,0,0.8-0.3,0.8-0.5
					c0-0.2-0.2-0.4-0.8-0.5c-1.1-0.2-1.9-0.5-1.9-1.6c0-1,0.7-1.4,1.9-1.4c0.8,0,1.4,0.1,2,0.2l-0.2,1c-0.8-0.2-1.4-0.2-1.7-0.2
					c-0.6,0-0.7,0.2-0.7,0.4c0,0.2,0.2,0.4,0.8,0.5c0.9,0.2,2,0.4,2,1.6C116.2,65.2,115.4,65.7,114.3,65.7z"/>
				<path fill="#004E6F" d="M117,61.7l0.2-1.2c-0.2,0-0.3,0-0.5,0V59h1.2v1.4l-0.6,1.2H117z"/>
				<path fill="#004E6F" d="M120.9,61.9l-0.2-1c0.7-0.1,1.4-0.2,2-0.2c1.2,0,1.9,0.3,1.9,1.6v3.3h-1.2v-0.5c0,0,0,0,0,0
					c-0.4,0.4-0.8,0.6-1.4,0.6c-1,0-1.5-0.6-1.5-1.5c0-1.2,1.1-1.5,2-1.5h0.9v-0.3c0-0.5-0.3-0.6-0.9-0.6
					C122,61.7,121.6,61.7,120.9,61.9z M123.3,63.4h-0.8c-0.6,0-0.8,0.2-0.8,0.6c0,0.4,0.3,0.6,0.7,0.6c0.4,0,0.8-0.2,0.9-0.3V63.4z"
					/>
				<path fill="#004E6F" d="M127.5,65.7c-0.8,0-1.6-0.1-2.2-0.2l0.2-1c0.8,0.2,1.5,0.2,1.8,0.2c0.6,0,0.8-0.3,0.8-0.5
					c0-0.2-0.2-0.4-0.8-0.5c-1.1-0.2-1.9-0.5-1.9-1.6c0-1,0.7-1.4,1.9-1.4c0.8,0,1.4,0.1,2,0.2l-0.2,1c-0.8-0.2-1.4-0.2-1.7-0.2
					c-0.6,0-0.7,0.2-0.7,0.4c0,0.2,0.2,0.4,0.8,0.5c0.9,0.2,2,0.4,2,1.6C129.4,65.2,128.6,65.7,127.5,65.7z"/>
				<path fill="#004E6F" d="M132.1,65.7c-0.8,0-1.6-0.1-2.2-0.2l0.2-1c0.8,0.2,1.5,0.2,1.8,0.2c0.6,0,0.8-0.3,0.8-0.5
					c0-0.2-0.2-0.4-0.8-0.5c-1.1-0.2-1.9-0.5-1.9-1.6c0-1,0.7-1.4,1.9-1.4c0.8,0,1.4,0.1,2,0.2l-0.2,1c-0.8-0.2-1.4-0.2-1.7-0.2
					c-0.6,0-0.7,0.2-0.7,0.4c0,0.2,0.2,0.4,0.8,0.5c0.9,0.2,2,0.4,2,1.6C133.9,65.2,133.2,65.7,132.1,65.7z"/>
				<path fill="#004E6F" d="M134.5,63.2c0-1.5,0.6-2.5,2.3-2.5c1.7,0,2.3,1,2.3,2.5c0,1.5-0.6,2.5-2.3,2.5
					C135.2,65.7,134.5,64.7,134.5,63.2z M135.9,63.2c0,0.9,0.2,1.5,1,1.5c0.8,0,1-0.6,1-1.5c0-0.9-0.2-1.5-1-1.5
					C136.1,61.7,135.9,62.3,135.9,63.2z"/>
				<path fill="#004E6F" d="M142.3,60.7c0.6,0,1.1,0.1,1.7,0.2l-0.2,1c-0.8-0.2-1.1-0.2-1.5-0.2c-0.7,0-1.2,0.5-1.2,1.5
					c0,1,0.4,1.5,1.2,1.5c0.4,0,0.7,0,1.5-0.2l0.2,1c-0.6,0.1-1.1,0.2-1.7,0.2c-1.9,0-2.5-1-2.5-2.5
					C139.8,61.7,140.4,60.7,142.3,60.7z"/>
				<path fill="#004E6F" d="M145.8,59v1.3h-1.2V59H145.8z M145.8,60.8v4.8h-1.2v-4.8H145.8z"/>
				<path fill="#004E6F" d="M147,61.9l-0.2-1c0.7-0.1,1.4-0.2,2-0.2c1.2,0,1.9,0.3,1.9,1.6v3.3h-1.2v-0.5c0,0,0,0,0,0
					c-0.4,0.4-0.8,0.6-1.4,0.6c-1,0-1.5-0.6-1.5-1.5c0-1.2,1.1-1.5,2-1.5h0.9v-0.3c0-0.5-0.3-0.6-0.9-0.6
					C148.2,61.7,147.7,61.7,147,61.9z M149.5,63.4h-0.8c-0.6,0-0.8,0.2-0.8,0.6c0,0.4,0.3,0.6,0.7,0.6c0.4,0,0.8-0.2,0.9-0.3V63.4z"
					/>
				<path fill="#004E6F" d="M152,61.7h-0.6v-0.8l0.6-0.1l0.2-1.3h1.1v1.3h1.2v0.9h-1.2V64c0,0.5,0.2,0.7,0.7,0.7c0.1,0,0.3,0,0.4,0
					l0.1,1c-0.3,0.1-0.7,0.1-1,0.1c-1.1,0-1.5-0.5-1.5-1.5V61.7z"/>
				<path fill="#004E6F" d="M156.4,59v1.3h-1.2V59H156.4z M156.4,60.8v4.8h-1.2v-4.8H156.4z"/>
				<path fill="#004E6F" d="M157.1,63.2c0-1.5,0.6-2.5,2.3-2.5c1.7,0,2.3,1,2.3,2.5c0,1.5-0.6,2.5-2.3,2.5
					C157.8,65.7,157.1,64.7,157.1,63.2z M158.5,63.2c0,0.9,0.2,1.5,1,1.5c0.8,0,1-0.6,1-1.5c0-0.9-0.2-1.5-1-1.5
					C158.7,61.7,158.5,62.3,158.5,63.2z"/>
				<path fill="#004E6F" d="M163.8,65.6h-1.2v-4.8h1.2v0.6h0c0.4-0.4,0.9-0.7,1.6-0.7c1,0,1.4,0.6,1.4,1.6v3.3h-1.2v-3
					c0-0.6-0.2-0.9-0.8-0.9c-0.4,0-0.8,0.2-1,0.4V65.6z"/>
				<path fill="#004E6F" d="M169.3,63.2c0-1.5,0.6-2.5,2.3-2.5c1.7,0,2.3,1,2.3,2.5c0,1.5-0.6,2.5-2.3,2.5
					C169.9,65.7,169.3,64.7,169.3,63.2z M170.6,63.2c0,0.9,0.2,1.5,1,1.5c0.8,0,1-0.6,1-1.5c0-0.9-0.2-1.5-1-1.5
					C170.8,61.7,170.6,62.3,170.6,63.2z"/>
				<path fill="#004E6F" d="M176.3,60.8h1v0.9h-1v3.9H175v-3.9h-0.6v-0.8l0.6-0.1v-0.5c0-0.9,0.3-1.4,1.5-1.4c0.3,0,0.6,0,0.8,0.1
					l-0.1,1c-0.2,0-0.3,0-0.4,0c-0.4,0-0.6,0.1-0.6,0.5V60.8z"/>
				<path fill="#004E6F" d="M180.1,61.7h-0.6v-0.8l0.6-0.1l0.2-1.3h1.1v1.3h1.2v0.9h-1.2V64c0,0.5,0.2,0.7,0.7,0.7
					c0.1,0,0.3,0,0.4,0l0.1,1c-0.3,0.1-0.7,0.1-1,0.1c-1.1,0-1.5-0.5-1.5-1.5V61.7z"/>
				<path fill="#004E6F" d="M184.5,65.6h-1.2v-6.7h1.2v2.5h0c0.4-0.4,0.9-0.7,1.6-0.7c1,0,1.4,0.6,1.4,1.6v3.3h-1.2v-3
					c0-0.6-0.2-0.9-0.8-0.9c-0.4,0-0.8,0.2-1,0.4V65.6z"/>
				<path fill="#004E6F" d="M189.6,63.4c0,0.7,0.4,1.2,1.3,1.2c0.4,0,0.9,0,1.5-0.2l0.1,1c-0.6,0.2-1.2,0.2-1.8,0.2
					c-1.8,0-2.5-1-2.5-2.5c0-1.5,0.7-2.5,2.5-2.5c1.4,0,1.9,0.7,2,1.6c0,0.4,0,0.8,0,1.2H189.6z M189.6,62.6h1.9c0-0.1,0-0.3,0-0.4
					c0-0.4-0.3-0.6-0.8-0.6C190,61.6,189.7,62,189.6,62.6z"/>
				<path fill="#004E6F" d="M74.8,76.9c-0.8,0-1.6-0.1-2.2-0.2l0.2-1c0.8,0.2,1.5,0.2,1.8,0.2c0.6,0,0.8-0.3,0.8-0.5
					c0-0.2-0.3-0.4-0.8-0.5c-1.1-0.2-1.9-0.5-1.9-1.6c0-1,0.7-1.4,1.9-1.4c0.8,0,1.4,0.1,2,0.2l-0.2,1c-0.8-0.2-1.4-0.2-1.7-0.2
					c-0.6,0-0.7,0.2-0.7,0.4c0,0.2,0.2,0.4,0.8,0.5c0.9,0.2,2,0.4,2,1.6C76.7,76.4,75.9,76.9,74.8,76.9z"/>
				<path fill="#004E6F" d="M77.3,74.4c0-1.5,0.6-2.5,2.3-2.5c1.7,0,2.3,1,2.3,2.5c0,1.5-0.6,2.5-2.3,2.5
					C77.9,76.9,77.3,75.9,77.3,74.4z M78.6,74.4c0,0.9,0.2,1.5,1,1.5c0.8,0,1-0.6,1-1.5c0-0.9-0.2-1.5-1-1.5
					C78.8,72.9,78.6,73.5,78.6,74.4z"/>
				<path fill="#004E6F" d="M84.2,72h1v0.9h-1v3.9H83v-3.9h-0.6V72L83,72v-0.5c0-0.9,0.3-1.4,1.5-1.4c0.3,0,0.6,0,0.8,0.1l-0.1,1
					c-0.2,0-0.3,0-0.4,0c-0.4,0-0.6,0.1-0.6,0.5V72z"/>
				<path fill="#004E6F" d="M86.4,72.9h-0.6V72l0.6-0.1l0.2-1.3h1.1V72h1.2v0.9h-1.2v2.3c0,0.5,0.2,0.7,0.7,0.7c0.1,0,0.3,0,0.4,0
					l0.1,1c-0.3,0.1-0.7,0.1-1,0.1c-1.1,0-1.5-0.5-1.5-1.5V72.9z"/>
				<path fill="#004E6F" d="M93,73.9l-0.7,2.9h-1.4L89.5,72h1.4l0.8,3.5h0l0.7-3.5h1.2l0.8,3.5h0l0.8-3.5h1.3l-1.4,4.9h-1.4L93,73.9
					L93,73.9z"/>
				<path fill="#004E6F" d="M97.5,73.1l-0.2-1c0.7-0.1,1.4-0.2,2-0.2c1.2,0,1.9,0.3,1.9,1.6v3.3h-1.2v-0.5c0,0,0,0,0,0
					c-0.4,0.4-0.8,0.6-1.4,0.6c-1,0-1.5-0.6-1.5-1.5c0-1.2,1.1-1.5,2-1.5h0.9v-0.3c0-0.5-0.3-0.6-0.9-0.6
					C98.6,72.9,98.2,73,97.5,73.1z M99.9,74.6h-0.8c-0.6,0-0.8,0.2-0.8,0.6c0,0.4,0.3,0.6,0.7,0.6c0.4,0,0.8-0.2,0.9-0.3V74.6z"/>
				<path fill="#004E6F" d="M103.3,76.8h-1.2V72h1.2v0.8h0c0.3-0.4,0.9-0.9,1.7-0.9v1.2c-0.6,0-1.3,0.2-1.7,0.4V76.8z"/>
				<path fill="#004E6F" d="M106.9,74.6c0,0.7,0.4,1.2,1.3,1.2c0.4,0,0.9,0,1.5-0.2l0.1,1c-0.6,0.2-1.2,0.2-1.8,0.2
					c-1.8,0-2.5-1-2.5-2.5c0-1.5,0.7-2.5,2.5-2.5c1.4,0,1.9,0.7,2,1.6c0,0.4,0,0.8,0,1.2H106.9z M106.9,73.9h1.9c0-0.1,0-0.3,0-0.4
					c0-0.4-0.3-0.6-0.8-0.6C107.2,72.8,106.9,73.2,106.9,73.9z"/>
				<path fill="#004E6F" d="M112.8,73.1l-0.2-1c0.7-0.1,1.4-0.2,2-0.2c1.2,0,1.9,0.3,1.9,1.6v3.3h-1.2v-0.5c0,0,0,0,0,0
					c-0.4,0.4-0.8,0.6-1.4,0.6c-1,0-1.5-0.6-1.5-1.5c0-1.2,1.1-1.5,2-1.5h0.9v-0.3c0-0.5-0.3-0.6-0.9-0.6
					C113.9,72.9,113.5,73,112.8,73.1z M115.2,74.6h-0.8c-0.6,0-0.8,0.2-0.8,0.6c0,0.4,0.3,0.6,0.7,0.6c0.4,0,0.8-0.2,0.9-0.3V74.6z"
					/>
				<path fill="#004E6F" d="M118.6,76.8h-1.2V72h1.2v0.6h0c0.4-0.4,0.9-0.7,1.6-0.7c1,0,1.4,0.6,1.4,1.6v3.3h-1.2v-3
					c0-0.6-0.2-0.9-0.8-0.9c-0.4,0-0.8,0.2-1,0.4V76.8z"/>
				<path fill="#004E6F" d="M125.6,76.3C125.6,76.3,125.6,76.3,125.6,76.3c-0.3,0.3-0.8,0.6-1.4,0.6c-1.3,0-1.8-1.1-1.8-2.5
					c0-1.4,0.5-2.5,1.8-2.5c0.5,0,1,0.2,1.3,0.5c0,0,0,0,0,0v-2.4h1.2v6.7h-1.2V76.3z M124.7,75.8c0.4,0,0.7-0.2,0.9-0.3v-2.3
					c-0.1-0.1-0.5-0.3-0.9-0.3c-0.7,0-0.9,0.6-0.9,1.5C123.8,75.2,124,75.8,124.7,75.8z"/>
				<path fill="#004E6F" d="M131.4,76.9c-0.8,0-1.6-0.1-2.2-0.2l0.2-1c0.8,0.2,1.5,0.2,1.8,0.2c0.6,0,0.8-0.3,0.8-0.5
					c0-0.2-0.3-0.4-0.8-0.5c-1.1-0.2-1.9-0.5-1.9-1.6c0-1,0.7-1.4,1.9-1.4c0.8,0,1.4,0.1,2,0.2l-0.2,1c-0.8-0.2-1.4-0.2-1.7-0.2
					c-0.6,0-0.7,0.2-0.7,0.4c0,0.2,0.2,0.4,0.8,0.5c0.9,0.2,2,0.4,2,1.6C133.3,76.4,132.6,76.9,131.4,76.9z"/>
				<path fill="#004E6F" d="M135.2,74.6c0,0.7,0.4,1.2,1.3,1.2c0.4,0,0.9,0,1.5-0.2l0.1,1c-0.6,0.2-1.2,0.2-1.8,0.2
					c-1.8,0-2.5-1-2.5-2.5c0-1.5,0.7-2.5,2.5-2.5c1.4,0,1.9,0.7,2,1.6c0,0.4,0,0.8,0,1.2H135.2z M135.2,73.9h1.9c0-0.1,0-0.3,0-0.4
					c0-0.4-0.3-0.6-0.8-0.6C135.6,72.8,135.3,73.2,135.2,73.9z"/>
				<path fill="#004E6F" d="M140.4,76.8h-1.2V72h1.2v0.8h0c0.3-0.4,0.9-0.9,1.7-0.9v1.2c-0.6,0-1.3,0.2-1.7,0.4V76.8z"/>
				<path fill="#004E6F" d="M144.3,76.8l-1.7-4.9h1.4l1.1,3.5h0l1.1-3.5h1.3l-1.7,4.9H144.3z"/>
				<path fill="#004E6F" d="M149.4,70.2v1.3h-1.2v-1.3H149.4z M149.4,72v4.8h-1.2V72H149.4z"/>
				<path fill="#004E6F" d="M152.7,71.9c0.6,0,1.1,0.1,1.7,0.2l-0.2,1c-0.8-0.2-1.1-0.2-1.5-0.2c-0.7,0-1.2,0.5-1.2,1.5
					c0,1,0.4,1.5,1.2,1.5c0.4,0,0.7,0,1.5-0.2l0.2,1c-0.6,0.1-1.1,0.2-1.7,0.2c-1.9,0-2.5-1-2.5-2.5
					C150.2,72.9,150.8,71.9,152.7,71.9z"/>
				<path fill="#004E6F" d="M156.1,74.6c0,0.7,0.4,1.2,1.3,1.2c0.4,0,0.9,0,1.5-0.2l0.1,1c-0.6,0.2-1.2,0.2-1.8,0.2
					c-1.8,0-2.5-1-2.5-2.5c0-1.5,0.7-2.5,2.5-2.5c1.4,0,1.9,0.7,2,1.6c0,0.4,0,0.8,0,1.2H156.1z M156.1,73.9h1.9c0-0.1,0-0.3,0-0.4
					c0-0.4-0.3-0.6-0.8-0.6C156.4,72.8,156.1,73.2,156.1,73.9z"/>
				<path fill="#004E6F" d="M162,76.9c-0.8,0-1.6-0.1-2.2-0.2l0.2-1c0.8,0.2,1.5,0.2,1.8,0.2c0.6,0,0.8-0.3,0.8-0.5
					c0-0.2-0.3-0.4-0.8-0.5c-1.1-0.2-1.9-0.5-1.9-1.6c0-1,0.7-1.4,1.9-1.4c0.8,0,1.4,0.1,2,0.2l-0.2,1c-0.8-0.2-1.4-0.2-1.7-0.2
					c-0.6,0-0.7,0.2-0.7,0.4c0,0.2,0.2,0.4,0.8,0.5c0.9,0.2,2,0.4,2,1.6C163.8,76.4,163.1,76.9,162,76.9z"/>
				<path fill="#004E6F" d="M167.5,70.2v1.3h-1.2v-1.3H167.5z M167.5,72v4.8h-1.2V72H167.5z"/>
				<path fill="#004E6F" d="M169.7,76.8h-1.2V72h1.2v0.6h0c0.4-0.4,0.9-0.7,1.6-0.7c1,0,1.4,0.6,1.4,1.6v3.3h-1.2v-3
					c0-0.6-0.2-0.9-0.8-0.9c-0.4,0-0.8,0.2-1,0.4V76.8z"/>
				<path fill="#004E6F" d="M176.6,76.3C176.6,76.3,176.6,76.3,176.6,76.3c-0.3,0.3-0.8,0.6-1.4,0.6c-1.3,0-1.8-1.1-1.8-2.5
					c0-1.4,0.5-2.5,1.8-2.5c0.5,0,1,0.2,1.3,0.5c0,0,0,0,0,0v-2.4h1.2v6.7h-1.2V76.3z M175.7,75.8c0.4,0,0.7-0.2,0.9-0.3v-2.3
					c-0.1-0.1-0.5-0.3-0.9-0.3c-0.7,0-0.9,0.6-0.9,1.5C174.8,75.2,175,75.8,175.7,75.8z"/>
				<path fill="#004E6F" d="M181.8,72h1.2v4.8h-1.2v-0.6h0c-0.4,0.4-0.9,0.7-1.6,0.7c-1,0-1.4-0.6-1.4-1.6V72h1.2v3
					c0,0.5,0.3,0.9,0.8,0.9c0.4,0,0.8-0.2,1-0.4V72z"/>
				<path fill="#004E6F" d="M185.9,76.9c-0.8,0-1.6-0.1-2.2-0.2l0.2-1c0.8,0.2,1.5,0.2,1.8,0.2c0.6,0,0.8-0.3,0.8-0.5
					c0-0.2-0.3-0.4-0.8-0.5c-1.1-0.2-1.9-0.5-1.9-1.6c0-1,0.7-1.4,1.9-1.4c0.8,0,1.4,0.1,2,0.2l-0.2,1c-0.8-0.2-1.4-0.2-1.7-0.2
					c-0.6,0-0.7,0.2-0.7,0.4c0,0.2,0.2,0.4,0.8,0.5c0.9,0.2,2,0.4,2,1.6C187.8,76.4,187.1,76.9,185.9,76.9z"/>
				<path fill="#004E6F" d="M189,72.9h-0.6V72L189,72l0.2-1.3h1.1V72h1.2v0.9h-1.2v2.3c0,0.5,0.2,0.7,0.7,0.7c0.1,0,0.3,0,0.4,0
					l0.1,1c-0.3,0.1-0.7,0.1-1,0.1c-1.1,0-1.5-0.5-1.5-1.5V72.9z"/>
				<path fill="#004E6F" d="M193.4,76.8h-1.2V72h1.2v0.8h0c0.3-0.4,0.9-0.9,1.7-0.9v1.2c-0.6,0-1.3,0.2-1.7,0.4V76.8z"/>
				<path fill="#004E6F" d="M195.6,72h1.4l1.1,3.5h0l1.1-3.5h1.3l-1.7,5c-0.5,1.4-1.1,1.8-2.1,1.8c-0.3,0-0.6,0-0.9-0.1l0.1-1
					c0.1,0,0.4,0,0.5,0c0.5,0,0.8-0.4,1-0.9L195.6,72z"/>
			</g>
			<g>
				<path fill="#FFFFFF" d="M45.7,41.1h-8.5l-1.4,3.1h-3.3l7.3-16.2h3.3l7.3,16.2H47L45.7,41.1z M41.4,31.3l-3,6.9h6L41.4,31.3z"/>
				<path fill="#FFFFFF" d="M82.5,38.9V28h3.1v16.2h-2.5l-8.6-10.8v10.8h-3.1V28h2.5L82.5,38.9z"/>
				<path fill="#FFFFFF" d="M114.1,44.2V28h3v16.2H114.1z"/>
				<path fill="#FFFFFF" d="M156.6,31.9c-0.6-0.9-2.1-1.8-3.8-1.8c-2.3,0-3.4,0.9-3.4,2.2c0,1.4,1.7,1.8,3.6,2
					c3.4,0.4,6.5,1.3,6.5,5.2c0,3.6-3.2,5.2-6.8,5.2c-3.3,0-5.8-1-7.1-4l2.5-1.3c0.7,1.8,2.6,2.6,4.6,2.6c1.9,0,3.7-0.7,3.7-2.4
					c0-1.5-1.6-2.2-3.7-2.4c-3.3-0.4-6.4-1.3-6.4-4.9c0-3.3,3.3-4.7,6.3-4.7c2.5,0,5.1,0.7,6.4,3.2L156.6,31.9z"/>
			</g>
		</g>
	</g>
</g>
</svg>
