<?xml version="1.0" encoding="utf-8"?>
<!-- Generator: Adobe Illustrator 18.0.0, SVG Export Plug-In . SVG Version: 6.00 Build 0)  -->
<!DOCTYPE svg PUBLIC "-//W3C//DTD SVG 1.1//EN" "http://www.w3.org/Graphics/SVG/1.1/DTD/svg11.dtd">
<svg version="1.1" xmlns="http://www.w3.org/2000/svg" xmlns:xlink="http://www.w3.org/1999/xlink" x="0px" y="0px"
	 viewBox="0 0 100 100" enable-background="new 0 0 100 100" xml:space="preserve">
<g id="Layer_1">
</g>
<g id="Layer_2">
	<g>
		<path fill="#EA2127" d="M38.8,23.4c0.1-0.1,0.2-0.1,0.3-0.1c0.1,0,0.2,0.1,0.2,0.3c0,0.1,0,0.2-0.1,0.3c-3.5,4.4-6.1,9.5-6.1,16.5
			c0,7.1,2.6,12.1,6.1,16.4c0.1,0.1,0.1,0.2,0.1,0.3c0,0.2-0.1,0.3-0.2,0.3c-0.1,0-0.2,0-0.3-0.1L23.9,42.8
			c-0.7-0.6-1.2-1.4-1.2-2.4c0-1.1,0.5-1.8,1.2-2.4L38.8,23.4z"/>
		<path fill="#045BA7" d="M50.3,22.2c-5.8,0-8.1,8.3-8.1,18.2c0,9.9,2.3,18.1,8.1,18.1c3.5,0,6.5-2.1,6.5-3.7c0-0.4-0.1-0.7-0.5-1
			c-1.7-1.6-2.3-3.2-2.3-4.6c0-2.7,2.3-4.7,4.5-4.7c3,0,4.7,2.3,4.7,5.4c0,2.9-1.2,5.3-2.6,7.2c-0.1,0.1-0.1,0.2-0.1,0.2
			c0,0.2,0.1,0.3,0.2,0.3c0.1,0,0.2,0,0.3-0.1l14.9-14.4c0.7-0.6,1.2-1.4,1.2-2.4c0-1.1-0.5-1.8-1.2-2.4L61.2,23.4
			c-0.1-0.1-0.2-0.1-0.3-0.1c-0.1,0-0.2,0.1-0.2,0.3c0,0.1,0,0.2,0.1,0.2c1.3,1.9,2.6,4.3,2.6,7.2c0,3-1.8,5.4-4.7,5.4
			c-2.2,0-4.5-2-4.5-4.7c0-1.4,0.7-3,2.3-4.6c0.3-0.3,0.5-0.7,0.5-1C56.8,24.3,53.8,22.2,50.3,22.2z"/>
		<path fill="#045BA7" d="M17.4,75.7c-0.9-1-1.6-2.4-1.6-4.1c0-1.7,0.6-3.1,1.5-4.1c0.9-1,2.2-1.6,3.5-1.6c2.4,0,4.1,1.7,4.1,3.1
			c0,0.8-0.5,1.4-1.2,1.4c-0.3,0-0.6-0.1-0.9-0.3c-0.2-0.2-0.4-0.5-0.4-0.9c0-0.5,0.2-0.7,0.4-0.9c-0.3-0.5-0.9-1-1.9-1
			c-0.8,0-1.5,0.4-2,1.2c-0.5,0.8-0.8,1.8-0.8,3.1c0,1.3,0.3,2.4,0.8,3.1c0.5,0.8,1.2,1.2,2.1,1.2c1,0,1.6-0.4,1.9-1
			c-0.2-0.2-0.4-0.5-0.4-0.9c0-0.4,0.1-0.7,0.4-0.9c0.2-0.2,0.5-0.3,0.9-0.3c0.7,0,1.2,0.6,1.2,1.4c0,1.5-1.7,3.1-4.1,3.1
			C19.6,77.2,18.4,76.7,17.4,75.7L17.4,75.7z M51.9,71.9c0.2,0,0.2,0,0.2-0.1c0-0.1,0-0.2,0-0.3c0-0.7-0.6-1.4-1.5-1.4
			c-1.1,0-1.6,0.9-1.6,1.8L51.9,71.9L51.9,71.9L51.9,71.9z M29.7,73.2c-0.9,0-1.4,0.4-1.4,1.2c0,0.8,0.5,1.3,1.3,1.3
			c0.5,0,1-0.3,1.4-0.7v-1.1c0-0.1-0.1-0.3-0.3-0.4C30.4,73.3,30.1,73.2,29.7,73.2L29.7,73.2z M62.3,72.8c0,2.1,0.9,3.1,1.8,3.1
			c1,0,1.8-0.9,1.8-2.7c0-0.9-0.2-1.7-0.5-2.2c-0.3-0.5-0.8-0.8-1.3-0.8C63,70.1,62.3,71.1,62.3,72.8L62.3,72.8z M35.2,76.8
			c-0.3-0.1-0.6-0.3-0.5-0.6c0-0.1,0-0.2,0.1-0.4l0,0l0,0c0.1,0,0.3-0.1,0.5-0.2c0.2-0.2,0.3-0.4,0.3-1v-3.3c0-0.5-0.1-0.7-0.6-0.8
			c-0.1,0-0.2,0-0.4,0l-0.1,0l0-0.1c0-0.1-0.1-0.2-0.1-0.4c0-0.6,0.7-1,1.2-1.1c0.2-0.1,0.4-0.1,0.5-0.1c0.7,0,1,0.5,1.2,1.1
			c0.4-0.7,1.1-1.1,1.8-1.1c0.6,0,1.3,0.4,1.3,1.2c0,0.6-0.4,1.1-1.1,1.1c-0.5,0-0.9-0.3-1-0.8c-0.4,0.1-0.9,0.6-0.9,2.2v2
			c0,0.6,0.1,0.9,0.3,1c0.2,0.1,0.6,0.2,0.7,0.2l0,0l0,0c0.1,0.1,0.1,0.3,0.1,0.4c0,0.3-0.2,0.4-0.5,0.5c-0.3,0.1-0.8,0.1-1.4,0.1
			C36.1,77,35.6,76.9,35.2,76.8L35.2,76.8z M41.7,76.8c-0.3-0.1-0.6-0.3-0.5-0.6c0-0.1,0-0.2,0.1-0.4l0,0l0,0c0.1,0,0.3-0.1,0.5-0.2
			c0.2-0.2,0.3-0.4,0.3-1v-3.3c0-0.5-0.1-0.7-0.6-0.8c-0.1,0-0.2,0-0.4,0l-0.1,0l0-0.1C41,70.5,41,70.3,41,70.2c0-0.6,0.7-1,1.2-1.1
			c0.2-0.1,0.4-0.1,0.5-0.1c0.7,0,1,0.5,1.2,1.1c0.4-0.7,1.1-1.1,1.8-1.1c0.6,0,1.3,0.4,1.3,1.2c0,0.6-0.4,1.1-1.1,1.1
			c-0.5,0-0.9-0.3-1-0.8C44.5,70.6,44,71,44,72.6v2c0,0.6,0.1,0.9,0.3,1c0.2,0.1,0.6,0.2,0.7,0.2l0,0l0,0c0.1,0.1,0.1,0.3,0.1,0.4
			c0,0.3-0.2,0.4-0.5,0.5c-0.3,0.1-0.8,0.1-1.4,0.1C42.6,77,42.1,76.9,41.7,76.8L41.7,76.8z M55.5,76.8c-0.3-0.1-0.6-0.3-0.6-0.6
			c0-0.1,0-0.2,0.1-0.3l0,0l0,0c0.1,0,0.3-0.1,0.5-0.2c0.2-0.2,0.3-0.4,0.3-1v-4.3l-1.1,0l0-0.1c-0.1-0.1-0.1-0.3-0.1-0.4
			c0-0.4,0.3-0.7,0.7-0.7h0.5v-0.5c0-1.1,0.2-1.8,0.5-2.2c0.4-0.7,1.2-1.2,2.4-1.2c1.5,0,2.7,0.7,2.7,1.8c0,0.5-0.3,1.1-1,1.1
			c-0.5,0-1-0.4-1-1c0-0.2,0.1-0.4,0.2-0.6c-0.2-0.1-0.5-0.2-0.7-0.2c-0.5,0-0.7,0.2-0.9,0.4c-0.2,0.3-0.2,0.7-0.2,1.1v1.2h2l0,0.1
			c0.1,0.1,0.1,0.3,0.1,0.4c0,0.4-0.3,0.7-0.7,0.8c-0.1,0-0.3,0-0.4,0c-0.3,0-0.7,0-0.9,0v4.2c0,0.6,0.1,0.9,0.3,1
			c0.2,0.1,0.7,0.2,0.8,0.2l0,0l0,0c0.1,0.1,0.1,0.2,0.1,0.3c0,0.3-0.2,0.5-0.6,0.6C58.1,76.9,57.6,77,57,77
			C56.3,77,55.8,76.9,55.5,76.8L55.5,76.8z M78.9,76.8c-0.3-0.1-0.6-0.3-0.6-0.6c0-0.1,0-0.2,0.1-0.4l0,0l0,0c0.1,0,0.3-0.1,0.5-0.2
			c0.2-0.2,0.3-0.4,0.3-1v-3.3c0-0.5-0.1-0.7-0.6-0.8c-0.1,0-0.2,0-0.4,0l-0.1,0l0-0.1c0-0.1-0.1-0.2-0.1-0.3c0-0.7,0.7-1,1.2-1.1
			c0.2-0.1,0.4-0.1,0.5-0.1c0.6,0,1,0.5,1.2,1.1c0.4-0.7,1.1-1.2,1.8-1.2c0.6,0,1.3,0.4,1.3,1.2c0,0.6-0.4,1.1-1,1.1
			c-0.5,0-0.9-0.3-1-0.8c-0.4,0.1-0.9,0.6-0.9,2.2v2c0,0.6,0.1,0.9,0.3,1c0.2,0.1,0.6,0.2,0.7,0.2l0,0l0,0c0.1,0.1,0.1,0.3,0.1,0.4
			c0,0.3-0.2,0.4-0.5,0.5C81.5,76.9,81,77,80.4,77C79.8,77,79.3,76.9,78.9,76.8L78.9,76.8z M64.1,77.1c-1.1,0-2.1-0.4-2.8-1.1
			c-0.7-0.7-1.2-1.7-1.2-3c0-2.4,1.9-4.1,4-4.1c1.2,0,2.2,0.4,2.9,1.1c0.7,0.7,1.1,1.7,1.1,2.9c0,1.2-0.4,2.2-1.2,2.9
			C66.3,76.7,65.2,77.1,64.1,77.1L64.1,77.1L64.1,77.1z M46.9,73.2c0-1.2,0.4-2.3,1.1-3c0.7-0.7,1.7-1.2,2.9-1.2
			c1.1,0,1.9,0.4,2.4,1c0.5,0.6,0.8,1.3,0.8,2c0,0.4-0.1,0.8-0.3,1.1l0,0H49c0.1,1.4,1,2.4,2.5,2.4c1,0,1.7-0.5,1.9-0.8l0.1-0.1
			l0.1,0c0.1,0.1,0.3,0.3,0.3,0.6c0,0.8-1,1.9-3.1,1.9C48.7,77.1,46.9,75.4,46.9,73.2L46.9,73.2z M74.9,76.7
			c-0.1-0.2-0.2-0.4-0.3-0.7c-0.1,0.1-0.2,0.2-0.3,0.3c-0.5,0.5-1.2,0.8-2,0.8c-0.8,0-1.5-0.3-2-0.9c-0.7-0.8-0.7-1.9-0.7-3.4v-1.4
			c0-0.6-0.2-0.8-0.7-0.8c-0.1,0-0.1,0-0.2,0l-0.1,0l0-0.1c0-0.1-0.1-0.2-0.1-0.3c0-0.7,0.9-1.1,1.4-1.2c0.2,0,0.3-0.1,0.5-0.1
			c0.4,0,0.7,0.1,0.9,0.4c0.2,0.2,0.3,0.6,0.3,1l0,2.5c0,0.9,0.1,1.6,0.3,2c0.2,0.4,0.5,0.6,1.1,0.6c0.6,0,1-0.3,1.2-0.7
			c0.2-0.4,0.3-0.9,0.3-1.4v-2c0-0.6-0.2-0.8-0.7-0.8c-0.1,0-0.1,0-0.2,0l-0.1,0l0-0.1c0-0.1-0.1-0.2-0.1-0.3c0-0.7,0.9-1.1,1.4-1.2
			c0.2,0,0.4-0.1,0.5-0.1c0.4,0,0.7,0.1,0.9,0.4c0.2,0.2,0.3,0.6,0.3,1c0,0.3,0,0.8,0,2.9c0,0.9,0,1.4,0,1.5c0,0.6,0.2,0.9,0.8,0.9
			c0.1,0,0.1,0,0.2,0l0.1,0l0,0.1c0,0.1,0.1,0.2,0.1,0.3c0,0.7-0.9,1-1.4,1.1c-0.2,0-0.3,0.1-0.5,0.1h0C75.3,77.1,75,77,74.9,76.7
			L74.9,76.7z M26.1,74.6c0-0.8,0.3-1.4,0.9-1.8c0.6-0.4,1.4-0.6,2.3-0.6c0.6,0,1.2,0.1,1.6,0.3v-0.9c0-0.9-0.3-1.4-1.3-1.4
			c-0.2,0-0.6,0-0.9,0.2c0,0.1,0.1,0.3,0.1,0.4c0,0.3-0.1,0.6-0.3,0.8c-0.2,0.2-0.4,0.3-0.8,0.3c-0.6,0-1-0.5-1-1
			c0-1.1,1.3-1.8,3-1.8c1.4,0,2.2,0.3,2.7,0.9c0.4,0.5,0.4,1.3,0.4,2.4v2.8c0,0.6,0.3,0.7,1,0.8l0.1,0l0,0.1c0,0.7-0.6,1.1-1.2,1.1
			c-0.1,0-0.1,0-0.2,0c-0.6,0-1.1-0.3-1.4-0.9c-0.4,0.3-1.2,0.9-2.3,0.9C27.3,77.1,26.1,76,26.1,74.6z"/>
	</g>
</g>
</svg>
