<?xml version="1.0" encoding="utf-8"?>
<!-- Generator: Adobe Illustrator 18.0.0, SVG Export Plug-In . SVG Version: 6.00 Build 0)  -->
<!DOCTYPE svg PUBLIC "-//W3C//DTD SVG 1.1//EN" "http://www.w3.org/Graphics/SVG/1.1/DTD/svg11.dtd">
<svg version="1.1" xmlns="http://www.w3.org/2000/svg" xmlns:xlink="http://www.w3.org/1999/xlink" x="0px" y="0px"
	 viewBox="0 0 100 100" enable-background="new 0 0 100 100" xml:space="preserve">
<g id="Layer_1">
</g>
<g id="Layer_2">
	<g>
		<path fill="#FFFFFF" d="M49.1,73.3c-14.3,0-28.5,0-42.8,0C6,73.3,6,73.2,6,72.9C6,57.5,6,42,6,26.6c0-0.3,0.1-0.4,0.4-0.4
			c28.5,0,57.1,0,85.6,0c0.3,0,0.4,0.1,0.4,0.4c0,15.4,0,30.9,0,46.3c0,0.3-0.1,0.4-0.4,0.4C77.7,73.3,63.4,73.3,49.1,73.3z
			 M75.5,71.5c4.3,0,7.4-3.2,7.5-7.5c0-4.3-3.1-7.5-7.3-7.5c-4.3,0-7.5,3.1-7.5,7.4C68.1,68.3,71.2,71.5,75.5,71.5z M26.6,61
			c0-1.3,0-2.5,0-3.7c0-0.1-0.1-0.2-0.2-0.2c-1.2-0.3-2.5-0.6-3.8-0.5c-2.3,0.2-4.2,1.1-5.5,3c-1.2,1.7-1.6,3.6-1.3,5.7
			c0.2,1.5,0.8,2.8,1.8,3.9c2.3,2.5,5.8,2.8,8.7,1.9c0.2-0.1,0.3-0.2,0.3-0.4c0-1.1,0-2.1,0-3.2c0-0.1,0-0.3-0.1-0.4
			c-1.4,0.6-2.7,0.8-3.9,0.6c-1.8-0.4-2.9-1.8-3-3.6c0-1.9,1-3.3,2.8-3.7C23.9,60.1,25.2,60.4,26.6,61z M40,69.4L40,69.4
			c0,0.4,0,0.8,0,1.2c0,0.3,0.1,0.5,0.4,0.6c1.1,0.3,2.2,0.4,3.4,0.4c1.2,0,2.4-0.2,3.5-0.8c1.7-0.9,2.5-2.4,2.5-4.3
			c-0.1-1.8-1.1-3-2.7-3.6c-0.7-0.3-1.3-0.5-2-0.8c-0.3-0.1-0.6-0.2-0.8-0.4c-0.7-0.5-0.6-1.3,0.1-1.7c0.4-0.2,0.8-0.2,1.3-0.3
			c1-0.1,1.9,0.1,2.8,0.3c0.3,0.1,0.3,0,0.3-0.3c0-0.8,0-1.6,0-2.4c0-0.3-0.1-0.3-0.3-0.4c-0.6-0.1-1.2-0.3-1.8-0.4
			c-1.4-0.2-2.7-0.2-4,0.3c-3.2,1.2-3.4,5.6-1.2,7.2c0.9,0.7,1.9,1.1,2.9,1.4c0.5,0.1,1,0.3,1.3,0.7c0.5,0.6,0.3,1.2-0.3,1.6
			c-0.2,0.1-0.4,0.2-0.6,0.3c-0.7,0.2-1.4,0.2-2.1,0.1c-0.8-0.1-1.7-0.3-2.5-0.5c-0.2-0.1-0.3,0-0.3,0.2C40,68.5,40,69,40,69.4z
			 M64.2,60.9c0-1.2,0-2.4,0-3.6c0-0.1-0.1-0.2-0.2-0.2c-0.7-0.2-1.4-0.4-2.1-0.5c-4.3-0.5-8.3,2.2-8.6,6.9
			c-0.2,2.5,0.6,4.6,2.5,6.2c2.4,2,5.1,2.2,8,1.4c0.2-0.1,0.3-0.2,0.3-0.4c0-1.1,0-2.2,0-3.3c0-0.1,0-0.2-0.1-0.2
			c-1,0.5-2.2,0.7-3.3,0.6c-2-0.1-3.5-1.6-3.5-3.5c-0.1-2.1,1.2-3.7,3.2-3.9C61.7,60.2,62.9,60.4,64.2,60.9z M70.9,39.4
			c0-3.1,0-6.2,0-9.4c0-0.6-0.2-1.2-0.7-1.6c-0.6-0.4-1.3-0.5-1.9-0.1c-0.7,0.3-0.9,0.9-0.9,1.7c0,1.8,0,3.7,0,5.5
			c0,4.4,0,8.8,0,13.2c0,0.6,0.1,1.2,0.7,1.6c0.6,0.5,1.3,0.5,2,0.1c0.7-0.3,1-0.9,1-1.6C70.9,45.6,70.9,42.5,70.9,39.4z M31.4,39.3
			c0-3.1,0-6.3,0-9.4c0-1-0.7-1.8-1.7-1.8c-1,0-1.9,0.8-1.9,1.8c0,6.3,0,12.6,0,18.8c0,1,0.8,1.8,1.7,1.8c1,0.1,1.8-0.7,1.8-1.8
			C31.4,45.6,31.4,42.5,31.4,39.3z M35.2,64.1c0-2.2,0-4.5,0-6.7c0-0.3-0.1-0.4-0.4-0.4c-1,0-2,0-3,0c-0.2,0-0.3,0-0.3,0.3
			c0,4.5,0,9,0,13.5c0,0.3,0.1,0.3,0.4,0.3c1,0,2,0,3,0c0.4,0,0.4-0.1,0.4-0.4C35.2,68.5,35.2,66.3,35.2,64.1z M80.6,40.9L80.6,40.9
			c0-1.4,0-2.8,0-4.2c0-0.2,0-0.5-0.1-0.7c-0.3-0.8-1.1-1.3-1.9-1.1C77.7,35,77,35.7,77,36.6c0,2.9,0,5.7,0,8.6c0,1,0.9,1.8,1.9,1.8
			c1,0,1.7-0.8,1.7-1.8C80.6,43.8,80.6,42.4,80.6,40.9z M41.3,40.9c0-1.4,0-2.9,0-4.3c0,0,0-0.1,0-0.1c0-0.7-0.3-1.2-0.9-1.4
			c-1.3-0.7-2.6,0.2-2.6,1.7c0,2.8,0,5.6,0,8.4c0,0.3,0,0.5,0.1,0.8c0.3,0.8,1,1.2,1.9,1.1c0.9-0.2,1.5-0.8,1.5-1.6
			C41.3,43.9,41.3,42.4,41.3,40.9z M61,40.9c0-1.4,0-2.8,0-4.2c0-0.2,0-0.4-0.1-0.6c-0.2-0.8-1-1.3-1.9-1.2c-1,0.1-1.6,0.8-1.6,1.7
			c0,2.9,0,5.7,0,8.6c0,1.1,0.8,1.8,1.9,1.8c1,0,1.7-0.8,1.7-1.8C61,43.8,61,42.3,61,40.9z M18.1,40.9c0,1.4,0,2.8,0,4.2
			c0,0.3,0,0.6,0.1,0.8c0.3,0.7,1.1,1.2,1.7,1.1c1-0.2,1.7-0.7,1.7-1.9c0-2.8,0-5.7,0-8.5c0-1.2-1.2-2-2.3-1.8
			c-0.7,0.1-1.2,0.9-1.2,1.8C18.1,38.1,18.1,39.5,18.1,40.9z M47.5,43.4C47.5,43.4,47.5,43.4,47.5,43.4c0,0.6,0,1.2,0,1.7
			c0,1.1,0.8,1.9,1.9,1.9c0.9,0,1.9-0.7,1.9-1.9c0-1.1,0-2.2,0-3.4c0-0.2,0-0.5-0.1-0.7c-0.2-0.8-1.1-1.4-1.9-1.3
			c-0.9,0.1-1.6,0.7-1.7,1.6C47.4,42.1,47.5,42.7,47.5,43.4z M90.5,43.5C90.5,43.5,90.5,43.5,90.5,43.5c0-0.6,0-1.3,0-1.9
			c-0.1-1.1-0.7-1.8-1.8-1.8c-1,0-1.7,0.6-1.7,1.7c-0.1,1.3-0.1,2.6,0,3.9c0,1,0.8,1.7,1.7,1.6c1.1,0,1.8-0.7,1.8-1.8
			C90.5,44.6,90.5,44,90.5,43.5z M8.2,43.4C8.2,43.4,8.2,43.4,8.2,43.4c0,0.6,0,1.3,0,1.9c0,1,0.7,1.6,1.8,1.7
			c0.9,0,1.7-0.7,1.7-1.6c0-1.3,0-2.7,0-4c0-1-0.8-1.7-1.7-1.7c-1.1,0-1.8,0.7-1.8,1.8C8.2,42.1,8.2,42.8,8.2,43.4z"/>
		<path fill="#AF2326" d="M75.5,71.5c-4.3,0-7.5-3.2-7.4-7.6c0-4.3,3.2-7.4,7.5-7.4c4.2,0,7.4,3.2,7.3,7.5
			C83,68.4,79.8,71.6,75.5,71.5z M79.3,64.1c0-2.1-1.7-3.8-3.7-3.8c-2,0-3.7,1.7-3.7,3.7c0,2.1,1.7,3.7,3.7,3.7
			C77.6,67.8,79.3,66.1,79.3,64.1z"/>
		<path fill="#AF2326" d="M26.6,61c-1.4-0.6-2.7-0.9-4.1-0.6c-1.8,0.4-2.8,1.8-2.8,3.7c0,1.8,1.2,3.2,3,3.6c1.2,0.2,2.5,0.1,3.9-0.6
			c0.1,0.1,0.1,0.2,0.1,0.4c0,1.1,0,2.1,0,3.2c0,0.2,0,0.4-0.3,0.4c-2.9,0.9-6.4,0.6-8.7-1.9c-1-1.1-1.6-2.4-1.8-3.9
			c-0.3-2.1,0.1-4,1.3-5.7c1.4-1.9,3.2-2.8,5.5-3c1.3-0.1,2.5,0.2,3.8,0.5c0.1,0,0.2,0.1,0.2,0.2C26.6,58.5,26.6,59.7,26.6,61z"/>
		<path fill="#AF2326" d="M40,69.4c0-0.4,0-0.9,0-1.3c0-0.2,0-0.3,0.3-0.2c0.8,0.2,1.6,0.4,2.5,0.5c0.7,0.1,1.4,0,2.1-0.1
			c0.2-0.1,0.4-0.1,0.6-0.3c0.6-0.4,0.7-1.1,0.3-1.6c-0.3-0.4-0.8-0.6-1.3-0.7c-1.1-0.3-2-0.7-2.9-1.4c-2.2-1.6-2-5.9,1.2-7.2
			c1.3-0.5,2.7-0.5,4-0.3c0.6,0.1,1.2,0.3,1.8,0.4c0.2,0,0.3,0.1,0.3,0.4c0,0.8,0,1.6,0,2.4c0,0.3-0.1,0.3-0.3,0.3
			c-0.9-0.2-1.9-0.3-2.8-0.3c-0.4,0-0.9,0.1-1.3,0.3c-0.8,0.4-0.8,1.2-0.1,1.7c0.2,0.2,0.5,0.3,0.8,0.4c0.7,0.2,1.4,0.5,2,0.8
			c1.6,0.7,2.6,1.9,2.7,3.6c0.1,1.9-0.7,3.4-2.5,4.3c-1.1,0.6-2.2,0.8-3.5,0.8c-1.1,0-2.3-0.1-3.4-0.4c-0.3-0.1-0.4-0.2-0.4-0.6
			C40.1,70.2,40,69.8,40,69.4L40,69.4z"/>
		<path fill="#AF2326" d="M64.2,60.9c-1.2-0.6-2.5-0.8-3.7-0.6c-2,0.3-3.3,1.9-3.2,3.9c0.1,1.9,1.6,3.4,3.5,3.5
			c1.2,0.1,2.3-0.1,3.3-0.6c0.1,0,0.1,0.1,0.1,0.2c0,1.1,0,2.2,0,3.3c0,0.2-0.1,0.4-0.3,0.4c-2.9,0.8-5.6,0.6-8-1.4
			c-2-1.6-2.7-3.8-2.5-6.2c0.3-4.7,4.2-7.4,8.6-6.9c0.7,0.1,1.4,0.3,2.1,0.5c0.1,0,0.2,0.1,0.2,0.2C64.2,58.5,64.2,59.7,64.2,60.9z"
			/>
		<path fill="#0F6284" d="M70.9,39.4c0,3.1,0,6.2,0,9.4c0,0.7-0.3,1.3-1,1.6c-0.7,0.3-1.4,0.3-2-0.1c-0.5-0.4-0.7-1-0.7-1.6
			c0-4.4,0-8.8,0-13.2c0-1.8,0-3.7,0-5.5c0-0.7,0.2-1.3,0.9-1.7c0.7-0.3,1.3-0.2,1.9,0.1c0.6,0.4,0.7,0.9,0.7,1.6
			C70.9,33.1,70.9,36.2,70.9,39.4z"/>
		<path fill="#0F6284" d="M31.4,39.3c0,3.1,0,6.3,0,9.4c0,1.1-0.8,1.8-1.8,1.8c-1-0.1-1.7-0.8-1.7-1.8c0-6.3,0-12.6,0-18.8
			c0-1,0.8-1.8,1.9-1.8c1,0,1.7,0.7,1.7,1.8C31.4,33.1,31.4,36.2,31.4,39.3z"/>
		<path fill="#AF2326" d="M35.2,64.1c0,2.2,0,4.4,0,6.6c0,0.3-0.1,0.4-0.4,0.4c-1,0-2,0-3,0c-0.3,0-0.4,0-0.4-0.3c0-4.5,0-9,0-13.5
			c0-0.3,0.1-0.3,0.3-0.3c1,0,2,0,3,0c0.3,0,0.4,0.1,0.4,0.4C35.2,59.6,35.2,61.9,35.2,64.1z"/>
		<path fill="#0F6284" d="M80.6,40.9c0,1.4,0,2.9,0,4.3c0,1.1-0.7,1.8-1.7,1.8c-1,0-1.9-0.8-1.9-1.8c0-2.9,0-5.7,0-8.6
			c0-0.9,0.7-1.6,1.6-1.8c0.9-0.1,1.6,0.3,1.9,1.1c0.1,0.2,0.1,0.5,0.1,0.7C80.6,38.1,80.6,39.5,80.6,40.9L80.6,40.9z"/>
		<path fill="#0F6284" d="M41.3,40.9c0,1.5,0,2.9,0,4.4c0,0.9-0.6,1.5-1.5,1.6c-0.9,0.1-1.6-0.3-1.9-1.1c-0.1-0.3-0.1-0.5-0.1-0.8
			c0-2.8,0-5.6,0-8.4c0-1.5,1.3-2.3,2.6-1.7c0.6,0.3,0.9,0.8,0.9,1.4c0,0,0,0.1,0,0.1C41.3,38,41.3,39.5,41.3,40.9z"/>
		<path fill="#0F6284" d="M61,40.9c0,1.4,0,2.8,0,4.3c0,1.1-0.7,1.8-1.7,1.8c-1.1,0-1.9-0.7-1.9-1.8c0-2.9,0-5.7,0-8.6
			c0-1,0.6-1.6,1.6-1.7c0.9-0.1,1.7,0.4,1.9,1.2c0.1,0.2,0.1,0.4,0.1,0.6C61,38.1,61,39.5,61,40.9z"/>
		<path fill="#0F6284" d="M18.1,40.9c0-1.4,0-2.8,0-4.3c0-0.9,0.5-1.6,1.2-1.8c1.1-0.2,2.3,0.5,2.3,1.8c0,2.8,0,5.7,0,8.5
			c0,1.1-0.8,1.7-1.7,1.9c-0.6,0.1-1.4-0.4-1.7-1.1c-0.1-0.3-0.1-0.5-0.1-0.8C18.1,43.7,18.1,42.3,18.1,40.9z"/>
		<path fill="#0F6284" d="M47.5,43.4c0-0.7,0-1.4,0-2c0.1-0.9,0.8-1.6,1.7-1.6c0.9-0.1,1.7,0.5,1.9,1.3c0.1,0.2,0.1,0.5,0.1,0.7
			c0,1.1,0,2.2,0,3.4c0,1.2-1,1.9-1.9,1.9c-1,0-1.8-0.8-1.9-1.9C47.5,44.6,47.5,44,47.5,43.4C47.5,43.4,47.5,43.4,47.5,43.4z"/>
		<path fill="#0F6284" d="M90.5,43.5c0,0.6,0,1.2,0,1.8c0,1.1-0.7,1.8-1.8,1.8c-0.9,0-1.7-0.7-1.7-1.6c0-1.3-0.1-2.6,0-3.9
			c0-1.1,0.8-1.7,1.7-1.7c1.1,0,1.8,0.7,1.8,1.8C90.6,42.2,90.5,42.8,90.5,43.5C90.5,43.5,90.5,43.5,90.5,43.5z"/>
		<path fill="#0F6284" d="M8.2,43.4c0-0.6,0-1.3,0-1.9c0-1.1,0.7-1.7,1.8-1.8c0.9,0,1.7,0.6,1.7,1.7c0.1,1.3,0,2.7,0,4
			c0,0.9-0.8,1.6-1.7,1.6c-1.1,0-1.8-0.7-1.8-1.7C8.2,44.7,8.2,44.1,8.2,43.4C8.2,43.4,8.2,43.4,8.2,43.4z"/>
		<path fill="#FFFFFF" d="M79.3,64.1c0,2.1-1.7,3.7-3.7,3.7c-2.1,0-3.7-1.7-3.7-3.7c0-2.1,1.7-3.7,3.7-3.7
			C77.6,60.3,79.3,62,79.3,64.1z"/>
	</g>
</g>
</svg>
