<?xml version="1.0" encoding="utf-8"?>
<!-- Generator: Adobe Illustrator 18.0.0, SVG Export Plug-In . SVG Version: 6.00 Build 0)  -->
<!DOCTYPE svg PUBLIC "-//W3C//DTD SVG 1.1//EN" "http://www.w3.org/Graphics/SVG/1.1/DTD/svg11.dtd">
<svg version="1.1" xmlns="http://www.w3.org/2000/svg" xmlns:xlink="http://www.w3.org/1999/xlink" x="0px" y="0px"
	 viewBox="0 0 100 100" enable-background="new 0 0 100 100" xml:space="preserve">
<g id="Layer_1">
</g>
<g id="Layer_2">
	<g>
		<path fill="#FFFFFF" d="M80.2,49.1c0,10.2,0,20.4,0,30.5c0,0.6-0.1,0.8-0.7,0.7c-20.4,0-40.9,0-61.3,0c-0.6,0-0.8-0.1-0.7-0.7
			c0-20.4,0-40.9,0-61.3c0-0.6,0.1-0.8,0.7-0.7c20.4,0,40.9,0,61.3,0c0.6,0,0.8,0.1,0.7,0.7C80.2,28.6,80.2,38.9,80.2,49.1z"/>
		<path fill="#0A0B0B" d="M68.4,72.2c-2.3,2.2-5,3.8-7.9,4.9c-9.5,3.7-18.7,3-27.5-2.1c-0.3-0.2-0.5-0.4-0.8-0.5
			c0.1-0.2,0.3-0.3,0.5-0.3c0.3,0,0.5,0.1,0.8,0.2c3.3,2,6.8,3.2,10.6,3.8c5.4,0.9,10.7,0.3,15.8-1.8c1.3-0.5,2.6-1.1,3.7-1.8
			c0.4-0.2,0.8-0.5,1.1-0.7c0.3-0.2,0.6-0.5,0.9-0.6c0.2-0.1,0.4-0.3,0.7-0.4c0.2-0.1,0.4-0.3,0.7-0.4c0.3-0.2,0.5-0.4,0.8-0.5
			C68.2,72,68.3,72.1,68.4,72.2z"/>
		<path fill="#0A0A0A" d="M53.9,19.1c4.4,0.6,8.3,2.3,12,4.8c5.6,3.8,9.5,8.9,11.7,15.3c0.1,0.2,0,0.3,0.1,0.5
			c-0.3,0.1,0.1,0.7-0.4,0.7c-0.3-0.2-0.2-0.5-0.4-0.8c-0.3-0.5-0.3-1.1-0.6-1.6c-0.3-0.5-0.3-1-0.7-1.4c-0.4-0.5-0.4-1.2-0.8-1.6
			c-0.5-0.6-0.7-1.4-1.2-1.9c-0.2-0.3-0.3-0.6-0.5-0.8c-0.5-0.5-0.7-1.2-1.2-1.6c-0.6-0.4-0.9-1.2-1.5-1.7c-1.1-0.9-2-2.1-3.2-2.9
			c-0.4-0.3-0.7-0.6-1.2-0.8c-1.3-0.7-2.3-1.8-3.7-2.3c-1.2-0.4-2.1-1.2-3.4-1.5c-2.2-0.8-4.6-1.1-6.8-1.8c-0.1-0.1-0.2-0.1-0.2-0.3
			c0.1-0.3,0.3-0.3,0.5-0.3c0.1,0,0.1,0,0.2,0C53,19.1,53.5,18.9,53.9,19.1z"/>
		<path fill="#090909" d="M52.4,18.9c-0.1,0.2-0.3,0.2-0.4,0.2c-0.4,0.4-1,0.3-1.5,0.3c-1.1,0-2.1,0-3.2,0c-0.5,0-1.1-0.1-1.6,0.1
			c-1.7,0.5-3.4,0.5-5.1,1.1c-1.5,0.4-2.9,1.1-4.4,1.6c-0.7,0.3-1.3,0.6-2,1c-0.4,0.2-0.7,0.4-1.1,0.6c-0.6,0.4-1.2,0.8-1.8,1.2
			c-0.3,0.2-0.6,0.4-0.9,0.7c-0.5,0.3-1,0.7-1.3,1.2C29.1,27,29,27.1,29,27.2c-0.6,0.4-1.1,1-1.6,1.5c-0.5,0.5-1,1-1.5,1.5
			c-0.6,0.9-1.3,1.7-1.9,2.6c-0.3,0.4-0.5,0.9-0.8,1.3c-0.2,0.3-0.3,0.6-0.5,0.9c-0.4,0.6-0.6,1.3-0.9,1.9c-0.3,0.4-0.2,1-0.8,1.2
			c-0.2-0.1-0.2-0.3-0.3-0.5c2.5-6.2,6.7-11.1,12.5-14.5c3.3-2,6.8-3.4,10.6-3.9c0.4-0.2,0.9,0.1,1.3-0.2c0-0.1,0.1-0.1,0.2,0
			c0.6-0.2,1.3,0.1,1.9-0.2c1.1,0,2.2,0,3.4,0C51.1,18.9,51.8,18.6,52.4,18.9L52.4,18.9z"/>
		<path fill="#080808" d="M20.7,37.5c0.2,0.1,0.3,0.2,0.3,0.5c0.1,0.1,0.1,0.2,0.1,0.3c-0.2,0.5-0.4,1.1-0.6,1.6
			c-0.3,0.8-0.5,1.6-0.6,2.4c-0.1,0.4-0.2,0.8-0.3,1.2c-0.1,0.3-0.2,0.7-0.2,1c0,0.1,0,0.3,0,0.4c-0.1,0.5,0,1-0.2,1.5
			c-0.3,2.9,0,5.7,0.5,8.5c0.9,4.7,2.9,8.9,5.9,12.6c0.9,1.2,1.9,2.4,3.1,3.4c0.3,0.2,0.6,0.5,0.9,0.8c0.2,0.2,0.3,0.3,0.5,0.5
			c0.2,0.2,0.4,0.4,0.7,0.6c0.3,0.2,0.5,0.4,0.8,0.6c0.2,0.1,0.4,0.3,0.7,0.5c0.2,0.1,0.4,0.3,0.5,0.5c0,0,0,0.1,0,0.1
			c-0.1,0.2-0.3,0.2-0.4,0.2c-3.2-1.9-5.8-4.5-8-7.5c-2.7-3.6-4.4-7.7-5.4-12.1c-0.1-0.3,0-0.6,0-0.8c-0.2-0.5,0.1-1.1-0.2-1.6l0,0
			c-0.2-0.6,0.1-1.3-0.2-1.9c0-1,0-2.1,0-3.1c0.2-0.7-0.1-1.4,0.2-2.1l0,0c0.3-0.5,0-1,0.2-1.5C19.1,41.7,19.7,39.5,20.7,37.5z"/>
		<path fill="#080808" d="M77.3,40.2c0.1-0.2,0.3-0.4,0.4-0.6c0.6,1.8,0.9,3.6,1.3,5.4c0.3,0.8-0.1,1.7,0.2,2.6l0,0c0.1,1,0.1,2,0,3
			l0,0c-0.3,0.8,0,1.7-0.2,2.6c-0.7,4.5-2,8.7-4.6,12.6c-1.4,2.1-3.1,4-5,5.7c-0.3,0.3-0.7,0.6-1,0.9c-0.2,0-0.3-0.1-0.4-0.2
			c0,0,0-0.1,0-0.1c0.3-0.4,0.6-0.9,1-1.2c5-4.7,8-10.5,9.1-17.3c0.3-1.8,0.4-3.7,0.3-5.6c0-0.3,0-0.7,0-1c0-0.5,0-1-0.1-1.4
			c-0.1-0.3-0.1-0.6-0.2-0.9C78,44,78,43.6,77.9,43.2c-0.2-0.8-0.3-1.6-0.5-2.4C77.2,40.6,77.2,40.4,77.3,40.2z"/>
		<path fill="#0A0A0A" d="M79.2,50.5c0-1,0-2,0-3C79.3,48.5,79.3,49.5,79.2,50.5z"/>
		<path fill="#0A0A0A" d="M79.2,47.5C78.7,46.7,79,45.8,79,45C79.2,45.8,79.2,46.7,79.2,47.5z"/>
		<path fill="#0A0A0A" d="M79,53.1c0.1-0.9-0.3-1.7,0.2-2.6C79.2,51.4,79.2,52.2,79,53.1z"/>
		<path fill="#090909" d="M18.7,45.4c-0.1,0.7,0.2,1.4-0.2,2.1C18.5,46.8,18.4,46.1,18.7,45.4z"/>
		<path fill="#151515" d="M52.4,18.9c-0.6,0-1.3,0.2-1.9-0.2C51.1,18.7,51.8,18.6,52.4,18.9z"/>
		<path fill="#090909" d="M18.5,50.7c0.4,0.6,0.1,1.3,0.2,1.9C18.4,52,18.5,51.3,18.5,50.7z"/>
		<path fill="#151515" d="M47.1,18.7c-0.6,0.4-1.3,0.1-1.9,0.2C45.8,18.6,46.5,18.6,47.1,18.7z"/>
		<path fill="#090909" d="M18.9,43.9c0,0.5,0.2,1.1-0.2,1.5C18.6,44.9,18.6,44.4,18.9,43.9z"/>
		<path fill="#090909" d="M18.7,52.6c0.4,0.5,0.2,1,0.2,1.6C18.6,53.6,18.6,53.1,18.7,52.6z"/>
		<path fill="#151515" d="M45,18.9c-0.4,0.4-0.9,0.2-1.3,0.2C44.1,18.8,44.6,18.9,45,18.9z"/>
		<path fill="#151515" d="M53.9,19.1c-0.5,0-1,0.2-1.4-0.2C53,18.9,53.5,18.8,53.9,19.1z"/>
		<path fill="#535352" d="M64.1,74.7c-3,1.9-6.4,3.1-9.9,3.7c-6.5,1.2-12.8,0.2-18.8-2.7c-0.7-0.3-1.4-0.8-2.1-1.2
			c0-0.4,0.2-0.3,0.5-0.3c2.1,0.8,4,1.9,6.2,2.6c7.9,2.4,15.4,1.7,22.7-2.1c0.3-0.2,0.6-0.3,1-0.3C63.8,74.4,64.1,74.4,64.1,74.7z"
			/>
		<path fill="#262626" d="M68.1,72c-0.3,0.2-0.6,0.4-0.8,0.6c-0.2-0.1-0.3-0.3-0.3-0.5c0.2-0.5,0.5-0.7,1-0.6
			C68.2,71.6,68.2,71.8,68.1,72L68.1,72z"/>
		<path fill="#49494A" d="M64.1,74.7c-0.1-0.2-0.2-0.2-0.4-0.2c0.1-0.6,0.6-0.6,1.1-0.8c0.2,0,0.5,0,0.4,0.4
			C64.8,74.3,64.4,74.5,64.1,74.7z"/>
		<path fill="#434343" d="M65.1,74.1c-0.1-0.2-0.3-0.2-0.4-0.2c0-0.6,0.4-0.7,0.8-0.8c0.2,0,0.5,0,0.4,0.4
			C65.7,73.7,65.4,73.9,65.1,74.1z"/>
		<path fill="#313131" d="M67,72.2c0.2,0.1,0.2,0.2,0.2,0.4c-0.2,0.1-0.4,0.3-0.6,0.4c-0.2-0.1-0.4,0-0.5-0.3
			C66.3,72.4,66.5,72.2,67,72.2z"/>
		<path fill="#484849" d="M33.7,74.3c-0.2,0-0.3,0-0.4,0.2c-0.2-0.1-0.4-0.1-0.6-0.2l0,0c-0.2-0.3-0.1-0.4,0.2-0.5
			C33.2,73.8,33.7,73.8,33.7,74.3z"/>
		<path fill="#393939" d="M66.2,72.9c0.2,0,0.3,0,0.4,0.2c-0.2,0.1-0.4,0.3-0.6,0.4c-0.1-0.2-0.2-0.2-0.4-0.2
			C65.5,72.8,65.8,72.8,66.2,72.9z"/>
		<path fill="#969696" d="M47.2,19.1c1.1,0,2.2,0,3.3,0c0.5,0.2,1,0,1.5,0.2c2.4,0.4,4.8,0.9,7.1,1.7c0,0.3-0.2,0.4-0.4,0.4
			c-0.5,0.1-1-0.1-1.6-0.3c-3.9-1.2-7.9-1.4-12-1c-0.2,0-0.5,0.1-0.7,0.1c-0.4,0-0.8,0-1.2,0.1c-0.7,0.2-1.4,0.4-2.1,0.5
			c-0.3-0.1-0.6,0-0.6-0.4c1.7-0.6,3.5-0.8,5.2-1.1C46.2,19.1,46.7,19.3,47.2,19.1z"/>
		<path fill="#818282" d="M62.4,22.5c1.4,0.5,2.5,1.5,3.8,2.3c0,0.3-0.2,0.3-0.4,0.3c-1.4-0.6-2.5-1.5-3.8-2.1c0-0.1,0-0.2,0-0.3
			C62,22.5,62.3,22.6,62.4,22.5z"/>
		<path fill="#777676" d="M67.2,25.5c1.3,0.8,2.2,2,3.3,3c0.2,0.2,0.1,0.4-0.1,0.5c-0.8-0.1-1.1-0.8-1.6-1.2c-0.5-0.8-1.5-1-1.8-2
			C67,25.7,67.1,25.6,67.2,25.5z"/>
		<path fill="#8B8B8B" d="M62.4,22.5c-0.2,0.1-0.3,0.1-0.5,0.2c-1.3-0.1-2.4-0.5-3.4-1.4c0.2,0,0.4-0.1,0.5-0.2
			C60.3,21.2,61.3,22,62.4,22.5z"/>
		<path fill="#535251" d="M73.7,32.7c0.7,0.5,0.7,1.4,1.2,2c0.2,0.2,0.1,0.4-0.1,0.5c-0.1,0-0.2,0-0.3,0c-0.4-0.7-1-1.3-1.1-2.1
			C73.5,32.8,73.6,32.7,73.7,32.7z"/>
		<path fill="#5B5B5C" d="M72,30.2c0.6,0.4,0.7,1.2,1.3,1.7c0.2,0.2,0.1,0.4-0.1,0.5c-0.1,0-0.2,0-0.3,0c-0.5-0.5-0.9-1-1.1-1.6
			C71.7,30.5,71.9,30.4,72,30.2z"/>
		<path fill="#4B4A4B" d="M74.7,35c0.2-0.1,0.2-0.2,0.2-0.4c0.5,0.4,0.4,1.2,0.8,1.7c0.2,0.3,0.1,0.4-0.2,0.5
			C74.9,36.4,74.6,35.8,74.7,35z"/>
		<path fill="#646465" d="M72,30.2c0,0.2-0.1,0.3-0.2,0.4c-0.2,0.1-0.4-0.1-0.5-0.2c-0.2-0.5-1-0.8-0.9-1.5c0.2-0.1,0.2-0.2,0.2-0.4
			C71.2,29,71.4,29.8,72,30.2z"/>
		<path fill="#353434" d="M77.3,40.2c0.1,0.1,0.1,0.3,0.2,0.4c0.1,0.3,0.2,0.5-0.1,0.7c-0.2,0-0.3,0-0.4-0.2c-0.3-0.5-0.4-1-0.4-1.6
			c0.1-0.4,0.3-0.3,0.6-0.2C77.4,39.6,77.2,39.9,77.3,40.2z"/>
		<path fill="#3B3B3B" d="M77.1,39.4c-0.1,0.2-0.3,0-0.4,0c-0.7-0.2-0.4-0.8-0.7-1.2c0-0.1,0-0.2,0-0.3c0.1-0.2,0.3-0.2,0.5-0.2
			C76.9,38.2,76.7,38.9,77.1,39.4z"/>
		<path fill="#444444" d="M76.4,37.7c-0.1,0.2-0.2,0.2-0.4,0.2c-0.4-0.3-0.7-0.7-0.4-1.3c0.2-0.1,0.2-0.2,0.2-0.4
			C76.2,36.7,76.2,37.3,76.4,37.7z"/>
		<path fill="#7C7B7C" d="M67.2,25.5c-0.1,0.1-0.2,0.2-0.3,0.3c-0.4,0.2-0.6-0.1-0.9-0.3c-0.2-0.2-0.4-0.3-0.3-0.6
			c0.1-0.1,0.3-0.1,0.4-0.2C66.6,24.9,66.8,25.4,67.2,25.5z"/>
		<path fill="#555656" d="M73.1,32.3c0.2-0.1,0.2-0.2,0.2-0.4c0.3,0.2,0.4,0.5,0.5,0.7c-0.1,0.1-0.2,0.2-0.2,0.3
			C73,32.9,72.9,32.7,73.1,32.3z"/>
		<path fill="#151515" d="M51.9,19.3c-0.5,0-1,0.1-1.5-0.2c0.5,0,1,0,1.5,0C51.9,19.2,51.9,19.2,51.9,19.3z"/>
		<path fill="#313130" d="M28.9,27c0,0,0-0.1,0-0.1c0.6-0.3,1-0.8,1.6-1.2c0.3-0.3,0.6-0.4,0.9-0.7c0.4-0.2,0.6-0.6,1.1-0.5
			c0.4,0.3,0.8,0.6,1.3,0.1c0.4-0.4,0.9-0.3,1.2,0.3c-0.1,0.3-0.3,0.5-0.6,0.6c-0.4,0.3-0.8,0.4-0.7,1c-0.1,0.3-0.4,0.4-0.7,0.5
			c-0.5,0-1,0.3-1.4,0.4c-0.6,0-1.1,0.1-1.6,0.2c-0.4,0.1-0.8,0.1-1.2-0.2C28.8,27.3,28.8,27.1,28.9,27z"/>
		<path fill="#929292" d="M40.4,20.4c0.2,0.2,0.4,0.2,0.7,0.2c-0.1,0.5-0.6,0.5-0.9,0.6c-0.8,0.2-1.6,0.5-2.3,0.9
			c-0.5,0.3-1,0.4-1.6,0.3c-0.2-0.1-0.3-0.1-0.3-0.3C37.5,21.4,38.9,20.7,40.4,20.4z"/>
		<path fill="#5B5B5C" d="M23.9,32.7c0.4-1,1.2-1.8,1.9-2.7c0.2,0.1,0.3,0.3,0.3,0.5c-0.2,0.9-0.9,1.4-1.4,2.1
			c-0.2,0.2-0.3,0.4-0.6,0.4C23.9,32.9,23.8,32.9,23.9,32.7z"/>
		<path fill="#646565" d="M26,30.4c-0.2-0.1-0.2-0.2-0.2-0.4c0.4-0.6,0.9-1.1,1.4-1.5c0.1,0,0.3,0.1,0.3,0.3c0,0.5-0.5,0.8-0.7,1.2
			C26.6,30.2,26.4,30.5,26,30.4z"/>
		<path fill="#808080" d="M32.5,24.5c-0.4,0.1-0.5,0.6-1,0.7c-0.3,0.1-0.3-0.1-0.3-0.3c0.6-0.5,1.2-1,1.9-1.3c0.1,0,0.3,0.1,0.3,0.3
			C33.3,24.4,32.9,24.5,32.5,24.5z"/>
		<path fill="#706F70" d="M27.5,28.7c-0.1-0.1-0.2-0.2-0.3-0.3c0.5-0.5,0.9-1.3,1.7-1.5c0,0.2,0,0.3,0,0.5
			C28.6,28.1,28.3,28.7,27.5,28.7z"/>
		<path fill="#434444" d="M21,38.1c0-0.1,0-0.1,0-0.2c0.2-0.4,0.4-0.8,0.6-1.3c0.1-0.1,0.3-0.1,0.4,0c0.2,0.5-0.1,0.9-0.3,1.4
			c-0.2,0.3-0.3,0.7-0.7,0.8C20.8,38.6,20.8,38.4,21,38.1z"/>
		<path fill="#8C8B8B" d="M36.1,22c0.1,0.1,0.2,0.1,0.2,0.2c-0.4,0.8-1.2,1-1.9,1.1c-0.2-0.1-0.3-0.2-0.2-0.4
			C34.7,22.6,35.4,22.3,36.1,22z"/>
		<path fill="#4B4A4A" d="M22,36.7c-0.1,0-0.3,0-0.4,0c0.4-0.6,0.5-1.4,1-1.9c0.2,0,0.3,0.1,0.3,0.3C22.9,35.7,22.6,36.3,22,36.7z"
			/>
		<path fill="#797879" d="M30.7,25.8c-0.6,0.3-0.9,1.1-1.7,1c0.3-0.6,0.9-1,1.5-1.3C30.5,25.6,30.6,25.7,30.7,25.8z"/>
		<path fill="#545554" d="M23.9,32.7c0.1,0.1,0.2,0.2,0.2,0.2c0,0.7-0.3,1-0.9,1.3c-0.2,0-0.3-0.1-0.2-0.3
			C23.3,33.5,23.4,33,23.9,32.7z"/>
		<path fill="#868585" d="M34.1,23c0.1,0.1,0.2,0.2,0.3,0.3c-0.2,0.5-0.6,0.7-1.1,0.6c-0.1-0.1-0.2-0.2-0.3-0.3
			C33.4,23.4,33.7,23.1,34.1,23z"/>
		<path fill="#7D7E7E" d="M30.7,25.8c-0.1-0.1-0.2-0.2-0.3-0.3c0.2-0.3,0.5-0.4,0.8-0.6c0.1,0.1,0.2,0.2,0.3,0.3
			C31.2,25.4,30.9,25.6,30.7,25.8z"/>
		<path fill="#515252" d="M23.1,33.9c0.1,0.1,0.1,0.2,0.2,0.2c0.2,0.2,0.1,0.4,0,0.6C23.1,34.9,23,35,22.9,35
			c-0.1-0.1-0.1-0.2-0.2-0.2C22.7,34.4,22.8,34.2,23.1,33.9z"/>
		<path fill="#151515" d="M47.2,19.1c-0.5,0.2-1,0.2-1.5,0.2C46.2,18.9,46.7,19.1,47.2,19.1z"/>
		<path fill="#0D0D0D" d="M28.7,71.2c-2.4-2.1-4.2-4.6-5.8-7.3c-1.7-2.9-2.9-5.9-3.5-9.2c-0.5-2.7-0.6-5.4-0.5-8.1
			c0-0.1,0.1-0.2,0.2-0.4c0.1,0.1,0.1,0.2,0.2,0.3c0.1,0.3,0.1,0.6,0.1,1c0,0.3,0.1,0.7,0.2,1c0.1,0.9,0.3,1.6,1.4,1.7
			c0.2,0,0.3,0.2,0.4,0.3c0.2,0.5,0.1,1.1,0.3,1.6c0.1,0.3,0.1,0.7-0.1,1c-0.1,0.1-0.2,0.2-0.4,0.1c-0.8-0.3-1,0.2-0.9,0.9
			c0,0.8,0.2,1.6,0.4,2.4c1.4,5,3.9,9.5,7.6,13.2c0.4,0.4,0.8,0.7,0.9,1.2C29.2,71.2,28.9,71.1,28.7,71.2z"/>
		<path fill="#1A1A1A" d="M19.1,46.5c0-0.1,0-0.1,0-0.2c0-0.6-0.1-1.1,0.2-1.7c0.4-0.6,0.4-1.4,0.6-2.1c0.1-0.3,0.2-0.6,0.5-0.8
			c0.6-0.2,1.1-0.4,1.7-0.1c0.4,1.2-0.3,2.3-0.5,3.5C20.8,45.7,20,46.2,19.1,46.5z"/>
		<path fill="#2F2F2E" d="M20.4,41.9c-0.1,0.3-0.2,0.5-0.2,0.8c-0.1,0.1-0.2,0.3-0.4,0.2c-0.2-0.2-0.2-0.4,0-0.6
			c-0.1-0.9,0.2-1.7,0.6-2.5c0.1,0.2,0.4,0.4,0.5,0.6C20.9,41,20.7,41.5,20.4,41.9z"/>
		<path fill="#383838" d="M20.8,40.2c-0.5,0.2-0.4-0.2-0.4-0.4c0.1-0.6,0.2-1.2,0.6-1.7c0,0.2,0,0.5,0.2,0.6
			C21.6,39.4,21.2,39.8,20.8,40.2z"/>
		<path fill="#262626" d="M19.7,42.3c0,0.3-0.1,0.7,0.4,0.4c-0.1,0.5-0.3,1.1-0.4,1.6c-0.1,0.3-0.2,0.4-0.5,0.3
			c-0.1-0.1-0.1-0.1-0.2-0.2c0.4-0.3,0.2-0.7,0.4-1C19.3,43,19.4,42.6,19.7,42.3z"/>
		<path fill="#343433" d="M31.4,73.5c-0.3-0.2-0.6-0.4-0.8-0.6c-0.2-0.2-0.1-0.4,0.1-0.5c0.5,0,0.8,0.2,1,0.6
			C31.7,73.2,31.6,73.4,31.4,73.5z"/>
		<path fill="#1B1C1C" d="M28.7,71.2C28.8,71,29,71,29.1,71c0.5-0.1,0.7,0.2,0.9,0.6c-0.1,0.2-0.3,0.3-0.5,0.3
			C29.3,71.6,29,71.4,28.7,71.2z"/>
		<path fill="#3A3A3A" d="M31.4,73.5c0-0.2,0-0.3,0.2-0.4c0.3-0.1,0.6,0,0.7,0.3c0,0.2-0.1,0.4-0.3,0.5
			C31.9,73.8,31.7,73.6,31.4,73.5z"/>
		<path fill="#434343" d="M32.1,73.9c0-0.2,0-0.3,0.2-0.4c0.3-0.1,0.6,0,0.6,0.4c-0.2,0.1-0.2,0.2-0.2,0.4
			C32.5,74.2,32.3,74,32.1,73.9z"/>
		<path fill="#2D2D2D" d="M30.8,72.4c-0.2,0.1-0.2,0.2-0.2,0.4c-0.3-0.1-0.5-0.3-0.6-0.6c-0.1-0.3,0.2-0.3,0.4-0.3
			C30.6,72,30.9,72.1,30.8,72.4z"/>
		<path fill="#1A1A1A" d="M19.5,43.4c-0.1,0.4,0.3,0.9-0.4,1C19.2,44,19.2,43.7,19.5,43.4z"/>
		<path fill="#262626" d="M30.4,72c-0.2,0-0.3,0-0.4,0.2c-0.1-0.1-0.3-0.3-0.4-0.4c0.1-0.2,0.2-0.2,0.4-0.2
			C30.2,71.6,30.5,71.7,30.4,72z"/>
		<path fill="#0E0E0E" d="M78.7,47.8c0.1,3.8-0.4,7.6-1.7,11.2c-1.7,4.6-4.2,8.7-7.9,12c-0.2-0.1-0.4,0-0.5-0.3
			c0.1-0.5,0.5-0.8,0.8-1.1c3.9-4.2,6.8-9,7.9-14.7c0.3-1.7,0.4-1.7-1-2.6c-0.1-0.3-0.1-0.5-0.1-0.8c0.1-0.3,0.1-0.7,0.1-1
			c0-0.2,0-0.6,0.3-0.6c1.1-0.2,1.4-1.1,1.7-2C78.4,47.8,78.6,47.7,78.7,47.8z"/>
		<path fill="#151515" d="M78.7,47.8c-0.3,0.2-0.4,0.6-0.4,0.9c-0.1,0.7-0.3,1.2-1.1,1.2c-0.4,0-0.5,0.2-0.5,0.6
			c0,0.4,0.1,0.8-0.2,1.1c-0.3-0.2-0.2-0.5-0.2-0.7c-0.1,0.2,0,0.7-0.6,0.4c-0.3-0.9-0.2-1.7,0.2-2.6c0.5-0.7,0.1-1.5,0.5-2.2
			c0.3-0.4,0.6-0.2,0.9-0.1c0.4,0.1,0.8,0.3,1.3,0.3c0.1,0,0.2,0.1,0.3,0.1C78.7,47.1,78.7,47.4,78.7,47.8z"/>
		<path fill="#191819" d="M78.5,46.7c-0.8,0.5-1.4-0.4-2.1-0.4c-0.6-1.1-0.8-2.4-0.8-3.7c0.9-0.4,1.4,0.4,2,0.6
			c0.4,0.3,0.2,0.9,0.6,1.2c0.3,0.2,0.2,0.5,0.2,0.8C78.7,45.7,78.7,46.2,78.5,46.7z"/>
		<path fill="#2D2D2D" d="M77.3,41.3c0.2-0.2,0.2-0.4,0.2-0.6c0.4,0.8,0.3,1.7,0.6,2.5c-0.2,0.1-0.3,0.1-0.5,0
			C77.1,42.6,76.9,42,77.3,41.3z"/>
		<path fill="#242424" d="M77.7,43.2c0.1,0,0.3,0,0.4,0c0.3,0.4,0.2,0.8,0.2,1.3c0,0.2,0.1,0.5-0.2,0.5c-0.2,0-0.2-0.2-0.2-0.4
			c-0.1-0.4-0.1-0.8-0.2-1.2C77.6,43.3,77.6,43.3,77.7,43.2C77.6,43.2,77.7,43.2,77.7,43.2z"/>
		<path fill="#1A1919" d="M68.7,70.8c0.2,0,0.3,0,0.4,0.2c-0.4,0.3-0.6,0.8-1,1c0-0.2,0-0.3-0.2-0.4C67.8,71,68.1,70.8,68.7,70.8z"
			/>
		<path fill="#0A0A0A" d="M78.5,46.7c0-0.5,0-1,0-1.5c0.4,0.4,0.1,1,0.2,1.5C78.7,46.7,78.6,46.7,78.5,46.7z"/>
		<path fill="#080808" d="M68.7,70.8c-0.4,0.2-0.6,0.5-0.8,0.8c-0.3,0.2-0.7,0.3-0.8,0.6c-0.3,0.2-0.6,0.4-0.8,0.6
			c-0.2,0.1-0.4,0.3-0.6,0.4c-0.3,0.2-0.7,0.3-0.8,0.6c-0.3,0.2-0.8,0.3-1,0.6c-1.4,0.7-2.8,1.4-4.3,2c-2.7,1-5.4,1.6-8.3,1.8
			c-5.8,0.5-11.2-0.8-16.3-3.5c-0.3-0.2-0.7-0.2-1-0.5c-0.2-0.3-0.6-0.2-0.8-0.4c-0.2-0.1-0.4-0.3-0.6-0.4c-0.2-0.1-0.4-0.3-0.6-0.4
			c-0.2-0.4-0.5-0.4-0.8-0.6c-0.1-0.1-0.3-0.3-0.4-0.4c-0.1-0.1-0.3-0.3-0.4-0.4c-0.3-0.2-0.6-0.4-0.8-0.6c-1.5-1.7-3.2-3.3-4.5-5.2
			c-2.3-3.5-4-7.2-4.7-11.3c0-0.2,0-0.4,0-0.6c0-0.4-0.1-0.8,0.4-1c0.5-0.2,0.8,0,1.1,0.4c0.2,0.1,0.3,0.3,0.3,0.4
			c0,0.4,0.1,0.8,0.3,1.2c0.1,0.5,0.3,1,0.4,1.5c0.1,0.5,0.2,1,0.4,1.4c0.2,0.6,0.3,1.1,0.6,1.7c0.3,0.6,0.5,1.3,0.8,1.9
			c0.7,1.4,1.6,2.8,2.5,4.1c2.2,2.9,5,5.3,8.1,7.3c0.5,0.4,1.1,0.6,1.6,0.9c0.3,0.2,0.6,0.3,0.9,0.4c0.5,0.3,1,0.4,1.5,0.6
			c0.6,0.3,1.2,0.4,1.9,0.6c0.8,0.3,1.6,0.4,2.4,0.6c3.4,0.7,6.9,0.7,10.3,0.2c0.2-0.1,0.3-0.1,0.5-0.1c0.6-0.1,1.2-0.3,1.9-0.4
			c0.8-0.2,1.6-0.5,2.3-0.7c0.5-0.2,1.1-0.4,1.6-0.6c0.5-0.3,1.2-0.5,1.7-0.8c0.5-0.3,1-0.5,1.5-0.9c3-1.7,5.4-3.9,7.5-6.6
			c0.9-0.9,1.2-2.1,2-3c0.7-0.9,1-2,1.4-3c0.2-0.5,0.5-0.9,0.6-1.4c0.1-0.5,0.3-1,0.5-1.4c0.3-0.5,0.3-1.1,0.4-1.7
			c0.1-0.2,0.1-0.4,0.2-0.6c0.2-0.5,0.1-1.1,0.3-1.6c0-0.1,0.1-0.3,0.1-0.4c0.1-0.2,0.2-0.3,0.4-0.4c1.3,0.2,1.5,0.6,1.3,1.8
			c-1.1,6.4-4.2,11.6-8.7,16.2C68.9,70.4,68.8,70.6,68.7,70.8z"/>
		<path fill="#363636" d="M37.8,21.8c1-0.7,2.2-0.8,3.4-1.2c0.7-0.2,1.4-0.3,2-0.5c0.3-0.2,0.7,0,1.1-0.2c2.3-0.3,4.5-0.5,6.8-0.2
			c2.1,0.2,4.2,0.4,6.1,1.2c-0.3,1.1-1.2,0.8-1.9,0.8c-0.8,0-1.6-0.2-2.4,0.1c-1.2,0-2.4-0.1-3.6-0.2c-2.8-0.1-5.4,0.4-8.1,1
			c-0.6-0.5-1.3-0.8-2.2-0.5C38.7,22.2,38.1,22.2,37.8,21.8z"/>
		<path fill="#353434" d="M53,21.6c0.7-0.4,1.5-0.2,2.2-0.1c0.7,0,1.4,0.2,2-0.5c0.5,0.1,0.9,0.2,1.4,0.3c1.1,0.5,2.2,1,3.4,1.4
			c0,0.1,0,0.1,0,0.2c-0.9,0.6-1.9,0.4-2.9,0.6c-1.9-0.4-3.7-1.1-5.6-1.4C53.3,21.9,53.1,21.8,53,21.6z"/>
		<path fill="#929292" d="M44.2,19.9c-0.3,0.2-0.7,0.2-1.1,0.2C43.5,19.8,43.9,20,44.2,19.9z"/>
		<path fill="#323333" d="M59.1,23.3C60,23,61,23,61.9,22.9c1.4,0.5,2.5,1.4,3.8,2.1c0.1,0.1,0.3,0.3,0.4,0.4c0,0.1-0.1,0.1-0.1,0.2
			c-0.8,0.2-1.7,0.3-2.4,0.9c-0.3,0-0.6-0.2-0.7-0.5c0.1-0.5-0.3-0.7-0.6-0.8c-0.4-0.2-0.8-0.4-1.3-0.6C60.4,24,59.5,24.1,59.1,23.3
			z"/>
		<path fill="#2F2F2F" d="M63.7,26.2c0.2,0,0.3-0.1,0.5-0.1c-0.4-1.1,0.2-0.9,0.8-0.6c0.4,0.2,0.8-0.1,1.2-0.1
			c0.3,0.1,0.4,0.5,0.8,0.4c0.6,0.7,1.4,1.1,1.9,1.9c-0.8,0.4-1.6,0.3-2.4,0.2c-0.5-0.1-0.9-0.4-1.4-0.4
			C64.5,27.1,63.8,27,63.7,26.2z"/>
		<path fill="#2E2E2E" d="M66.6,27.7c0.8,0,1.5,0,2.3,0c0.5,0.4,1,0.8,1.4,1.3c0.3,0.6,1,0.8,1.1,1.5c-0.6,0.3-1.1-0.2-1.6-0.3
			c-0.4-0.1-0.7-0.2-1.1-0.3C67.9,29.2,66.9,28.8,66.6,27.7z"/>
		<path fill="#282827" d="M73.1,32.3c0,0.3,0.2,0.5,0.4,0.6c0.3,0.7,0.9,1.3,1.1,2.1c-0.5,0.3-1.1,0.2-1.6,0.2
			c-1-0.9-1.9-1.8-2.1-3.2c0.8-0.7,1.4-0.2,2.1,0.3C72.9,32.3,73,32.3,73.1,32.3z"/>
		<path fill="#242424" d="M72.9,35c0.6,0,1.1,0,1.7,0c0.1,0,0.1,0,0.2,0c0.2,0.6,0.4,1.2,0.8,1.7c0.1,0.4,0.3,0.8,0.4,1.3l0,0
			c-0.5,0.4-1,0.5-1.6,0.4C73.6,37.3,72.8,36.4,72.9,35z"/>
		<path fill="#2B2B2B" d="M72.9,32.3c-0.7,0-1.3-0.7-2.1-0.2c-1-0.6-1.7-1.4-2.1-2.5c1,0.1,1.8,0.6,2.7,0.8c0.1,0.1,0.3,0.2,0.4,0.2
			C72.1,31.2,72.7,31.6,72.9,32.3z"/>
		<path fill="#212120" d="M74.3,38.1c0.6-0.1,1.1-0.1,1.7-0.2c0.2,0.5,0.4,1,0.6,1.5c0.1,0.6,0.3,1.1,0.4,1.7c-0.6,0.3-1.1,0-1.7,0
			C74.7,40.2,74.2,39.3,74.3,38.1z"/>
		<path fill="#1D1D1D" d="M75.4,40.9c0.6-0.1,1.1,0,1.7,0.2c0.1,0.1,0.1,0.1,0.2,0.2c0,0.7,0.2,1.3,0.4,1.9c0,0.1,0,0.1,0,0.2
			c-0.7-0.1-1.3-0.5-1.9-0.8C75.2,42.1,75.1,41.5,75.4,40.9z"/>
		<path fill="#020202" d="M63.7,26.2c0.5,0.3,1,0.7,1.5,1c2.1,1.1,3.5,2.8,4.9,4.6c3.3,4,5.2,8.6,5.9,13.7c0.1,1,0.2,2.1,0,3.1
			c-0.2,0.9-0.2,1.8-0.2,2.7c0.2,0.2,0.3,0.5,0.3,0.8c0,0.5-0.2,1-0.3,1.5c0,0.3-0.1,0.6-0.1,0.9c0,0.3-0.2,0.6-0.3,0.9
			c0,0.6-0.2,1.2-0.4,1.8c-0.2,0.5-0.4,0.9-0.5,1.4c-0.2,0.4-0.4,0.9-0.6,1.4c-0.4,0.9-0.9,1.8-1.3,2.7c-0.8,1-1.3,2.2-2.1,3.2
			c-1.8,2.3-3.9,4.3-6.3,5.9c-0.5,0.3-1,0.5-1.4,0.9c-0.4,0.3-1,0.5-1.4,0.8c-0.7,0.2-1.3,0.6-2,0.9c-0.6,0.2-1.1,0.5-1.7,0.6
			c-0.6,0.2-1.3,0.4-1.9,0.6c-0.5,0.1-0.9,0.3-1.4,0.3c-0.3,0.1-0.7,0.1-1,0.2c-3,0.5-6,0.5-9,0c-1-0.1-2-0.5-3-0.6
			c-0.7-0.2-1.3-0.5-1.9-0.6c-0.6-0.1-1.1-0.5-1.7-0.6c-0.3-0.1-0.5-0.3-0.8-0.4c-0.6-0.2-1.1-0.6-1.7-0.8c-3.3-2-6.3-4.5-8.6-7.7
			c-0.9-1.4-1.9-2.7-2.6-4.2c-0.2-0.5-0.5-1-0.6-1.5c-0.3-0.6-0.6-1.2-0.7-1.8c-0.3-0.6-0.5-1.3-0.6-1.9C22.2,55.4,22,55,22,54.7
			c-0.1-0.4-0.2-0.9-0.3-1.3c0-0.7-0.2-1.3-0.2-2c0-0.3,0-0.6,0-0.8c0-0.3,0-0.7,0-1c-0.2-4,0.6-7.9,2.3-11.6
			c1.8-4.1,4.4-7.6,8-10.3c0.4-0.4,0.9-0.5,1.3-0.8c0.2-0.1,0.4-0.3,0.6-0.4c0.2-0.5,0.8-0.7,1.2-1c0.7-0.4,1.4-0.7,2-1.1
			c3.8-1.8,7.8-2.7,11.9-2.7c4.1,0,8,0.9,11.7,2.7c0.4,0.3,0.9,0.5,1.4,0.7c0.3,0.3,0.8,0.4,1,0.8C63.2,26.1,63.4,26.2,63.7,26.2z"
			/>
		<path fill="#333433" d="M37.8,21.8c0.7,0,1.3,0.2,2.1-0.1c0.3-0.1,1.2-0.3,1,0.7c-0.9,0.7-2,0.9-3,1.4c-0.4,0.2-0.9,0.4-1.3,0.6
			C36,24.6,35.6,25.3,35,25c-0.3-0.5-0.8-0.6-1.1-0.2c-0.7,1-1.1,0.4-1.4-0.2c0.3-0.2,0.6-0.4,0.9-0.6c0.4-0.2,0.7-0.4,1.1-0.6
			c0.6-0.4,1.2-0.7,1.8-1.1C36.8,22.1,37.3,22.2,37.8,21.8z"/>
		<path fill="#2E2E2E" d="M27.5,28.7c0.5-0.4,1-0.8,1.5-1.3c0.9,0,1.8-0.4,2.7-0.2c0.1,0.3-0.2,0.4-0.3,0.6
			c-0.7,0.6-1.3,1.3-2.2,1.7c-0.5,0.2-0.9,0.5-1.4,0.7c-0.5,0.1-0.9,0.1-1.1-0.5C26.9,29.4,27.2,29.1,27.5,28.7z"/>
		<path fill="#464646" d="M35,25c0.6,0,0.9-0.6,1.5-0.6c0.1,0.1,0.3,0,0.4,0.2c-0.6,0.3-1.3,0.7-1.9,1c-0.3,0.1-0.6,0.3-0.6-0.2
			C34.6,25.2,34.8,25.1,35,25z"/>
		<path fill="#333433" d="M34.4,25.4c0.2,0.2,0.4,0.2,0.6,0.2c-0.4,0.4-0.8,0.6-1.3,0.8C33.4,25.9,33.4,25.9,34.4,25.4z"/>
		<path fill="#1F1F1F" d="M31.2,27.7c0.1-0.1,0.3-0.3,0.4-0.4c0.5-0.2,0.9-0.5,1.5-0.4c-0.2,0.4-0.7,0.6-1,0.8
			C31.8,27.8,31.5,27.9,31.2,27.7z"/>
		<path fill="#2A2B2A" d="M26.7,29.8c0.4,0.5,0.9,0.3,1.4,0.1c0.4-0.1,0.6-0.5,1.1-0.5c0.1,0.3,0,0.5-0.2,0.7
			c-0.8,0.9-1.4,2-2.5,2.5c-0.7,0-1.3,0.4-2,0c0.5-0.7,1-1.4,1.5-2.1C26.2,30.2,26.5,30,26.7,29.8z"/>
		<path fill="#282928" d="M24.5,32.5c0.7,0,1.4-0.3,2.1-0.2c-0.1,1.2-0.9,2-1.8,2.7c-0.4,0.1-0.8,0.1-1.2,0.2
			c-0.2,0-0.6,0.1-0.6-0.4c0.1-0.2,0.1-0.4,0.2-0.6c0.3-0.4,0.6-0.8,0.8-1.3C24.3,32.8,24.4,32.6,24.5,32.5z"/>
		<path fill="#20201F" d="M20.8,40.2c0-0.5,0.5-0.9,0.4-1.5c0-0.3,0.1-0.6,0.4-0.8c0.6-0.3,1.2-0.5,1.8-0.3c0.1,0,0.1,0.1,0.1,0.2
			c-0.3,1.4-0.6,2.8-1.5,3.9c-0.6,0-1.1,0.3-1.7,0.2C20.5,41.3,20.6,40.8,20.8,40.2z"/>
		<path fill="#242525" d="M23.5,37.7c-0.6,0-1.2,0.3-1.9,0.2c0.1-0.4,0.3-0.8,0.4-1.3c0.3-0.6,0.6-1.1,0.8-1.7
			c0.1-0.1,0.1-0.1,0.2-0.2c0.6,0.4,1.3-0.2,1.9,0C25,36,24.3,36.9,23.5,37.7z"/>
		<path fill="#131414" d="M21.8,49.4c0,0.3,0,0.7,0,1c-0.2,0.1-0.4-0.3-0.6,0c-1.5,0.1-1.9-0.9-1.9-2.1c0-0.3-0.1-0.5-0.2-0.8
			c0.7,0.1,1.4,0.2,2.1,0.3C21.7,48.3,21.7,48.9,21.8,49.4z"/>
		<path fill="#161616" d="M21.2,48c-0.7,0.1-1.5,0.4-2.1-0.4c0-0.3,0-0.7,0-1c0.7-0.6,1.4-1.2,2.3-1.3C21.7,46.2,21.6,47.1,21.2,48z
			"/>
		<path fill="#212221" d="M21.2,50.5c0-0.3-0.1-0.5,0.2-0.7c0.4,0.1,0.2,0.6,0.5,0.7c0,0.3,0,0.6,0,0.8c-0.3,0.2-0.1,0.6-0.4,0.8
			C21,51.6,21.3,51,21.2,50.5z"/>
		<path fill="#2F302F" d="M21.4,52.2c0.1-0.3-0.1-0.8,0.4-0.8c0.1,0.7,0.1,1.4,0.2,2.1c-0.4-0.5-0.2,0.2-0.4,0.2
			c-0.2-0.1-0.2-0.2-0.2-0.4C21.4,52.9,21.4,52.5,21.4,52.2z"/>
		<path fill="#0E0E0E" d="M21.2,48c-0.1-0.9,0.1-1.8,0.2-2.7c0-1.2,0.6-2.3,0.6-3.6c0.5-1.3,1-2.7,1.5-4c0.5-1,1-2,1.5-2.9
			c0.6-0.8,1.2-1.6,1.7-2.5c0.9-0.9,1.8-1.8,2.5-2.9c0.7-0.6,1.4-1.1,2.1-1.7c0.3,0,0.6,0,0.8,0c-2,1.7-3.8,3.5-5.3,5.6
			c-2.5,3.6-4.1,7.6-4.7,12c-0.2,1.4-0.1,2.8-0.2,4.2C21.7,48.9,21.2,48.5,21.2,48z"/>
		<path fill="#252525" d="M75.8,52.2c0-0.3,0-0.6,0-0.8c0.5-0.4,0-1.1,0.4-1.6c0.4,0.6,0.1,1.2,0.2,1.8c0,0.3,0,0.6,0,0.8
			c0,0.2,0,0.3-0.2,0.4C75.9,52.7,76.3,52.1,75.8,52.2z"/>
		<path fill="#0E0E0E" d="M76,48.6c-0.4-1.6-0.2-3.3-0.6-4.9c-0.9-4.4-2.8-8.3-5.6-11.8c-1.2-1.5-2.5-3-4.1-4.1
			c-0.2-0.2-0.4-0.4-0.6-0.6c0.6-0.2,1,0.3,1.5,0.4c0.7,0.6,1.4,1.3,2.1,1.9c0.7,0.8,1.4,1.7,2.1,2.5c0.7,1,1.4,2,2.1,2.9
			c0.3,1.1,1,2.1,1.5,3.1c0.3,0.9,0.7,1.8,1,2.7c0.1,0.6,0.2,1.1,0.4,1.7c0.2,1.3,0.4,2.5,0.6,3.8c0,0.5,0,1.1,0,1.6
			C76.4,48.2,76.4,48.6,76,48.6z"/>
		<path fill="#676767" d="M26.9,65.1c2.2,2.9,5,5.3,8,7.3c0.2,0.1,0.4,0.2,0.5,0.3c-0.1,0.5-0.4,0.3-0.6,0.2c-3.2-1.9-6-4.3-8.2-7.3
			C26.5,65.2,26.5,65.1,26.9,65.1z"/>
		<path fill="#676767" d="M62.6,72.4c3-1.8,5.5-4.1,7.7-6.7c0.2,0,0.4,0,0.3,0.3c-1.4,1.9-3.1,3.6-5,5c-0.8,0.6-1.6,1.1-2.5,1.6
			C62.8,72.8,62.6,72.8,62.6,72.4z"/>
		<path fill="#313131" d="M44.2,75.8c3.1,0.5,6.1,0.5,9.2,0c0.1,0.1,0.2,0.2,0.2,0.4c-0.7,0.3-1.5,0.4-2.2,0.4
			c-2.7,0.1-5.4,0.1-8.1-0.4c-0.1,0-0.2-0.1-0.4-0.2C43.3,75.7,43.8,76.1,44.2,75.8z"/>
		<path fill="#5D5F5E" d="M26.9,65.1c-0.2,0.1-0.2,0.2-0.2,0.4c-1-1.3-1.9-2.6-2.5-4.2c-0.1-0.2-0.1-0.4,0.2-0.4
			C25,62.4,26.1,63.7,26.9,65.1z"/>
		<path fill="#626363" d="M70.6,66c-0.1-0.1-0.2-0.2-0.3-0.3c0.7-1,1.4-2.1,2.1-3.1c0.4,0,0.4,0.1,0.2,0.4
			C71.9,63.9,71.5,65.2,70.6,66z"/>
		<path fill="#5A5B5B" d="M72.7,63c0-0.2-0.1-0.3-0.2-0.4c0.4-0.9,0.9-1.8,1.3-2.7c0.1-0.1,0.3-0.1,0.4,0C73.7,61,73.4,62.1,72.7,63
			z"/>
		<path fill="#3A3A3A" d="M44.2,75.8c-0.4,0.4-0.8,0.1-1.3,0.2c-0.8,0-1.6-0.2-2.3-0.6c0.2-0.2,0.5,0,0.6-0.2
			C42.3,75.2,43.2,75.8,44.2,75.8z"/>
		<path fill="#515050" d="M59.3,74.1c0.7-0.3,1.3-0.8,2.1-0.9c0.1,0,0.2,0.1,0.3,0.3c-0.5,0.4-1.2,0.4-1.7,0.8
			C59.6,74.4,59.3,74.6,59.3,74.1z"/>
		<path fill="#3E3E3E" d="M55.7,75.4c0.6-0.2,1.3-0.4,1.9-0.6c0.2,0.2,0.5,0,0.6,0.2c-0.8,0.3-1.5,0.5-2.3,0.8
			C55.8,75.7,55.6,75.6,55.7,75.4z"/>
		<path fill="#424142" d="M41.3,75.2c-0.2,0.2-0.4,0.2-0.6,0.2c-0.7-0.1-1.3-0.3-1.9-0.6c0.2-0.2,0.5,0,0.6-0.2
			C40,74.8,40.6,75,41.3,75.2z"/>
		<path fill="#575757" d="M34.8,72.9c0.2,0,0.4,0.1,0.6-0.2c0.6,0.1,1,0.8,1.7,0.8c-0.1,0.5-0.4,0.3-0.6,0.2
			C35.8,73.6,35.3,73.3,34.8,72.9z"/>
		<path fill="#535352" d="M23.1,57.6c0,0.7,0.5,1.2,0.6,1.9c-0.1,0.1-0.3,0-0.4,0c-0.4-0.5-0.6-1.1-0.6-1.7
			C22.6,57.4,22.8,57.5,23.1,57.6z"/>
		<path fill="#585858" d="M23.3,59.5c0.1-0.2,0.3-0.1,0.4,0c0.2,0.5,0.4,1,0.6,1.5c-0.2,0.1-0.2,0.2-0.2,0.4
			C23.6,60.8,23.4,60.2,23.3,59.5z"/>
		<path fill="#484849" d="M58.2,75c-0.2,0-0.5,0-0.6-0.2c0.6-0.2,1.1-0.4,1.7-0.6c0.2,0.2,0.4,0.2,0.6,0.2
			C59.4,74.7,58.8,74.8,58.2,75z"/>
		<path fill="#484849" d="M74.8,57.2c0.1-0.6,0.5-1.2,0.4-1.9c0.1-0.1,0.3-0.1,0.4,0c0,0.7-0.1,1.3-0.4,1.9
			C75,57.2,74.9,57.3,74.8,57.2z"/>
		<path fill="#4C4A4C" d="M39.4,74.5c-0.2,0.2-0.4,0.2-0.6,0.2c-0.5-0.1-1.1-0.2-1.5-0.6c0.1-0.2,0.3-0.1,0.4-0.2
			C38.3,73.9,38.8,74.5,39.4,74.5z"/>
		<path fill="#373737" d="M55.7,75.4c0.1,0.1,0.1,0.3,0.2,0.4c-0.6,0.1-1.3,0.3-1.9,0.4c-0.2-0.3,0-0.5,0.2-0.6
			C54.7,75.5,55.2,75.5,55.7,75.4z"/>
		<path fill="#393A3A" d="M21.6,53.6c0-0.2,0.1-0.3,0.1-0.5c0.1,0.1,0.2,0.2,0.3,0.2c0.1,0.4,0.1,0.8,0.2,1.3c-0.1,0.1-0.3,0-0.4,0
			C21.5,54.4,21.3,54,21.6,53.6z"/>
		<path fill="#484849" d="M23.1,57.6c-0.2,0-0.3,0-0.4,0.2c-0.3-0.4-0.4-0.9-0.4-1.5c-0.1-0.3-0.3-0.6,0.2-0.6
			C22.5,56.4,22.8,57,23.1,57.6z"/>
		<path fill="#5B5B5C" d="M61.6,73.5c-0.1-0.1-0.2-0.2-0.3-0.3c0.3-0.5,0.8-0.6,1.3-0.8c0.1,0.2,0.3,0.2,0.5,0.2
			C62.6,73,62.1,73.2,61.6,73.5z"/>
		<path fill="#434343" d="M22.4,55.7c-0.2,0.2-0.2,0.4-0.2,0.6c-0.3-0.5-0.4-1.1-0.4-1.7c0.1-0.2,0.3,0,0.4,0
			C22.3,55,22.4,55.4,22.4,55.7z"/>
		<path fill="#4F504F" d="M74.8,57.2c0.1,0,0.3-0.2,0.4,0c-0.2,0.5-0.4,0.9-0.4,1.4c-0.1,0.1-0.3,0.1-0.4,0
			C74.4,58.1,74.5,57.6,74.8,57.2z"/>
		<path fill="#313131" d="M75.8,52.2c0.1-0.1,0.3-0.2,0.3-0.2c0.2,0.3,0.1,0.6,0.1,0.8c0,0.1,0,0.3,0,0.4c-0.3,0-0.2,0.5-0.6,0.4
			C75.7,53.1,75.7,52.6,75.8,52.2z"/>
		<path fill="#575757" d="M74.3,58.6c0.1,0,0.3,0,0.4,0c-0.2,0.4-0.4,0.8-0.6,1.3c-0.1,0-0.3,0-0.4,0C73.9,59.5,74,59,74.3,58.6z"/>
		<path fill="#3B3B3B" d="M75.6,53.6c0.2-0.1,0.3-0.5,0.6-0.4c-0.4,0.5,0,1.2-0.4,1.7c-0.2-0.1-0.2-0.3-0.4-0.4
			C75.5,54.2,75.5,53.9,75.6,53.6z"/>
		<path fill="#515050" d="M37.7,73.9c-0.1,0.2-0.3,0.2-0.4,0.2c-0.3,0-0.6-0.2-0.8-0.4c0.2,0,0.5,0,0.6-0.2
			C37.3,73.7,37.5,73.8,37.7,73.9z"/>
		<path fill="#3E3E3E" d="M75.4,54.5c0.5-0.2,0.4,0.2,0.4,0.4c0,0.2,0,0.3-0.2,0.4c-0.1,0-0.3,0-0.4,0C75.3,55,75.3,54.7,75.4,54.5z
			"/>
		<path fill="#363636" d="M54.2,75.6c-0.1,0.2-0.1,0.4-0.2,0.6c-0.1,0-0.3,0-0.4,0c-0.2-0.1-0.2-0.2-0.2-0.4
			C53.7,75.7,54,75.7,54.2,75.6z"/>
		<path fill="#555555" d="M36.9,24.6c-0.2,0-0.3,0-0.4-0.2c1.4-0.8,2.8-1.5,4.4-1.9c3.3-0.9,6.6-1.2,10-1c0.7,0,1.4,0.1,2.2,0.2
			c2.1,0.5,4.1,0.9,6.1,1.7c0.7,0.4,1.5,0.5,2.1,1.1c0,0.4-0.2,0.3-0.4,0.2c-2.3-0.9-4.5-1.8-6.9-2.2c-5.3-0.9-10.5-0.4-15.5,1.7
			C37.8,24.2,37.4,24.4,36.9,24.6z"/>
		<path fill="#464646" d="M60.7,24.6c0.2,0,0.3,0,0.4-0.2c0.5,0.1,0.9,0.3,1.3,0.6c0,0.4-0.2,0.3-0.4,0.2
			C61.5,25.1,61.1,24.9,60.7,24.6z"/>
		<path fill="#3B3C3B" d="M62,25.2c0.2,0,0.3,0,0.4-0.2c0.4,0,0.6,0.3,0.9,0.5c0.3,0.3-0.1,0.3-0.3,0.4C62.6,25.7,62.2,25.6,62,25.2
			z"/>
		<path fill="#151515" d="M72,60.5c-1.3,2.4-2.8,4.6-4.7,6.6c-0.3,0.3-0.6,0.7-1,0.9c-0.7-0.1-1,0.5-1.5,0.7
			c-0.3,0.2-0.5,0.4-0.7,0.6c-0.2,0.1-0.4,0.3-0.6,0.5c-0.3,0.3-0.7,0.4-1,0.6c-0.2,0.1-0.4,0.3-0.7,0.4c-0.2,0.2-0.5,0.3-0.7,0.4
			c-0.3,0.2-0.6,0.3-0.9,0.5c-0.3,0.2-0.7,0.2-1,0.5c-6.7,2.9-13.4,3-20.1,0.4c-0.2-0.1-0.3-0.1-0.5-0.2c-0.3-0.2-0.7-0.3-1-0.5
			c-0.3-0.2-0.7-0.3-1-0.5c-0.1-0.1-0.2-0.2-0.4-0.2c-0.4-0.3-0.8-0.4-1.2-0.6c-0.2-0.3-0.5-0.4-0.7-0.6c-0.2-0.2-0.5-0.3-0.6-0.5
			c-0.2-0.3-0.6-0.4-0.9-0.6c-0.3-0.3-0.7-0.5-1.1-0.6c-4.5-3.9-7.3-8.8-8.4-14.7c-0.4-2-0.2-4-0.5-6c0-0.1,0.1-0.3,0.2-0.5
			c0.6-0.2,0.7,0.3,0.7,0.6c0,1.1,0.3,2.1,0.3,3.2c0,0.6,0.1,1.1,0.2,1.7c0.1,0.6,0.3,1.3,0.4,1.9c0,0.4,0.1,0.7,0.3,1.1
			c0.6,2.4,0.6,2.4,3.1,2.1c1-0.1,1.9-0.4,2.9-0.4c0.5,0,0.1-0.7,0.6-0.6c0.9-0.1,1.7-0.1,2.6-0.1c4.7,0,9.4,0,14.1,0
			c0.5,0,1-0.1,1.4,0.1c0.5,0.5,0,0.6-0.3,0.6c-0.8,0.1-1.6,0.1-2.4,0c3.3,0,6.5,0.1,9.7,0.3c4.6,0.2,9.2,0.6,13.7,1.3
			C71.1,59.3,71.8,59.6,72,60.5z"/>
		<path fill="#2D2D2D" d="M23.3,46.1c-0.1-0.2-0.3-0.4,0-0.6c0.1-0.1,0.2-0.1,0.3-0.1c0.4,0.2,0.8,0.3,1.2,0.2
			c1.5-0.5,3.2-0.3,4.7-0.6c2.7-0.1,5.5-0.4,8.2-0.8c0.7-0.1,1.4,0.3,2-0.3c0.2-0.2,0.5-0.2,0.8-0.1c0.4,0.3,0.8,0.4,1.3,0
			c0.2-0.1,0.4-0.1,0.6-0.1c1.6,0.2,3.1,0.5,4.7,0c0.1,0,0.2,0,0.3,0c1.7,0.2,3.4,0,5.1,0.2c0.1,0,0.2,0.1,0.3,0.2
			c0,0.7-0.4,1-0.9,1.4c-0.5,0.3-1.1,0.1-1.6,0.1c-1.9,0-3.9,0.1-5.8,0c-1.4-0.1-2.8,0.3-4.1,0.5c-1.7,0.1-3.4,0-5.1,0.1
			c-0.4,0-0.8-0.1-1.2,0.3c-0.2,0.2-0.3,0.3-0.6,0.3c-1.6-0.6-3.2-0.1-4.7,0.1c-1.3,0.1-2.6,0.2-3.9,0.6c-0.4,0.1-0.8,0-1.1-0.2
			C23.4,47,23.4,46.5,23.3,46.1z"/>
		<path fill="#171717" d="M72,60.5c-1-1.5-2.6-1.2-3.9-1.4c-3.3-0.5-6.7-1-10.1-1c-2.2,0-4.4-0.4-6.7-0.3c-1.7,0.1-3.6,0-5.3-0.1
			c-0.1,0-0.2-0.1-0.3-0.4c0.9,0,1.8,0,2.7,0c0.4,0,0.9,0.2,1.3-0.2c0.1-0.6,0.2-1.1,1-1.1c1.3,0.4,2.7,0.3,4,0.3
			c2.6,0.1,5.2,0.1,7.9,0.4c0.2,0,0.3,0,0.5,0c0.1,0,0.2,0,0.3,0c0.2,0,0.3,0.1,0.4,0.2c0.2,0.1,0.5,0.2,0.7,0.3
			c1.8,0.7,3.8,0.4,5.7,0.9c0.7,0.2,1.5-0.1,2.3-0.2c0.4,0.2,0.4,0.5,0.2,0.9C72.7,59.5,71.9,59.9,72,60.5z"/>
		<path fill="#313030" d="M74.1,44.6c0.1,0.3,0.1,0.6,0.2,0.8c-0.1,0.1-0.2,0.1-0.3,0.1c-2.5-1-5.2-1.2-7.9-1.4
			c-1.8-0.2-3.6-0.4-5.5-0.6c-0.5-0.1-0.9,0-1.3,0c-0.7-0.2-1-0.8-1.1-1.5c0.2-0.9,0.9-0.8,1.5-0.7c3.9,0.5,7.8,0.6,11.7,1.2
			c0.6,0.1,1.2,0.3,1.7,0.5c0.1,0.1,0.2,0.2,0.3,0.3C73.7,43.8,73.8,44.2,74.1,44.6z"/>
		<path fill="#272727" d="M74.3,45.7c0.4,0.4,0.1,1,0.2,1.5c-0.2,1.2,0,2.5-0.5,3.7c-1,0.5-2.1,0.2-3.1,0c-2.4-0.2-4.8-0.9-7.3-0.7
			c-0.5,0-0.7-0.3-0.9-0.6C62.4,49.1,62,48.6,62,48c0.2-0.6,0.7-0.5,1.1-0.4c2.2,0.1,4.4,0.5,6.6,0.8c1,0.1,1.9,0,2.9,0.2
			c0.5,0.1,0.9,0,0.9-0.7c0-0.3,0-0.7,0-1c0-0.3,0-0.6,0.1-0.8C73.9,45.9,73.9,45.6,74.3,45.7z"/>
		<path fill="#2E2E2E" d="M74.3,45.7c-0.1,0.1-0.3,0.3-0.4,0.4c-0.4,0.5-0.8,0.3-1.3,0.3c-3.5-0.5-7.1-1-10.6-1.3
			c-0.5,0-0.9,0-1.3,0.3c-0.8-0.1-1.4-0.9-1.5-2c0.5-0.1,1-0.2,1.6-0.1c2.1,0.3,4.2,0.5,6.4,0.7c1.4,0.1,2.9,0.3,4.3,0.6
			c1,0.2,2,0.3,2.8,0.9C74.3,45.5,74.3,45.6,74.3,45.7z"/>
		<path fill="#262626" d="M23.3,46.1c0.5,0.2,0.4,0.6,0.4,1c0.1,0.2,0.2,0.3,0.3,0.6c0.2,1.2,0.3,1.3,1.5,1c2-0.5,4-0.3,5.9-0.7
			c0.4-0.1,0.9-0.1,1.2,0.3c0.1,0.3,0,0.5-0.1,0.7c-0.2,0.4,0.2,0.4,0.4,0.4c0.6,0,1.3-0.1,1.9,0.1c0.2,0.1,0.3,0.3,0.3,0.5
			c-0.1,0.1-0.1,0.2-0.3,0.2c-0.1,0-0.1,0-0.2,0c-0.9,0-1.7-0.2-2.6,0.2c-2,0.5-4.1,0.5-6.2,0.9c-0.7,0.1-1.5,0.5-2.2,0.1
			c0.1-1.2-0.3-2.3-0.2-3.5c0-0.3-0.1-0.5-0.4-0.5C23.1,46.9,22.9,46.5,23.3,46.1z"/>
		<path fill="#2F2F2F" d="M23.5,45.5c-0.1,0-0.1,0-0.2,0c0-0.3-0.1-0.6,0.2-0.8c0.3,0.1,0.5-0.1,0.8-0.2c2-0.4,4.1-0.8,6.1-1
			c2.1-0.2,4.1-0.4,6.2-0.4c0.3,0,0.5-0.2,0.8-0.3c2.8-0.1,5.6,0,8.3,0c0.2,0,0.5,0,0.7,0.2c0.2,0.7-0.3,0.8-0.7,0.8
			c-1,0-1.9,0.2-2.9,0.1c-1.6-0.1-3.1,0.1-4.7,0.2c-1.9,0.2-3.8,0.4-5.8,0.6c-2.5,0.2-4.9,0.5-7.3,1C24.5,45.5,24,45.7,23.5,45.5z"
			/>
		<path fill="#EDEBEB" d="M38.1,25.6c3.9-1.8,7.9-2.5,12.2-2.3c3.3,0.2,6.4,1,9.3,2.5c0.6,0.3,1.3,0.6,1.9,0.9
			c0.4,0.2,0.3,0.5,0,0.7c-0.1,0-0.2,0-0.3,0c-1.1-0.6-2.3-1.2-3.5-1.6c-1.2-0.5-2.4-0.7-3.6-1.2c-0.3-0.2-0.7-0.1-1.1-0.1
			c-3.5-0.4-6.9-0.4-10.3,0.4c-0.9,0.2-1.8,0.5-2.7,0.8c-0.5,0.2-1,0.4-1.5,0.4C38.3,25.9,38,25.9,38.1,25.6z"/>
		<path fill="#6A6969" d="M38.6,72.2c2.1,0.7,4.2,1.4,6.4,1.8c4.8,0.8,9.5,0.1,14-1.8c0.2-0.1,0.3-0.1,0.5-0.2
			c0.3-0.1,0.6-0.3,0.6,0.2c-4.3,2.3-9,2.9-13.8,2.5c-2.8-0.2-5.6-0.9-8.2-2.3C38.1,72.1,38.4,72.1,38.6,72.2z"/>
		<path fill="#161616" d="M73.9,50.9c0-1,0.3-2,0.2-3.1c0-0.3,0.3-0.5,0.4-0.7c0.4,0.6,0.2,1.3,0.2,1.9c-0.2,3.4-0.5,6.7-2.1,9.8
			c0-0.3-0.1-0.6-0.2-0.8c-0.3-0.3-0.1-0.6,0-0.9c0.2-0.6,0.5-1.3,0.6-1.9c0.2-0.6,0.3-1.2,0.4-1.9c0-0.6,0.2-1.1,0.2-1.6
			C73.7,51.4,73.7,51.1,73.9,50.9z"/>
		<path fill="#CECCCC" d="M61.6,27.3c0.1-0.2,0.2-0.4,0-0.6c1.6,0.9,3,2,4.4,3.2c0,0.3-0.2,0.3-0.4,0.3c-0.6,0-0.9-0.5-1.4-0.8
			c-0.5-0.4-1-0.7-1.5-1.1C62.4,27.9,61.7,27.9,61.6,27.3z"/>
		<path fill="#DDDDDC" d="M38.1,25.6c0.1,0.2,0.3,0.2,0.5,0.2c-0.8,1.1-2,1.4-3.2,1.8c-0.2-0.1-0.4-0.2-0.2-0.5
			C36.1,26.5,37.1,26,38.1,25.6z"/>
		<path fill="#B3B1B2" d="M65.5,30c0.1-0.1,0.3-0.1,0.4-0.2c0.9,0.5,1.3,1.5,2.1,2.1c0.2,0.2,0.1,0.4-0.1,0.5c-0.1,0-0.2,0-0.3,0
			c-0.6-0.4-1-1-1.6-1.4C65.8,30.7,65.5,30.5,65.5,30z"/>
		<path fill="#A19F9F" d="M67.8,32.3c0.2-0.1,0.2-0.2,0.2-0.4c0.6,0.5,0.9,1.3,1.5,1.8c0.1,0.3-0.2,0.3-0.4,0.4
			c-0.1,0-0.2,0-0.3-0.1C68.5,33.5,67.8,33.1,67.8,32.3z"/>
		<path fill="#D2D1D1" d="M35.2,27.1c0,0.2,0.1,0.3,0.2,0.4c0,0.2,0,0.3-0.2,0.4c-0.5,0.3-0.9,0.9-1.6,0.8c-0.1-0.1-0.3-0.2-0.2-0.4
			C34.1,27.9,34.5,27.3,35.2,27.1z"/>
		<path fill="#504F4D" d="M24.1,41.9c0-0.5,0.1-1,0.4-1.4c0,0,0.1,0,0.1,0.1c0.1,0.2,0.3,0.3,0.4,0.4c0,0.1,0,0.3,0,0.4
			c-0.1,0.3-0.2,0.7-0.6,0.8C24.3,42.2,24,42.2,24.1,41.9z"/>
		<path fill="#8F8C8D" d="M69.1,34c0.2,0,0.3,0,0.4-0.2c0.6,0.2,0.5,0.9,0.9,1.2c0.1,0.3-0.1,0.3-0.3,0.4c-0.4,0-0.6-0.3-0.8-0.6
			c-0.1-0.1-0.1-0.2-0.1-0.2C69.1,34.3,69,34.1,69.1,34z"/>
		<path fill="#848384" d="M26.5,36.5c0-0.6,0.3-1.1,0.8-1.5c0.2,0,0.4,0.1,0.5,0.2c0.1,0.6-0.3,0.8-0.7,1.2
			c-0.1,0.1-0.2,0.2-0.4,0.2C26.6,36.6,26.5,36.5,26.5,36.5z"/>
		<path fill="#959393" d="M27.7,34.3c0.2-0.5,0.5-1,1-1.2c0.1-0.1,0.2-0.1,0.3,0c0.3,0.7-0.4,1-0.7,1.4c-0.1,0.1-0.3,0.2-0.4,0.2
			C27.7,34.6,27.6,34.5,27.7,34.3z"/>
		<path fill="#888685" d="M70,35.2c0.2,0,0.3-0.1,0.4-0.3c0.3,0.5,0.5,0.9,0.8,1.4c0.2,0.2,0.1,0.4-0.1,0.5c-0.4,0-0.6-0.3-0.8-0.6
			C70.1,35.8,69.7,35.6,70,35.2z"/>
		<path fill="#222121" d="M64.7,68.7c0.5-0.3,0.8-1.2,1.7-0.6c-0.4,0.3-0.7,0.6-1.1,0.8C65.1,68.8,64.9,68.9,64.7,68.7z"/>
		<path fill="#615E5E" d="M72.5,38.7c0.2,0.6,0.4,1.1,0.6,1.7c-0.1,0.1-0.3,0.2-0.4,0.1c-0.6-0.2-0.6-0.8-0.8-1.2c0-0.1,0-0.2,0-0.3
			C72.1,38.9,72.3,38.9,72.5,38.7z"/>
		<path fill="#565454" d="M72.6,40.4c0.2,0,0.3,0,0.5,0c0.4,0.3,0,0.9,0.4,1.3c0.1,0.4-0.2,0.3-0.4,0.3c-0.5-0.3-0.6-0.8-0.6-1.3
			C72.5,40.6,72.6,40.5,72.6,40.4z"/>
		<path fill="#797676" d="M70.9,36.7c0.2-0.1,0.2-0.2,0.2-0.4c0.3,0.5,0.6,1.1,0.9,1.6c-0.1,0.1-0.3,0.2-0.4,0.2
			c-0.1,0-0.2-0.1-0.3-0.1C71.1,37.6,70.8,37.2,70.9,36.7z"/>
		<path fill="#363536" d="M24.1,44.6c-0.2,0.3-0.4,0.6-0.6,0c0.1-0.4-0.1-0.9,0.2-1.3c0.3,0.2,0.4,0.4,0.6,0.7
			C24.3,44.3,24.3,44.5,24.1,44.6z"/>
		<path fill="#686465" d="M24.8,39.6c0.2-0.4,0.2-0.9,0.6-1.3c0.2,0,0.4,0.1,0.5,0.2c0.1,0.4-0.1,0.6-0.3,0.9
			c-0.1,0.1-0.2,0.2-0.3,0.3c-0.1,0.1-0.2,0.1-0.3,0.1C24.9,39.9,24.8,39.7,24.8,39.6z"/>
		<path fill="#B6B4B6" d="M30.2,31.2c0.3-0.4,0.7-0.7,1-1.1c0.1,0,0.2,0.1,0.3,0.3c0,0.2-0.1,0.4-0.2,0.5c-0.2,0.2-0.4,0.5-0.7,0.7
			c-0.2,0.1-0.3,0.2-0.5,0C30.1,31.5,30.1,31.3,30.2,31.2z"/>
		<path fill="#C9C8C8" d="M33.5,28.3c0.1,0.1,0.2,0.2,0.3,0.3c0,0.7-0.6,0.8-1,1.1c-0.1,0-0.2,0.1-0.3,0c-0.1,0-0.2-0.2-0.3-0.3
			C32.5,28.8,33.1,28.7,33.5,28.3z"/>
		<path fill="#6D6B6A" d="M71.6,38c0.2,0,0.3,0,0.5,0c0.2,0.2,0.3,0.5,0.4,0.8c0,0.4-0.2,0.3-0.4,0.2C71.5,38.8,71.4,38.4,71.6,38z"
			/>
		<path fill="#C0BEBF" d="M32.3,29.3c0.1,0.1,0.1,0.2,0.2,0.2c0,0.6-0.4,0.8-1,0.8c-0.1-0.1-0.2-0.2-0.3-0.3
			C31.4,29.7,31.9,29.6,32.3,29.3z"/>
		<path fill="#424140" d="M73.3,43.6c0-0.1,0-0.3,0-0.4c-0.1-0.1-0.1-0.1-0.1-0.2c0.1-0.2,0.3-0.4,0.5-0.4c0.3,0.4,0.2,1,0.4,1.5
			C73.7,44.2,73.6,43.7,73.3,43.6z"/>
		<path fill="#484545" d="M24.1,41.9c0.1,0.2,0.3,0.2,0.4,0.2c0.2,0.3,0.1,0.5,0,0.8c0,0.1-0.1,0.2-0.2,0.2
			c-0.2,0.1-0.4,0.3-0.6,0.1C23.7,42.7,23.8,42.3,24.1,41.9z"/>
		<path fill="#A4A3A4" d="M29,33.1c-0.1,0-0.2,0-0.3,0c0.1-0.5,0.4-0.9,0.9-1.3c0.2,0.1,0.3,0.3,0.3,0.5
			C29.8,32.8,29.5,33.1,29,33.1z"/>
		<path fill="#292929" d="M31.9,68.5c0.6-0.4,0.9,0,1.3,0.4c-0.1,0.1-0.2,0.2-0.4,0.2C32.4,68.9,32,68.8,31.9,68.5z"/>
		<path fill="#323333" d="M32.7,69.1c0.1-0.2,0.2-0.2,0.4-0.2c0.2,0.3,0.7,0.2,0.8,0.6c-0.1,0.1-0.2,0.2-0.4,0.2
			C33.1,69.7,32.9,69.4,32.7,69.1z"/>
		<path fill="#4F504F" d="M35.2,70.6c0.4,0.2,0.9,0.2,1.3,0.6c-0.2,0.3-0.4,0.1-0.6,0.2c-0.4-0.2-0.8-0.4-1.1-0.8
			C34.9,70.5,35.1,70.4,35.2,70.6z"/>
		<path fill="#3F4040" d="M62.4,70.4c0.3-0.2,0.7-0.4,1-0.6c0.2-0.1,0.4-0.2,0.4,0.2c-0.3,0.2-0.5,0.5-0.8,0.6
			C62.8,70.4,62.6,70.6,62.4,70.4z"/>
		<path fill="#72706F" d="M25.8,38.5c-0.2,0-0.3,0-0.4-0.2c0-0.3,0.1-0.6,0.4-0.8c0.1-0.1,0.3-0.1,0.4-0.1c0.2,0.2,0.1,0.4,0.1,0.6
			C26.2,38.3,26.1,38.5,25.8,38.5z"/>
		<path fill="#484545" d="M73.7,42.5c-0.1,0.2-0.2,0.4-0.4,0.4c-0.4-0.3-0.5-0.6-0.2-1c0.2,0,0.3,0,0.4-0.2
			C73.8,41.9,73.7,42.2,73.7,42.5z"/>
		<path fill="#2F2F2F" d="M64.7,68.7c0.2,0,0.5,0,0.6,0.2c-0.3,0.2-0.6,0.4-0.8,0.6c-0.1-0.1-0.3,0-0.4-0.2
			C64.2,69,64.4,68.8,64.7,68.7z"/>
		<path fill="#434343" d="M35.2,70.6c-0.2,0-0.3,0-0.5,0c-0.3,0-0.5-0.3-0.8-0.4c0.1-0.5,0.4-0.3,0.6-0.2
			C34.7,70.2,35.2,70.1,35.2,70.6z"/>
		<path fill="#7F7C7B" d="M26.2,37.5c-0.1,0-0.3,0-0.4,0c0.1-0.5,0.4-0.8,0.7-1c0.1,0,0.1,0,0.2,0C26.9,37,26.7,37.3,26.2,37.5z"/>
		<path fill="#626363" d="M38.6,72.2c-0.2,0-0.4,0.1-0.5,0.3c-0.4,0-0.7-0.2-1-0.5c0.1-0.5,0.4-0.3,0.6-0.2
			C38,71.9,38.3,72.1,38.6,72.2z"/>
		<path fill="#3B3839" d="M73.3,43.6c0.4,0,0.5,0.3,0.8,0.4c0,0.2,0,0.4,0,0.6C73.5,44.5,73.6,43.9,73.3,43.6z"/>
		<path fill="#565758" d="M60.3,71.6c0.2-0.2,0.5-0.4,0.8-0.4c0.3-0.1,0.5-0.3,0.6,0.2c-0.3,0.1-0.6,0.3-0.8,0.4
			C60.8,71.6,60.5,71.8,60.3,71.6z"/>
		<path fill="#5E5E5E" d="M60.3,71.6c0.2,0,0.5,0,0.6,0.2c-0.3,0.1-0.6,0.3-0.8,0.4C59.9,72,59.7,72,59.5,72
			C59.7,71.9,60,71.7,60.3,71.6z"/>
		<path fill="#413F40" d="M23.7,43.2c0.2-0.1,0.4-0.1,0.6-0.2c0.3,0.4,0.1,0.7-0.2,1c-0.4,0-0.4-0.3-0.4-0.6
			C23.7,43.3,23.7,43.2,23.7,43.2z"/>
		<path fill="#484949" d="M62.4,70.4c0.2,0,0.5,0,0.6,0.2c-0.2,0.1-0.4,0.3-0.6,0.4c-0.2-0.1-0.5,0.1-0.6-0.2
			C62,70.6,62.2,70.5,62.4,70.4z"/>
		<path fill="#515050" d="M61.8,70.8c0.2,0,0.5,0,0.6,0.2c-0.2,0.1-0.4,0.3-0.6,0.4c-0.2-0.2-0.4-0.2-0.6-0.2
			C61.3,71,61.6,70.9,61.8,70.8z"/>
		<path fill="#383938" d="M64.1,69.3c0.2,0,0.3,0,0.4,0.2c-0.2,0.1-0.4,0.3-0.6,0.4c-0.1-0.2-0.3-0.2-0.4-0.2
			C63.6,69.5,63.8,69.3,64.1,69.3z"/>
		<path fill="#AEACAC" d="M29.8,32.3c-0.2-0.1-0.2-0.3-0.2-0.4c0.2-0.3,0.4-0.5,0.6-0.6c0,0.2,0,0.3,0,0.5c0,0.1,0,0.3-0.1,0.4
			C30,32.2,29.9,32.3,29.8,32.3z"/>
		<path fill="#605D5C" d="M24.8,39.6c0.1,0.1,0.3,0.1,0.4,0.2c0.2,0.3,0.1,0.5-0.1,0.7c-0.2,0.1-0.3,0.1-0.4-0.1l0,0
			C24.6,40.2,24.7,39.9,24.8,39.6z"/>
		<path fill="#929091" d="M27.7,34.3c0.1,0.1,0.2,0.2,0.3,0.3c0.1,0.2,0,0.3-0.1,0.5c0,0.1-0.1,0.1-0.2,0.1c-0.2,0-0.3-0.1-0.4-0.2
			C27.2,34.7,27.4,34.5,27.7,34.3z"/>
		<path fill="#555555" d="M35.9,71.4c0.2-0.2,0.4-0.2,0.6-0.2c0.1,0.1,0.1,0.1,0.2,0.2c0.1,0.1,0.1,0.3,0,0.4
			C36.4,71.6,36.1,71.5,35.9,71.4z"/>
		<path fill="#5B5B5C" d="M36.7,71.8c0-0.1,0-0.3,0-0.4c0.4,0.1,0.8,0.2,1.1,0.4c-0.2,0-0.5,0-0.6,0.2C37,71.9,36.8,71.9,36.7,71.8z
			"/>
		<path fill="#3C3C3C" d="M34.6,69.9c-0.2,0-0.5,0-0.6,0.2c-0.1-0.1-0.3-0.3-0.4-0.4c0.1-0.2,0.2-0.2,0.4-0.2
			C34.2,69.7,34.4,69.8,34.6,69.9z"/>
		<path fill="#232423" d="M23.7,51.3c1.8-0.3,3.5-0.6,5.3-0.9c1-0.1,2.1,0,3.1-0.4c0.9-0.2,1.8-0.1,2.6,0l0.1,0
			c0.2,0.6-0.3,0.9-0.5,1.3c-0.3,0.4-0.4,0.8-0.8,1.1c-0.1,0-0.2,0-0.3-0.1c-0.4-0.3-0.9-0.3-1.3-0.2c-2.3,0.5-4.7,0.6-7.1,1
			c-0.3,0.1-0.6,0-0.9-0.2C23.9,52.4,23.6,51.9,23.7,51.3z"/>
		<path fill="#20201F" d="M23.9,53c2.8-0.4,5.5-0.7,8.3-1.1c0.6-0.1,0.9-0.1,1.1,0.5c0.2,0.5-0.2,0.8-0.3,1.1
			c-0.3,0.4-0.5,0.9-1.1,0.8c-1.9-0.3-3.8,0.3-5.6,0.6c-0.7,0.1-1.3,0.4-2-0.1C24.2,54.2,24.1,53.6,23.9,53z"/>
		<path fill="#1A1A1A" d="M31,57.2c0.2,0.1,0.5,0.2,0.9,0.4c-1.4,0.2-2.7,0.4-4,0.6c-0.1,0-0.3,0-0.4,0c-2.2,0.3-2.3,0.2-2.8-1.9
			c0-0.1-0.1-0.3-0.2-0.4c2.1-0.8,4.2-0.8,6.4-0.8c0.2,0,0.3,0.1,0.4,0.3c0.2,0.4,0,0.7-0.2,1.1c-0.1,0.2-0.1,0.3,0,0.5
			C31.1,57,31.1,57.1,31,57.2z"/>
		<path fill="#1E1E1D" d="M31.2,55.7c-0.5-0.9-1.3-0.5-1.8-0.3c-1.6,0.5-3.3,0.2-4.9,0.6c-0.1-0.3-0.1-0.7-0.2-1c2,0,4-0.7,6-0.9
			c0.6-0.1,1.3-0.4,1.7,0.3c0.3,0.7-0.2,1-0.6,1.5C31.4,55.8,31.3,55.8,31.2,55.7z"/>
		<path fill="#020202" d="M31,57.2c0-0.1,0-0.1,0-0.2c0.4-0.5,1-0.3,1.5-0.3c5.4,0,10.8,0,16.2,0c0.7-0.2,1-0.8,1.3-1.4
			c0.1-0.3,0.3-0.5,0.5-0.7c0.2-0.2,0.3-0.4,0.6-0.4c0.2,0,0.3,0.1,0.3,0.3c0,0.1,0,0.2,0,0.3c-0.3,0.5-0.5,1-0.9,1.4
			c-0.5,0.2-0.4,0.8-0.8,1C43.4,57.2,37.2,57.2,31,57.2z"/>
		<path fill="#FFFFFF" d="M59.2,43.4c0.4,0.7,0.8,1.4,1.3,2.1c0.4,0.2,0.6,0.7,0.8,1c0.2,0.6,0.9,1.1,0.5,1.8
			c-1.4,0.4-2.8-0.1-4.1-0.5c-0.7-0.2-0.8-0.8-1.3-1.2c-0.3-0.2-0.4,0.1-0.6,0.3c-0.2,0.3-0.4,0.6-0.8,0.6c-0.8,0-1.7-0.2-2.5-0.3
			c-0.7-0.1-1.1-0.3-1.1-1.1c0-0.4,0.2-0.6,0.5-0.8c0.3-0.3,0.5-0.7,0.8-1c0.1-0.7,0.4-1.2,0.8-1.7c0.5-0.7,0.7-1.5,1.3-2.1
			c0.4-0.4,0.5-0.9,0.9-1.3c0.4-0.4,0.8-0.4,1.1,0.1c0.5,0.9,1.2,1.8,1.5,2.9C58.6,42.6,58.9,43,59.2,43.4z"/>
		<path fill="#FCFDFC" d="M32.3,49c0.1-0.2,0.3-0.4,0.2-0.6c0.2-0.6,0.4-1.3,1.1-1.7c0.2-0.1,0.2-0.2,0.2-0.4
			c0.1-0.4,0.4-0.4,0.8-0.4c4.3,0.1,8.5-0.3,12.7-0.2c0.4,0,0.8,0,1.1,0.2c0.3,0.6-0.1,1-0.6,1.3c-1.4,0.3-2.9,0.2-4.4,0.3
			c-3.4,0.3-6.8,0.9-10.1,1.6C33,49.3,32.5,49.7,32.3,49z"/>
		<path fill="#2E2E2E" d="M53.8,42.7c-0.5,0.4-0.4,1.2-1,1.6c0,0-0.1,0-0.1-0.1C51.2,44.1,49.6,44,48,44c-0.2,0-0.5,0.1-0.7,0
			c-0.1,0-0.1,0-0.2,0c-1.1,0.2-2.2,0-3.3,0.1c-0.5,0.1-1-0.4-1.5-0.1c-0.2,0-0.4,0-0.6,0c-0.3,0.3-0.7,0.3-1,0c-0.3,0-0.6,0-0.8,0
			c-0.2,0.2-0.4,0.3-0.7,0.4c-3.2,0.1-6.4,0.4-9.7,0.8c0,0-0.1,0-0.1,0.1c-1.5,0.3-3.1,0-4.6,0.6c-0.5,0.2-0.9,0.1-1.2-0.4
			c3-0.6,6-1,9-1.3c3-0.2,5.9-0.6,8.9-0.8c1.3-0.1,2.7,0,4,0c0.4,0,0.9,0.1,1.1-0.4c0.4-0.4,0.8-0.3,1.3-0.3c1.1,0,2.3,0.1,3.4-0.1
			c0.5-0.2,0.6-0.9,1.2-1c0.4,0.1,0.7,0.2,1,0.3C53.7,42.1,54,42.2,53.8,42.7z"/>
		<path fill="#2A2A2A" d="M33.5,46.7c-0.3,0.6-0.6,1.2-1.1,1.7c-0.4-0.4-0.9-0.3-1.3-0.2c-0.9,0.3-1.9,0.1-2.8,0.5
			c-0.1,0-0.1,0.1-0.2,0c-1.4-0.5-2.6,0.3-3.9,0.4c-0.5,0-0.6-0.2-0.6-0.6c0-0.5,0-1,0-1.5c1.7,0.1,3.3-0.5,5-0.6
			c1.4-0.1,2.9-0.5,4.3-0.2C33.4,46.3,33.5,46.4,33.5,46.7z"/>
		<path fill="#2A2A2A" d="M52,45.3c-0.1,0.3-0.2,0.5-0.3,0.8c-0.3,0.5-0.2,1.2-0.7,1.6c-0.2,0.2-0.3,0.4-0.6,0.4
			c-0.6-0.3-1.6,0-1.9-0.8c-0.1-0.4,0.3-0.8-0.1-1.1c-2.3-0.2-4.6,0-6.8-0.1c-0.4,0-0.8,0.1-1.1-0.1c1.8-0.4,3.6-0.7,5.5-0.5
			c1.2,0.2,2.5,0.1,3.7-0.1C50.4,45.2,51.2,45.8,52,45.3z"/>
		<path fill="#2E2E2E" d="M29.4,45.3c0.7-0.6,1.5-0.5,2.3-0.6c2.2-0.2,4.5-0.2,6.7-0.6c0.5-0.1,1,0.2,1.5,0c0,0.3-0.1,0.6-0.5,0.6
			C36,44.4,32.7,45.3,29.4,45.3z"/>
		<path fill="#2E2E2E" d="M40.4,45.9c2.4,0,4.8,0,7.2,0c0.4,0,0.9-0.2,1,0.4l-0.1,0.1l-0.1-0.1c-0.2-0.4-0.6-0.2-0.8-0.2
			c-4.3,0-8.5,0-12.8,0c-0.4,0-0.8-0.1-1,0.3c0-0.7,0.6-0.5,0.9-0.5C36.6,45.9,38.5,45.9,40.4,45.9z"/>
		<path fill="#2E2E2E" d="M42.3,44c0.9-0.3,1.9-0.1,2.8-0.1c0.7,0.1,1.3-0.5,2,0.1C45.5,44.5,43.9,44.3,42.3,44z"/>
		<path fill="#2E2E2E" d="M47.3,44c1.7-0.6,3.4,0.3,5.1-0.1c0.2,0,0.3,0.2,0.4,0.3c-1.6,0-3.1,0-4.7,0C47.8,44.2,47.5,44.3,47.3,44z
			"/>
		<path fill="#2E2E2E" d="M40.7,44c0.3,0,0.7,0,1,0C41.3,44.7,41,44.7,40.7,44z"/>
		<path fill="#181818" d="M50.5,56.1c0.1-0.6,0.5-1,0.8-1.5c3.2,0.4,6.4,0.3,9.6,0.5c0.5,0,1,0,1.5,0.2c0.4,0.2,0.7,0.6,0.9,1
			c0.1,0.2,0.1,0.3,0,0.5c-0.5,0.3-1,0.3-1.5,0c-0.6-0.4-1.3,0-1.9-0.1c-1.7-0.1-3.4-0.3-5.2-0.2c-1.2,0-2.5-0.2-3.7-0.2
			C50.8,56.5,50.6,56.4,50.5,56.1z"/>
		<path fill="#181818" d="M72.7,57.2c-0.1,0.3-0.1,0.6-0.2,0.8c-0.7,0.7-1.7,0.6-2.5,0.4c-1.8-0.4-3.7-0.2-5.5-0.8
			c-0.1,0-0.2-0.1-0.2-0.2c0.5-0.5,1.1-0.2,1.7-0.3c0.5,0,1,0.1,1.5-0.1c0.1-0.1,0.2-0.1,0.3-0.2c0.3-0.2,0.6-0.2,0.9-0.2
			C70,56.9,71.4,56.7,72.7,57.2z"/>
		<path fill="#D6D6D4" d="M63.3,56.9c0-0.1-0.1-0.2-0.1-0.4c0.3-0.3,0.6-0.2,1-0.2c1.1,0.1,2.1,0.1,3.2,0.1c0.3,0.2,0.3,0.4,0,0.6
			c-1.3,0.1-2.6,0.2-3.9-0.1L63.3,56.9L63.3,56.9z"/>
		<path fill="#020202" d="M63.5,57c1.3,0,2.7,0,4,0c0.1-0.1,0.3-0.1,0.4,0c0,0.1,0,0.1,0,0.2c-1.4,0.2-2.8,0.2-4.2,0
			C63.6,57.1,63.5,57.1,63.5,57z"/>
		<path fill="#151515" d="M63.7,57.2c1.4,0,2.8,0,4.2,0c-1.2,0.5-2.4,0.1-3.6,0.2C64.1,57.4,63.8,57.4,63.7,57.2z"/>
		<path fill="#343434" d="M58.4,42.1c-0.6-0.9-1.2-1.7-1.7-2.7c-0.1-0.4,0.2-0.4,0.4-0.3c0.5,0,1,0.1,1.4,0.2
			c0.2,0.1,0.4,0.1,0.5,0.3c0.2,0.3,0.1,0.7,0.4,1c0.3-0.1,0.1-0.6,0.6-0.6c0.3,0.2,0.3,0.5,0.5,0.7c0.2,0.1,0.3,0,0.4-0.1
			c0.1,0,0.2,0,0.2,0.1c0.4,0.4,0.8,0.5,0.9-0.2c0-0.3,0.1-0.6,0.3-0.7c0.7-0.3,1.4-0.2,2.1-0.1c1.8,0.3,3.7,0.5,5.6,0.6
			c0.9,0.1,1.7,0.3,2.5,0.4c0.1,0.4,0.3,0.8,0.4,1.2c0.1,0.3,0.1,0.7,0.2,1c0,0.1,0,0.1,0,0.2c-1.7-0.3-3.3-0.6-5-0.8
			c-2.8-0.3-5.7-0.3-8.5-0.8C59.4,41.5,58.6,41.4,58.4,42.1z"/>
		<path fill="#292929" d="M62.1,48.2c-0.5-0.5-0.6-1.1-0.9-1.7c-0.1-0.1,0-0.2,0.1-0.3c2.6,0.2,5.2,0.3,7.8,0.7
			c1.3,0.2,2.5,0.6,3.8,0.6c0.4,0,0.8,0,1.1,0.5c0,0.8-0.6,1.3-1.4,1c-1-0.4-1.9,0-2.9-0.3c-1.4-0.3-3-0.4-4.4-0.6
			c-0.8-0.1-1.7,0-2.5-0.3c-0.3-0.1-0.5,0.1-0.5,0.4C62.1,48.2,62.1,48.2,62.1,48.2z"/>
		<path fill="#242424" d="M73.9,50.9c0,0.3,0,0.6,0,0.8c-0.1,0.5-0.5,0.7-1,0.7c-0.8,0-1.7-0.1-2.5-0.3c-1.9-0.5-3.9-0.7-5.9-0.5
			c-0.1,0-0.2,0-0.3,0c-0.4-0.1-0.5-0.3-0.7-0.6c-0.1-0.3-0.3-0.6-0.1-0.9c1.1-0.6,2.2-0.3,3.3-0.1c1.8,0.3,3.7,0.5,5.5,0.7
			C72.8,50.7,73.3,50.8,73.9,50.9z"/>
		<path fill="#2C2C2C" d="M61.2,46.3c0,0.1,0,0.1,0,0.2c-0.3-0.3-0.5-0.6-0.6-1c0-0.6,0.4-0.9,0.9-0.8c3.4,0.4,6.8,0.8,10.1,1.2
			c0.8,0.1,1.5,0.6,2.3,0.2c0,0.3,0,0.6,0,0.8c-0.6,0.6-1.4,0.5-2.1,0.3c-2-0.5-4-0.7-6-1C64.3,46.1,62.7,46.1,61.2,46.3z"/>
		<path fill="#2B2B2B" d="M61.2,46.3c0.8-0.8,1.8-0.4,2.6-0.4c1.9,0,3.9,0.3,5.8,0.6c1.2,0.2,2.3,0.6,3.5,0.5c0.3,0,0.5-0.1,0.8-0.1
			c0,0.3,0,0.7,0,1c-1.2-0.4-2.4-0.4-3.5-0.6c-1.6-0.2-3.3-0.4-4.9-0.5C64.1,46.8,62.5,47,61.2,46.3z"/>
		<path fill="#F4F5F5" d="M62.1,48.2c0,0,0.1,0,0.1,0c0.2,0.4,0.4,0.8,0.6,1.2c-0.2,0.7-0.9,0.7-1.4,0.5c-0.8-0.3-1.7-0.3-2.5-0.5
			c-0.2,0-0.4,0.1-0.6,0c-0.3-0.2-0.5-0.5-0.6-0.8c0-0.4-0.5-0.7-0.2-1.1C59.1,47.8,60.5,48.4,62.1,48.2z"/>
		<path fill="#F1EFF0" d="M58.9,49.2c0.7,0.1,1.5,0,2.1,0.3c0.7,0.4,1.3,0.3,1.9-0.1c0.2,0.2,0.4,0.5,0.6,0.7c0,0.3,0.4,0.5,0.2,0.8
			c-0.1,0.1-0.3,0.2-0.4,0.1c-1.3-0.4-2.6-0.4-4-0.6c-0.3-0.1-0.6-0.3-0.6-0.6C58.7,49.6,58.7,49.4,58.9,49.2z"/>
		<path fill="#F5F6F7" d="M32.3,49c0.5,0.5,0.8-0.1,1.2-0.1c3.3-0.6,6.5-1.3,9.9-1.5c1.5-0.1,2.9-0.2,4.4-0.2
			c0.2,0.8-0.3,1.1-0.9,1.4c-2.2,0-4.4-0.2-6.6,0.3c-1.8,0.4-3.6,0.7-5.5,0.8c-0.8,0-1.7,0-2.5,0c-0.2,0-0.4,0-0.4-0.3
			C31.9,49.1,32.1,49,32.3,49z"/>
		<path fill="#F2F1F1" d="M34.8,49.6c1-0.4,2.1-0.4,3-1c0.1,0,0.2-0.1,0.3,0c0.8,0.8,1.6,0.1,2.2-0.1c1.4-0.6,2.9-0.2,4.3-0.3
			c0.8-0.1,1.6-0.2,2.4,0.2c0.1,0.2,0.1,0.4-0.2,0.5c-2.3,0.3-4.5,0.6-6.8,0.9c-0.2,0.1-0.4,0.1-0.6,0.1c-1.1,0.2-2.1,0.6-3.1,0.9
			c-0.9,0.2-1.2,0-1.3-0.8C35,49.8,35,49.7,34.8,49.6z"/>
		<path fill="#EDEBEB" d="M35,50c0.2,0.7,0.7,0.8,1.4,0.5c1-0.4,2-0.7,3.1-0.9c0,0.7-0.5,1-0.9,1.4c-1.1,0.6-2.4,0.6-3.6,0.9
			C34.5,52,34,52,34.1,51.3c0-0.5,0.6-0.7,0.6-1.2C34.8,50,34.9,50,35,50z"/>
		<path fill="#111111" d="M34.7,50c-0.9,0-1.8,0-2.6,0C32.9,49.7,33.8,49.8,34.7,50z"/>
		<path fill="#313131" d="M24.1,44c0.1-0.3,0.1-0.7,0.2-1l0,0c2.1-0.7,4.3-0.6,6.4-1c1.8-0.3,3.6-0.5,5.5-0.3
			c0.4,0.1,0.4,0.5,0.6,0.7c0.1,0.2,0.1,0.3,0.2,0.5c-0.1,0.2-0.2,0.4-0.6,0.3c-1.5-0.3-3,0.1-4.5,0.1c-1.9,0.1-3.8,0.5-5.7,0.9
			c-0.7,0.1-1.5,0-2.2,0.3C24.1,44.4,24.1,44.2,24.1,44z"/>
		<path fill="#2B2A2A" d="M37.1,42.9c-0.4,0-0.3-0.2-0.2-0.4c0.3-0.3,0.7-0.3,1.1-0.3c4.1,0,8.3,0,12.4,0c0.2,0,0.3,0,0.5,0.1
			c0.3,0.1,0.5,0.2,0.7,0.5c-0.8,0.4-1.8,0.1-2.6,0.2c-0.8,0.1-1.6,0-2.4,0C43.4,42.9,40.2,42.9,37.1,42.9z"/>
		<path fill="#49494A" d="M35.2,27.8c0.1-0.1,0.1-0.2,0.2-0.3c1-0.6,2.1-1.1,3.1-1.7c0.4-0.1,0.8-0.3,1.2-0.4
			c2.1,0.3,4.2-0.1,6.3-0.1c1.1,0,2.2,0.3,3.3,0.2c2.8-0.2,5.6,0,8.4,0.1c1.3,0.4,2.5,0.9,3.6,1.7c-0.2,0.4-0.5,0.4-0.9,0.4
			c-2.9-0.2-5.8-0.2-8.7-0.3c-2.1,0-4.2-0.2-6.3-0.1c-2.5,0.1-5,0.2-7.5,0.4c-0.3,0-0.6,0-0.9,0.1C36.4,28,35.8,28.5,35.2,27.8z"/>
		<path fill="#4D4C4D" d="M57.8,25.6c-1.3,0.4-2.7,0.2-4.1,0.1c-2.5-0.2-5.1,0.2-7.7-0.2c-1.5-0.2-3.1,0.1-4.7,0.2
			c-0.6,0-1.1-0.1-1.6-0.4c4.1-1.5,8.4-2,12.7-1.3c0.2,0,0.4,0,0.6,0c0.3,0.2,0.8-0.1,1.1,0.2C55.4,24.8,56.7,24.9,57.8,25.6z"/>
		<path fill="#484849" d="M36.9,27.5c1-0.1,2-0.2,3-0.2c2-0.1,3.9-0.2,5.9-0.3c1.8,0,3.7,0.1,5.5,0.1c1.2,0,2.4,0,3.6,0
			c1.8,0,3.6,0,5.4,0.2c0.4,0,0.7,0.1,1.1-0.1c0.1,0,0.1,0,0.2,0c0.4,0.3,0.8,0.6,1.2,0.8c-0.5,1-1.6,0.6-2,0.4
			c-1.1-0.5-2.1-0.2-3.1-0.2c-0.9,0-1.6-0.4-2.4-0.4c-3.4-0.1-6.9,0.1-10.3,0c-2.3,0-4.7,0.2-7,0.3C37.5,28.2,36.9,28.2,36.9,27.5z"
			/>
		<path fill="#E0DFDF" d="M54.3,24.3c-0.4,0-0.8,0-1.1-0.2C53.5,24.2,53.9,24,54.3,24.3z"/>
		<path fill="#1F1F1F" d="M73.7,53.4c-0.1,0.6-0.3,1.3-0.4,1.9c-0.9,0.5-1.9,0.3-2.8,0.1c-1.3-0.2-2.6-0.3-3.9-0.4
			c-0.1,0-0.2,0-0.3,0c-0.5-0.2-0.6-0.7-0.9-1c-0.2-0.4-0.5-0.8-0.5-1.3c0-0.1,0.1-0.2,0.1-0.3c0.7-0.3,1.5-0.1,2.3,0
			c2,0.3,4,0.6,6.1,0.9C73.4,53.2,73.6,53.3,73.7,53.4z"/>
		<path fill="#1A1A1A" d="M66.4,54.9c0.9-0.3,1.8-0.1,2.7,0.1c1.4,0.2,2.8,0.3,4.2,0.3c-0.2,0.6-0.4,1.3-0.6,1.9
			c-1.6,0.2-3.2-0.4-4.8-0.2c-0.1,0-0.3,0-0.4,0c0.1-0.2,0-0.4-0.2-0.5C66.8,56.1,66.3,55.6,66.4,54.9z"/>
		<path fill="#232323" d="M73.7,53.4c-1.3,0-2.5-0.3-3.8-0.4c-1.7-0.2-3.3-0.7-5-0.4c-0.6-0.1-0.7-0.5-0.6-1
			c1.4-0.8,2.8-0.1,4.1-0.1c1.5,0,2.9,0.8,4.4,0.7c0.4,0,0.8-0.1,1.1-0.4C73.9,52.3,73.6,52.8,73.7,53.4z"/>
		<path fill="#464646" d="M31.5,30.4c0.4-0.2,0.8-0.4,1-0.8c0.1,0,0.1,0,0.2,0c1.1-0.6,2.3-0.3,3.5-0.5c0.6-0.1,1.2,0,1.7-0.2
			c0.9-0.3,1.8-0.1,2.7-0.1c2.7-0.1,5.3-0.2,8-0.4c1.6-0.1,3.3-0.1,4.9,0.1c1.8,0.2,3.5,0.3,5.2,0.2c0.8,0,1.6,0.4,2.4,0.5
			c1.1,0.1,2.1-0.4,3.2,0c0.5,0.2,0.7,0.8,1.2,0.9c0.2,0.3,0.5,0.5,0.7,0.8c-0.2,0.5-0.5,0.7-1,0.5c-1.2-0.5-2.5-0.3-3.8-0.5
			c-2-0.3-4.1,0.1-6.1-0.4c-0.7-0.2-1.4,0.1-2.1,0.1c-1.8-0.1-3.7-0.4-5.5,0c-1,0.2-1.9,0.1-2.8,0c-1.5-0.2-3,0.2-4.5,0.2
			c-2,0-4,0.3-6,0.3c-0.9,0-1.7,0.2-2.6,0.2c-0.2,0-0.6,0.2-0.6-0.3C31.3,30.7,31.4,30.6,31.5,30.4z"/>
		<path fill="#484647" d="M64.3,29.1c-1.5,0.2-3.1,0.4-4.6,0.1c-1.8-0.4-3.6-0.2-5.3-0.3c-0.7,0-1.4-0.3-2.1-0.3
			c-2.7,0-5.4-0.2-8.1,0.3c-0.5,0.1-1.1,0.2-1.7-0.1c-0.6-0.4-1.2,0.2-1.9,0.2c-2.2-0.2-4.3,0.6-6.5,0.4c-0.4,0-0.7,0.8-1.2,0.2
			c0.3-0.4,0.9-0.5,1.1-1c0.6,0,0.9-0.7,1.5-0.8c0.6,0.3,1.2,0.1,1.7-0.3c0.2,0.4,0.5,0.6,0.9,0.5c0.8-0.3,1.7-0.2,2.5-0.1
			c0.9,0.1,1.7-0.3,2.6-0.3c2.4,0.2,4.9,0.1,7.4,0.1c0.9,0,1.8-0.1,2.7-0.1c1.2,0,2.4-0.1,3.6,0.4c0.8,0.3,1.8,0.1,2.7-0.1
			c0.3,0,0.8-0.1,0.9,0c0.6,0.8,1.6-0.2,2.2,0.4c0,0,0.3-0.2,0.4-0.3C63.3,28.4,63.8,28.8,64.3,29.1z"/>
		<path fill="#414242" d="M29.8,32.3c0.1,0,0.2-0.1,0.3-0.1c2.2-0.2,4.3-0.7,6.5-0.5c0.2,0,0.4,0,0.5,0c2.7-0.7,5.5-0.4,8.2-0.5
			c3.4-0.1,6.8-0.1,10.2,0c1.6,0.1,3.2,0.2,4.8,0.3c1.6,0.1,3.3,0.2,4.9,0.4c0.4,0.1,0.7-0.2,1-0.2c0.6,0,1,0.4,1.5,0.6
			c0.1,0,0.1,0,0.2,0c0.2,0.7,0.9,1,1.1,1.6c-0.7,0.4-1.5,0.2-2.1,0.1c-1.4-0.4-2.8-0.2-4.2-0.4c-3-0.5-6-0.6-9-0.6
			c-2.5,0-4.9,0-7.4,0c-1.8,0-3.7-0.1-5.5,0.4c-1.7,0-3.4-0.2-5.1,0.1c-1.2,0.2-2.3,0.3-3.5,0.2c-0.5,0-0.9,0-1.3,0.2
			c-0.2,0.1-0.4,0.3-0.7,0.2c-0.5-0.2-1-0.2-1.4,0.3c-0.2,0.2-0.4,0.2-0.6-0.1c0.1-0.5,0.8-0.7,0.8-1.2
			C29.3,32.9,29.6,32.7,29.8,32.3z"/>
		<path fill="#444444" d="M67.6,32.3c-0.6,0.2-1-0.2-1.5-0.4c-1.9-0.1-3.7-0.3-5.6-0.3c-2,0-4.1-0.3-6.1-0.4c-1.6,0-3.1,0.1-4.7-0.2
			c-0.2,0-0.5-0.1-0.7,0c-1.2,0.5-2.4,0.1-3.6,0.1c-3,0-6,0.1-9,0.4c-1.4,0.2-2.9,0.4-4.3,0.4c-0.5,0-1.2,0.3-1.5-0.5
			c0.1-0.3,0.3-0.5,0.6-0.6c0.9-0.1,1.8-0.1,2.7-0.1c1-0.1,2.1-0.3,3.1-0.1c0,0,0.1,0,0.1,0c1.6-0.5,3.2,0.1,4.8-0.4
			c0.5-0.2,1.1-0.2,1.6-0.1c2.1,0.2,4.2,0.1,6.3-0.1c1.2-0.1,2.5,0.2,3.8,0.3c0.1,0,0.2,0.1,0.3,0.1c1.1-0.7,2.2,0.2,3.3,0.1
			c0.7-0.1,1.4-0.1,2.1,0c1.2,0.1,2.3-0.1,3.5,0.2c0.9,0.3,1.9-0.2,2.8,0.5c0.1,0.1,0.4-0.2,0.6-0.3C66.7,31.3,67.2,31.8,67.6,32.3z
			"/>
		<path fill="#3F3F3E" d="M40.7,33.3c0.4-0.4,1-0.6,1.4-0.5c1.3,0.1,2.6-0.2,3.9-0.1c1.2,0.1,2.5,0.2,3.8,0.1c2-0.1,4,0.1,6,0
			c1.7-0.1,3.3,0.6,5,0.2c0.6-0.1,1.2,0.2,1.7,0.3c1.4,0.5,2.9-0.1,4.3,0.4c0.6,0.2,1.5,0.1,2.2,0.2c0.1,0,0.1,0,0.2,0
			c0.1,0.1,0.1,0.3,0.2,0.4c-0.6,0.7-1.5,0.4-2.1,0.3c-3-0.4-6-0.4-9-0.7c-2.5-0.2-5-0.4-7.4-0.1c-0.4,0-0.7-0.2-1.1-0.1
			c-0.1,0-0.2,0-0.3,0c-2.4-0.3-4.9-0.1-7.3,0C41.4,33.9,40.8,34.1,40.7,33.3z"/>
		<path fill="#343433" d="M36.6,41.9c-2.3-0.1-4.5,0.1-6.7,0.5c-1.6,0.3-3.4,0.2-5,0.7c-0.1,0-0.3-0.1-0.5-0.2
			c0.1-0.3,0.1-0.6,0.2-0.8c0.1-0.3,0.3-0.6,0.4-0.8c0.4-0.6,1.1-0.7,1.7-0.8c2.4-0.3,4.9-0.4,7.3-0.7c0.9-0.1,1.8-0.4,2.8-0.3
			c0.3,0,0.7,0,1,0.3C37.8,40.8,37.4,41.5,36.6,41.9z"/>
		<path fill="#363636" d="M37.7,40c-0.6-0.4-1.3-0.3-1.9-0.2c-1.6,0.1-3.2,0.5-4.8,0.6c-1.4,0.1-2.8,0.2-4.2,0.3
			c-0.6,0.1-1.2,0.3-1.8,0.5c0-0.1,0-0.3,0-0.4c-0.1-0.1-0.1-0.3,0-0.4c0.1-0.2,0.1-0.4,0.2-0.6l0,0c1-0.2,2.1-0.3,3.2-0.4
			c1.8-0.1,3.5-0.6,5.2-0.7c1.2-0.1,2.4-0.1,3.6-0.2c0.4-0.1,0.8,0.1,1,0.4C38.4,39.5,38.4,39.9,37.7,40z"/>
		<path fill="#5B5959" d="M25,40.4c0,0.1,0,0.3,0,0.4c-0.5,0.2-0.4-0.2-0.4-0.4C24.7,40.4,24.8,40.4,25,40.4z"/>
		<path fill="#3C3D3D" d="M27.6,35.2c0-0.1,0-0.1,0.1-0.2c0.5-0.4,1.1-0.1,1.7-0.1c1.3-0.2,2.5-0.5,3.8-0.5c1.9,0,3.9-0.6,5.8-0.5
			c2.6,0.1,5.2,0,7.8-0.1c0.9,0,1.8,0.3,2.7,0c3.3,0,6.7,0.1,10,0.3c2.4,0.1,4.8,0.1,7.2,0.6c0.7,0.2,1.4-0.1,2.1,0.1
			c0.3,0.1,0.4-0.2,0.6-0.3c0.2,0.2,0.4,0.4,0.7,0.7c0.1,0.3,0.3,0.6,0.4,0.8c-0.3,0.6-1,0.5-1.5,0.5c-4.4-0.7-8.9-0.8-13.4-1.2
			c-1.8-0.2-3.6-0.2-5.4-0.1c-2.2,0.2-4.4-0.2-6.5,0c-1.4,0.1-2.7,0.1-4.1,0.4c-1.6,0.3-3.2,0.3-4.8,0.3c-2.3,0.1-4.5,0.3-6.7,0.6
			c-0.4,0.1-0.8,0.2-1-0.2C27.2,36,27.6,35.7,27.6,35.2z"/>
		<path fill="#3E3E3E" d="M69.3,34.5c0.1,0.4,0.1,0.8-0.5,0.6c-1.7-0.4-3.5,0-5.2-0.8c-0.4-0.2-0.8,0-1.1,0.1
			c-1.6,0.4-3.1-0.6-4.7-0.4c-2.6,0.3-5.2-0.2-7.8-0.2c-0.2,0-0.4-0.1-0.6-0.2c1-0.1,2.1-0.4,3.1-0.3c0.8,0.1,1.6,0,2.4,0.1
			c4.1,0.3,8.1,0.3,12.2,0.9c0.7,0.1,1.5-0.1,2.2-0.1C69.3,34.4,69.3,34.5,69.3,34.5z"/>
		<path fill="#3B3B3B" d="M26.9,36.3c1.6-0.2,3.1-0.3,4.7-0.5c1.4-0.2,2.9-0.1,4.3-0.3c0.8-0.1,1.7-0.3,2.3-0.2
			c1.1,0.2,2-0.6,3.1-0.3c0.8,0.2,1.8-0.3,2.7-0.2c1.2,0.1,2.3-0.2,3.6,0.1c0.7,0.1,1.5,0.1,2.2,0c1.8-0.3,3.5,0,5.3,0
			c1.2,0,2.5,0.2,3.7,0.3c2.7,0.3,5.3,0.5,8,0.6c0.6,0,1.2,0.2,1.8,0.3c0.6,0.1,1.2,0.2,1.8-0.2c0.2,0.2,0.4,0.4,0.6,0.7
			c0.2,0.4,0.3,0.8,0.5,1.2c-1,0.4-2.1,0-3.1-0.2c-1.5-0.2-3.1-0.2-4.6-0.3c-0.6-0.1-1.2-0.2-1.8-0.2c-2.8-0.1-5.7-0.3-8.5-0.3
			c-0.8,0-1.7-0.2-2.5-0.2c-2.5,0.1-5-0.1-7.5,0.4c-1.6-0.3-3.3-0.2-4.9,0c-2.1,0.2-4.2,0.4-6.2,0.6c-1.8,0.1-3.5,0.4-5.3,0.5
			c-0.3,0-0.6,0.1-0.9-0.2c0-0.1,0.1-0.3,0.1-0.4c0.2-0.3,0.5-0.6,0.5-1C26.8,36.4,26.8,36.3,26.9,36.3z"/>
		<path fill="#3E3E3E" d="M49.4,33.7c-0.5,0.4-1,0.5-1.6,0.4c-1.6-0.3-3.1,0-4.7,0.1c-0.9,0.1-1.9,0.1-2.6,0c-2-0.4-3.8,0.5-5.6,0.4
			c-1.9-0.1-3.6,0.3-5.5,0.6c-0.6,0.1-1.2-0.1-1.7-0.2c0.1-0.1,0.1-0.3,0.2-0.4c0.1-0.1,0.2-0.1,0.2-0.2c0.2,0.1,0.3,0.1,0.5,0
			c0.4-0.5,0.8-0.9,1.5-0.4c0,0,0.2,0.1,0.2,0c1.5-1.1,3.3-0.2,4.9-0.7c0.7-0.2,1.5-0.5,2.2-0.3c1.1,0.3,2.2-0.4,3.3,0.3
			c0.4,0.4,0.8,0.3,1.3,0.3C44.5,33.5,47,33.3,49.4,33.7z"/>
		<path fill="#363736" d="M38.2,39c-0.8-0.3-1.6-0.4-2.4,0c-0.2,0.1-0.4,0.1-0.7,0c-1.3-0.3-2.5,0.1-3.7,0.3
			c-1.9,0.3-3.8,0.4-5.7,0.6c-0.2,0-0.3-0.1-0.5-0.2c0.1-0.1,0.1-0.3,0.2-0.4c0.8-0.6,1.9-0.6,2.8-0.7c2.4-0.2,4.7-0.5,7.1-0.7
			c2-0.2,4.1-0.4,6.1-0.4c3.8,0,7.5-0.3,11.2-0.2c1.1,0,2.3,0.1,3.4,0.3c0.1,0,0.3,0.1,0.4,0.1c2-0.3,4.1,0,6.1,0.2
			c1.9,0.2,3.8,0.3,5.7,0.6c0.8,0.1,1.7,0.1,2.5,0.2c0.5-0.1,0.9,0.2,1.3,0.4c0.2,0.4,0.4,0.8,0.6,1.3c0,0.1,0,0.1,0,0.2
			c-0.5,0.4-0.9,0.4-1.4,0c-0.4-0.4-0.8-0.1-1.2-0.1c-2.6-0.1-5.1-0.8-7.7-0.8c-0.1,0-0.2,0-0.3-0.1c-0.1,0-0.1-0.1-0.2-0.1
			c-0.1-0.1-0.1-0.2-0.2,0c-0.1,0.2-0.1,0.4-0.2,0.5c-0.1,0.1-0.2,0.2-0.3,0.2c-0.3,0-0.4-0.2-0.5-0.4c-0.1-0.1-0.1-0.3-0.3-0.3
			c-0.1,0-0.2,0.1-0.3,0.1c-0.1,0-0.2,0-0.2-0.1c-0.4-0.2-0.8-0.2-1.2-0.2c-0.6,0.3-1.2-0.4-1.9,0c-0.2-0.4-0.5-0.5-0.8-0.1
			c-0.8,0-1.6,0.1-2.3-0.2c-0.2-0.1-0.4-0.2-0.7-0.3c-0.8-0.6-1.6,0.1-2.4,0.1c-4,0.1-7.9,0-11.9,0C38.5,39.1,38.4,39.1,38.2,39z"/>
		<path fill="#383938" d="M72,39.2c-0.4,0.4-0.7-0.2-1-0.2c-2.2-0.4-4.5-0.4-6.8-0.7c-2-0.3-4-0.5-5.9-0.5c-3.6,0-7.2-0.4-10.8-0.3
			c-1.1,0.1-2.2,0.1-3.3-0.1c-0.3-0.1-0.7,0-0.8-0.5c1.1-0.3,2.1-0.4,3.2-0.3c1.6,0.1,3.2-0.3,4.8-0.1c2.1,0.3,4.3,0,6.5,0.3
			c0.9,0.1,1.8,0,2.7,0.1c2,0.2,4.1,0.4,6.1,0.5c1.6,0.1,3.1,0.5,4.7,0.6c0.1,0,0.1,0,0.2,0c0.1,0.3,0.3,0.7,0.4,1
			C72,39.1,72,39.1,72,39.2z"/>
		<path fill="#383838" d="M43.4,36.9c0.5,0.4,1.2,0.3,1.8,0.3c2.9,0,5.7,0.2,8.6,0.2c3,0.1,5.9,0.1,8.9,0.3c1.2,0.1,2.4,0.1,3.6,0.4
			c0.7,0.2,1.6,0,2.4,0.1c0.8,0.1,1.6,0.3,2.4,0.7c-0.7,0.3-1.5,0.1-2.2,0c-2.8-0.4-5.6-0.6-8.4-0.8c-2.1-0.2-4.3,0.1-6.4-0.2
			c-1.9-0.3-3.7-0.3-5.5-0.2c-2.8,0.2-5.6,0-8.4,0.2c-3.4,0.3-6.8,0.4-10.2,1c-1.4,0.2-2.9,0.3-4.4,0.5c0.1-0.3,0.4-0.5,0.4-0.8
			c0.1-0.2,0.2-0.4,0.3-0.6c2.7-0.2,5.4-0.4,8.1-0.7c1.4-0.2,2.9,0,4.4-0.6c0.4-0.2,1.3,0,1.9,0.1C41.4,36.9,42.4,36.3,43.4,36.9z"
			/>
		<path fill="#444444" d="M30.6,31.5c0.8,0.4,1.6,0.3,2.4,0.2c2.1-0.2,4.3-0.5,6.4-0.7c1-0.1,2,0,3.1-0.1c1.6-0.2,3.2-0.3,4.8,0.2
			c0.1,0,0.1,0.1,0.2,0c2.6-1.1,5.2,0,7.8-0.2c1.2-0.1,2.7-0.2,4,0.4c0.4,0.2,1.1-0.1,1.6-0.1c1.4,0,2.9,0.3,4.3,0.2
			c0.4,0,0.8,0,1,0.4c-0.2,0.2-0.4,0.6-0.8,0.4c-1.2-0.5-2.4-0.1-3.6-0.5c-0.7-0.2-1.6-0.1-2.4-0.1c-2.1-0.2-4.1-0.2-6.2-0.2
			c-2.2-0.1-4.4,0-6.6-0.1c-1.9-0.1-3.8,0-5.7,0.1c-1,0-2.2-0.2-3.2,0.4c-0.9,0.5-1.9,0-2.9,0.1c-1.3,0.2-2.7,0.4-4.1,0.3
			c-0.2,0-0.5,0.1-0.7-0.1c0.1-0.1,0.1-0.3,0.2-0.4C30.3,31.6,30.5,31.6,30.6,31.5z"/>
		<path fill="#E6E4E4" d="M32.9,53.3c0.1-0.3,0.3-0.6,0.4-1c0.1,0,0.1,0,0.2-0.1c0.4,0.5,1,0.2,1.4,0.1c0.8-0.2,1.6,0,2.3-0.5
			c0.2-0.2,0.5,0,0.6,0.2c0.1,0.3-0.1,0.6-0.4,0.8C37.3,53,37.2,53,37.2,53c-0.6,0.4-1.2,0.9-2.1,0.7c-0.3-0.1-0.5,0.1-0.7,0.4
			c-0.4,0.7-1,0.4-1.5,0.2C32.4,54.2,32.8,53.7,32.9,53.3z"/>
		<path fill="#E8E6E7" d="M37.7,52.2c-0.8,0.2-1.6,0.3-2.4,0.5c-0.7,0.2-1.3,0.2-1.8-0.3c0.2-0.4,0.3-0.7,0.6-1
			c0.1,0.6,0.5,0.4,0.9,0.4c1.2-0.2,2.4-0.4,3.5-0.7C38.7,51.6,38.2,51.9,37.7,52.2z"/>
		<path fill="#E2E1E1" d="M32.9,53.3c0.1,0.3-0.3,0.7,0.1,1c0.3-0.5,1.1,0.5,1.2-0.4c0.1-0.3,0.5-0.4,0.7-0.4
			c0.9,0.3,1.5-0.4,2.2-0.7c0.3,0.4,0.8,0.3,1.3,0.3c0.7,0,1.5-0.1,2.2,0.1c0,0.6-0.1,0.8-0.8,0.9c-0.6,0.1-1.2,0.3-1.8,0.5
			c-1.9,0-3.6,0.6-5.4,1.1c-0.4,0.1-0.8,0.5-1.2-0.1c0.1-0.5,0.6-0.9,0.7-1.4C32.5,54.1,32.5,53.6,32.9,53.3z"/>
		<path fill="#DEDBDA" d="M31.4,55.7c0.9,0.4,1.5-0.5,2.3-0.6c1.4-0.1,2.8-0.9,4.2-0.6c0.3,0.2,0.4,0.5,0.3,0.9
			c-0.3,0.3-0.6,0.4-1,0.3c-0.1,0-0.3-0.2-0.4,0c-0.1,0.1-0.2,0.2-0.3,0.2c-1.5,0-2.8,0.6-4.2,1c-0.5-0.2-1.1,0.4-1.4-0.3
			c0.1-0.3,0.3-0.6,0.4-0.8C31.3,55.7,31.3,55.7,31.4,55.7z"/>
		<path fill="#D1D1D0" d="M30.8,56.6c0.5,0.4,1.1,0.1,1.7,0.2c0.5-0.2,1-0.2,1.5-0.2c0.9-0.1,1.8,0,2.7-0.1c0.9,0,1.9-0.1,2.8,0
			c2.7,0.1,5.4-0.2,8-0.4c0.7-0.1,1.3,0.2,1.7,0.7c-0.3,0.4-0.7,0.2-1.1,0.2C42.5,57,36.7,57,31,57C30.8,56.9,30.4,56.9,30.8,56.6z"
			/>
		<path fill="#1A1A1A" d="M62.6,55.7c-0.3-0.1-0.6-0.2-0.9-0.2c-2.1,0.1-4.1-0.3-6.2-0.2c-1.2,0-2.4-0.1-3.6-0.2
			c-0.3,0-0.5-0.1-0.5-0.4c0-0.1,0-0.1,0-0.2c0.2-0.6,0.4-1.2,1.1-1.4c0.9-0.1,1.7,0,2.6,0.2c1.8,0.2,3.7,0.1,5.6,0.1
			c0.1,0,0.2,0,0.3,0c0.5,0.1,0.7,0.5,1,0.9C62.1,54.7,62.7,55,62.6,55.7z"/>
		<path fill="#DEDBDA" d="M38.1,55.3c-0.1-0.3-0.1-0.6-0.2-0.8c0.8-0.6,2-0.3,2.7-1c0.5-0.4,1-0.3,1.6-0.3c1.7,0,3.4,0,5.1,0
			c0.6-0.1,1.1-0.2,1.7,0.1c0.8,0.3,1.6,0,2.4,0.1c0.4,0.5-0.1,0.7-0.3,0.9c-0.1,0.1-0.3,0.3-0.4,0.4c-2.2-0.3-4.3,0.2-6.5,0.1
			c-1.6-0.1-3.2,0.4-4.8,0.8C38.9,55.6,38.4,55.9,38.1,55.3z"/>
		<path fill="#D9D7D8" d="M38.1,55.3c0.9,0.5,1.7-0.1,2.5-0.3c1.4-0.3,2.8-0.5,4.3-0.5c1.4,0,2.8-0.1,4.2-0.2c0.6-0.1,1,0.2,1.5,0.4
			c-0.1,0.2-0.3,0.4-0.4,0.6c-1.2,0.5-2.5,0.2-3.7,0.4c-0.6,0.1-1.2,0-1.7,0.2c-0.7-0.5-1.4-0.4-2.1,0c-0.2,0-0.4,0-0.6,0
			c-0.1,0-0.2-0.1-0.3-0.1c-1.3,0.4-2.8,0-4.1,0.8c-0.3,0.2-0.8-0.1-1.1,0.3c-0.9,0-1.8,0-2.7,0c0-0.5,0.3-0.6,0.7-0.7
			c0.6-0.1,1.3,0,1.8-0.4c0.1-0.1,0.1-0.1,0.2-0.2c0.1-0.1,0.3-0.1,0.4,0C37.4,55.4,37.8,55.4,38.1,55.3z"/>
		<path fill="#D6D6D5" d="M42.1,55.7c0.2,0,0.4,0,0.6,0c0.3-0.1,0.7,0.2,1.1-0.1c0.3-0.2,0.6-0.1,0.8,0.1c1.8-0.5,3.7-0.4,5.6-0.4
			c-0.2,0.6-0.5,1.1-1,1.5c-1.4-0.5-2.7-0.3-4.1-0.2c-1.8,0.2-3.7,0.2-5.5,0.2c-0.2-0.9,0.6-0.7,1-0.8
			C41.1,55.9,41.6,55.7,42.1,55.7z"/>
		<path fill="#171717" d="M51.1,54.2c0.1-0.3,0.3-0.5,0.4-0.8c-0.1-0.2,0-0.5,0.1-0.7c0.1-0.2,0.3-0.4,0.5-0.7
			c0.3-0.4,0.5-0.8,0.8-1.3c0.2-0.3,0.4-0.7,0.7-1c0.2-0.3,0.5-0.7,0.7-1c0.3-0.5,0.5-1.1,1.1-1.4c0.2-0.3,0.5-0.6,0.6-0.9
			c0.2-0.4,0.4-0.5,0.7-0.1c-0.1,0.7-0.6,1.2-0.9,1.8c-0.5,0.8-1.1,1.6-1.5,2.5c-0.6,0.9-1,1.9-1.8,2.7c-0.5,0.3-0.6,0.9-1,1.3
			C51.2,54.4,51.2,54.3,51.1,54.2z"/>
		<path fill="#F4F5F6" d="M55.2,47.3c-0.3,0.5-0.6,1-1,1.5c-0.9,0.2-1.8-0.3-2.7-0.2c-0.4,0-0.9-0.4-0.6-1c0.4-0.4,0.3-1.1,0.8-1.5
			c0,0.6,0.2,0.8,0.8,0.8C53.4,47,54.4,47,55.2,47.3z"/>
		<path fill="#333333" d="M53.8,42.7c-0.1-0.4-0.3-0.6-0.7-0.6c-0.3,0-0.6-0.1-0.7-0.4c-0.2-0.8,0.3-1.2,0.8-1.6
			c0.7-0.1,1.6-0.7,1.9,0.6C54.7,41.3,54.2,42,53.8,42.7z"/>
		<path fill="#292929" d="M55.5,48c0.3-0.6,0.6-1.2,1.1-1.7c0.3,0.4,0.6,0.9,1,1.3c0,0.4,0.5,0.6,0.4,1c-0.5,0.1-1.1,0-1.6,0
			C56,48.5,55.5,48.5,55.5,48z"/>
		<path fill="#343434" d="M55.1,40.6c-0.5-1-1.2-0.3-1.9-0.4c-0.2-0.4,0.1-0.7,0.1-1.1c0.1-0.1,0.1-0.3,0.3-0.2
			c0.7,0.2,1.6,0,2.3,0.4C55.6,39.8,55.6,40.3,55.1,40.6z"/>
		<path fill="#1F1F1F" d="M37.7,52.2c0.2-0.4,0.7-0.7,0.8-1.3c0.3-0.4,0.6-0.8,0.9-1.2c0.2,0,0.4,0,0.6,0c1.6-0.2,3.2-0.2,4.7-0.3
			c0.7,0,1.4-0.2,2-0.5c0.2-0.1,0.3-0.2,0.2-0.4c0.3-0.4,0.7-0.7,0.8-1.3c0.2-0.3,0.4-0.6,0.7-0.8c0.1,0,0.1,0,0.2,0
			c0.4,0.3-0.1,0.6,0,0.8c-0.5,1.2-1,2.4-2.1,3.1c-1.7,0.2-3.5,0-5.2,0.1c-0.4,0-0.8,0-1.1,0.1c-0.4,0.1-1.2,1.2-1.1,1.4
			c0.3,0.4,0.8,0.1,1.2,0.2c2.1,0.1,4.2-0.3,6.3-0.2c0.5,0,1-0.1,1.3,0.4c0,0.3,0,0.6-0.3,0.9c-0.2,0.1-0.4,0.2-0.6,0.2
			c-3,0-6.1,0-9.1,0c-0.3,0-0.7,0-0.4-0.5C37.5,52.6,37.7,52.4,37.7,52.2z"/>
		<path fill="#242424" d="M53.4,39.2c0.4,0.4-0.2,0.7-0.2,1c-0.4,0.4-0.7,0.9-0.8,1.5c-0.4,0.2-0.6,0.7-0.8,1c-0.2,0-0.3,0-0.4-0.2
			c0.3-1.3,1.1-2.4,2-3.4C53.2,39.1,53.3,39.1,53.4,39.2z"/>
		<path fill="#262626" d="M46.7,50.1c0.6-1,1-2.1,1.9-2.9c0.2,0.4,0.6,0.4,0.9,0.4c0.4,0,0.8,0,0.9,0.4c0.1,0.4-0.1,0.8-0.3,1.1
			c-0.2,0.4-0.4,0.8-0.8,1.2c-0.2,0.2-0.4,0.2-0.6,0.3C48.1,50.4,47.3,51,46.7,50.1z"/>
		<path fill="#F0EEEF" d="M50.1,49c0.1-0.3,0.3-0.7,0.4-1c0.3,0,0.2-0.3,0.4-0.4c0.3,0.7,0.5,1.1,1.5,0.7c0.5-0.2,1.2,0.3,1.9,0.5
			c-0.1,0.4-0.4,0.7-0.6,1c-1.1,0.2-2.1,0-3.2-0.1C50.1,49.7,49.8,49.4,50.1,49z"/>
		<path fill="#DFDDDE" d="M62.6,55.7c-0.3-0.5-0.6-1-0.8-1.5c0.8-0.3,1.6,0,2.4,0.1c0.7,0.1,1.3,0.3,2,0.4c0.1,0,0.1,0,0.2,0.1
			c0.3,0.5,0.6,1.1,0.9,1.6c-0.7,0.6-1.5,0.2-2.2,0.3c-0.6,0-1.3-0.1-1.9-0.2C62.9,56.4,62.8,56,62.6,55.7z"/>
		<path fill="#2A2A2A" d="M62.2,39.6c0.1,0.1,0.1,0.1,0.2,0.2c0,0.3,0,0.5,0,0.8c0,0.4-0.1,0.6-0.6,0.7c-0.5,0-0.7-0.1-0.7-0.6
			c-0.1-0.2-0.1-0.3,0-0.4c0.1-0.1,0.1-0.1,0.2-0.2c0.4-0.1,0.4,0.3,0.5,0.4c0,0.1,0.1,0.1,0.1,0.1C62,40.2,61.9,39.9,62.2,39.6z"/>
		<path fill="#D2D0CF" d="M61.2,40.2c0,0.1,0,0.3,0,0.4c-0.1,0-0.1,0-0.2,0c-0.1,0.1-0.3,0.2-0.4,0.1c-0.5-0.1-0.3-0.5-0.4-0.8
			c-0.1-0.1-0.1-0.3,0-0.4c0.1-0.1,0-0.3,0.2-0.4c0.2,0.1,0.2,0.5,0.5,0.5C61,39.9,60.9,40.2,61.2,40.2z"/>
		<path fill="#FCFDFF" d="M59.5,40.8c-0.7-0.2-0.2-0.8-0.4-1.2c0.1-0.6,0.3-0.3,0.5-0.1c0.2,0.3,0.1,0.7,0,1
			C59.6,40.7,59.6,40.7,59.5,40.8z"/>
		<path fill="#181818" d="M59.5,40.8c0-0.1,0-0.1,0.1-0.2c0.2-0.3,0-0.7,0.1-1c0.1-0.1,0.2-0.1,0.3,0c0.1,0,0.1,0,0.2,0
			c0,0.1,0,0.3,0,0.4c-0.3,0.2-0.1,0.6-0.2,0.8C59.7,41.5,59.6,40.9,59.5,40.8z"/>
		<path fill="#E2E1E2" d="M59.9,39.6c-0.1,0-0.1,0-0.2,0c-0.1,0.1-0.1,0.1-0.2,0c-0.1-0.2-0.3-0.2-0.4,0c-0.2,0-0.4,0-0.5-0.2
			C59.1,39.2,59.6,38.8,59.9,39.6z"/>
		<path fill="#212020" d="M60.5,40.8c0.1-0.2,0.3-0.1,0.4-0.1c0,0.2,0.1,0.5-0.2,0.5C60.5,41.2,60.5,40.9,60.5,40.8z"/>
		<path fill="#E8E6E7" d="M64.3,51.5c0.2,0.3,0.4,0.7,0.6,1c0,0.1,0,0.1,0,0.2c0.2,0.3,0.1,0.5-0.2,0.5c-0.3,0.1-0.7,0.1-1,0
			c-1.7-0.6-3.6-0.6-5.3-1.3c-0.4-0.2-0.9-0.2-1.3-0.2c-0.6,0-1-0.3-1.1-0.9c0-0.4,0.1-0.8,0.6-0.9c2.5,0.6,5,1.1,7.6,1.5
			C64.2,51.5,64.2,51.5,64.3,51.5z"/>
		<path fill="#EFECEC" d="M64.1,51.5c-1.7,0.3-3.3-0.4-5-0.7c-0.9-0.1-1.8,0-2.6-0.7c-0.1-0.1,0-0.2,0.1-0.3
			c0.8-0.2,1.5-0.3,2.2,0.1c0.3,0.7,1.1,0.5,1.4,0.5c1.2-0.2,2.3,0.5,3.4,0.6C63.8,51.1,64,51.3,64.1,51.5z"/>
		<path fill="#252625" d="M56.6,49.9c0,0.1,0,0.1,0,0.2c-0.2,0.2-0.4,0.5-0.4,0.8c0,0.2-0.2,0.3-0.4,0.3c-0.5-0.3-1.2-0.2-1.7-0.7
			c0.2-1,1-1.7,1.5-2.5c0.5,0.3,1,0.6,1.6,0.3c0.4-0.2,0.6,0.2,0.9,0.3c0.2,0.3,0.3,0.6,0.5,0.8c-0.1,0.5-0.5,0.3-0.7,0.3
			C57.4,49.8,57,49.6,56.6,49.9z"/>
		<path fill="#E8E6E7" d="M56.6,49.9c0.5-0.6,1.4,0.2,1.9-0.4c0.1-0.1,0.2-0.1,0.4-0.2c0,0.2,0,0.4,0,0.6
			C58.1,49.9,57.3,49.9,56.6,49.9z"/>
		<path fill="#F0EEED" d="M46.7,48.8c-0.2,0.7-0.6,0.9-1.3,0.9c-1.8-0.1-3.6,0-5.4-0.1c0.1-0.2,0.3-0.3,0.6-0.3c1.7,0,3.3,0,4.9-0.6
			C46,48.5,46.3,48.8,46.7,48.8z"/>
		<path fill="#FFFFFF" d="M53.3,39.2c-0.7,1.1-1.4,2.2-2.2,3.3c-4.7,0-9.5,0-14.2,0c-0.5,0-0.5-0.2-0.3-0.6c0.4-0.6,0.8-1.3,1.2-1.9
			c0.3-0.3,0.5-0.6,0.5-1l0.1,0l0-0.1c0.6-0.2,1.2-0.1,1.8-0.1c4-0.1,8,0.2,12-0.2C52.5,38.7,53,38.7,53.3,39.2z"/>
		<path fill="#E4E2E2" d="M66.2,54.8c-1.5,0.3-3-0.5-4.5-0.6c-0.3-0.2-0.3-0.7-0.8-0.9c-1.7,0-3.4,0-5.1,0c-0.4,0-1,0.1-1.2-0.4
			c-0.2-0.5,0.2-0.9,0.5-1.3c0.3-0.2,0.6-0.2,0.9,0c1.3,0.8,2.8,0.4,4.2,0.7c0.7,0.1,1.3,0.4,1.9,0.6c1.1,0.4,2.1,0.9,3.3,0.8
			C65.8,54.2,66,54.5,66.2,54.8z"/>
		<path fill="#E6E4E4" d="M65.5,53.8c-0.5,0.5-1,0.4-1.6,0.1c-1-0.4-2.1-0.8-3.1-1.2c-0.7-0.3-1.7-0.2-2.5-0.2c-1,0.1-2-0.3-2.8-0.9
			c-0.1-0.3,0-0.4,0.2-0.6c0.1-0.1,0.2-0.2,0.4-0.3c0.2,0.5,0.5,0.8,1.1,0.7c0.4,0,0.8,0.1,1.3,0.3c1.8,0.5,3.7,0.9,5.6,1.3
			c0.3,0.1,0.8,0.3,0.9-0.3C65.3,53,65.2,53.5,65.5,53.8z"/>
		<path fill="#383838" d="M53.3,39.2c-0.1-0.3-0.3-0.3-0.6-0.3c-4.6,0-9.3,0-13.9,0c-0.1,0-0.3,0-0.4,0.1c0.3-0.3,0.7-0.2,1.1-0.2
			c3.8,0,7.7,0,11.5,0c0.7,0,1.4-0.3,2,0c0.2,0.1,0.5,0,0.7,0.3c-0.1,0.1-0.1,0.1-0.2,0.2L53.3,39.2L53.3,39.2z"/>
		<path fill="#363636" d="M53,38.7c-0.7,0-1.4,0-2,0C51.6,38.7,52.3,37.7,53,38.7z"/>
		<path fill="#F2F1F1" d="M61.8,40.6c-0.4,0,0-0.6-0.4-0.6c0.2-0.1-0.5-0.9,0.4-0.6C62,39.8,62.1,40.2,61.8,40.6z"/>
		<path fill="#555555" d="M61.8,40.6c0-0.4,0-0.8,0-1.2c0.3-0.2,0.2,0.1,0.2,0.2c0.1,0.4,0.2,0.8-0.1,1.2
			C61.9,40.8,61.8,40.7,61.8,40.6z"/>
		<path fill="#171717" d="M62,40.8c0-0.4,0-0.8,0.1-1.2c0.1,0,0.1,0,0.2,0C62.1,40,62.5,40.5,62,40.8z"/>
		<path fill="#E3E1E1" d="M60.8,39.8c-0.4,0.1-0.5-0.2-0.5-0.5C60.8,39.1,60.7,39.6,60.8,39.8z"/>
		<path fill="#DDDADB" d="M37.3,52.8c-0.1,0.4,0.1,0.5,0.4,0.5c3,0,5.9,0,8.9,0c0.3,0,0.6-0.2,0.9-0.2c0.1,0.1,0.1,0.3,0,0.4
			c-2.3,0-4.6,0-6.9,0c-0.9,0-1.8,0-2.8,0c-0.5,0-0.8,0-0.8-0.6C37.2,52.8,37.3,52.8,37.3,52.8z"/>
		<path fill="#DDDADB" d="M36.5,55.7c-0.3,0.4-0.6,0.6-1.1,0.5c-0.5,0-1.1-0.2-1.4,0.5c-0.5,0-1,0-1.5,0c0.3-0.6,0.9-0.4,1.4-0.6
			C34.7,55.8,35.6,55.6,36.5,55.7z"/>
		<path fill="#DEDBDA" d="M37.1,55.5c-0.1,0-0.3,0-0.4,0c0-0.2-0.1-0.5,0.3-0.5C37.1,55,37.1,55.3,37.1,55.5z"/>
		<path fill="#D7D6D6" d="M42.1,55.7c-0.2,0.5-0.7,0.4-1.2,0.4c-0.5,0.1-1.1-0.1-1.4,0.6c-1,0-2,0-2.9,0c0-0.2,0.1-0.3,0.1-0.5
			c1.1,0.3,1.9-0.9,3.1-0.4c0.4,0.2,1-0.2,1.5-0.4C41.7,55.3,42,55.2,42.1,55.7z"/>
		<path fill="#212020" d="M55.7,51.2c-0.1,0.2-0.2,0.4-0.2,0.6c-0.3,0.5-1,0.9-0.7,1.4c0.2,0.4,1,0.1,1.5,0.1
			c1.6,0.1,3.1-0.2,4.7,0.2l-0.1,0.1c-2,0.1-4,0.1-5.9,0c-0.9-0.1-1.7-0.2-2.6-0.2c0.5-1,0.9-1.9,1.7-2.7
			C54.6,50.7,55.4,50.4,55.7,51.2z"/>
		<path fill="#0D0C0C" d="M54.9,53.4c2,0,4,0,5.9,0C58.9,53.7,56.9,53.7,54.9,53.4z"/>
		<path fill="#DFDDDE" d="M47.6,53.4c0-0.1,0-0.3,0-0.4c0-0.2,0-0.5,0.2-0.7c0.1-0.2,0.1-0.5,0.5-0.4c0.4,0.4,0.9,0.5,1.4,0.4
			c0.7-0.1,1.5-0.2,2.1,0.5c0.1,0.3-0.2,0.4-0.3,0.6c-1,0.2-1.9,0.5-2.8-0.1C48.3,53.1,47.9,53.2,47.6,53.4z"/>
		<path fill="#D7D6D6" d="M44.6,55.7c-0.3,0-0.5-0.3-0.7,0.1c-0.4,0.6-0.8,0.3-1.1-0.1C43.4,55.2,44,54.8,44.6,55.7z"/>
		<path fill="#EBE9E8" d="M50.1,49c0,0.5,0.4,0.6,0.8,0.6c1-0.1,1.9,0.1,2.8,0.3c-0.2,0.3-0.5,0.7-0.7,1c-0.6,0.4-1.2,0.2-1.8,0.1
			c-0.4,0-0.8-0.2-1.2-0.2c-0.6,0-0.7-0.3-0.5-0.8C49.5,49.6,49.8,49.3,50.1,49z"/>
		<path fill="#E7E6E5" d="M49.4,50c0.1,0.2,0,0.7,0.3,0.6c1-0.3,1.8,0.4,2.7,0.3c0.2,0,0.3,0,0.5,0c-0.1,0.5-0.5,0.9-0.8,1.3
			c-1.2-0.4-2.6,0.1-3.7-0.8c-0.2-0.6,0.1-0.9,0.6-1.1C49.2,50.2,49.3,50.1,49.4,50z"/>
		<path fill="#E3E2E2" d="M48.6,51.3c0.7,0.2,1.4,0.5,2.1,0.3c0.7-0.2,0.9,0.6,1.4,0.6c0,0.3-0.2,0.4-0.4,0.6
			c-0.8-0.3-1.6-0.4-2.4-0.2c-0.6,0.1-1.1,0.2-1.2-0.7C48.1,51.6,48.1,51.3,48.6,51.3z"/>
		<path fill="#212120" d="M48.6,51.3c-0.2,0.2-0.3,0.4-0.4,0.6c-0.1,0.1-0.3,0.3-0.4,0.4c-1.3-0.4-2.7-0.3-4-0.1
			c-1.7,0.3-3.3-0.1-5,0.3c-0.4,0.1-0.4-0.1-0.3-0.4c0.5-1.4,1.3-2,2.8-2c1.8,0,3.6,0,5.4,0c0.8,0.5,1.6,0.1,2.4,0.2
			C48.9,50.6,48.5,50.8,48.6,51.3z"/>
		<path fill="#3A3A3A" d="M59.5,39.6c0.1,0,0.1,0,0.2,0c-0.1,0.3,0.1,0.7-0.2,1C59.5,40.3,59.5,40,59.5,39.6z"/>
	</g>
</g>
</svg>
