<?xml version="1.0" encoding="utf-8"?>
<!-- Generator: Adobe Illustrator 18.0.0, SVG Export Plug-In . SVG Version: 6.00 Build 0)  -->
<!DOCTYPE svg PUBLIC "-//W3C//DTD SVG 1.1//EN" "http://www.w3.org/Graphics/SVG/1.1/DTD/svg11.dtd">
<svg version="1.1" xmlns="http://www.w3.org/2000/svg" xmlns:xlink="http://www.w3.org/1999/xlink" x="0px" y="0px"
	 viewBox="0 0 220 100" enable-background="new 0 0 220 100" xml:space="preserve">
<g id="Layer_1">
</g>
<g id="Layer_2">
	<g>
		<g>
			<g>
				<path fill="#221F1F" d="M80.3,41.3h12.4v2h-10v6.3h6.7v2h-6.7v8.6h-2.4V41.3z"/>
				<path fill="#221F1F" d="M104.9,53.3c0,5-3.5,7.2-6.8,7.2c-3.7,0-6.5-2.7-6.5-7c0-4.5,3-7.2,6.7-7.2
					C102.2,46.3,104.9,49.1,104.9,53.3z M94.1,53.4c0,3,1.7,5.2,4.1,5.2c2.4,0,4.1-2.2,4.1-5.3c0-2.3-1.1-5.2-4.1-5.2
					C95.4,48.1,94.1,50.8,94.1,53.4z"/>
				<path fill="#221F1F" d="M110.7,43.3v3.3h3.5v1.9h-3.5v7.3c0,1.7,0.5,2.6,1.9,2.6c0.7,0,1.1-0.1,1.4-0.2l0.1,1.9
					c-0.5,0.2-1.2,0.4-2.2,0.4c-1.2,0-2.1-0.4-2.7-1.1c-0.7-0.7-1-1.9-1-3.5v-7.4h-2.1v-1.9h2.1v-2.5L110.7,43.3z"/>
				<path fill="#221F1F" d="M129.2,53.3c0,5-3.5,7.2-6.8,7.2c-3.7,0-6.5-2.7-6.5-7c0-4.5,3-7.2,6.7-7.2
					C126.5,46.3,129.2,49.1,129.2,53.3z M118.4,53.4c0,3,1.7,5.2,4.1,5.2c2.4,0,4.1-2.2,4.1-5.3c0-2.3-1.2-5.2-4.1-5.2
					C119.6,48.1,118.4,50.8,118.4,53.4z"/>
				<path fill="#221F1F" d="M132.5,60.2V41.3h1.3l7.4,11.2c1.5,2.4,2.6,4.1,3.5,5.9l0.1,0c-0.2-2.6-0.2-4.7-0.2-7.7v-9.4h1.3v18.9
					h-1.3l-7.2-11c-1.4-2.2-2.7-4.2-3.7-6.1l-0.1,0c0.1,2.3,0.2,4.4,0.2,7.5v9.6H132.5z"/>
				<path fill="#221F1F" d="M158.7,57c0,1.1,0.1,2.2,0.2,3.2h-1.2l-0.2-1.9h-0.1c-0.6,1-2.1,2.2-4.3,2.2c-2.7,0-4-1.9-4-3.7
					c0-3.1,2.7-5,8.2-4.9v-0.3c0-1.3-0.3-4-3.4-4c-1.2,0-2.4,0.3-3.4,1l-0.4-1c1.2-0.8,2.7-1.2,3.9-1.2c3.9,0,4.6,2.9,4.6,5.3V57z
					 M157.4,53c-2.9-0.1-6.8,0.4-6.8,3.6c0,1.9,1.3,2.8,2.7,2.8c2.2,0,3.5-1.4,4-2.7c0.1-0.3,0.1-0.6,0.1-0.8V53z"/>
				<path fill="#221F1F" d="M164.4,43.7v3h3.8v1.1h-3.8v8.7c0,1.7,0.5,2.8,2,2.8c0.7,0,1.2-0.1,1.5-0.2l0.2,1
					c-0.4,0.2-1.1,0.3-1.9,0.3c-1,0-1.8-0.3-2.3-1c-0.6-0.7-0.8-1.8-0.8-3.2v-8.5h-2.3v-1.1h2.3v-2.5L164.4,43.7z"/>
				<path fill="#221F1F" d="M173.5,42.9c0,0.6-0.4,1.1-1.1,1.1c-0.6,0-1-0.5-1-1.1c0-0.6,0.5-1.2,1.1-1.2
					C173.1,41.7,173.5,42.2,173.5,42.9z M171.8,60.2V46.7h1.3v13.5H171.8z"/>
				<path fill="#221F1F" d="M189.1,53.3c0,5-3.4,7.2-6.5,7.2c-3.5,0-6.2-2.7-6.2-6.9c0-4.6,3-7.2,6.4-7.2
					C186.6,46.4,189.1,49.2,189.1,53.3z M177.9,53.5c0,3.4,2.2,5.9,4.9,5.9c2.8,0,5-2.5,5-6c0-2.5-1.4-5.9-4.9-5.9
					C179.4,47.5,177.9,50.6,177.9,53.5z"/>
				<path fill="#221F1F" d="M192.6,49.9c0-1.2-0.1-2.2-0.1-3.2h1.2l0.1,2.4h0.1c0.7-1.5,2.4-2.7,4.6-2.7c1.3,0,4.7,0.6,4.7,5.7v8.1
					h-1.3v-8c0-2.4-1-4.7-3.7-4.7c-1.9,0-3.5,1.3-4,3.1c-0.1,0.3-0.2,0.8-0.2,1.2v8.3h-1.3V49.9z"/>
			</g>
			<g>
				<path fill="#221F1F" d="M208.5,47.5c1.2,0,2.2,1,2.2,2.2c0,1.2-1,2.2-2.2,2.2c-1.2,0-2.2-1-2.2-2.2
					C206.2,48.5,207.2,47.5,208.5,47.5L208.5,47.5z M208.5,47.9c-1,0-1.7,0.8-1.7,1.7c0,1,0.7,1.7,1.7,1.7c1,0,1.7-0.8,1.7-1.7
					C210.1,48.7,209.4,47.9,208.5,47.9L208.5,47.9z M208.1,50.8h-0.5v-2.2c0.2,0,0.5-0.1,0.8-0.1c0.4,0,0.6,0.1,0.8,0.2
					c0.1,0.1,0.2,0.3,0.2,0.5c0,0.3-0.2,0.4-0.5,0.5v0c0.2,0.1,0.3,0.2,0.4,0.5c0.1,0.3,0.1,0.5,0.2,0.5H209
					c-0.1-0.1-0.1-0.3-0.2-0.5c0-0.2-0.2-0.3-0.5-0.3h-0.2V50.8z M208.1,49.6h0.2c0.3,0,0.5-0.1,0.5-0.3c0-0.2-0.1-0.3-0.5-0.3
					c-0.1,0-0.2,0-0.3,0V49.6z"/>
			</g>
		</g>
		<g>
			<path fill="#00548B" d="M58.6,50.8c0-9.9-9.2-15.6-17.1-15.6c-4.5,0-7.3,1.4-8.6,2.2c-2.8,1.7-3.4,5.1-2.9,7.7
				c0.4,2.1,1.5,4,3.1,5.5c1.3,1.3,3.5,2.8,5.4,3.3c0.6,0.1,5.7,1.2,6.8-3.3c0.9-3.5-3.9-4.7-7.8-5.5c-1.8-0.3-0.6-1.7,2.9-2.1
				c1.7-0.2,12,0.1,11.9,7.6c0,2.8-2.9,6.3-6.4,7.6c-3,1.1-7.9,1.9-12.9-1.9c-6.6-4.9-4.9-12.6-4-15c0.3-0.7,0.7-1.6,0.7-1.6
				c-1.5,1.5-5.2,5.6-5.2,11.4c0,9.4,8.7,15.6,17,15.6C49.9,66.6,58.6,60.7,58.6,50.8z"/>
			<g>
				<g>
					<polygon fill="#221F1F" points="22.4,30.9 22.4,28.5 15.8,28.5 15.8,35.1 18.1,35.1 18.1,30.9 					"/>
					<polygon fill="#221F1F" points="60.7,30.9 60.7,28.5 67.4,28.5 67.4,35.1 65,35.1 65,30.9 					"/>
				</g>
				<g>
					<polygon fill="#221F1F" points="60.7,70.9 60.7,73.2 67.4,73.2 67.4,66.6 65,66.6 65,70.9 					"/>
					<polygon fill="#221F1F" points="22.4,70.9 22.4,73.2 15.8,73.2 15.8,66.6 18.1,66.6 18.1,70.9 					"/>
				</g>
			</g>
		</g>
	</g>
</g>
</svg>
