<?xml version="1.0" encoding="utf-8"?>
<!-- Generator: Adobe Illustrator 18.0.0, SVG Export Plug-In . SVG Version: 6.00 Build 0)  -->
<!DOCTYPE svg PUBLIC "-//W3C//DTD SVG 1.1//EN" "http://www.w3.org/Graphics/SVG/1.1/DTD/svg11.dtd">
<svg version="1.1" xmlns="http://www.w3.org/2000/svg" xmlns:xlink="http://www.w3.org/1999/xlink" x="0px" y="0px"
	 viewBox="0 0 100 100" enable-background="new 0 0 100 100" xml:space="preserve">
<g id="Layer_1">
</g>
<g id="Layer_2">
	<g>
		<g>
			<path fill="#007DC5" d="M49.1,57.2c-14.4,1.3-29.5-0.8-31.6-12c-1-5.6,1.5-11.5,4.9-15.1v-2c-6.1,5.3-9.3,12-7.4,20
				c2.4,10.2,15.3,15.9,35,14c7.8-0.8,18-3.3,25.1-7.2v-5.5C68.6,53.2,57.9,56.3,49.1,57.2z M87.1,27.9c-3.4-16.7-35.9-17.8-56.8-5
				v1.4C51.2,13.5,80.8,13.6,83.5,29c0.9,5.1-2,10.4-7.1,13.5v4C82.6,44.2,88.9,36.9,87.1,27.9z M73.9,46.3c-2.8-0.3-3.8-2-3.8-4
				V25.5h3.8V46.3z M28.8,46.6c-2.8-0.3-3.8-2-3.8-4l0-11h3.8V46.6z M28.8,26v3.6H25V26H28.8z M51.5,46.4c-3.1,0-4.4-2.1-4.4-4.2
				V27.6h3.8v4h2.8v3h-2.8V42c0,0.9,0.4,1.3,1.3,1.3h1.5v3.1H51.5 M58.4,40.2c0,1.9,1.2,3.3,3.3,3.3c1.7,0,2.5-0.5,3.4-1.4l2.3,2.2
				c-1.5,1.5-3,2.4-5.8,2.4c-3.6,0-7-2-7-7.7c0-4.9,3-7.6,6.9-7.6c4,0,6.3,3.2,6.3,7.5v1.4H58.4 M61.4,34.5c-1.3,0-2.3,0.7-2.7,1.6
				c-0.2,0.5-0.3,1-0.4,1.6h5.8C64.1,36,63.3,34.5,61.4,34.5z M35.9,34.6v11.8h-3.8V31.6l7.8,0c3.3,0,4.4,2.3,4.4,4.4v10.4h-3.8
				V36.1c0-0.9-0.5-1.4-1.6-1.4H35.9z"/>
			<path fill="#007DC5" d="M77.9,28.5c-0.8,0-1.5-0.7-1.5-1.5c0-0.8,0.7-1.5,1.5-1.5c0.8,0,1.5,0.7,1.5,1.5
				C79.4,27.8,78.8,28.5,77.9,28.5z M77.9,25.7c-0.7,0-1.2,0.6-1.2,1.3c0,0.7,0.6,1.2,1.2,1.2c0.7,0,1.3-0.6,1.3-1.2
				C79.2,26.3,78.6,25.7,77.9,25.7z M78.6,27.9h-0.3c0,0,0,0-0.1,0l-0.4-0.6c0,0,0,0-0.1,0c0,0-0.1,0-0.1,0c0,0-0.1,0-0.1,0v0.6
				c0,0,0,0.1-0.1,0.1h-0.3c0,0-0.1,0-0.1-0.1v-1.6c0-0.1,0-0.1,0.1-0.1c0.1,0,0.3,0,0.5,0c0.5,0,0.7,0.1,0.7,0.6v0
				c0,0.3-0.1,0.4-0.3,0.5l0.4,0.7C78.7,27.8,78.7,27.8,78.6,27.9C78.7,27.8,78.6,27.9,78.6,27.9z M78.2,26.6c0-0.2-0.1-0.2-0.4-0.2
				c0,0-0.1,0-0.2,0c0,0-0.1,0-0.1,0v0.5c0,0,0.2,0,0.2,0C78.1,26.9,78.2,26.8,78.2,26.6L78.2,26.6z"/>
		</g>
		<path fill="#007DC5" d="M16.8,71.6c-1.2,0-2.1,0.2-2.8,0.7c-0.7,0.5-1,1.2-1,2c0,0.5,0.2,1,0.5,1.5c0.3,0.5,1,0.8,1.9,1.1l3,0.9
			c1.1,0.3,1.9,0.8,2.5,1.4c0.5,0.6,0.8,1.4,0.8,2.3c0,0.7-0.1,1.3-0.4,1.8c-0.2,0.5-0.6,1-1,1.4c-0.5,0.4-1,0.7-1.6,0.9
			c-0.6,0.2-1.4,0.3-2.2,0.3c-1.1,0-2.1-0.2-2.9-0.5c-0.9-0.3-1.6-0.8-2.2-1.3l0.7-1c0.6,0.5,1.3,0.9,2,1.2c0.7,0.3,1.5,0.4,2.4,0.4
			c1.2,0,2.2-0.3,2.8-0.8c0.7-0.5,1-1.3,1-2.2c0-0.7-0.2-1.3-0.6-1.7c-0.4-0.4-1-0.7-1.8-0.9l-3-0.8c-1-0.3-1.8-0.7-2.4-1.3
			c-0.6-0.6-0.9-1.4-0.9-2.4c0-0.6,0.1-1.1,0.4-1.6c0.2-0.5,0.6-0.9,1-1.2c0.4-0.3,1-0.6,1.6-0.8c0.6-0.2,1.4-0.3,2.2-0.3
			c0.8,0,1.6,0.1,2.4,0.3c0.8,0.2,1.5,0.5,2.1,1l-0.6,0.9c-0.5-0.3-1.1-0.6-1.7-0.8C18.3,71.7,17.6,71.6,16.8,71.6z M28.1,85.7
			c-0.8,0-1.5-0.1-2.1-0.4c-0.6-0.3-1.1-0.6-1.6-1.1c-0.4-0.5-0.8-1.1-1-1.8C23.2,81.8,23,81,23,80.2c0-0.9,0.1-1.6,0.4-2.3
			c0.2-0.7,0.6-1.3,1-1.7c0.4-0.5,1-0.8,1.6-1.1c0.6-0.3,1.3-0.4,2.1-0.4c0.8,0,1.5,0.1,2.1,0.4c0.6,0.3,1.1,0.6,1.6,1.1
			c0.4,0.5,0.8,1.1,1,1.7c0.2,0.7,0.4,1.5,0.4,2.3c0,0.9-0.1,1.6-0.4,2.3c-0.2,0.7-0.6,1.3-1,1.8c-0.4,0.5-1,0.9-1.6,1.1
			C29.5,85.6,28.9,85.7,28.1,85.7z M24.3,80.2c0,1.4,0.3,2.5,1,3.3c0.7,0.8,1.6,1.2,2.7,1.2c1.2,0,2.1-0.4,2.7-1.2
			c0.7-0.8,1-1.9,1-3.3c0-1.4-0.3-2.5-1-3.3c-0.7-0.8-1.6-1.2-2.7-1.2c-1.2,0-2.1,0.4-2.7,1.2C24.7,77.6,24.3,78.7,24.3,80.2z
			 M39.7,70.1c0.4,0,0.7,0,0.9,0.1v1h-0.3c-1,0-1.7,0.2-2.2,0.5c-0.4,0.3-0.6,1-0.6,1.9v1.3h3v1h-3v9.5h-1.3v-9.5h-1.9v-1h1.9v-1.3
			c0-1.1,0.3-2,0.9-2.5C37.7,70.4,38.6,70.1,39.7,70.1z M44.4,75.9v6.4c0,0.8,0.2,1.4,0.5,1.7c0.3,0.3,0.9,0.4,1.8,0.4h0.6v1
			c-0.2,0-0.6,0.1-1,0.1c-1.1,0-1.9-0.3-2.4-0.8c-0.5-0.5-0.7-1.3-0.7-2.5v-6.4h-1.9v-1h1.9v-2.7h1.3v2.7h2.8v1H44.4z M55.9,75.7
			l2.7,8.4l2.7-9.2h1.3l-3.4,10.6h-1.3l-2.8-8.3l-2.7,8.3h-1.3l-3.5-10.6h1.4l2.7,9.2l2.7-8.4H55.9z M63.3,82.5c0-1,0.4-1.8,1.1-2.4
			c0.8-0.6,1.8-0.8,3.2-0.8h2.6v-0.7c0-1-0.2-1.7-0.7-2.2c-0.4-0.5-1.2-0.7-2.1-0.7c-0.6,0-1.2,0.1-1.8,0.2s-1,0.4-1.5,0.7l-0.5-0.9
			c0.5-0.4,1.1-0.7,1.8-0.9c0.6-0.2,1.3-0.3,2.1-0.3c1.3,0,2.3,0.3,3,1c0.7,0.7,1,1.7,1,3v5.1c0,0.3,0.1,0.5,0.2,0.6
			c0.1,0.1,0.3,0.2,0.7,0.2h0.2v0.9c-0.1,0-0.2,0.1-0.4,0.1c-0.1,0-0.2,0-0.4,0c-0.5,0-0.9-0.1-1.1-0.4c-0.2-0.3-0.4-0.7-0.4-1.3
			c-0.3,0.6-0.7,1.1-1.4,1.4c-0.6,0.3-1.3,0.5-2.2,0.5c-1.1,0-1.9-0.3-2.5-0.9C63.7,84.2,63.3,83.5,63.3,82.5z M66.9,84.6
			c1,0,1.8-0.3,2.4-0.9c0.6-0.6,0.9-1.5,0.9-2.5v-0.9h-2.6c-1,0-1.8,0.2-2.3,0.5c-0.5,0.4-0.8,0.9-0.8,1.7c0,0.7,0.2,1.2,0.6,1.6
			C65.6,84.4,66.2,84.6,66.9,84.6z M74.5,74.9h0.6c0.4,0,0.6,0.2,0.6,0.6v1.4c0.3-0.7,0.8-1.2,1.4-1.6c0.6-0.4,1.3-0.5,2.2-0.5
			c0.2,0,0.4,0,0.5,0c0.2,0,0.3,0,0.4,0.1v1h-0.7c-1.3,0-2.2,0.4-2.8,1.2c-0.6,0.8-0.9,2-0.9,3.6v4.9h-1.3V74.9z M81.9,80.3
			c0,1.3,0.4,2.4,1.1,3.1c0.7,0.8,1.7,1.1,3,1.1c0.5,0,1-0.1,1.5-0.2c0.5-0.1,0.9-0.4,1.3-0.7l0.6,0.9c-0.3,0.3-0.8,0.5-1.4,0.8
			c-0.6,0.2-1.3,0.4-2.1,0.4c-0.9,0-1.6-0.1-2.3-0.4c-0.7-0.3-1.2-0.6-1.6-1.1c-0.4-0.5-0.8-1.1-1-1.8c-0.2-0.7-0.3-1.5-0.3-2.3
			c0-0.8,0.1-1.6,0.3-2.3c0.2-0.7,0.6-1.3,1-1.8c0.4-0.5,0.9-0.9,1.5-1.1c0.6-0.3,1.3-0.4,2.1-0.4c0.7,0,1.3,0.1,1.8,0.4
			c0.5,0.2,1,0.6,1.3,1c0.3,0.4,0.6,0.9,0.8,1.4c0.2,0.5,0.3,1.1,0.3,1.8c0,0.4,0,0.8-0.1,1.2H81.9z M85.6,75.7
			c-1.1,0-1.9,0.3-2.6,1c-0.6,0.7-1,1.5-1.1,2.6h6.6v-0.4c0-1-0.2-1.8-0.7-2.4C87.3,76,86.6,75.7,85.6,75.7z"/>
	</g>
</g>
</svg>
