<?xml version="1.0" encoding="utf-8"?>
<!-- Generator: Adobe Illustrator 18.0.0, SVG Export Plug-In . SVG Version: 6.00 Build 0)  -->
<!DOCTYPE svg PUBLIC "-//W3C//DTD SVG 1.1//EN" "http://www.w3.org/Graphics/SVG/1.1/DTD/svg11.dtd">
<svg version="1.1" xmlns="http://www.w3.org/2000/svg" xmlns:xlink="http://www.w3.org/1999/xlink" x="0px" y="0px"
	 viewBox="0 0 220 100" enable-background="new 0 0 220 100" xml:space="preserve">
<g id="Layer_1">
</g>
<g id="Layer_2">
	<g>
		<path fill="#FFFFFF" d="M-1.9,84.1c0-22.4,0-44.7,0-67.1c72.7,0,145.5,0,218.2,0c0,22.4,0,44.7,0,67.1
			C143.6,84.1,70.8,84.1-1.9,84.1z M25.4,51.3c0.2,6.1,5.3,10.9,11.5,10.8c6-0.1,10.9-5.3,10.7-11.5c-0.1-6.1-5.3-10.9-11.4-10.8
			C30,40,25.2,45.1,25.4,51.3z M57.7,40.8c-0.2-0.4-0.3-0.8-0.5-1.2c-4.5-7.9-11.3-12-20.2-12.3C29.9,27,23.8,29.6,19,34.9
			c-1.4,1.5-2.4,3.5-3.6,5.2c-0.1,0.2,0,0.5,0,0.7c0.2-0.1,0.5-0.1,0.6-0.3c0.3-0.3,0.4-0.7,0.7-1.1c4.8-7.5,11.6-11.4,20.6-11.2
			c5.3,0.1,9.9,2.1,14,5.5c2.2,1.8,3.9,4,5.3,6.5C56.8,40.6,57,41.1,57.7,40.8z M136.8,50.6c1.4-1.1,1.8-2.2,1.3-3.7
			c-0.4-1.3-1.7-2.1-3.3-2.1c-1.1,0-2.1,0-3.2,0c-0.5,0-0.9,0-1.4,0c0,4.4,0,8.7,0,13.1c2,0,3.9,0.1,5.8,0c1.6-0.1,2.8-1.2,3.1-2.7
			C139.6,53.2,138.9,51.8,136.8,50.6z M189.8,51.3c0-3.9-2.9-6.7-6.9-6.7c-3.8,0-6.6,3-6.6,7c0,3.7,3,6.5,6.8,6.5
			C187,58.1,189.9,55.1,189.8,51.3z M56.6,62.7c-0.3,0.2-0.6,0.3-0.8,0.5c-0.5,0.5-0.8,1.1-1.3,1.7c-7.6,9.7-21.2,11.7-31.3,4.6
			c-2.4-1.7-4.4-3.8-6-6.2c-0.2-0.4-0.5-0.8-1-0.4c2.2,4.9,9.9,12.1,21.1,11.8C46.9,74.4,54.4,68,56.6,62.7z M86.2,51.4
			c0-3.9-2.8-6.8-6.6-6.8c-3.9,0-6.8,2.8-6.8,6.7c0,3.8,2.9,6.7,6.7,6.7C83.3,58.1,86.2,55.3,86.2,51.4z M89.9,48
			c0.1,0,0.1-0.1,0.2-0.1c2.9,3.4,5.7,6.9,8.7,10.4c0-4.6,0-9,0-13.4c-0.4,0-0.8,0-1.2,0c0,3.3,0,6.6,0,10.1c-3-3.6-5.8-7-8.8-10.5
			c0,4.6,0,9,0,13.5c0.4,0,0.7,0,1.1,0C89.9,54.6,89.9,51.3,89.9,48z M202.4,58.3c0-4.6,0-9,0-13.4c-0.4,0-0.8,0-1.2,0
			c0,3.3,0,6.6,0,10.1c-3-3.6-5.9-7-8.8-10.6c0,4.6,0,9,0,13.4c0.4,0,0.7,0,1.2,0c0-3.3,0-6.6,0-10.2
			C196.5,51.3,199.4,54.7,202.4,58.3z M18.6,42.3c0.8,0.4,0.9-0.2,1.2-0.5c3.6-5.8,8.8-9.3,15.7-9.7c7.2-0.4,12.8,2.7,17,8.6
			c0.3,0.5,0.6,1,1,1.5c0.1,0.1,0.4,0.1,0.6,0.2c0-0.2,0.1-0.4,0-0.6c-0.2-0.5-0.4-0.9-0.7-1.3c-6.8-11.4-23.2-12.8-31.9-2.7
			C20.3,39.1,19.3,40.6,18.6,42.3z M19.5,61c2,5.8,10.9,10.4,19.2,9.8c5.8-0.4,13.9-5.8,14.8-10c-0.4,0.2-0.7,0.3-1,0.5
			c-0.3,0.2-0.4,0.6-0.7,0.9c-6.3,8.3-17.8,10.2-26.2,4.3c-1.9-1.4-3.6-3-5-5C20.3,61.1,20.1,60.7,19.5,61z M141.7,57.9
			c2.7,0,5.4,0,8.1,0c0-0.4,0-0.7,0-1.1c-2.3,0-4.5,0-6.8,0c0-1.1,0-2.1,0-3.1c2,0,3.9,0,5.8,0c0-0.4,0-0.7,0-1.2c-2,0-3.9,0-5.8,0
			c0-2.2,0-4.3,0-6.5c2.2,0,4.4,0,6.6,0c0-0.4,0-0.8,0-1.1c-2.7,0-5.3,0-7.9,0C141.7,49.2,141.7,53.5,141.7,57.9z M151.4,57.8
			c0.9,0.3,1.5,0,1.6-0.8c0-0.2,0.2-0.4,0.2-0.6c0.1-0.6,0.5-0.7,1-0.7c1.6,0,3.2,0.1,4.8,0c1-0.1,1.4,0.3,1.7,1.2
			c0.4,1.2,0.4,1.2,1.7,1c-1.8-4.5-3.7-8.9-5.6-13.5C155.1,48.9,153.3,53.3,151.4,57.8z M174.3,54.8c-2.7,3.2-6.6,2.4-8.3,0.7
			c-2.1-2.2-2.2-5.9-0.1-8c2.2-2.2,5.4-2.1,8,0.4c0.3-0.2,0.6-0.4,0.9-0.7c-1.4-2.1-4.4-3-7.1-2.2c-2.9,0.8-4.7,3.3-4.7,6.5
			c0,3.1,1.8,5.6,4.6,6.4c2.9,0.9,6-0.1,7.5-2.4C174.9,55.2,174.6,55,174.3,54.8z M118.3,49.6c-0.9-1.4-1.8-2.6-2.5-3.9
			c-0.5-0.9-1.1-1-2-0.8c1.2,1.8,2.3,3.6,3.5,5.4c0.3,0.4,0.3,0.7,0,1.1c-1,1.6-2,3.1-3.1,4.7c-0.4,0.6-0.7,1.2-1.1,1.7
			c0.9,0.2,1.5,0,1.9-0.8c0.8-1.4,1.7-2.7,2.6-4.1c0.2-0.3,0.4-0.6,0.7-1c1.1,1.8,2.3,3.4,3.3,5.1c0.5,0.8,1.1,1,2,0.8
			c-0.2-0.3-0.3-0.6-0.5-0.8c-1.2-1.8-2.3-3.7-3.5-5.5c-0.4-0.6-0.4-1,0-1.5c1.1-1.7,2.2-3.4,3.3-5.1c-0.9-0.3-1.5,0-1.9,0.7
			C120.1,47,119.2,48.2,118.3,49.6z M22.3,44.4c0.4-0.2,0.7-0.3,0.9-0.5c0.3-0.3,0.5-0.7,0.8-1.1c4.7-6.8,13.5-8.6,20.4-4.3
			c2.1,1.3,3.7,3,5,5.1c0.3,0.4,0.5,0.9,1.1,0.6c-1.2-4.8-8.2-9.2-14.4-9.1C30.2,35.2,23.3,39.7,22.3,44.4z M23.1,59
			c0.9,3.6,7.5,7.7,12.8,7.8c6.1,0.1,12.9-3.7,14-7.8c-0.8-0.3-1,0.4-1.4,0.8c-4.2,5.1-9.5,7.1-15.9,5.5c-3.5-0.9-6.2-2.9-8.3-5.7
			C23.9,59.2,23.7,58.7,23.1,59z M101.1,44.9c0.1,0.2,0.2,0.5,0.3,0.7c1.3,2.4,2.6,4.8,4,7.3c0.4,0.7,0.6,1.3,0.6,2.1
			c-0.1,1,0,1.9,0,2.9c0.5,0,0.9,0,1.3,0c0-1-0.1-2,0-3c0.1-0.7,0.2-1.4,0.5-2c1.3-2.5,2.6-4.9,4-7.4c0.1-0.2,0.2-0.4,0.3-0.6
			c-1-0.3-1.4,0.1-1.8,0.9c-0.7,1.5-1.6,2.9-2.4,4.4c-0.4,0.7-0.8,1.4-1.3,2.3c-1.3-2.3-2.5-4.5-3.6-6.7
			C102.6,44.9,102,44.6,101.1,44.9z"/>
		<path d="M25.4,51.3C25.2,45.1,30,40,36.1,39.9c6.1-0.1,11.3,4.7,11.4,10.8c0.1,6.1-4.7,11.3-10.7,11.5
			C30.6,62.2,25.5,57.4,25.4,51.3z M32.3,58c2,0,4,0.1,6,0c3.1-0.2,4.9-2.7,4.1-5.5c-0.4-1.3-1.3-2-2.4-2.6c1.3-1.1,1.7-2.3,1.4-3.6
			c-0.3-1.4-1.2-2.4-2.6-2.6c-2.1-0.3-4.3-0.3-6.4-0.4C32.3,48.4,32.3,53.2,32.3,58z"/>
		<path d="M57.7,40.8c-0.7,0.3-0.9-0.1-1.1-0.5c-1.4-2.4-3.1-4.6-5.3-6.5c-4-3.4-8.7-5.4-14-5.5c-9-0.2-15.8,3.7-20.6,11.2
			c-0.2,0.4-0.4,0.7-0.7,1.1c-0.1,0.2-0.4,0.2-0.6,0.3c0-0.2-0.1-0.6,0-0.7c1.2-1.8,2.2-3.7,3.6-5.2c4.8-5.2,10.8-7.9,17.9-7.6
			c9,0.3,15.8,4.5,20.2,12.3C57.4,39.9,57.5,40.4,57.7,40.8z"/>
		<path d="M136.8,50.6c2.2,1.2,2.9,2.6,2.4,4.5c-0.4,1.5-1.5,2.6-3.1,2.7c-1.9,0.1-3.8,0-5.8,0c0-4.3,0-8.6,0-13.1
			c0.4,0,0.9,0,1.4,0c1.1,0,2.1,0,3.2,0c1.6,0,2.8,0.8,3.3,2.1C138.5,48.4,138.1,49.6,136.8,50.6z M131.5,56.7c0.2,0,0.3,0,0.4,0
			c1.1,0,2.3,0,3.4,0c1.4,0,2.4-0.9,2.5-2.2c0.2-1.7-0.5-2.9-2-3.1c-1.4-0.2-2.9,0-4.3,0C131.5,53.2,131.5,54.9,131.5,56.7z
			 M131.6,50.2c1.2,0,2.3,0,3.4,0c1.2,0,1.9-0.7,2-1.9c0.1-1.3-0.6-2.2-1.8-2.3c-1.2-0.1-2.3,0-3.5,0
			C131.6,47.4,131.6,48.7,131.6,50.2z"/>
		<path d="M189.8,51.3c0,3.8-2.9,6.7-6.7,6.8c-3.8,0-6.8-2.8-6.8-6.5c0-4,2.8-6.9,6.6-7C186.9,44.6,189.8,47.4,189.8,51.3z
			 M188.5,51.4c0-3.2-2.3-5.5-5.4-5.5c-3.1,0-5.4,2.4-5.4,5.5c0,3.2,2.3,5.6,5.4,5.6C186.2,56.9,188.5,54.6,188.5,51.4z"/>
		<path d="M56.6,62.7c-2.2,5.4-9.8,11.8-19.4,12c-11.1,0.3-18.9-7-21.1-11.8c0.5-0.5,0.8,0,1,0.4c1.7,2.4,3.6,4.5,6,6.2
			c10,7.1,23.6,5.1,31.3-4.6c0.4-0.5,0.8-1.1,1.3-1.7C56,62.9,56.3,62.8,56.6,62.7z"/>
		<path d="M86.2,51.4c0,3.8-2.9,6.7-6.8,6.7c-3.8,0-6.7-2.9-6.7-6.7c0-3.9,2.9-6.7,6.8-6.7C83.4,44.6,86.2,47.5,86.2,51.4z
			 M84.9,51.4c0-3.2-2.3-5.5-5.3-5.6c-3.1,0-5.4,2.4-5.4,5.6c0,3.2,2.3,5.5,5.4,5.5C82.6,56.9,84.9,54.6,84.9,51.4z"/>
		<path d="M89.9,48c0,3.3,0,6.6,0,9.9c-0.4,0-0.7,0-1.1,0c0-4.4,0-8.8,0-13.5c3,3.5,5.8,7,8.8,10.5c0-3.5,0-6.8,0-10.1
			c0.5,0,0.8,0,1.2,0c0,4.4,0,8.8,0,13.4c-3-3.6-5.8-7-8.7-10.4C90,47.9,90,48,89.9,48z"/>
		<path d="M202.4,58.3c-3-3.6-5.8-7-8.9-10.6c0,3.5,0,6.8,0,10.2c-0.4,0-0.8,0-1.2,0c0-4.4,0-8.8,0-13.4c3,3.5,5.8,7,8.8,10.6
			c0-3.5,0-6.8,0-10.1c0.4,0,0.8,0,1.2,0C202.4,49.3,202.4,53.7,202.4,58.3z"/>
		<path d="M18.6,42.3c0.7-1.7,1.7-3.2,2.9-4.5c8.6-10,25.1-8.6,31.9,2.7c0.3,0.4,0.5,0.9,0.7,1.3c0.1,0.2,0,0.4,0,0.6
			c-0.2-0.1-0.5-0.1-0.6-0.2c-0.4-0.5-0.6-1-1-1.5c-4.1-5.9-9.7-9-17-8.6c-6.9,0.3-12.1,3.8-15.7,9.7C19.6,42.1,19.4,42.7,18.6,42.3
			z"/>
		<path d="M19.5,61c0.6-0.3,0.9,0.1,1.1,0.5c1.4,1.9,3,3.6,5,5c8.4,5.9,19.9,4,26.2-4.3c0.2-0.3,0.4-0.6,0.7-0.9
			c0.2-0.2,0.6-0.3,1-0.5c-0.8,4.2-9,9.6-14.8,10C30.4,71.4,21.5,66.9,19.5,61z"/>
		<path d="M141.7,57.9c0-4.3,0-8.6,0-13c2.6,0,5.2,0,7.9,0c0,0.3,0,0.6,0,1.1c-2.2,0-4.4,0-6.6,0c0,2.2,0,4.3,0,6.5
			c1.9,0,3.9,0,5.8,0c0,0.4,0,0.8,0,1.2c-1.9,0-3.9,0-5.8,0c0,1.1,0,2.1,0,3.1c2.3,0,4.5,0,6.8,0c0,0.4,0,0.7,0,1.1
			C147.1,57.9,144.4,57.9,141.7,57.9z"/>
		<path d="M151.4,57.8c1.8-4.5,3.7-8.9,5.5-13.5c1.9,4.6,3.7,9,5.6,13.5c-1.3,0.2-1.3,0.2-1.7-1c-0.3-0.9-0.7-1.3-1.7-1.2
			c-1.6,0.1-3.2,0-4.8,0c-0.5,0-0.9,0.1-1,0.7c0,0.2-0.2,0.4-0.2,0.6C152.9,57.9,152.4,58.1,151.4,57.8z M159.9,54.5
			c-1-2.4-1.9-4.7-2.9-7.2c-1,2.5-1.9,4.8-2.9,7.2C156.1,54.5,157.9,54.5,159.9,54.5z"/>
		<path d="M174.3,54.8c0.3,0.2,0.6,0.4,0.9,0.7c-1.5,2.3-4.7,3.2-7.5,2.4c-2.9-0.9-4.6-3.3-4.6-6.4c0-3.1,1.8-5.6,4.7-6.5
			c2.7-0.8,5.7,0.1,7.1,2.2c-0.3,0.2-0.6,0.4-0.9,0.7c-2.5-2.5-5.8-2.7-8-0.4c-2.1,2.2-2,5.9,0.1,8
			C167.7,57.1,171.6,57.9,174.3,54.8z"/>
		<path d="M118.3,49.6c0.9-1.4,1.8-2.7,2.5-4c0.5-0.8,1-1,1.9-0.7c-1.1,1.7-2.2,3.4-3.3,5.1c-0.4,0.6-0.4,1,0,1.5
			c1.2,1.8,2.4,3.7,3.5,5.5c0.2,0.3,0.3,0.5,0.5,0.8c-0.9,0.2-1.5,0.1-2-0.8c-1-1.7-2.1-3.3-3.3-5.1c-0.3,0.4-0.5,0.7-0.7,1
			c-0.9,1.4-1.8,2.7-2.6,4.1c-0.5,0.8-1,1.1-1.9,0.8c0.4-0.6,0.7-1.2,1.1-1.7c1-1.6,2-3.2,3.1-4.7c0.3-0.4,0.3-0.7,0-1.1
			c-1.2-1.8-2.3-3.6-3.5-5.4c0.9-0.2,1.6-0.1,2,0.8C116.5,47,117.4,48.2,118.3,49.6z"/>
		<path d="M22.3,44.4c1-4.7,7.9-9.2,13.8-9.3c6.3-0.1,13.2,4.3,14.4,9.1c-0.7,0.3-0.9-0.2-1.1-0.6c-1.3-2.1-2.9-3.8-5-5.1
			C37.6,34.1,28.8,36,24,42.8c-0.3,0.4-0.5,0.8-0.8,1.1C23.1,44.1,22.8,44.2,22.3,44.4z"/>
		<path d="M23.1,59c0.6-0.3,0.8,0.1,1.1,0.5c2.2,2.8,4.9,4.9,8.3,5.7c6.5,1.6,11.7-0.4,15.9-5.5c0.3-0.4,0.6-1.1,1.4-0.8
			c-1.1,4.1-7.9,7.9-14,7.8C30.6,66.7,23.9,62.7,23.1,59z"/>
		<path d="M101.1,44.9c0.9-0.3,1.5,0,1.9,0.8c1.1,2.2,2.4,4.4,3.6,6.7c0.5-0.8,0.9-1.6,1.3-2.3c0.8-1.5,1.6-2.9,2.4-4.4
			c0.4-0.8,0.9-1.2,1.8-0.9c-0.1,0.2-0.2,0.4-0.3,0.6c-1.3,2.5-2.7,4.9-4,7.4c-0.3,0.6-0.4,1.3-0.5,2c-0.1,1,0,2,0,3
			c-0.5,0-0.9,0-1.3,0c0-1,0-2,0-2.9c0-0.8-0.2-1.5-0.6-2.1c-1.4-2.4-2.7-4.8-4-7.3C101.3,45.4,101.2,45.1,101.1,44.9z"/>
		<path fill="#FFFFFF" d="M32.3,58c0-4.9,0-9.7,0-14.7c2.2,0.1,4.3,0.1,6.4,0.4c1.4,0.2,2.2,1.2,2.6,2.6c0.3,1.4-0.1,2.5-1.4,3.6
			c1.2,0.5,2.1,1.3,2.4,2.6c0.8,2.8-1,5.3-4.1,5.5C36.3,58.1,34.4,58,32.3,58z M34,56.6c1.3,0,2.5,0,3.7,0c0.2,0,0.4,0,0.7,0
			c1.5-0.2,2.3-1.1,2.4-2.5c0.1-1.6-0.5-2.8-2-3c-1.5-0.2-3.1,0-4.7,0c0,1.5,0,3.1,0,4.6C34,55.9,34,56.1,34,56.6z M34,45
			c0,1.5,0,2.9,0,4.3c0.1,0,0.2,0.1,0.3,0.1c1.1,0,2.2,0,3.3,0c1.3,0,2-0.7,2.1-2c0.1-1.3-0.6-2.2-1.9-2.3C36.6,44.9,35.3,45,34,45z
			"/>
		<path fill="#FFFFFF" d="M131.5,56.7c0-1.8,0-3.5,0-5.3c1.5,0,2.9-0.1,4.3,0c1.5,0.2,2.2,1.4,2,3.1c-0.1,1.2-1.1,2.1-2.5,2.2
			c-1.1,0-2.3,0-3.4,0C131.8,56.7,131.7,56.7,131.5,56.7z"/>
		<path fill="#FFFFFF" d="M131.6,50.2c0-1.4,0-2.8,0-4.2c1.2,0,2.4-0.1,3.5,0c1.3,0.1,1.9,0.9,1.8,2.3c0,1.2-0.7,1.9-2,1.9
			C133.8,50.2,132.7,50.2,131.6,50.2z"/>
		<path fill="#FFFFFF" d="M188.5,51.4c0,3.2-2.3,5.5-5.3,5.6c-3.1,0-5.4-2.4-5.4-5.6c0-3.2,2.3-5.5,5.4-5.5
			C186.2,45.8,188.5,48.2,188.5,51.4z"/>
		<path fill="#FFFFFF" d="M84.9,51.4c0,3.2-2.3,5.6-5.4,5.5c-3.1,0-5.4-2.4-5.4-5.5c0-3.2,2.3-5.6,5.4-5.6
			C82.6,45.8,84.9,48.2,84.9,51.4z"/>
		<path fill="#FFFFFF" d="M159.9,54.5c-2,0-3.8,0-5.8,0c1-2.4,1.9-4.7,2.9-7.2C158,49.8,158.9,52.1,159.9,54.5z"/>
		<path d="M34,56.6c0-0.4,0-0.7,0-1c0-1.5,0-3.1,0-4.6c1.6,0,3.2-0.2,4.7,0c1.5,0.2,2.1,1.4,2,3c-0.1,1.4-1,2.3-2.4,2.5
			c-0.2,0-0.4,0-0.7,0C36.5,56.6,35.3,56.6,34,56.6z"/>
		<path d="M34,45c1.3,0,2.5-0.1,3.8,0c1.2,0.1,2,1.1,1.9,2.3c-0.1,1.3-0.8,2-2.1,2c-1.1,0-2.2,0-3.3,0c-0.1,0-0.2,0-0.3-0.1
			C34,47.9,34,46.5,34,45z"/>
	</g>
</g>
</svg>
