<?xml version="1.0" encoding="utf-8"?>
<!-- Generator: Adobe Illustrator 18.0.0, SVG Export Plug-In . SVG Version: 6.00 Build 0)  -->
<!DOCTYPE svg PUBLIC "-//W3C//DTD SVG 1.1//EN" "http://www.w3.org/Graphics/SVG/1.1/DTD/svg11.dtd">
<svg version="1.1" id="Layer_1" xmlns="http://www.w3.org/2000/svg" xmlns:xlink="http://www.w3.org/1999/xlink" x="0px" y="0px"
	 viewBox="0 0 100 100" enable-background="new 0 0 100 100" xml:space="preserve">
<rect x="15.7" y="15.5" fill="#F7931E" width="69.7" height="69"/>
<g>
	<path fill="#FFFFFF" d="M28,72.8c0,1.6-0.4,2.9-1.3,3.8c-0.9,0.9-2.1,1.4-3.6,1.4c-1,0-1.8-0.2-2.6-0.6s-1.3-1-1.7-1.8
		s-0.6-1.7-0.6-2.8c0-1.6,0.4-2.9,1.3-3.8c0.9-0.9,2.1-1.4,3.6-1.4c1,0,1.8,0.2,2.6,0.6c0.7,0.4,1.3,1,1.7,1.8
		C27.9,70.8,28,71.8,28,72.8z M21.1,72.8c0,1,0.2,1.8,0.5,2.3c0.3,0.5,0.9,0.8,1.6,0.8c0.7,0,1.3-0.3,1.6-0.8s0.5-1.3,0.5-2.3
		c0-1-0.2-1.7-0.5-2.2c-0.3-0.5-0.9-0.7-1.6-0.7c-0.7,0-1.3,0.2-1.6,0.7S21.1,71.8,21.1,72.8z"/>
	<path fill="#FFFFFF" d="M35.9,67.6c0.4,0,0.7,0,0.9,0.1l-0.2,2.6c-0.2-0.1-0.5-0.1-0.8-0.1c-0.9,0-1.6,0.2-2,0.7
		c-0.5,0.5-0.7,1.1-0.7,1.9v5.1h-2.7V67.8h2.1l0.4,1.7h0.1c0.3-0.6,0.7-1,1.3-1.4C34.7,67.8,35.3,67.6,35.9,67.6z"/>
	<path fill="#FFFFFF" d="M45.1,77.9l-0.5-1.4h-0.1c-0.5,0.6-0.9,1-1.4,1.2c-0.5,0.2-1.1,0.3-1.9,0.3c-1,0-1.7-0.3-2.3-0.8
		S38,75.9,38,74.9c0-1.1,0.4-1.9,1.1-2.4s1.9-0.8,3.4-0.8l1.7-0.1v-0.4c0-1-0.5-1.5-1.6-1.5c-0.8,0-1.8,0.2-2.8,0.7L39,68.5
		c1.2-0.6,2.4-0.9,3.9-0.9c1.4,0,2.4,0.3,3.1,0.9c0.7,0.6,1.1,1.5,1.1,2.7v6.7H45.1z M44.3,73.2l-1.1,0c-0.8,0-1.4,0.2-1.8,0.4
		s-0.6,0.7-0.6,1.2c0,0.8,0.4,1.2,1.3,1.2c0.6,0,1.1-0.2,1.5-0.5s0.6-0.9,0.6-1.5V73.2z"/>
	<path fill="#FFFFFF" d="M59.1,77.9h-2.7V72c0-0.7-0.1-1.3-0.4-1.6c-0.3-0.4-0.7-0.5-1.2-0.5c-0.8,0-1.3,0.3-1.7,0.8
		c-0.3,0.5-0.5,1.4-0.5,2.6v4.7h-2.7V67.8h2.1l0.4,1.3h0.2c0.3-0.5,0.7-0.9,1.3-1.1c0.5-0.3,1.1-0.4,1.8-0.4c1.2,0,2.1,0.3,2.7,1
		c0.6,0.6,0.9,1.5,0.9,2.7V77.9z"/>
	<path fill="#FFFFFF" d="M70.7,67.8v1.4l-1.6,0.4c0.3,0.5,0.4,1,0.4,1.5c0,1.1-0.4,1.9-1.1,2.5c-0.8,0.6-1.8,0.9-3.1,0.9l-0.5,0
		l-0.4,0c-0.3,0.2-0.4,0.5-0.4,0.7c0,0.4,0.5,0.6,1.5,0.6h1.7c1.1,0,1.9,0.2,2.5,0.7c0.6,0.5,0.9,1.2,0.9,2.1c0,1.2-0.5,2.1-1.5,2.7
		c-1,0.6-2.4,1-4.2,1c-1.4,0-2.5-0.2-3.2-0.7c-0.7-0.5-1.1-1.2-1.1-2.1c0-0.6,0.2-1.1,0.6-1.5c0.4-0.4,0.9-0.7,1.7-0.9
		c-0.3-0.1-0.5-0.3-0.7-0.6c-0.2-0.3-0.3-0.6-0.3-0.9c0-0.4,0.1-0.7,0.3-1c0.2-0.3,0.5-0.5,1-0.8c-0.5-0.2-0.9-0.6-1.3-1.1
		c-0.3-0.5-0.5-1.1-0.5-1.8c0-1.1,0.4-1.9,1.1-2.6c0.7-0.6,1.7-0.9,3.1-0.9c0.3,0,0.6,0,1,0.1s0.6,0.1,0.7,0.1H70.7z M63,79.3
		c0,0.4,0.2,0.7,0.5,0.9c0.4,0.2,0.9,0.3,1.5,0.3c1,0,1.8-0.1,2.3-0.4c0.6-0.3,0.8-0.6,0.8-1.1c0-0.4-0.2-0.6-0.5-0.8
		c-0.3-0.1-0.8-0.2-1.5-0.2h-1.4c-0.5,0-0.9,0.1-1.3,0.4C63.1,78.6,63,78.9,63,79.3z M64,71.1c0,0.5,0.1,1,0.4,1.3
		c0.2,0.3,0.6,0.5,1.1,0.5c0.5,0,0.9-0.2,1.1-0.5s0.4-0.8,0.4-1.3c0-1.2-0.5-1.8-1.5-1.8C64.5,69.3,64,69.9,64,71.1z"/>
	<path fill="#FFFFFF" d="M77,78c-1.6,0-2.9-0.4-3.8-1.3c-0.9-0.9-1.4-2.2-1.4-3.8c0-1.7,0.4-3,1.3-3.9c0.8-0.9,2-1.4,3.5-1.4
		c1.4,0,2.5,0.4,3.3,1.2c0.8,0.8,1.2,1.9,1.2,3.4v1.3h-6.5c0,0.8,0.3,1.4,0.7,1.8s1,0.7,1.8,0.7c0.6,0,1.2-0.1,1.7-0.2
		c0.5-0.1,1.1-0.3,1.7-0.6v2.1c-0.5,0.2-1,0.4-1.5,0.5S77.8,78,77,78z M76.6,69.6c-0.6,0-1,0.2-1.4,0.6c-0.3,0.4-0.5,0.9-0.6,1.6
		h3.9c0-0.7-0.2-1.2-0.5-1.6C77.6,69.7,77.2,69.6,76.6,69.6z"/>
</g>
</svg>
