<?xml version="1.0" encoding="utf-8"?>
<!-- Generator: Adobe Illustrator 18.0.0, SVG Export Plug-In . SVG Version: 6.00 Build 0)  -->
<!DOCTYPE svg PUBLIC "-//W3C//DTD SVG 1.1//EN" "http://www.w3.org/Graphics/SVG/1.1/DTD/svg11.dtd">
<svg version="1.1" xmlns="http://www.w3.org/2000/svg" xmlns:xlink="http://www.w3.org/1999/xlink" x="0px" y="0px"
	 viewBox="0 0 100 100" enable-background="new 0 0 100 100" xml:space="preserve">
<g id="Layer_1">
</g>
<g id="Layer_2">
	<g>
		<path fill="#E14927" d="M32.9,19.7c4.3-1.8,8.7-3.6,13-5.5c1.3-0.5,2.6-1.1,3.9-1.7c0.2,0,0.3,0,0.5,0c2.6,1.4,5.3,2.3,8,3.5
			c3,1.3,6,2.3,8.9,3.8c-0.1,0-0.1,0.1-0.2,0.1c-1.1,0.2-2.1,0.8-3.1,1.2c-4.6,1.9-9.1,3.8-13.7,5.7c-0.2,0-0.4,0-0.6,0
			c-1.4-0.6-2.8-1.1-4.1-1.7c-0.6-0.3-0.8,0-1,0.5c-0.5,1.4-1.1,2.8-1.6,4.2c-0.1,0.1-0.1,0.1-0.2,0.2c-1.4,0.3-2.7,1.1-4.1,1.6
			c-0.5,0.2-0.9,0.3-1.2-0.4C36,27.3,34.2,23.6,32.9,19.7z"/>
		<path fill="#074952" d="M50,61.2c-2.4-0.7-4.6-1.8-6.8-2.7c-3.5-1.4-6.9-2.9-10.3-4.3c1.8-0.8,3.6-1.5,5.4-2.3
			c2.2-1,4.6-1.7,6.6-2.9c1.7-0.4,3.2-1.4,4.9-1.9c1.9,0.3,3.5,1.2,5.2,2c-0.8,1.9-1.5,3.8-2.3,5.6c-0.8,2.1-1.9,4.1-2.4,6.3l0,0
			C50.2,61.2,50.1,61.2,50,61.2z"/>
		<path fill="#084B75" d="M44.9,49c-2.1,1.3-4.4,1.9-6.6,2.9c-1.8,0.8-3.6,1.5-5.4,2.3c-1.1-1.9-1.8-4-2.6-6
			c-1.6-3.7-3-7.4-4.6-11.1c0.2,0.1,0.5,0.1,0.7,0.2c3.8,1.5,7.6,3.1,11.4,4.6c1.6,0.7,3.2,1.5,4.9,2c0.1,0.1,0.1,0.2,0.2,0.2
			C43.4,45.9,44.1,47.5,44.9,49z"/>
		<path fill="#B0215A" d="M32.9,19.7c1.3,3.9,3.1,7.6,4.6,11.4c0.3,0.6,0.6,0.6,1.2,0.4c1.4-0.5,2.6-1.3,4.1-1.6
			c-0.9,2.4-1.9,4.8-2.8,7.1c0,0-0.1,0.1-0.1,0.1c-0.3-1.4-1.1-2.6-1.5-3.9c-0.4-1.3-1-1.1-1.9-0.7c-3.5,1.5-7.1,2.9-10.6,4.3
			c1.7-4.1,3.4-8.3,5.1-12.4C31.4,22.9,31.9,21.2,32.9,19.7z"/>
		<path fill="#82BE42" d="M74.3,36.9c-0.8,2.5-1.9,4.9-2.9,7.3c-1.3,3.3-2.8,6.6-4.2,9.8c-0.1,0-0.1,0-0.2,0
			c-1.3-3.9-3.1-7.7-4.7-11.6c-0.2-0.6-0.6-0.2-0.9-0.1c-1.4,0.4-2.5,1.3-4,1.4c0.7-2.2,1.6-4.3,2.6-6.4c0.5,1.2,1,2.3,1.5,3.5
			c0.4,0.9,0.8,1.2,1.8,0.7c1.4-0.6,2.8-1.1,4.2-1.8c2.2-1,4.5-1.7,6.6-2.9C74.1,36.9,74.2,36.9,74.3,36.9z"/>
		<path fill="#FBD20F" d="M67,20c0.1,0,0.1-0.1,0.2-0.1c1.7,3.6,3.1,7.4,4.7,11.1c0.8,1.9,1.5,3.8,2.3,5.6c0,0-0.1,0.1-0.1,0.1
			c-0.8-0.1-1.4-0.5-2.2-0.8c-3.3-1.2-6.5-2.8-9.8-3.9c0-0.1,0-0.2,0-0.2c0.2-0.2,0.4-0.3,0.5-0.5c0.8-1.8,1.5-3.6,2.2-5.4
			C65.4,23.9,66.5,22,67,20z"/>
		<path fill="#16753D" d="M67,54c0.1,0,0.1,0,0.2,0c-0.8,0.7-1.9,0.9-2.8,1.3c-4.7,1.9-9.4,3.9-14.1,5.8c0.5-2.2,1.6-4.2,2.4-6.3
			c0.7-1.9,1.5-3.8,2.3-5.6c1.1,0.4,2.2,0.9,3.3,1.3C61.1,51.7,64,53.1,67,54z"/>
		<path fill="#782258" d="M25.7,36.9c3.5-1.4,7.1-2.9,10.6-4.3c1-0.4,1.6-0.6,1.9,0.7c0.4,1.3,1.1,2.5,1.5,3.9
			c-0.6,1.6-1.3,3.3-1.9,4.9c-3.8-1.5-7.6-3.1-11.4-4.6c-0.2-0.1-0.5-0.1-0.7-0.2C25.6,37,25.5,37,25.7,36.9z"/>
		<path fill="#FBD20F" d="M74.3,36.9c-0.1,0-0.1,0-0.2,0c0-0.1,0-0.2,0-0.2c0,0,0.1-0.1,0.1-0.1C74.2,36.7,74.2,36.8,74.3,36.9z"/>
		<path fill="#16753D" d="M50,61.2c0.1,0,0.1-0.1,0.2-0.1C50.2,61.2,50.1,61.2,50,61.2z"/>
		<path fill="#F8DE02" d="M62,31.7c0,0.1,0,0.2,0,0.2c-0.1,0.3-0.2,0.7-0.3,1c-0.5,1.5-1.3,2.8-1.7,4.4c-1,2.1-1.9,4.2-2.6,6.4
			c-2.4,1.4-5,2.3-7.6,3.3c-2.3-0.9-4.6-1.9-6.9-2.8c-0.1-0.1-0.1-0.2-0.2-0.2c-0.9-2.3-1.9-4.6-2.8-6.9c0.9-2.4,1.9-4.8,2.8-7.1
			c0.1-0.1,0.1-0.1,0.2-0.2c2.3-1,4.5-1.9,6.8-2.9c0.2,0,0.4,0,0.6,0C54.1,28.7,58.1,30.2,62,31.7z"/>
		<path fill="#F9A11E" d="M62,31.7c-4-1.6-7.9-3.1-11.8-4.9c4.6-1.9,9.1-3.8,13.7-5.7c1-0.4,2-1,3.1-1.2c-0.4,2.1-1.5,3.9-2.3,5.9
			c-0.7,1.8-1.5,3.6-2.2,5.4C62.4,31.4,62.2,31.6,62,31.7z"/>
		<path fill="#B0215A" d="M49.7,26.8c-2.3,1-4.5,1.9-6.8,2.9c0.5-1.4,1.1-2.8,1.6-4.2c0.2-0.5,0.4-0.7,1-0.5
			C46.9,25.7,48.3,26.3,49.7,26.8z"/>
		<path fill="#FCFCFB" d="M50.8,86.3c-0.4-0.2-1,0.3-1-0.5c0-0.5,0.4-0.8,0.9-0.8c0.5,0,0.8,0.3,0.8,0.8C51.6,86.6,51,86,50.8,86.3z
			"/>
		<path fill="#FCFCFB" d="M44.5,86.2c-0.3-0.1-0.8,0.2-0.8-0.4c0-0.5,0.4-0.8,0.9-0.8c0.5,0,0.9,0.3,0.8,0.8
			C45.4,86.5,44.8,86.1,44.5,86.2z"/>
		<path fill="#3EAF4A" d="M49.8,47c2.6-0.9,5.2-1.8,7.6-3.3c1.5-0.2,2.6-1,4-1.4c0.3-0.1,0.6-0.5,0.9,0.1c1.5,3.9,3.3,7.6,4.7,11.6
			c-3-0.9-5.8-2.4-8.8-3.5c-1.1-0.4-2.2-0.9-3.3-1.3c-1.7-0.8-3.3-1.7-5.2-2C49.8,47.1,49.8,47.1,49.8,47z"/>
		<path fill="#1584BC" d="M49.8,47c0,0-0.1,0.1-0.1,0.1c-1.7,0.5-3.2,1.4-4.9,1.9c-0.7-1.6-1.4-3.2-2-4.8
			C45.2,45.2,47.5,46.1,49.8,47z"/>
		<path fill="#1584BC" d="M39.9,37c0.9,2.3,1.9,4.6,2.8,6.9c-1.7-0.5-3.3-1.3-4.9-2c0.6-1.6,1.3-3.3,1.9-4.9
			C39.8,37.1,39.8,37.1,39.9,37z"/>
		<path fill="#C0D430" d="M60.1,37.4c0.4-1.5,1.2-2.9,1.7-4.4c0.1-0.3,0.2-0.7,0.3-1c3.4,1.1,6.5,2.7,9.8,3.9
			c0.7,0.3,1.4,0.7,2.2,0.8c0,0.1,0,0.2,0,0.3c-2.1,1.2-4.4,1.9-6.6,2.9c-1.4,0.6-2.8,1.1-4.2,1.8c-0.9,0.4-1.4,0.2-1.8-0.7
			C61.1,39.6,60.6,38.5,60.1,37.4z"/>
		<g>
			<path fill="#0A2A42" d="M18.1,68.5c0-2.5,1.5-3.2,3.4-3.2c1.8,0,3.9,0.2,4.8,0.5v1.9c-1.1-0.1-3.6-0.2-4.2-0.2
				c-1,0-1.6,0-1.6,1.2v0.6c0,1,0.4,1.2,1.3,1.2h2c2.5,0,3,1.9,3,3.3v0.8c0,2.8-1.8,3.4-3.5,3.4c-2.1,0-3.5-0.1-4.8-0.5v-1.9
				c0.7,0.1,2.8,0.2,4.4,0.2c0.7,0,1.5-0.1,1.5-1.1v-0.7c0-0.7-0.2-1.2-1.1-1.2h-1.9c-3,0-3.2-2.2-3.2-3.3V68.5z"/>
			<path fill="#0A2A42" d="M28.1,65.4h5.4c1.6,0,3.5,0.5,3.5,3.9c0,3.8-2,4.1-3.5,4c-0.7,0-2.9-0.3-3-0.3v5h-2.4V65.4z M33.3,71.1
				c0.8,0,1.2-0.4,1.2-1.9c0-1.5-0.6-1.8-1.2-1.8h-2.8v3.6H33.3z"/>
			<path fill="#0A2A42" d="M38.6,65.4H41v5.4h4.3v-5.4h2.4v12.5h-2.4v-4.9H41v4.9h-2.4V65.4z"/>
			<path fill="#0A2A42" d="M49.4,68c0-2.2,1.5-2.6,2.7-2.6c0,0,4.4,0.1,5.5,0.3v2h-4.9c-0.9,0-0.9,0.5-0.9,1v2l5,0.2v2l-5,0.2v1.9
				c0,0.9,0.6,0.9,1.1,0.9h4.8v2c-1,0.1-5.3,0.3-5.3,0.3c-1.1,0.1-2.9-0.2-2.9-2.5V68z"/>
			<path fill="#0A2A42" d="M59,65.4h5.5c1.9,0,3.4,0.9,3.4,3.9c0,3.1-1.3,3.5-2,3.7l2.4,4.9h-2.7l-2.1-4.7l-2.1-0.2v5H59V65.4z
				 M64.2,71c0.8,0,1.2-0.2,1.2-1.8c0-1.4-0.5-1.8-1.2-1.8h-2.8V71H64.2z"/>
			<path fill="#0A2A42" d="M69.5,65.4h2.4v12.5h-2.4V65.4z"/>
			<path fill="#0A2A42" d="M73.7,65.4H76v5.2h1l3.2-5.2h2.8l-3.8,6.3l3.8,6.2h-2.8L77,72.7h-1v5.2h-2.3V65.4z"/>
		</g>
		<g>
			<path fill="#0A2A42" d="M35,85c0-0.5,0.3-0.8,0.9-0.8c0,0,1.2,0,1.2,0c0,0,0-0.3,0-0.4c0-0.4-0.2-0.5-0.5-0.5c-0.4,0-1,0-1.5,0.1
				v-0.4c0.4-0.1,0.9-0.2,1.5-0.2c0.6,0,1,0.3,1,1v2.3h-0.4l-0.1-0.4c0,0-0.7,0.4-1.3,0.4c-0.5,0-0.8-0.3-0.8-0.8V85z M35.9,85.7
				c0.5,0,1.2-0.3,1.2-0.3v-0.8l-1.2,0.1c-0.3,0-0.3,0.2-0.3,0.4v0.3C35.6,85.6,35.7,85.7,35.9,85.7z"/>
			<path fill="#0A2A42" d="M39.3,82.9c0.3,0,1,0.1,1.4,0.2v0.4c0,0-0.8,0-1.3,0c-0.4,0-0.6,0.1-0.6,1.2c0,0.9,0.2,1.1,0.6,1.1
				c0.6,0,1.4-0.1,1.4-0.1V86c-0.5,0.2-1,0.2-1.5,0.2c-0.6,0-1.1-0.3-1.1-1.6C38.2,83.2,38.7,82.9,39.3,82.9z"/>
			<path fill="#0A2A42" d="M42.2,82.9c0.3,0,1,0.1,1.4,0.2v0.4c0,0-0.8,0-1.3,0c-0.4,0-0.6,0.1-0.6,1.2c0,0.9,0.2,1.1,0.6,1.1
				c0.6,0,1.4-0.1,1.4-0.1V86c-0.5,0.2-1,0.2-1.5,0.2c-0.6,0-1.1-0.3-1.1-1.6C41.1,83.2,41.6,82.9,42.2,82.9z"/>
			<path fill="#0A2A42" d="M45.5,82.9c0.8,0,1.3,0.1,1.3,1.2c0,0.5-0.3,0.8-0.9,0.8h-1.3c0,0.7,0.2,0.9,0.6,0.9c0.5,0,1,0,1.4-0.1
				V86c-0.5,0.1-1.1,0.2-1.6,0.2c-0.8,0-1.1-0.4-1.1-1.7C44,83.1,44.4,82.9,45.5,82.9z M45.8,84.3c0.2,0,0.4-0.1,0.4-0.3
				c0-0.6-0.1-0.6-0.7-0.6c-0.6,0-0.9,0-0.9,0.9H45.8z"/>
			<path fill="#0A2A42" d="M47.3,81.4h0.6V85c0,0.5,0.1,0.6,0.3,0.7c0,0,0.5,0.1,0.5,0.1v0.4h-0.6c-0.5,0-0.8-0.3-0.8-1.2V81.4z"/>
			<path fill="#0A2A42" d="M50.2,82.9c0.8,0,1.3,0.1,1.3,1.2c0,0.5-0.3,0.8-0.9,0.8h-1.3c0,0.7,0.2,0.9,0.6,0.9c0.5,0,1,0,1.4-0.1
				V86c-0.5,0.1-1.1,0.2-1.6,0.2c-0.8,0-1.1-0.4-1.1-1.7C48.8,83.1,49.2,82.9,50.2,82.9z M50.6,84.3c0.2,0,0.4-0.1,0.4-0.3
				c0-0.6-0.1-0.6-0.7-0.6c-0.6,0-0.9,0-0.9,0.9H50.6z"/>
			<path fill="#0A2A42" d="M52.1,82.9h0.4l0.1,0.4c0.3-0.2,0.7-0.4,1.1-0.4c0.2,0,0.4,0,0.4,0v0.5c-0.1,0-0.3,0-0.5,0
				c-0.4,0-0.7,0.1-1.1,0.4v2.4h-0.6V82.9z"/>
			<path fill="#0A2A42" d="M54.5,85c0-0.5,0.3-0.8,0.8-0.8c0,0,1.2,0,1.2,0c0,0,0-0.3,0-0.4c0-0.4-0.2-0.5-0.5-0.5
				c-0.4,0-1,0-1.5,0.1v-0.4c0.4-0.1,0.9-0.2,1.6-0.2c0.6,0,1,0.3,1,1v2.3h-0.4l-0.1-0.4c0,0-0.7,0.4-1.2,0.4
				c-0.5,0-0.8-0.3-0.8-0.8V85z M55.4,85.7c0.5,0,1.2-0.3,1.2-0.3v-0.8l-1.2,0.1c-0.3,0-0.3,0.2-0.3,0.4v0.3
				C55.1,85.6,55.3,85.7,55.4,85.7z"/>
			<path fill="#0A2A42" d="M57.6,83.1l0.6-0.1l0.1-0.9h0.4v0.9h0.9v0.5h-0.9V85c0,0.5,0.1,0.6,0.3,0.7c0,0,0.5,0.1,0.5,0.1v0.4H59
				c-0.5,0-0.8-0.3-0.8-1.2v-1.6h-0.6V83.1z"/>
			<path fill="#0A2A42" d="M61.5,82.9c1.1,0,1.4,0.4,1.4,1.7c0,1.2-0.3,1.6-1.4,1.6c-1.1,0-1.4-0.4-1.4-1.6
				C60.1,83.3,60.4,82.9,61.5,82.9z M61.5,85.7c0.6,0,0.9-0.1,0.9-1.1c0-1.1-0.2-1.2-0.9-1.2c-0.6,0-0.9,0.1-0.9,1.2
				C60.6,85.6,60.9,85.7,61.5,85.7z"/>
			<path fill="#0A2A42" d="M63.6,82.9H64l0.1,0.4c0.3-0.2,0.7-0.4,1.1-0.4c0.2,0,0.4,0,0.4,0v0.5c-0.1,0-0.3,0-0.5,0
				c-0.5,0-0.7,0.1-1.1,0.4v2.4h-0.6V82.9z"/>
		</g>
	</g>
</g>
</svg>
