<?xml version="1.0" encoding="utf-8"?>
<!-- Generator: Adobe Illustrator 18.0.0, SVG Export Plug-In . SVG Version: 6.00 Build 0)  -->
<!DOCTYPE svg PUBLIC "-//W3C//DTD SVG 1.1//EN" "http://www.w3.org/Graphics/SVG/1.1/DTD/svg11.dtd">
<svg version="1.1" id="Layer_1" xmlns="http://www.w3.org/2000/svg" xmlns:xlink="http://www.w3.org/1999/xlink" x="0px" y="0px"
	 viewBox="0 0 100 100" enable-background="new 0 0 100 100" xml:space="preserve">
<g>
	<polygon fill="#EB008B" points="26.6,77.4 22.5,77.4 22.5,65.6 18.9,65.6 18.9,62.3 30.3,62.3 30.3,65.6 26.6,65.6 	"/>
	<polygon fill="#EB008B" points="44.9,77.4 35.9,77.4 35.9,62.3 44.9,62.3 44.9,65.6 40,65.6 40,68 44.5,68 44.5,71.2 40,71.2 
		40,74.1 44.9,74.1 	"/>
	<path fill="#EB008B" d="M57.8,65.4c-1,0-1.7,0.4-2.3,1.2c-0.5,0.8-0.8,1.9-0.8,3.3c0,2.9,1.1,4.4,3.3,4.4c0.7,0,1.3-0.1,1.9-0.3
		c0.6-0.2,1.3-0.4,1.9-0.7v3.5c-1.3,0.6-2.7,0.8-4.3,0.8c-2.3,0-4-0.7-5.2-2c-1.2-1.3-1.8-3.2-1.8-5.7c0-1.6,0.3-2.9,0.9-4.1
		c0.6-1.2,1.4-2.1,2.5-2.7c1.1-0.6,2.4-1,3.9-1c1.6,0,3.2,0.4,4.7,1.1l-1.3,3.2c-0.6-0.3-1.1-0.5-1.7-0.7
		C59,65.5,58.4,65.4,57.8,65.4"/>
	<polygon fill="#EB008B" points="81.2,77.4 77.1,77.4 77.1,71.3 72.3,71.3 72.3,77.4 68.2,77.4 68.2,62.3 72.3,62.3 72.3,67.9 
		77.1,67.9 77.1,62.3 81.2,62.3 	"/>
	<path fill="#EB008B" d="M63,43.9c-1.5,3.1-4.1,5.6-7.2,7l7.2,6.4h6.3L63,43.9z"/>
	<path fill="#CC007A" d="M63,43.9c-1.5,3-3.9,5.4-7,6.8l9.2-2L63,43.9z"/>
	<path fill="#B31E8D" d="M64.3,38.6c-0.3,5-3.2,9.3-7.3,11.6l19.3-8.5l0.4-5L64.3,38.6z"/>
	<path fill="#9D127C" d="M64.3,38.6c-0.1,1.2-0.3,2.3-0.6,3.4l7-4.4L64.3,38.6z"/>
	<path fill="#0074A3" d="M62.8,31.1c1,2,1.6,4.2,1.6,6.6c0,0.7,0,1.3-0.1,2l18.1-11.3l0.5-5.6L62.8,31.1z"/>
	<path fill="#006089" d="M62.8,31.1c0.5,1,0.9,2,1.2,3.1l4.6-5.5L62.8,31.1z"/>
	<path fill="#005479" d="M58.6,26.1c2,1.5,3.6,3.4,4.6,5.7l22.5-19l0.7-6.2L58.6,26.1z"/>
	<path fill="#EB008B" d="M37.1,43.9c1.5,3.1,4.1,5.6,7.2,7l-7.2,6.4h-6.3L37.1,43.9z"/>
	<path fill="#CC007A" d="M37.1,43.9c1.5,3,3.9,5.4,7,6.8l-9.2-2L37.1,43.9z"/>
	<path fill="#B31E8D" d="M35.7,38.6c0.3,5,3.2,9.3,7.3,11.6l-19.3-8.5l-0.4-5L35.7,38.6z"/>
	<path fill="#9D127C" d="M35.7,38.6c0.1,1.2,0.3,2.3,0.6,3.4l-7-4.4L35.7,38.6z"/>
	<path fill="#0074A3" d="M37.3,31.1c-1,2-1.6,4.2-1.6,6.6c0,0.7,0,1.3,0.1,2L17.7,28.3l-0.5-5.6L37.3,31.1z"/>
	<path fill="#006089" d="M37.2,31.1c-0.5,1-0.9,2-1.2,3.1l-4.6-5.5L37.2,31.1z"/>
	<path fill="#005479" d="M41.5,26.1c-2,1.5-3.6,3.4-4.6,5.7l-22.5-19l-0.7-6.2L41.5,26.1z"/>
	<path fill="#005479" d="M62.2,35.9c-3-0.6-9-0.6-10.6,0.1c-0.6,0.3-1.2,0.3-1.7,0.3c-0.5,0-1.1-0.1-1.7-0.3
		c-1.6-0.7-7.6-0.7-10.6-0.1c-0.2,1.1-0.1,1.5,0,2c0.6,0.8,0.6,2.3,1.2,3.4c0.5,0.9,6.6,1.9,8.7,0.2c1.3-1,1.3-3.6,2.3-3.6
		c1,0,1,2.5,2.3,3.6c2.2,1.6,8.2,0.7,8.7-0.2c0.6-1.1,0.5-2.6,1.2-3.4C62.4,37.4,62.5,37,62.2,35.9 M46.4,40.8
		c-1.2,0.9-5.5,0.7-6.2-0.3c-0.7-1-0.9-3.3-0.3-3.6c0.3-0.2,0.6-0.2,0.9-0.3c5.8-0.5,6.3,0.3,6.5,0.6C47.7,37.6,47.8,39.8,46.4,40.8
		 M59.7,40.5c-0.7,0.9-4.9,1.1-6.2,0.3c-1.4-1-1.2-3.2-0.9-3.5c0.3-0.3,0.7-1.1,6.5-0.6c0.3,0,0.6,0.1,0.9,0.3
		C60.7,37.3,60.5,39.5,59.7,40.5 M58.5,37.6c-0.1,0.9-1,1.5-2.1,1.5s-2-0.7-2.1-1.5H58.5z M45.7,37.6c-0.1,0.9-1,1.5-2.1,1.5
		c-1.1,0-2-0.7-2.1-1.5H45.7z"/>
	<polygon fill="#EB008B" points="12.3,92.5 12.3,82.4 13.9,82.4 13.9,91.1 18.2,91.1 18.2,92.5 	"/>
	<path fill="#EB008B" d="M32.6,87.4c0,1.6-0.4,2.9-1.2,3.8c-0.8,0.9-2,1.4-3.5,1.4c-1.5,0-2.7-0.4-3.5-1.3c-0.8-0.9-1.2-2.2-1.2-3.8
		c0-1.7,0.4-2.9,1.2-3.8c0.8-0.9,2-1.3,3.5-1.3c1.5,0,2.6,0.5,3.5,1.4C32.2,84.5,32.6,85.8,32.6,87.4 M24.9,87.4
		c0,1.2,0.2,2.2,0.7,2.8c0.5,0.6,1.2,1,2.2,1c1,0,1.7-0.3,2.2-0.9c0.5-0.6,0.7-1.6,0.7-2.8c0-1.2-0.2-2.2-0.7-2.8
		c-0.5-0.6-1.2-1-2.2-1c-1,0-1.7,0.3-2.2,1C25.2,85.3,24.9,86.2,24.9,87.4"/>
	<path fill="#EB008B" d="M46.5,82.4v6.5c0,0.7-0.2,1.4-0.5,1.9c-0.3,0.6-0.8,1-1.4,1.3c-0.6,0.3-1.3,0.4-2.2,0.4
		c-1.2,0-2.2-0.3-2.9-1c-0.7-0.7-1-1.6-1-2.7v-6.5h1.6v6.3c0,0.8,0.2,1.4,0.6,1.8c0.4,0.4,1,0.6,1.8,0.6c1.5,0,2.3-0.8,2.3-2.4v-6.3
		H46.5z"/>
	<path fill="#EB008B" d="M61.4,92.5h-2l-4.9-8h-0.1l0,0.4c0.1,0.9,0.1,1.6,0.1,2.3v5.2H53v-10h2l4.9,8h0c0-0.1,0-0.5-0.1-1.1
		c0-0.7,0-1.2,0-1.5v-5.3h1.5V92.5z"/>
	<path fill="#EB008B" d="M72,87h3.7v5c-0.6,0.2-1.2,0.3-1.7,0.4c-0.6,0.1-1.2,0.1-1.8,0.1c-1.5,0-2.7-0.4-3.5-1.3
		c-0.8-0.9-1.2-2.2-1.2-3.8c0-1.6,0.5-2.9,1.4-3.8c0.9-0.9,2.2-1.4,3.8-1.4c1,0,2,0.2,3,0.6l-0.6,1.4c-0.8-0.4-1.6-0.6-2.4-0.6
		c-1.1,0-1.9,0.3-2.5,1c-0.6,0.7-0.9,1.6-0.9,2.8c0,1.2,0.3,2.2,0.8,2.8c0.6,0.6,1.4,1,2.4,1c0.5,0,1.1-0.1,1.7-0.2v-2.6H72V87z"/>
	<polygon fill="#EB008B" points="87.8,92.5 82.1,92.5 82.1,82.4 87.8,82.4 87.8,83.8 83.8,83.8 83.8,86.5 87.5,86.5 87.5,87.9 
		83.8,87.9 83.8,91.1 87.8,91.1 	"/>
</g>
</svg>
