<?xml version="1.0" encoding="utf-8"?>
<!-- Generator: Adobe Illustrator 18.0.0, SVG Export Plug-In . SVG Version: 6.00 Build 0)  -->
<!DOCTYPE svg PUBLIC "-//W3C//DTD SVG 1.1//EN" "http://www.w3.org/Graphics/SVG/1.1/DTD/svg11.dtd">
<svg version="1.1" id="Layer_1" xmlns="http://www.w3.org/2000/svg" xmlns:xlink="http://www.w3.org/1999/xlink" x="0px" y="0px"
	 viewBox="0 0 163.2 100" enable-background="new 0 0 163.2 100" xml:space="preserve">
<g>
	<g>
		<path fill="#1A1A1A" d="M28.4,43.4h-2.6V28.2c0-1.2,0.1-2.7,0.2-4.4h-0.1c-0.3,1-0.5,1.7-0.7,2.2l-7.7,17.4h-1.3L8.5,26.2
			c-0.2-0.5-0.4-1.3-0.7-2.3H7.8c0.1,0.9,0.1,2.4,0.1,4.4v15.1H5.4V20.8h3.5l6.9,15.8c0.5,1.2,0.9,2.1,1,2.7h0.1
			c0.5-1.2,0.8-2.2,1.1-2.8l7.1-15.7h3.3V43.4z"/>
		<path fill="#1A1A1A" d="M35.3,23.2c-0.5,0-0.9-0.2-1.2-0.5c-0.3-0.3-0.5-0.7-0.5-1.2s0.2-0.9,0.5-1.2c0.3-0.3,0.7-0.5,1.2-0.5
			c0.5,0,0.9,0.2,1.2,0.5c0.3,0.3,0.5,0.7,0.5,1.2c0,0.5-0.2,0.9-0.5,1.2S35.8,23.2,35.3,23.2z M36.6,43.4H34V27.3h2.6V43.4z"/>
		<path fill="#1A1A1A" d="M52.8,42.7c-1.2,0.7-2.7,1.1-4.4,1.1c-2.3,0-4.2-0.7-5.6-2.2s-2.1-3.4-2.1-5.8c0-2.7,0.8-4.8,2.3-6.4
			s3.6-2.4,6.1-2.4c1.4,0,2.7,0.3,3.8,0.8v2.6c-1.2-0.8-2.5-1.3-3.8-1.3c-1.6,0-3,0.6-4.1,1.8c-1.1,1.2-1.6,2.7-1.6,4.7
			c0,1.9,0.5,3.4,1.5,4.5c1,1.1,2.3,1.6,4,1.6c1.4,0,2.7-0.5,4-1.4V42.7z"/>
		<path fill="#1A1A1A" d="M65.1,29.9c-0.5-0.3-1.1-0.5-2-0.5c-1.1,0-2,0.5-2.8,1.6c-0.7,1-1.1,2.5-1.1,4.3v8.2h-2.6V27.3h2.6v3.3
			h0.1c0.4-1.1,0.9-2,1.7-2.7c0.8-0.6,1.6-1,2.5-1c0.7,0,1.2,0.1,1.5,0.2V29.9z"/>
		<path fill="#1A1A1A" d="M74.3,43.8c-2.4,0-4.3-0.8-5.7-2.3s-2.1-3.5-2.1-6c0-2.7,0.7-4.8,2.2-6.4c1.5-1.5,3.5-2.3,6-2.3
			c2.4,0,4.3,0.7,5.6,2.2c1.3,1.5,2,3.5,2,6.2c0,2.6-0.7,4.6-2.2,6.2C78.7,43,76.7,43.8,74.3,43.8z M74.5,29.1c-1.7,0-3,0.6-3.9,1.7
			c-1,1.1-1.5,2.7-1.5,4.7c0,1.9,0.5,3.4,1.5,4.5c1,1.1,2.3,1.7,3.9,1.7c1.7,0,3-0.5,3.9-1.6c0.9-1.1,1.3-2.6,1.3-4.6
			c0-2-0.4-3.6-1.3-4.7C77.4,29.6,76.1,29.1,74.5,29.1z"/>
		<path fill="#1A1A1A" d="M85.5,42.8V40c1.4,1,3,1.6,4.7,1.6c2.3,0,3.4-0.8,3.4-2.3c0-0.4-0.1-0.8-0.3-1.1c-0.2-0.3-0.5-0.6-0.8-0.8
			s-0.7-0.4-1.2-0.6c-0.4-0.2-0.9-0.4-1.4-0.6c-0.7-0.3-1.3-0.6-1.9-0.9c-0.5-0.3-1-0.6-1.4-1c-0.4-0.4-0.6-0.8-0.8-1.2
			c-0.2-0.5-0.3-1-0.3-1.6c0-0.8,0.2-1.4,0.5-2s0.8-1.1,1.4-1.5c0.6-0.4,1.2-0.7,2-0.9c0.7-0.2,1.5-0.3,2.3-0.3
			c1.4,0,2.6,0.2,3.8,0.7v2.6c-1.2-0.8-2.6-1.2-4.1-1.2c-0.5,0-0.9,0.1-1.3,0.2s-0.7,0.3-1,0.5s-0.5,0.4-0.6,0.7
			c-0.2,0.3-0.2,0.6-0.2,0.9c0,0.4,0.1,0.8,0.2,1.1s0.4,0.5,0.7,0.8s0.7,0.4,1.1,0.6c0.4,0.2,0.9,0.4,1.4,0.6
			c0.7,0.3,1.4,0.6,1.9,0.8c0.6,0.3,1.1,0.6,1.5,1c0.4,0.4,0.7,0.8,0.9,1.3c0.2,0.5,0.3,1,0.3,1.7c0,0.8-0.2,1.5-0.5,2.1
			c-0.4,0.6-0.8,1.1-1.4,1.5c-0.6,0.4-1.3,0.7-2,0.9c-0.8,0.2-1.6,0.3-2.4,0.3C88.1,43.8,86.7,43.5,85.5,42.8z"/>
		<path fill="#1A1A1A" d="M106.9,43.8c-2.4,0-4.3-0.8-5.7-2.3S99,38,99,35.5c0-2.7,0.7-4.8,2.2-6.4c1.5-1.5,3.5-2.3,6-2.3
			c2.4,0,4.3,0.7,5.6,2.2c1.3,1.5,2,3.5,2,6.2c0,2.6-0.7,4.6-2.2,6.2C111.3,43,109.3,43.8,106.9,43.8z M107.1,29.1
			c-1.7,0-3,0.6-3.9,1.7c-1,1.1-1.5,2.7-1.5,4.7c0,1.9,0.5,3.4,1.5,4.5c1,1.1,2.3,1.7,3.9,1.7c1.7,0,3-0.5,3.9-1.6
			c0.9-1.1,1.3-2.6,1.3-4.6c0-2-0.4-3.6-1.3-4.7C110,29.6,108.8,29.1,107.1,29.1z"/>
		<path fill="#1A1A1A" d="M126.5,21.8c-0.5-0.3-1.1-0.4-1.7-0.4c-1.8,0-2.7,1.1-2.7,3.4v2.5h3.8v2.2H122v13.9h-2.6V29.5h-2.8v-2.2
			h2.8v-2.6c0-1.7,0.5-3,1.5-4c1-1,2.2-1.5,3.7-1.5c0.8,0,1.4,0.1,1.9,0.3V21.8z"/>
		<path fill="#1A1A1A" d="M136.6,43.2c-0.6,0.3-1.4,0.5-2.4,0.5c-2.8,0-4.2-1.6-4.2-4.7v-9.6h-2.8v-2.2h2.8v-3.9l2.6-0.8v4.8h4.1
			v2.2h-4.1v9.1c0,1.1,0.2,1.9,0.6,2.3c0.4,0.5,1,0.7,1.8,0.7c0.7,0,1.2-0.2,1.7-0.5V43.2z"/>
	</g>
	<g>
		<path fill="#1A1A1A" d="M20.1,50.1l-7.5,14.2v8.4H10v-8.3L2.7,50.1h3l5.1,10.2c0.1,0.1,0.2,0.6,0.6,1.4h0c0.1-0.4,0.3-0.8,0.6-1.4
			l5.3-10.2H20.1z"/>
		<path fill="#1A1A1A" d="M26.8,73.1c-2.4,0-4.3-0.8-5.7-2.3c-1.4-1.5-2.1-3.5-2.1-6c0-2.7,0.7-4.8,2.2-6.4s3.5-2.3,6-2.3
			c2.4,0,4.3,0.7,5.6,2.2c1.4,1.5,2,3.5,2,6.2c0,2.6-0.7,4.6-2.2,6.2C31.2,72.3,29.2,73.1,26.8,73.1z M27,58.4c-1.7,0-3,0.6-3.9,1.7
			c-1,1.1-1.4,2.7-1.4,4.7c0,1.9,0.5,3.4,1.5,4.5c1,1.1,2.3,1.7,3.9,1.7c1.7,0,3-0.5,3.9-1.6s1.3-2.6,1.3-4.6c0-2-0.4-3.6-1.3-4.7
			S28.7,58.4,27,58.4z"/>
		<path fill="#1A1A1A" d="M52,72.7h-2.6v-2.6h-0.1c-1.1,2-2.7,2.9-5,2.9c-3.8,0-5.8-2.3-5.8-6.9v-9.6h2.6v9.2c0,3.4,1.3,5.1,3.9,5.1
			c1.3,0,2.3-0.5,3.1-1.4c0.8-0.9,1.2-2.1,1.2-3.6v-9.3H52V72.7z"/>
		<path fill="#1A1A1A" d="M64.7,72.6c-0.6,0.3-1.4,0.5-2.4,0.5c-2.8,0-4.2-1.6-4.2-4.7v-9.6h-2.8v-2.2h2.8v-3.9l2.6-0.8v4.8h4.1v2.2
			h-4.1v9.1c0,1.1,0.2,1.9,0.6,2.3c0.4,0.5,1,0.7,1.8,0.7c0.7,0,1.2-0.2,1.7-0.5V72.6z"/>
		<path fill="#1A1A1A" d="M81.6,72.7H79v-9.3c0-3.4-1.3-5-3.8-5c-1.3,0-2.3,0.5-3.2,1.5s-1.3,2.2-1.3,3.7v9.1h-2.6V48.8h2.6v10.4
			h0.1c1.2-2,3-3.1,5.3-3.1c3.6,0,5.5,2.2,5.5,6.6V72.7z"/>
		<path fill="#1A1A1A" d="M85.7,71.8v-3.1c0.4,0.3,0.8,0.6,1.3,0.9s1,0.5,1.6,0.6c0.6,0.2,1.1,0.3,1.7,0.4c0.6,0.1,1.1,0.1,1.5,0.1
			c1.6,0,2.8-0.3,3.6-0.9c0.8-0.6,1.2-1.5,1.2-2.6c0-0.6-0.1-1.1-0.4-1.6c-0.3-0.5-0.6-0.9-1.1-1.2s-1-0.7-1.7-1.1s-1.3-0.7-2.1-1.1
			c-0.8-0.4-1.5-0.8-2.2-1.2c-0.7-0.4-1.3-0.9-1.8-1.4c-0.5-0.5-0.9-1.1-1.2-1.7s-0.4-1.4-0.4-2.2c0-1,0.2-1.9,0.7-2.7
			s1-1.4,1.8-1.9c0.7-0.5,1.6-0.9,2.5-1.1c0.9-0.2,1.9-0.4,2.9-0.4c2.2,0,3.9,0.3,4.9,0.8v3c-1.3-0.9-3-1.4-5.1-1.4
			c-0.6,0-1.2,0.1-1.7,0.2c-0.6,0.1-1.1,0.3-1.5,0.6S89.2,53.6,89,54c-0.3,0.4-0.4,1-0.4,1.6c0,0.6,0.1,1.1,0.3,1.5
			c0.2,0.4,0.5,0.8,1,1.2c0.4,0.3,0.9,0.7,1.5,1c0.6,0.3,1.3,0.7,2.1,1.1c0.8,0.4,1.6,0.8,2.3,1.3c0.7,0.4,1.4,0.9,1.9,1.5
			s1,1.1,1.3,1.8c0.3,0.7,0.5,1.4,0.5,2.2c0,1.1-0.2,2.1-0.7,2.8c-0.4,0.8-1,1.4-1.8,1.9c-0.7,0.5-1.6,0.8-2.6,1
			c-1,0.2-2,0.3-3.1,0.3c-0.4,0-0.8,0-1.3-0.1c-0.5-0.1-1.1-0.1-1.6-0.3c-0.5-0.1-1.1-0.2-1.6-0.4C86.4,72.2,86,72,85.7,71.8z"/>
		<path fill="#1A1A1A" d="M106.2,70.4L106.2,70.4l-0.1,9.8h-2.6V56.6h2.6v2.8h0.1c1.3-2.1,3.1-3.2,5.6-3.2c2.1,0,3.7,0.7,4.9,2.2
			c1.2,1.4,1.7,3.4,1.7,5.8c0,2.7-0.7,4.9-2,6.5c-1.3,1.6-3.1,2.4-5.4,2.4C109,73.1,107.4,72.2,106.2,70.4z M106.2,63.9v2.3
			c0,1.3,0.4,2.5,1.3,3.4c0.9,0.9,2,1.4,3.3,1.4c1.6,0,2.8-0.6,3.7-1.8c0.9-1.2,1.3-2.9,1.3-5c0-1.8-0.4-3.2-1.2-4.2s-2-1.5-3.4-1.5
			c-1.5,0-2.7,0.5-3.6,1.6C106.6,61,106.2,62.3,106.2,63.9z"/>
		<path fill="#1A1A1A" d="M133.7,72.7h-2.6v-2.5h-0.1c-1.1,1.9-2.8,2.9-5,2.9c-1.6,0-2.9-0.4-3.8-1.3c-0.9-0.9-1.4-2-1.4-3.4
			c0-3,1.8-4.8,5.3-5.3l4.8-0.7c0-2.7-1.1-4.1-3.3-4.1c-1.9,0-3.7,0.7-5.3,2v-2.6c1.6-1,3.4-1.5,5.5-1.5c3.8,0,5.7,2,5.7,6V72.7z
			 M131.1,64.6l-3.9,0.5c-1.2,0.2-2.1,0.5-2.7,0.9c-0.6,0.4-0.9,1.2-0.9,2.3c0,0.8,0.3,1.4,0.8,1.9c0.6,0.5,1.3,0.7,2.2,0.7
			c1.3,0,2.3-0.4,3.2-1.3c0.8-0.9,1.3-2,1.3-3.4V64.6z"/>
		<path fill="#1A1A1A" d="M147,59.2c-0.5-0.3-1.1-0.5-2-0.5c-1.1,0-2,0.5-2.8,1.6c-0.7,1-1.1,2.5-1.1,4.3v8.2h-2.6V56.6h2.6v3.3h0.1
			c0.4-1.1,0.9-2,1.7-2.7c0.8-0.6,1.6-1,2.5-1c0.7,0,1.2,0.1,1.5,0.2V59.2z"/>
		<path fill="#1A1A1A" d="M163.2,72.7h-3.6l-7.1-7.8h-0.1v7.8h-2.6V48.8h2.6V64h0.1l6.8-7.4h3.4l-7.5,7.8L163.2,72.7z"/>
	</g>
</g>
</svg>
