<?xml version="1.0" encoding="utf-8"?>
<!-- Generator: Adobe Illustrator 18.0.0, SVG Export Plug-In . SVG Version: 6.00 Build 0)  -->
<!DOCTYPE svg PUBLIC "-//W3C//DTD SVG 1.1//EN" "http://www.w3.org/Graphics/SVG/1.1/DTD/svg11.dtd">
<svg version="1.1" id="Layer_1" xmlns="http://www.w3.org/2000/svg" xmlns:xlink="http://www.w3.org/1999/xlink" x="0px" y="0px"
	 viewBox="0 0 330.7 62.7" enable-background="new 0 0 330.7 62.7" xml:space="preserve">
<g>
	<g>
		<g>
			<path fill="#00B4CC" d="M10.2,3.9V6h2.4v0.6h-2.4v4.3c0,1,0.2,1.6,1.3,1.6c0.3,0,0.7-0.1,1.1-0.3l0.2,0.6
				c-0.4,0.2-0.9,0.4-1.3,0.4c-1.5,0-2-0.9-2-2.3V6.6H8V6h1.5V3.9L10.2,3.9z"/>
			<path fill="#00B4CC" d="M15,3v4.3c0.6-1,1.6-1.4,2.6-1.4c2,0,3,1.3,3,3.1v4.1h-0.7V9c0-1.5-0.7-2.5-2.3-2.5C16,6.6,15,7.7,15,9.2
				v3.9h-0.7V3H15z"/>
			<path fill="#00B4CC" d="M23.3,3.7c0,0.7-1.1,0.7-1.1,0C22.1,2.9,23.3,2.9,23.3,3.7z M22.3,6v7.1H23V6H22.3z"/>
			<path fill="#00B4CC" d="M25.7,6v1.3c0.5-1,1.5-1.4,2.5-1.4c1.9,0,3.2,1.2,3.2,3.1v4.1h-0.7V9c0-1.6-1-2.5-2.5-2.5
				c-1.5,0-2.5,1.1-2.5,2.6v3.9H25V6H25.7z"/>
			<path fill="#00B4CC" d="M34,3v6.1L37.3,6h0.9v0l-3.6,3.3l4,3.7v0h-0.9L34,9.6v3.5h-0.7V3H34z"/>
		</g>
		<g>
			<path fill="#00B4CC" d="M144.2,12.1c-0.7,0.7-1.7,1.1-2.6,1.1c-2,0-3.6-1.4-3.6-3.6c0-2.2,1.6-3.6,3.6-3.6c0.9,0,1.9,0.4,2.6,1.1
				l-0.5,0.4c-0.6-0.6-1.4-0.8-2.1-0.8c-1.6,0-3,1-3,3c0,1.9,1.3,3,3,3c0.8,0,1.5-0.3,2.1-0.9L144.2,12.1z"/>
			<path fill="#00B4CC" d="M146.3,6l0,1.3c0.4-1,1.5-1.3,2.4-1.3c0.5,0,1,0.1,1.5,0.4l-0.3,0.6c-0.4-0.2-0.8-0.3-1.2-0.3
				c-1.3,0-2.3,1.1-2.3,2.4v4.1h-0.7V6H146.3z"/>
			<path fill="#00B4CC" d="M150.8,9.6c0-2.1,1.6-3.7,3.6-3.7c2,0,3.8,1.2,3.5,4h-6.4c0.1,1.7,1.4,2.6,2.9,2.6c0.9,0,2-0.4,2.6-1.1
				l0.5,0.4c-0.7,0.9-1.9,1.4-3.1,1.4C152.4,13.2,150.8,11.8,150.8,9.6z M157.3,9.3c0-1.8-1.2-2.7-2.9-2.7c-1.5,0-2.7,1-2.9,2.7
				H157.3z"/>
			<path fill="#00B4CC" d="M166.6,6c0,2.4,0,4.7,0,7.1h-0.7v-1.5c-0.7,1.1-1.8,1.6-2.9,1.6c-2,0-3.6-1.5-3.6-3.7s1.6-3.6,3.6-3.6
				c1.1,0,2.3,0.5,2.9,1.6V6H166.6z M160.1,9.6c0,1.8,1.3,3,2.9,3c3.9,0,3.9-5.9,0-5.9C161.4,6.6,160.1,7.8,160.1,9.6z"/>
			<path fill="#00B4CC" d="M169.8,3.9V6h2.4v0.6h-2.4v4.3c0,1,0.2,1.6,1.3,1.6c0.3,0,0.7-0.1,1.1-0.3l0.2,0.6
				c-0.4,0.2-0.9,0.4-1.3,0.4c-1.5,0-2-0.9-2-2.3V6.6h-1.5V6h1.5V3.9L169.8,3.9z"/>
			<path fill="#00B4CC" d="M173.5,9.6c0-2.1,1.6-3.7,3.6-3.7c2,0,3.8,1.2,3.5,4h-6.4c0.1,1.7,1.4,2.6,2.9,2.6c0.9,0,2-0.4,2.6-1.1
				l0.5,0.4c-0.7,0.9-1.9,1.4-3.1,1.4C175.1,13.2,173.5,11.8,173.5,9.6z M179.9,9.3c0-1.8-1.2-2.7-2.9-2.7c-1.5,0-2.7,1-2.9,2.7
				H179.9z"/>
		</g>
		<g>
			<path fill="#00B4CC" d="M274.5,6c0,2.4,0,4.7,0,7.1h-0.7v-1.5c-0.7,1.1-1.8,1.6-2.9,1.6c-2,0-3.6-1.5-3.6-3.7s1.6-3.6,3.6-3.6
				c1.1,0,2.3,0.5,2.9,1.6V6H274.5z M268,9.6c0,1.8,1.3,3,2.9,3c3.9,0,3.9-5.9,0-5.9C269.3,6.6,268,7.8,268,9.6z"/>
			<path fill="#00B4CC" d="M283.2,3v10.1h-0.7v-1.6c-0.6,1.1-1.8,1.7-3,1.7c-2,0-3.5-1.3-3.5-3.7c0-2.3,1.6-3.7,3.6-3.7
				c1.2,0,2.4,0.5,2.9,1.7V3H283.2z M276.7,9.6c0,2,1.3,3,2.9,3c1.7,0,2.9-1.2,2.9-3c0-1.8-1.3-3-2.9-3C278,6.6,276.7,7.6,276.7,9.6
				z"/>
			<path fill="#00B4CC" d="M284.6,6h0.8l2.6,6.3l2.6-6.3h0.8l-3,7.1h-0.8L284.6,6z"/>
			<path fill="#00B4CC" d="M299.3,6c0,2.4,0,4.7,0,7.1h-0.7v-1.5c-0.7,1.1-1.8,1.6-2.9,1.6c-2,0-3.6-1.5-3.6-3.7s1.6-3.6,3.6-3.6
				c1.1,0,2.3,0.5,2.9,1.6V6H299.3z M292.8,9.6c0,1.8,1.3,3,2.9,3c3.9,0,3.9-5.9,0-5.9C294.1,6.6,292.8,7.8,292.8,9.6z"/>
			<path fill="#00B4CC" d="M301.9,6v1.3c0.5-1,1.5-1.4,2.5-1.4c1.9,0,3.2,1.2,3.2,3.1v4.1h-0.7V9c0-1.6-1-2.5-2.5-2.5
				c-1.5,0-2.5,1.1-2.5,2.6v3.9h-0.7V6H301.9z"/>
			<path fill="#00B4CC" d="M315.3,12.1c-0.7,0.7-1.7,1.1-2.6,1.1c-2,0-3.6-1.4-3.6-3.6c0-2.2,1.6-3.6,3.6-3.6c0.9,0,1.9,0.4,2.6,1.1
				l-0.5,0.4c-0.6-0.6-1.4-0.8-2.1-0.8c-1.6,0-3,1-3,3c0,1.9,1.3,3,3,3c0.8,0,1.5-0.3,2.1-0.9L315.3,12.1z"/>
			<path fill="#00B4CC" d="M316.6,9.6c0-2.1,1.6-3.7,3.6-3.7c2,0,3.8,1.2,3.5,4h-6.4c0.1,1.7,1.4,2.6,2.9,2.6c0.9,0,2-0.4,2.6-1.1
				l0.5,0.4c-0.7,0.9-1.9,1.4-3.1,1.4C318.2,13.2,316.6,11.8,316.6,9.6z M323.1,9.3c0-1.8-1.2-2.7-2.9-2.7c-1.5,0-2.7,1-2.9,2.7
				H323.1z"/>
		</g>
		<path fill="#00B4CC" d="M35.5,61.3h-1c0-7-5.3-12.9-11.8-12.9s-11.8,5.9-11.8,12.9h-1c0-8,5.7-13.9,12.8-13.9S35.5,53.3,35.5,61.3
			z"/>
		<path fill="#00B4CC" d="M22.7,46.3c-5.7,0-10.4-4.7-10.4-10.4S17,25.5,22.7,25.5c1.8,0,3.5,0.5,5,1.3l-0.5,0.9
			c-1.4-0.8-3-1.2-4.6-1.2c-5.2,0-9.4,4.2-9.4,9.4s4.2,9.4,9.4,9.4s9.4-4.2,9.4-9.4c0-1.1-0.2-2.1-0.5-3.1c-0.2-0.5-0.4-1-0.7-1.5
			l0.9-0.5c0.3,0.5,0.6,1.1,0.8,1.7c0.4,1.1,0.6,2.3,0.6,3.5C33.1,41.7,28.4,46.3,22.7,46.3z"/>
		<path fill="#00B4CC" d="M30,34.8l-0.5-1.1c-0.4-1-1.2-2.7-1.7-3.1c-0.4-0.4-2.1-1.2-3.1-1.7l-1.1-0.5l1.1-0.5
			c1-0.4,2.7-1.2,3.1-1.7c0.4-0.4,1.2-2.1,1.7-3.1l0.5-1.1l0.5,1.1c0.4,1,1.2,2.7,1.7,3.1c0.4,0.4,2.1,1.2,3.1,1.7l1.1,0.5L35.2,29
			c-1,0.4-2.7,1.2-3.1,1.7c-0.4,0.4-1.2,2.1-1.7,3.1L30,34.8z M26.2,28.5c0.8,0.4,1.9,1,2.4,1.4c0.4,0.4,1,1.5,1.4,2.4
			c0.4-0.8,1-1.9,1.4-2.4c0.4-0.4,1.5-1,2.4-1.4c-0.8-0.4-1.9-1-2.4-1.4c-0.4-0.4-1-1.5-1.4-2.4c-0.4,0.8-1,1.9-1.4,2.4
			C28.2,27.5,27.1,28.1,26.2,28.5z"/>
		<path fill="#00B4CC" d="M170.1,37.7l-0.5-1.1c-0.4-0.9-1.5-3.2-2.1-3.8c-0.6-0.6-2.9-1.7-3.8-2.1l-1.1-0.5l1.1-0.5
			c0.9-0.4,3.2-1.5,3.8-2.1s1.7-2.9,2.1-3.8l0.5-1.1l0.5,1.1c0.4,0.9,1.5,3.2,2.1,3.8c0.6,0.6,2.9,1.7,3.8,2.1l1.1,0.5l-1.1,0.5
			c-0.9,0.4-3.2,1.5-3.8,2.1c-0.6,0.6-1.7,2.9-2.1,3.8L170.1,37.7z M165.2,30.3c1,0.5,2.5,1.2,3.1,1.8c0.6,0.6,1.3,2.1,1.8,3.1
			c0.5-1,1.2-2.5,1.8-3.1c0.6-0.6,2.1-1.3,3.1-1.8c-1-0.5-2.5-1.2-3.1-1.8s-1.3-2.1-1.8-3.1c-0.5,1-1.2,2.5-1.8,3.1
			S166.3,29.8,165.2,30.3z"/>
		<path fill="#00B4CC" d="M299.6,41.3l-0.5-1.1c-0.4-1-1.7-3.7-2.4-4.4c-0.7-0.7-3.4-2-4.4-2.4l-1.1-0.5l1.1-0.5
			c1-0.4,3.7-1.7,4.4-2.4c0.7-0.7,2-3.4,2.4-4.4l0.5-1.1l0.5,1.1c0.4,1,1.7,3.7,2.4,4.4c0.7,0.7,3.4,2,4.4,2.4l1.1,0.5l-1.1,0.5
			c-1,0.4-3.7,1.7-4.4,2.4c-0.7,0.7-2,3.4-2.4,4.4L299.6,41.3z M293.8,32.9c1.2,0.6,3,1.5,3.7,2.2c0.7,0.7,1.6,2.5,2.2,3.7
			c0.6-1.2,1.5-3,2.2-3.7c0.7-0.7,2.5-1.6,3.7-2.2c-1.2-0.6-3-1.5-3.7-2.2c-0.7-0.7-1.6-2.5-2.2-3.7c-0.6,1.2-1.5,3.1-2.2,3.7
			C296.8,31.4,295,32.4,293.8,32.9z"/>
		<g>
			<path fill="#00B4CC" d="M160,60.9h-1.9c-1.3,0-2.4-1.1-2.4-2.4V55c-0.8-0.2-1.7-0.4-2.5-0.8l-2.6,2.6c-0.9,0.9-2.5,0.9-3.3,0
				l-1.3-1.3c-0.4-0.4-0.7-1-0.7-1.7c0-0.6,0.2-1.2,0.7-1.7l2.2-2.2c-0.5-0.8-0.9-1.6-1.2-2.5h-3.4c-1.3,0-2.4-1.1-2.4-2.4v-1.9
				c0-1.3,1.1-2.4,2.4-2.4h3.1c0.2-0.9,0.6-1.8,1-2.6l-2.4-2.4c-0.4-0.4-0.7-1-0.7-1.7c0-0.6,0.2-1.2,0.7-1.7l1.3-1.3
				c0.4-0.4,1-0.7,1.7-0.7c0,0,0,0,0,0c0.6,0,1.2,0.2,1.7,0.7l2.4,2.4c0.8-0.4,1.6-0.8,2.4-1v-3.7c0-1.3,1.1-2.4,2.4-2.4h1.9
				c1.3,0,2.4,1.1,2.4,2.4v3.7c0.8,0.2,1.5,0.5,2.2,0.9l2.5-2.5l0.7,0.7l-3,3l-0.3-0.2c-0.8-0.5-1.7-0.8-2.6-1.1l-0.4-0.1v-4.5
				c0-0.8-0.6-1.4-1.4-1.4h-1.9c-0.8,0-1.4,0.6-1.4,1.4v4.5l-0.4,0.1c-1,0.3-2,0.7-2.9,1.2l-0.3,0.2l-2.9-2.9
				c-0.3-0.3-0.6-0.4-1-0.4c0,0,0,0,0,0c-0.4,0-0.7,0.1-1,0.4l-1.3,1.3c-0.3,0.3-0.4,0.6-0.4,1s0.1,0.7,0.4,1l3,3l-0.2,0.3
				c-0.6,1-1,2-1.2,3.1l-0.1,0.4h-3.9c-0.8,0-1.4,0.6-1.4,1.4V45c0,0.7,0.6,1.4,1.4,1.4h4.1l0.1,0.4c0.3,1,0.8,2,1.4,3l0.2,0.3
				l-2.8,2.8c-0.3,0.3-0.4,0.6-0.4,1c0,0.4,0.1,0.7,0.4,1l1.3,1.3c0.5,0.5,1.4,0.5,1.9,0l3.1-3.1l0.3,0.2c0.9,0.5,1.9,0.8,2.9,0.9
				l0.4,0.1v4.3c0,0.8,0.6,1.4,1.4,1.4h1.9c0.8,0,1.4-0.6,1.4-1.4v-4.7l0.3-0.1c0.9-0.3,1.8-0.8,2.5-1.3l0.3-0.2l3.3,3.3
				c0.5,0.5,1.4,0.5,1.9,0l1.3-1.3c0.3-0.3,0.4-0.6,0.4-1c0-0.4-0.1-0.7-0.4-1l-3.5-3.5l0.2-0.3c0.4-0.8,0.7-1.6,0.9-2.5l0.1-0.4
				h4.8c0.8,0,1.4-0.6,1.4-1.4v-1.9c0-0.8-0.6-1.4-1.4-1.4h-5l-0.1-0.4c-0.3-0.8-0.6-1.6-1.1-2.4l-0.2-0.3l2.5-2.6l0.7,0.7l-2,2
				c0.4,0.6,0.7,1.3,0.9,1.9h4.3c1.3,0,2.4,1.1,2.4,2.4v1.9c0,1.3-1.1,2.4-2.4,2.4h-4c-0.2,0.7-0.4,1.4-0.7,2l3,3
				c0.4,0.4,0.7,1,0.7,1.7c0,0.6-0.2,1.2-0.7,1.7l-1.3,1.3c-0.9,0.9-2.4,0.9-3.3,0l-2.7-2.7c-0.6,0.4-1.3,0.8-2.1,1v4
				C162.4,59.8,161.3,60.9,160,60.9z M158.2,48.8c-2.8,0-5.2-2.3-5.2-5.2c0-2.8,2.3-5.1,5.2-5.1s5.2,2.3,5.2,5.1
				C163.3,46.5,161,48.8,158.2,48.8z M158.2,39.5c-2.3,0-4.2,1.9-4.2,4.1c0,2.3,1.9,4.2,4.2,4.2s4.2-1.9,4.2-4.2
				C162.3,41.3,160.4,39.5,158.2,39.5z"/>
		</g>
		<polygon fill="#00B4CC" points="281.3,57.1 281.3,24.6 294,32 293.6,32.9 282.3,26.3 282.3,55.4 307.4,40.9 301.1,37.2 
			301.5,36.4 309.5,40.9 		"/>
		<polygon fill="#00B4CC" points="293.3,59.3 293.3,49.3 294.3,49.3 294.3,57.6 308.7,48.8 302.1,44.9 302.5,44.1 310.6,48.8 		"/>
	</g>
	<path fill="#00B4CC" d="M56.7,47.1c-1.5,0-2.8-1.3-2.8-2.8s1.3-2.8,2.8-2.8s2.8,1.3,2.8,2.8S58.3,47.1,56.7,47.1z M56.7,42.5
		c-1,0-1.8,0.8-1.8,1.8s0.8,1.8,1.8,1.8c1,0,1.8-0.8,1.8-1.8S57.7,42.5,56.7,42.5z"/>
	<path fill="#00B4CC" d="M90.3,47.1c-1.5,0-2.8-1.3-2.8-2.8s1.3-2.8,2.8-2.8s2.8,1.3,2.8,2.8S91.9,47.1,90.3,47.1z M90.3,42.5
		c-1,0-1.8,0.8-1.8,1.8s0.8,1.8,1.8,1.8s1.8-0.8,1.8-1.8S91.3,42.5,90.3,42.5z"/>
	<path fill="#00B4CC" d="M124,47.1c-1.5,0-2.8-1.3-2.8-2.8s1.3-2.8,2.8-2.8s2.8,1.3,2.8,2.8S125.5,47.1,124,47.1z M124,42.5
		c-1,0-1.8,0.8-1.8,1.8s0.8,1.8,1.8,1.8c1,0,1.8-0.8,1.8-1.8S125,42.5,124,42.5z"/>
	<path fill="#00B4CC" d="M197.5,47.1c-1.5,0-2.8-1.3-2.8-2.8s1.3-2.8,2.8-2.8s2.8,1.3,2.8,2.8S199.1,47.1,197.5,47.1z M197.5,42.5
		c-1,0-1.8,0.8-1.8,1.8s0.8,1.8,1.8,1.8s1.8-0.8,1.8-1.8S198.5,42.5,197.5,42.5z"/>
	<path fill="#00B4CC" d="M231.1,47.1c-1.5,0-2.8-1.3-2.8-2.8s1.3-2.8,2.8-2.8s2.8,1.3,2.8,2.8S232.7,47.1,231.1,47.1z M231.1,42.5
		c-1,0-1.8,0.8-1.8,1.8s0.8,1.8,1.8,1.8c1,0,1.8-0.8,1.8-1.8S232.1,42.5,231.1,42.5z"/>
	<path fill="#00B4CC" d="M264.8,47.1c-1.5,0-2.8-1.3-2.8-2.8s1.3-2.8,2.8-2.8s2.8,1.3,2.8,2.8S266.3,47.1,264.8,47.1z M264.8,42.5
		c-1,0-1.8,0.8-1.8,1.8s0.8,1.8,1.8,1.8s1.8-0.8,1.8-1.8S265.7,42.5,264.8,42.5z"/>
</g>
</svg>
