<?xml version="1.0" encoding="utf-8"?>
<!-- Generator: Adobe Illustrator 18.0.0, SVG Export Plug-In . SVG Version: 6.00 Build 0)  -->
<!DOCTYPE svg PUBLIC "-//W3C//DTD SVG 1.1//EN" "http://www.w3.org/Graphics/SVG/1.1/DTD/svg11.dtd">
<svg version="1.1" id="Layer_1" xmlns="http://www.w3.org/2000/svg" xmlns:xlink="http://www.w3.org/1999/xlink" x="0px" y="0px"
	 viewBox="0 0 118.4 106.8" enable-background="new 0 0 118.4 106.8" xml:space="preserve">
<g>
	<g>
		<path fill="#FFFFFF" d="M38.3,6.3c0,1.3-2,1.3-2,0S38.3,5,38.3,6.3z M36.7,10.3v12.4h1.2V10.3H36.7z"/>
		<path fill="#FFFFFF" d="M53.3,5.2v17.5h-1.2V20c-1,1.9-3,2.9-5.1,2.9c-3.4,0-6.2-2.3-6.2-6.4c0-4.1,2.8-6.4,6.2-6.4
			c2.1,0,4.1,0.9,5.1,2.9V5.2H53.3z M41.9,16.5c0,3.4,2.3,5.2,5,5.2c2.9,0,5-2.1,5-5.2s-2.2-5.2-5-5.2C44.2,11.3,41.9,13,41.9,16.5z
			"/>
		<path fill="#FFFFFF" d="M56.4,16.5c0-3.7,2.8-6.4,6.3-6.4c3.5,0,6.6,2.1,6.1,6.9H57.6c0.3,2.9,2.5,4.6,5,4.6
			c1.6,0,3.5-0.7,4.4-1.9l0.9,0.7c-1.2,1.6-3.3,2.4-5.3,2.4C59.2,22.9,56.4,20.4,56.4,16.5z M67.6,16c0-3-2-4.7-5-4.7
			c-2.5,0-4.7,1.7-5,4.7H67.6z"/>
		<path fill="#FFFFFF" d="M83.8,10.3c0,4.1,0,8.2,0,12.3h-1.2v-2.6c-1.2,1.9-3,2.8-5,2.8c-3.4,0-6.3-2.6-6.3-6.4
			c0-3.8,2.8-6.3,6.3-6.3c2,0,4,0.9,5,2.8v-2.7H83.8z M72.5,16.5c0,3.1,2.3,5.2,5,5.2c6.9,0,6.9-10.3,0-10.3
			C74.7,11.4,72.5,13.4,72.5,16.5z"/>
	</g>
	<g>
		<path fill="none" stroke="#FFFFFF" stroke-miterlimit="10" d="M77.5,106.7c0-12.8-9.6-23.3-21.4-23.3s-21.4,10.4-21.4,23.3"/>
		<path fill="none" stroke="#FFFFFF" stroke-miterlimit="10" d="M71,53.9c0.5,0.9,0.9,1.8,1.3,2.8c0.6,1.8,1,3.7,1,5.7
			c0,9.5-7.7,17.2-17.2,17.2s-17.2-7.7-17.2-17.2s7.7-17.2,17.2-17.2c3,0,5.9,0.8,8.4,2.2"/>
		<path fill="none" stroke="#FFFFFF" stroke-miterlimit="10" d="M68.9,40.8c0,0,1.9,4.5,3.1,5.6c1.1,1.1,5.6,3.1,5.6,3.1
			s-4.5,1.9-5.6,3.1c-1.1,1.1-3.1,5.6-3.1,5.6s-1.9-4.5-3.1-5.6c-1.1-1.1-5.6-3.1-5.6-3.1s4.5-1.9,5.6-3.1
			C66.9,45.3,68.9,40.8,68.9,40.8z"/>
	</g>
</g>
</svg>
