<?xml version="1.0" encoding="utf-8"?>
<!-- Generator: Adobe Illustrator 18.0.0, SVG Export Plug-In . SVG Version: 6.00 Build 0)  -->
<!DOCTYPE svg PUBLIC "-//W3C//DTD SVG 1.1//EN" "http://www.w3.org/Graphics/SVG/1.1/DTD/svg11.dtd">
<svg version="1.1" id="Layer_1" xmlns="http://www.w3.org/2000/svg" xmlns:xlink="http://www.w3.org/1999/xlink" x="0px" y="0px"
	 viewBox="0 0 118.4 106.8" enable-background="new 0 0 118.4 106.8" xml:space="preserve">
<g>
	<g>
		<path fill="#FFFFFF" d="M19.2,20.7v-7.4c0-2.4-1.6-4-3.9-4s-4,1.8-4,4.1v7.3h-1.2v-7.3c0-2.4-1.6-4.1-4-4.1
			c-2.3,0-3.9,1.7-3.9,4.1v7.3H0.9V8.3h1.1l0,2c0.9-1.6,2.4-2.3,4-2.3c1.9,0,3.8,0.8,4.6,3c0.7-2,2.7-3,4.6-3c3,0,5.2,2.1,5.2,5.2
			v7.4H19.2z"/>
		<path fill="#FFFFFF" d="M23.2,14.5c0-3.7,2.8-6.4,6.3-6.4s6.6,2.1,6.1,6.9H24.4c0.3,2.9,2.5,4.6,5,4.6c1.6,0,3.5-0.7,4.4-1.9
			l0.9,0.7c-1.2,1.6-3.3,2.4-5.3,2.4C26,20.9,23.2,18.4,23.2,14.5z M34.4,14c0-3-2-4.7-5-4.7c-2.5,0-4.7,1.7-5,4.7H34.4z"/>
		<path fill="#FFFFFF" d="M39.9,8.3v2.2c0.9-1.7,2.7-2.4,4.4-2.4c3.3,0,5.6,2,5.6,5.4v7.1h-1.2v-7.1c0-2.8-1.7-4.3-4.4-4.3
			c-2.5,0-4.3,1.9-4.3,4.5v6.9h-1.2V8.3H39.9z"/>
		<path fill="#FFFFFF" d="M55.4,4.6v3.7h4.2v1h-4.2v7.5c0,1.7,0.3,2.8,2.3,2.8c0.6,0,1.3-0.2,1.9-0.5l0.4,1
			c-0.8,0.4-1.5,0.6-2.3,0.6c-2.6,0-3.5-1.5-3.5-4V9.4h-2.6v-1h2.6V4.7L55.4,4.6z"/>
		<path fill="#FFFFFF" d="M61.9,14.5c0-3.9,2.8-6.4,6.3-6.4s6.3,2.5,6.3,6.4s-2.8,6.3-6.3,6.3S61.9,18.5,61.9,14.5z M73.2,14.5
			c0-3.2-2.3-5.3-5.1-5.3s-5.1,2.1-5.1,5.3s2.3,5.1,5.1,5.1S73.2,17.7,73.2,14.5z"/>
		<path fill="#FFFFFF" d="M78.4,8.3l0,2.2c0.8-1.7,2.5-2.3,4.1-2.3c0.9,0,1.8,0.2,2.6,0.7l-0.5,1c-0.6-0.4-1.4-0.6-2.1-0.6
			c-2.3,0-4.1,1.9-4.1,4.1v7.2h-1.2V8.3H78.4z"/>
		<path fill="#FFFFFF" d="M88.7,4.3c0,1.3-2,1.3-2,0S88.7,3,88.7,4.3z M87,8.3v12.4h1.2V8.3H87z"/>
		<path fill="#FFFFFF" d="M93,8.3v2.2c1-1.7,2.7-2.4,4.4-2.4c3.3,0,5.6,2,5.6,5.4v7.1h-1.2v-7.1c0-2.8-1.7-4.3-4.4-4.3
			c-2.5,0-4.3,1.9-4.3,4.5v6.9h-1.2V8.3H93z"/>
		<path fill="#FFFFFF" d="M116.1,7.8l0.8,0.7l-1.2,1.4c0.9,0.9,1.5,2.2,1.5,4.2c0,2.2-1.3,4.3-3.3,5.2c2.2,0.8,3.4,2.3,3.4,4.4
			c0,3.3-2.6,4.9-5.9,4.9s-5.8-1.8-5.8-4.9h1.2c0,2.5,2.1,3.7,4.6,3.7s4.7-1.1,4.7-3.7c0-2.6-2.4-3.7-4.7-3.7c-3.6,0-5.8-2.7-5.8-6
			c0-3.8,2.6-6,5.8-6c1.3,0,2.5,0.5,3.5,1.1L116.1,7.8z M106.8,14.1c0,2.5,1.8,4.7,4.6,4.7c2.5,0,4.6-2.2,4.6-4.7
			c0-3.1-2.1-4.8-4.6-4.8C108.8,9.3,106.8,10.9,106.8,14.1z"/>
	</g>
	<g>
		<path fill="none" stroke="#FFFFFF" stroke-miterlimit="10" d="M67.2,42.8c0,0,2.8,6.4,4.4,8c1.6,1.6,8,4.4,8,4.4s-6.4,2.8-8,4.4
			c-1.6,1.6-4.4,8-4.4,8s-2.8-6.4-4.4-8s-8-4.4-8-4.4s6.4-2.8,8-4.4C64.4,49.2,67.2,42.8,67.2,42.8z"/>
		<polyline fill="none" stroke="#FFFFFF" stroke-miterlimit="10" points="69.9,61.9 82.2,69 59.1,82.4 36,95.7 36,69 36,42.2 
			56.9,54.3 		"/>
		<polyline fill="none" stroke="#FFFFFF" stroke-miterlimit="10" points="71.4,75.2 84.2,82.8 70.1,91.2 56,99.6 56,84.1 		"/>
	</g>
</g>
</svg>
