<?xml version="1.0" encoding="utf-8"?>
<!-- Generator: Adobe Illustrator 18.0.0, SVG Export Plug-In . SVG Version: 6.00 Build 0)  -->
<!DOCTYPE svg PUBLIC "-//W3C//DTD SVG 1.1//EN" "http://www.w3.org/Graphics/SVG/1.1/DTD/svg11.dtd">
<svg version="1.1" id="Layer_1" xmlns="http://www.w3.org/2000/svg" xmlns:xlink="http://www.w3.org/1999/xlink" x="0px" y="0px"
	 viewBox="0 0 14.8 14" enable-background="new 0 0 14.8 14" xml:space="preserve">
<path fill="#FFFFFF" d="M14.2,11.7l-2.3-2.3c0.6-0.9,0.9-2,0.9-3.1c0-3.2-2.6-5.8-5.8-5.8S1.1,3,1.1,6.2s2.6,5.8,5.8,5.8
	c1.2,0,2.2-0.3,3.1-0.9l2.3,2.3c0.2,0.2,0.4,0.2,0.6,0l1.2-1.2C14.3,12.1,14.3,11.9,14.2,11.7z M7,10.4c-2.3,0-4.2-1.9-4.2-4.2
	S4.7,2.1,7,2.1c2.3,0,4.2,1.9,4.2,4.2S9.3,10.4,7,10.4z"/>
</svg>
