<?xml version="1.0" encoding="utf-8"?>
<!-- Generator: Adobe Illustrator 18.0.0, SVG Export Plug-In . SVG Version: 6.00 Build 0)  -->
<!DOCTYPE svg PUBLIC "-//W3C//DTD SVG 1.1//EN" "http://www.w3.org/Graphics/SVG/1.1/DTD/svg11.dtd">
<svg version="1.1" id="Layer_1" xmlns="http://www.w3.org/2000/svg" xmlns:xlink="http://www.w3.org/1999/xlink" x="0px" y="0px"
	 viewBox="0 0 118.4 106.8" enable-background="new 0 0 118.4 106.8" xml:space="preserve">
<g>
	<g>
		<path fill="#FFFFFF" d="M22.9,10.9c-1.3-1.1-2.5-1.3-3.8-1.3c-1.9,0-3.8,0.7-3.7,2.3c0,1.6,2.2,2,3.7,2.3c2.2,0.4,5.2,0.8,5.1,3.6
			c-0.1,2.7-2.9,3.4-5.1,3.4c-2.2,0-4.3-0.8-5.4-2.5l0.9-0.8c1,1.5,2.9,2.1,4.5,2.1c1.5,0,3.8-0.4,3.8-2.3c0.1-1.8-2-2.1-4-2.4
			c-2.4-0.4-4.8-0.8-4.8-3.3c0-2.4,2.4-3.5,4.9-3.4c1.8,0,3.4,0.5,4.6,1.6L22.9,10.9z"/>
		<path fill="#FFFFFF" d="M36.8,21v-2.2c-0.9,1.7-2.7,2.4-4.4,2.4c-3.3,0-5.6-2-5.6-5.4V8.6h1.2v7.1c0,2.8,1.7,4.3,4.4,4.3
			c2.5,0,4.3-1.9,4.3-4.5V8.6H38V21H36.8z"/>
		<path fill="#FFFFFF" d="M51.4,19.2c-1.2,1.3-2.9,1.8-4.5,1.8c-3.5,0-6.3-2.4-6.3-6.3c0-3.9,2.8-6.3,6.3-6.3c1.6,0,3.2,0.6,4.5,1.8
			l-0.8,0.8c-1-1-2.4-1.5-3.7-1.5c-2.8,0-5.1,1.8-5.1,5.1s2.3,5.1,5.1,5.1c1.3,0,2.7-0.5,3.7-1.5L51.4,19.2z"/>
		<path fill="#FFFFFF" d="M64,19.2c-1.2,1.3-2.9,1.8-4.5,1.8c-3.5,0-6.3-2.4-6.3-6.3c0-3.9,2.8-6.3,6.3-6.3c1.6,0,3.2,0.6,4.5,1.8
			l-0.8,0.8c-1-1-2.4-1.5-3.7-1.5c-2.8,0-5.1,1.8-5.1,5.1s2.3,5.1,5.1,5.1c1.3,0,2.7-0.5,3.7-1.5L64,19.2z"/>
		<path fill="#FFFFFF" d="M66.3,14.8c0-3.7,2.8-6.4,6.3-6.4s6.6,2.1,6.1,6.9H67.5c0.3,2.9,2.5,4.6,5,4.6c1.6,0,3.5-0.7,4.4-1.9
			l0.9,0.7c-1.2,1.6-3.3,2.4-5.3,2.4C69.1,21.1,66.3,18.7,66.3,14.8z M77.6,14.3c0-3-2-4.7-5-4.7c-2.5,0-4.7,1.7-5,4.7H77.6z"/>
		<path fill="#FFFFFF" d="M90.3,10.9c-1.2-1.1-2.5-1.3-3.8-1.3c-1.9,0-3.8,0.7-3.7,2.3c0,1.6,2.2,2,3.7,2.3c2.2,0.4,5.2,0.8,5.1,3.6
			c-0.1,2.7-2.9,3.4-5.1,3.4s-4.3-0.8-5.4-2.5l0.9-0.8c1,1.5,2.9,2.1,4.5,2.1c1.5,0,3.8-0.4,3.8-2.3c0-1.8-2-2.1-4-2.4
			c-2.4-0.4-4.8-0.8-4.8-3.3c0-2.4,2.4-3.5,4.9-3.4c1.8,0,3.4,0.5,4.6,1.6L90.3,10.9z"/>
		<path fill="#FFFFFF" d="M102.8,10.9c-1.3-1.1-2.5-1.3-3.8-1.3c-1.9,0-3.8,0.7-3.7,2.3c0,1.6,2.2,2,3.7,2.3
			c2.2,0.4,5.2,0.8,5.1,3.6c-0.1,2.7-2.9,3.4-5.1,3.4c-2.2,0-4.3-0.8-5.4-2.5l0.9-0.8c1,1.5,2.9,2.1,4.5,2.1c1.5,0,3.8-0.4,3.8-2.3
			c0.1-1.8-2-2.1-4-2.4c-2.4-0.4-4.8-0.8-4.8-3.3c0-2.4,2.4-3.5,4.9-3.4c1.8,0,3.4,0.5,4.6,1.6L102.8,10.9z"/>
	</g>
	<g>
		<path fill="none" stroke="#FFFFFF" stroke-miterlimit="10" d="M79.5,43.1c0,0,2.8,6.4,4.4,8c1.6,1.6,8,4.4,8,4.4s-6.4,2.8-8,4.4
			c-1.6,1.6-4.4,8-4.4,8s-2.8-6.4-4.4-8c-1.6-1.6-8-4.4-8-4.4s6.4-2.8,8-4.4C76.7,49.5,79.5,43.1,79.5,43.1z"/>
		<g>
			<path fill="none" stroke="#FFFFFF" stroke-miterlimit="10" d="M72.5,91.8H37.8c-0.4,0-0.7,0.3-0.7,0.7v5.2c0,0.4,0.3,0.7,0.7,0.7
				h34.6c0.4,0,0.7-0.3,0.7-0.7v-5.2C73.1,92.1,72.8,91.8,72.5,91.8z"/>
			<path fill="none" stroke="#FFFFFF" stroke-miterlimit="10" d="M69.9,57c0,0.1,0,0.3,0,0.4c0,1.7,0.8,3.1,2.1,4l-8.6,17.2l-5.7-17
				c1.4-0.9,2.4-2.4,2.4-4.2c0-2.7-2.2-4.9-4.9-4.9c-2.7,0-4.9,2.2-4.9,4.9c0,1.8,1,3.3,2.4,4.2l-5.7,17l-8.6-17.2
				c1.3-0.9,2.1-2.3,2.1-4c0-2.7-2.2-4.9-4.9-4.9c-2.7,0-4.9,2.2-4.9,4.9c0,2.3,1.5,4.1,3.6,4.7l2.9,26.3h36l3.1-27.1
				c0-0.1,0.2,0.7,0.4,0.6"/>
		</g>
	</g>
</g>
</svg>
